# Created by Metasequoia

mtllib Model.mtl

v 0.074707 6.167932 6.719973
v 0.000000 6.189680 6.973874
v 0.000000 6.141857 6.846723
v -0.074707 6.167932 6.719973
v 0.459473 6.521754 6.411659
v 0.219238 5.931753 6.609795
v 0.000000 5.947677 6.801276
v -0.219238 5.931753 6.609795
v 0.000000 5.934114 6.784319
v 0.000000 5.635598 6.727811
v -0.239258 5.644845 5.982883
v -0.599121 6.016457 6.129456
v 0.000000 6.624287 6.836765
v 0.239258 5.644845 5.982883
v 0.599121 6.016457 6.129456
v 0.678711 6.959867 6.150410
v 0.000000 7.528312 6.359423
v -0.678711 6.959867 6.150410
v -0.459473 6.521754 6.411659
v 0.840820 6.396600 2.986682
v 1.526367 6.435994 2.648875
v 1.378418 6.935559 3.557310
v 1.549316 5.328647 2.160479
v 0.670898 5.483536 2.602926
v 2.175322 6.537029 3.448796
v 1.069824 6.397893 4.285545
v 1.079590 5.070477 4.689231
v 2.509052 4.354801 4.434318
v 2.807822 5.111789 3.311192
v 2.439150 4.654645 2.121254
v 3.085573 3.693687 3.217052
v -1.526367 6.435994 2.648875
v -0.840820 6.396600 2.986682
v -1.378418 6.935559 3.557310
v -1.549316 5.328647 2.160479
v -1.069824 6.397893 4.285545
v -2.175322 6.537029 3.448796
v -1.079590 5.070477 4.689231
v -2.509052 4.354801 4.434318
v -2.807822 5.111789 3.311192
v -3.085573 3.693687 3.217052
v -2.439150 4.654645 2.121254
v -0.670898 5.483536 2.602926
v 1.825478 2.251598 2.655717
v 1.323361 1.272537 3.327162
v 1.937307 1.185234 2.968822
v 1.248747 2.285764 3.201910
v 1.617579 2.445514 3.965974
v 1.711480 1.364130 4.152807
v 2.226537 2.740681 3.845682
v 2.528459 1.277372 3.558865
v 2.518651 2.484210 3.293739
v 2.245362 2.533949 2.741790
v 2.436931 2.673374 2.947242
v 2.431202 2.784707 3.553221
v 2.376537 3.093586 3.646266
v 2.475008 3.338431 3.419883
v 2.395850 3.020274 2.813475
v 2.477248 3.211706 3.015054
v -1.323361 1.272537 3.327162
v -1.825478 2.251598 2.655717
v -1.937307 1.185234 2.968822
v -1.248747 2.285764 3.201910
v -1.617579 2.445514 3.965974
v -1.711480 1.364130 4.152807
v -2.226537 2.740681 3.845682
v -2.528459 1.277372 3.558865
v -2.376537 3.093586 3.646266
v -2.431202 2.784707 3.553221
v -2.475008 3.338431 3.419883
v -2.436931 2.673374 2.947242
v -2.395850 3.020274 2.813475
v -2.477248 3.211706 3.015054
v -2.245362 2.533949 2.741790
v -2.518651 2.484210 3.293739
v 2.011092 0.352123 5.143182
v 2.134350 0.101576 5.346982
v 2.044526 0.029961 5.749171
v 2.010859 0.424949 5.136116
v 1.904956 0.101263 5.355972
v 2.010037 0.353644 5.138048
v 1.326660 6.893196 4.363943
v 1.030762 7.255454 5.949273
v 1.128906 7.253953 4.356184
v 1.071777 6.893865 5.894200
v 1.679199 4.551710 1.888469
v 1.373047 6.112551 2.300308
v 1.351074 5.303891 0.759117
v 1.619629 5.519146 2.950752
v 1.369141 4.609307 2.931569
v 1.378418 6.040909 3.803354
v 0.759766 6.534736 4.554109
v 0.468750 6.978164 3.785249
v 0.661133 5.711178 4.758021
v 1.191895 5.874541 4.156674
v 1.016113 4.463005 3.952361
v 0.000000 4.115005 4.747435
v 0.000000 5.393880 4.987140
v -0.660644 5.711178 4.758021
v 0.443848 6.070369 5.458046
v 0.000000 5.721907 5.511647
v -0.443848 6.070369 5.458046
v 0.000000 7.947556 5.292347
v 0.000000 7.017504 4.403147
v 0.794922 7.007138 5.328779
v -0.794922 7.007138 5.328779
v 0.000000 6.777914 3.800862
v -0.468750 6.978164 3.785249
v 1.476074 5.974499 3.316158
v 0.000000 5.934114 6.784319
v -0.000000 5.958998 6.185380
v 0.219238 5.935541 6.572556
v -0.219238 5.935541 6.572556
v 0.000000 5.947677 6.801276
v 0.000000 6.702750 -1.020532
v 0.000000 7.024899 -2.407825
v 0.175293 6.795916 -2.510126
v -0.175293 6.795916 -2.510126
v 0.691894 5.775156 -3.186805
v 0.000000 6.795916 -2.510126
v 0.868164 6.541584 -2.098463
v 0.629394 7.045659 3.142003
v 0.000000 6.363829 0.611517
v -0.629394 7.045659 3.142003
v 1.201660 6.130583 -0.844746
v 0.367188 7.686335 6.812824
v 0.000000 7.610898 6.412114
v 0.371582 7.351686 6.532076
v 0.000000 7.788346 6.872163
v 0.000000 7.538690 7.376178
v -0.367188 7.686335 6.812824
v 0.548828 6.890232 6.351286
v 0.000000 7.245502 6.672771
v 0.000000 6.883924 6.764767
v -0.548828 6.890232 6.351286
v -2.011092 0.352123 5.143182
v -2.134350 0.101576 5.346982
v -2.010859 0.424949 5.136116
v -2.044526 0.029961 5.749171
v -1.904956 0.101263 5.355972
v -2.010037 0.353644 5.138048
v -1.030762 7.255454 5.949273
v -1.326660 6.893196 4.363943
v -1.128906 7.253953 4.356184
v -1.071777 6.893865 5.894200
v -1.373047 6.112551 2.300308
v -1.679199 4.551710 1.888469
v -1.351074 5.303891 0.759117
v -1.619629 5.519146 2.950752
v -1.476074 5.974499 3.316158
v -0.759766 6.534736 4.554109
v -1.378418 6.040909 3.803354
v -1.016113 4.463005 3.952361
v -1.191895 5.874057 4.156734
v -0.371582 7.351686 6.532076
v -1.201660 6.130583 -0.844746
v -0.868164 6.541584 -2.098463
v -0.691894 5.775156 -3.186805
v 0.000000 5.662397 -3.461078
v 1.635826 0.110559 -3.348571
v 1.356025 0.039649 -2.889199
v 1.497116 0.408088 -3.627655
v 1.233923 0.109712 -3.408126
v 2.304848 0.110103 -3.354962
v 2.154456 0.049907 -2.882386
v 2.083122 0.401695 -3.602313
v 1.918085 0.110609 -3.366657
v 2.849831 0.116087 -3.402349
v 2.773178 0.053451 -2.929296
v 2.579272 0.397377 -3.629700
v 2.456232 0.117023 -3.389138
v 3.366490 0.115260 -3.460495
v 3.377738 0.053117 -2.988423
v 3.078840 0.394547 -3.666852
v 1.073112 0.067754 4.836082
v 0.739362 0.011255 5.162451
v 1.045692 0.343009 4.631481
v 0.838985 0.067394 4.708738
v 1.736843 0.018130 5.723899
v 1.711072 0.433165 5.080490
v 1.838694 0.096597 5.337794
v 1.591776 0.096485 5.350163
v 2.448635 0.083981 5.280031
v 2.409025 0.013979 5.647325
v 2.299258 0.399937 5.100456
v 2.229808 0.084272 5.307360
v 2.760939 0.049816 5.129351
v 2.693353 0.002027 5.539740
v 2.560195 0.365322 4.973835
v 2.488043 0.067220 5.218010
v 0.985840 4.464684 -0.863188
v 1.283691 5.596956 -0.676092
v 2.996820 0.112703 -3.415063
v -1.355919 0.039649 -2.889199
v -1.635831 0.110559 -3.348571
v -1.497206 0.408088 -3.627655
v -1.233945 0.109712 -3.408126
v -2.154342 0.049907 -2.882386
v -2.304849 0.110103 -3.354962
v -2.083200 0.401695 -3.602313
v -1.918091 0.110609 -3.366657
v -2.773070 0.053451 -2.929296
v -2.849839 0.116087 -3.402349
v -2.579352 0.397377 -3.629700
v -2.456728 0.117023 -3.389138
v -3.377639 0.053117 -2.988423
v -3.366507 0.115260 -3.460495
v -3.078925 0.395036 -3.666850
v -0.739362 0.011255 5.162451
v -1.073112 0.067754 4.836082
v -1.045692 0.343009 4.631481
v -0.838985 0.067394 4.708738
v -1.711072 0.433165 5.080490
v -1.736843 0.018130 5.723899
v -1.838694 0.096597 5.337794
v -1.591776 0.096485 5.350163
v -2.409025 0.013979 5.647325
v -2.448635 0.083981 5.280031
v -2.299258 0.399937 5.100456
v -2.229808 0.084272 5.307360
v -2.693353 0.002027 5.539740
v -2.760939 0.049816 5.129351
v -2.560195 0.365322 4.973835
v -2.488043 0.067220 5.218010
v -1.369141 4.609307 2.931569
v -0.985840 4.464684 -0.863188
v -1.283691 5.596956 -0.676092
v -2.996830 0.112703 -3.415063
v 0.652954 6.475150 3.104207
v 3.296093 6.738388 -2.711060
v 0.693492 5.836586 1.068513
v 3.097167 10.857361 0.770126
v 8.418408 7.772789 -2.711060
v -0.652954 6.475150 3.104207
v -3.296093 6.738388 -2.711060
v -0.693492 5.836586 1.068513
v -3.097167 10.857361 0.770126
v -8.418408 7.772789 -2.711060
v 1.128906 7.253953 4.356184
v 0.688965 7.856866 6.060529
v 0.830078 7.999901 3.896025
v 1.030762 7.255454 5.949273
v 0.000000 8.422021 3.394185
v 0.000000 8.204578 6.056528
v 0.000000 7.245502 6.672771
v -0.688965 7.856866 6.060529
v 0.411133 5.479399 6.412417
v 0.813965 3.630451 5.214784
v 0.353516 3.204957 5.624422
v 1.102539 5.546579 5.722105
v 0.519043 5.997318 6.356648
v 1.319336 6.072784 5.906499
v 0.588867 6.485497 6.329535
v 0.548828 6.890232 6.351286
v 1.984375 6.158843 4.935318
v 2.068359 6.212286 4.144496
v 1.381348 5.584854 4.750895
v 1.326660 6.893196 4.363943
v 1.071777 6.893865 5.894200
v 0.000000 5.662397 -3.461078
v 0.000000 4.537928 -3.333324
v 0.691894 5.775156 -3.186805
v -0.691894 5.775156 -3.186805
v 1.201660 6.130583 -0.844746
v 1.907917 5.101513 -0.994931
v 1.283691 5.596956 -0.676092
v 1.642290 6.036694 -2.278410
v 0.868164 6.541584 -2.098463
v 2.273403 0.494092 3.707130
v 1.880411 0.989786 3.196178
v 1.887668 0.433573 3.324174
v 2.312449 1.055682 3.636292
v 1.477448 1.052502 3.372319
v 1.510480 0.491113 3.472031
v 1.750695 1.117509 4.103977
v 1.746879 0.550464 4.123587
v 1.323361 1.272537 3.327162
v 1.937307 1.185234 2.968822
v 1.711480 1.364130 4.152807
v 2.528459 1.277372 3.558865
v 1.342740 5.115980 -3.064025
v 2.218002 4.840606 -2.072341
v 0.736328 4.245601 -2.216723
v 0.000000 3.597338 -1.983096
v 0.747070 3.871015 -1.456303
v 0.000000 7.373207 6.828956
v 0.371582 7.351686 6.532076
v 0.000000 6.887787 6.753693
v 0.367188 7.686335 6.812824
v 0.000000 7.538690 7.376178
v -1.128906 7.253953 4.356184
v -0.830078 7.999901 3.896025
v -1.030762 7.255454 5.949273
v -1.102539 5.546579 5.722105
v -0.519043 5.997318 6.356648
v -0.411133 5.479399 6.412417
v -1.319336 6.072784 5.906499
v -1.984375 6.158843 4.935318
v -1.071777 6.893865 5.894200
v -1.326660 6.893196 4.363943
v -0.813965 3.630451 5.214784
v -0.353516 3.204957 5.624422
v -1.381348 5.584854 4.750895
v -2.068359 6.212286 4.144496
v -0.736328 4.245601 -2.216723
v -0.747070 3.871015 -1.456303
v -1.342982 5.115980 -3.064025
v -1.642399 6.036694 -2.278410
v -0.868164 6.541584 -2.098463
v -1.201660 6.130583 -0.844746
v -1.907664 5.101513 -0.994931
v -1.283691 5.596956 -0.676092
v -2.217986 4.840606 -2.072341
v -1.880411 0.989786 3.196178
v -2.273403 0.494092 3.707130
v -1.887668 0.433573 3.324174
v -2.312449 1.055682 3.636292
v -1.937307 1.185234 2.968822
v -2.528459 1.277372 3.558865
v -1.477448 1.052502 3.372319
v -1.510480 0.491113 3.472031
v -1.323361 1.272537 3.327162
v -1.750695 1.117509 4.103977
v -1.746879 0.550464 4.123587
v -1.711480 1.364130 4.152807
v -0.588867 6.485497 6.329535
v -0.548828 6.890232 6.351286
v -0.371582 7.351686 6.532076
v -0.367188 7.686335 6.812824
v -0.080566 5.692022 6.675876
v 0.080566 5.198571 7.078541
v -0.080566 5.198571 7.078541
v 0.080566 5.692022 6.675876
v -0.080078 5.232437 7.242299
v 0.080078 5.232437 7.242299
v -0.083008 5.008075 7.180151
v 0.083008 5.008075 7.180151
v -0.239258 5.644845 5.982883
v 0.239258 5.644845 5.982883
v 0.985840 4.464684 -0.863188
v -0.985840 4.464684 -0.863188
v 0.000000 2.734231 -8.861705
v 0.131348 3.462782 -7.587876
v 0.000000 3.584152 -7.676154
v -0.131348 3.462782 -7.587876
v 0.000000 5.721907 5.511647
v 0.000000 2.971351 -9.328048
v 0.000000 1.942729 -10.257510
v 0.433105 2.584991 -9.210478
v -0.433105 2.584991 -9.210478
v 0.000000 3.042344 -8.338525
v 0.000000 2.244980 -9.034280
v 1.745071 2.992861 -3.424148
v 2.436498 2.911865 -3.984780
v 2.429446 2.526521 -2.951698
v 1.734322 3.214932 -4.003010
v 1.199103 2.425147 -2.940212
v 1.250835 2.635084 -4.341723
v 2.465813 3.011366 -4.392602
v 1.726560 3.584226 -4.375128
v 2.387482 2.511925 -4.497908
v 2.057200 0.199119 -5.500984
v 2.774545 0.964256 -4.867735
v 1.831363 2.454434 -5.014568
v 1.875628 3.061953 -4.994159
v 2.097723 0.981963 -4.305571
v 1.874578 2.165439 -4.013050
v 1.284805 3.021816 -4.853534
v 1.406719 0.882958 -4.778972
v 1.497594 4.595157 -3.519497
v 0.659326 3.728912 -2.275262
v 1.342740 5.115980 -3.064025
v 0.736328 4.245601 -2.216723
v 1.622703 3.493548 -1.011717
v 1.781734 2.359388 -2.098797
v 0.985840 4.464684 -0.863188
v 1.907917 5.101513 -0.994931
v 1.283691 5.596956 -0.676092
v 2.452893 4.336645 -2.315549
v 2.218002 4.840606 -2.072341
v 1.797628 2.005317 -2.084523
v 1.965886 1.693882 -2.415807
v 1.795499 0.059757 -3.962060
v 1.358405 0.080081 -5.136442
v 2.243793 0.065581 -3.942051
v 2.304848 0.110103 -3.354962
v 1.635826 0.110559 -3.348571
v 1.233923 0.109712 -3.408126
v 2.685249 0.067575 -3.954770
v 2.869314 0.161828 -5.207143
v 3.366490 0.115260 -3.460495
v 2.245716 0.603886 -4.034009
v 2.682294 0.511167 -4.052820
v 2.579272 0.397377 -3.629700
v 1.819402 0.520828 -4.017583
v 2.849831 0.116087 -3.402349
v 2.456232 0.117023 -3.389138
v 2.996820 0.112703 -3.415063
v 3.078840 0.394547 -3.666852
v 1.452775 3.493303 3.128342
v 1.890838 2.851779 2.461489
v 1.955245 3.651848 2.609291
v 1.298942 2.746851 3.088001
v 1.681274 3.413345 3.598756
v 1.644806 2.802232 3.869221
v 2.309520 3.073296 3.624812
v 2.086977 3.474249 3.189326
v 2.360502 4.424107 3.360302
v 1.369141 4.609307 2.931569
v 1.016113 4.463005 3.952361
v 1.868001 4.675308 2.433052
v 1.672609 4.736268 4.262382
v 1.191895 5.874541 4.156674
v 2.084961 5.630591 3.750193
v 1.476074 5.974499 3.316158
v 1.378418 6.040909 3.803354
v 1.619629 5.519146 2.950752
v 1.661979 0.529233 3.698767
v 1.857312 0.553912 3.428243
v 1.899614 0.550172 3.970540
v 2.083390 0.543091 3.661328
v 1.451444 0.121661 4.373407
v 0.838985 0.067394 4.708738
v 1.073112 0.067754 4.836082
v 1.519547 0.032053 3.454369
v 2.074506 0.077480 3.362103
v 1.491818 0.428234 4.328143
v 1.045692 0.343009 4.631481
v 1.838694 0.096597 5.337794
v 1.591776 0.096485 5.350163
v 1.793289 0.061990 4.564404
v 1.811633 0.488267 4.450370
v 1.711072 0.433165 5.080490
v 2.487860 0.426077 4.254362
v 2.760939 0.049816 5.129351
v 2.560195 0.365322 4.973835
v 2.056953 0.062013 4.560406
v 2.268711 0.107974 4.447046
v 2.488043 0.067220 5.218010
v 1.904956 0.101263 5.355972
v 2.010037 0.353644 5.138048
v 2.134350 0.101576 5.346982
v 2.027456 0.491765 4.446594
v 2.010859 0.424949 5.136116
v 2.240632 0.480569 4.376955
v 2.299258 0.399937 5.100456
v 2.229808 0.084272 5.307360
v 2.448635 0.083981 5.280031
v 0.599121 6.016457 6.129456
v 0.443848 6.070369 5.458046
v 0.239258 5.644845 5.982883
v 0.794922 7.007138 5.328779
v 0.678711 6.959867 6.150410
v 0.000000 7.947556 5.292347
v 0.000000 7.528312 6.359423
v -0.678711 6.959867 6.150410
v 0.854981 3.994445 0.076612
v 1.679199 4.551710 1.888469
v 1.351074 5.303891 0.759117
v 1.134766 3.480988 2.275549
v 0.000000 2.786900 2.045555
v 0.000000 2.954468 3.372799
v -1.134766 3.480988 2.275549
v -1.016113 4.463005 3.952361
v -1.369141 4.609307 2.931569
v 0.747070 3.871015 -1.456303
v 0.000000 4.115005 4.747435
v -2.436816 2.911865 -3.984780
v -1.745267 2.992861 -3.424148
v -2.429497 2.526521 -2.951698
v -1.734668 3.214932 -4.003010
v -2.466233 3.011366 -4.392602
v -1.727017 3.584226 -4.375128
v -1.199155 2.425147 -2.940212
v -1.251230 2.635084 -4.341723
v -1.285344 3.021816 -4.853534
v -2.098003 0.981963 -4.305571
v -1.819589 0.520828 -4.017583
v -2.245908 0.603886 -4.034009
v -1.407110 0.882958 -4.778972
v -2.057715 0.199119 -5.500984
v -2.387897 2.511925 -4.497908
v -2.774951 0.964256 -4.867735
v -1.831902 2.454434 -5.014568
v -1.874862 2.165439 -4.013050
v -1.497911 4.595157 -3.519497
v -0.659304 3.728912 -2.275262
v -1.622359 3.493548 -1.011717
v -0.985840 4.464684 -0.863188
v -1.907664 5.101513 -0.994931
v -1.283691 5.596956 -0.676092
v -0.736328 4.245601 -2.216723
v -1.342982 5.115980 -3.064025
v -1.797447 2.005317 -2.084523
v -1.965763 1.693882 -2.415807
v -1.781578 2.359388 -2.098797
v -2.452902 4.336645 -2.315549
v -2.217986 4.840606 -2.072341
v -1.358833 0.080081 -5.136442
v -1.635831 0.110559 -3.348571
v -1.233945 0.109712 -3.408126
v -1.795644 0.059757 -3.962060
v -2.243930 0.065581 -3.942051
v -2.685386 0.067575 -3.954770
v -2.849839 0.116087 -3.402349
v -2.304849 0.110103 -3.354962
v -1.918091 0.110609 -3.366657
v -2.682481 0.511167 -4.052820
v -2.579352 0.397377 -3.629700
v -2.869751 0.161828 -5.207143
v -3.366507 0.115260 -3.460495
v -2.996830 0.112703 -3.415063
v -3.078925 0.395036 -3.666850
v -1.452775 3.493303 3.128342
v -1.890838 2.851779 2.461489
v -1.298942 2.746851 3.088001
v -1.955245 3.651848 2.609291
v -1.868001 4.675308 2.433052
v -1.681274 3.413345 3.598756
v -1.644806 2.802232 3.869221
v -1.661979 0.529233 3.698767
v -1.899614 0.550172 3.970540
v -2.309520 3.073296 3.624812
v -1.619629 5.519146 2.950752
v -1.672609 4.736268 4.262382
v -1.191895 5.874057 4.156734
v -2.084961 5.630591 3.750193
v -2.360502 4.424107 3.360302
v -2.086977 3.474249 3.189326
v -2.083390 0.543091 3.661328
v -1.857312 0.553912 3.428243
v -1.476074 5.974499 3.316158
v -1.378418 6.040909 3.803354
v -2.074506 0.077480 3.362103
v -1.451444 0.121661 4.373407
v -1.519547 0.032053 3.454369
v -1.793289 0.061990 4.564404
v -2.056953 0.062013 4.560406
v -0.838985 0.067394 4.708738
v -1.073112 0.067754 4.836082
v -1.491818 0.428234 4.328143
v -1.045692 0.343009 4.631481
v -1.811633 0.488267 4.450370
v -2.027456 0.491765 4.446594
v -2.010859 0.424949 5.136116
v -1.838694 0.096597 5.337794
v -1.591776 0.096485 5.350163
v -2.487860 0.426077 4.254362
v -2.240632 0.480569 4.376955
v -2.560195 0.365322 4.973835
v -2.268711 0.107974 4.447046
v -2.760939 0.049816 5.129351
v -1.904956 0.101263 5.355972
v -2.010037 0.353644 5.138048
v -2.134350 0.101576 5.346982
v -2.299258 0.399937 5.100456
v -2.229808 0.084272 5.307360
v -2.448635 0.083981 5.280031
v -0.443848 6.070369 5.458046
v -0.599121 6.016457 6.129456
v -0.239258 5.644845 5.982883
v -0.794922 7.007138 5.328779
v -0.854981 3.994445 0.076612
v -1.351074 5.303891 0.759117
v -1.679199 4.551710 1.888469
v -0.747070 3.871015 -1.456303
v 0.000000 3.417198 -1.097370
v 0.000000 3.581643 -0.017188
v 0.000000 3.597338 -1.983096
v -1.711072 0.433165 5.080490
v -1.876198 3.061953 -4.994159
v -0.175293 6.795916 -2.510126
v 0.188477 6.102787 -4.458595
v -0.188477 6.102787 -4.458595
v 0.175293 6.795916 -2.510126
v 0.000000 4.793596 -6.210851
v 0.131348 3.462782 -7.587876
v 0.149902 4.669027 -6.093851
v 0.000000 3.584152 -7.676154
v -0.131348 3.462782 -7.587876
v -0.149902 4.669027 -6.093851
v 2.083122 0.401695 -3.602313
v 1.918085 0.110609 -3.366657
v 1.969725 1.337696 -5.666675
v 2.042044 0.621095 -5.335382
v 2.035670 1.206714 -5.198192
v 1.717285 4.959715 -3.358315
v 1.941895 4.225910 -2.934639
v 1.745117 4.669765 -2.883155
v 1.983392 1.550223 -5.511353
v 2.055698 1.041805 -5.253778
v 2.015149 1.450675 -5.121414
v 1.723184 3.619971 -4.860941
v 1.813504 2.898091 -4.791667
v 1.714121 3.316449 -4.597151
v 1.628698 3.835697 -4.748569
v 1.778175 3.142373 -4.581371
v 1.674582 3.432903 -4.386824
v 1.653320 5.120140 -3.225648
v 1.745117 4.728535 -2.939591
v 1.613770 4.852374 -2.833059
v 1.365349 2.886267 2.593581
v 1.390457 2.752123 3.001444
v 1.478070 2.391747 3.073557
v 1.432595 3.315845 2.511730
v 1.546493 3.206945 2.963285
v 1.492139 2.766697 2.908190
v 1.497116 0.408088 -3.627655
v 0.128418 2.873211 -8.634461
v 0.024902 2.971514 -8.736211
v 0.420410 2.867102 -9.110875
v 0.424805 2.584991 -9.210478
v 0.555664 2.140873 -9.761703
v 0.074219 2.309568 -9.073881
v -2.083200 0.401695 -3.602313
v -2.456728 0.117023 -3.389138
v -2.488043 0.067220 5.218010
v -2.042546 0.621095 -5.335382
v -1.970349 1.337696 -5.666675
v -2.036175 1.206714 -5.198192
v -1.941895 4.225910 -2.934639
v -1.717285 4.959715 -3.358315
v -1.745117 4.669765 -2.883155
v -2.056206 1.041805 -5.253778
v -1.983992 1.550223 -5.511353
v -2.015651 1.450675 -5.121414
v -1.814016 2.898091 -4.791667
v -1.723757 3.619971 -4.860941
v -1.714613 3.316449 -4.597151
v -1.779131 3.142473 -4.581362
v -1.629259 3.835697 -4.748569
v -1.675032 3.432903 -4.386824
v -1.745117 4.728535 -2.939591
v -1.653320 5.120140 -3.225648
v -1.613770 4.852374 -2.833059
v -1.390457 2.752123 3.001444
v -1.365349 2.886267 2.593581
v -1.478070 2.391747 3.073557
v -1.546493 3.206945 2.963285
v -1.432595 3.315845 2.511730
v -1.492139 2.766697 2.908190
v -1.497206 0.408088 -3.627655
v -0.024902 2.971514 -8.736211
v -0.127930 2.873211 -8.634461
v -0.420410 2.867102 -9.110875
v -0.555664 2.140873 -9.761703
v -0.424805 2.584991 -9.210478
v -0.074219 2.309568 -9.073881
v 0.000000 6.282175 -4.575043
v 0.000000 7.024899 -2.407825
v 0.000000 5.721907 5.511647
v 0.000000 2.815033 1.619604
v -0.189453 2.909181 2.084229
v 0.189453 2.909181 2.084229
v 0.000000 3.059137 3.625619
v -0.156250 3.520973 3.750201
v 0.156250 3.520973 3.750201
# 657 vertices

vt 0.01172 -0.61133
vt 0.01172 -0.58984
vt 0.07422 -0.60352
vt 0.29102 -0.75000
vt 0.51953 -0.33984
vt 0.01172 -0.73047
vt -0.00195 -0.97070
vt 0.01172 -0.74219
vt 0.43359 -0.98438
vt 0.67188 -0.74219
vt 0.01172 -0.23242
vt 0.72852 -0.03906
vt 0.01172 0.32812
vt 0.22266 -0.18945
vt 0.26562 -0.19727
vt 0.25977 -0.16211
vt 0.26758 -0.23633
vt 0.21289 -0.22266
vt 0.72656 -0.06445
vt 0.33203 0.00781
vt 0.62305 -0.00586
vt 0.04688 -0.18750
vt 0.23828 -0.69727
vt 0.96875 0.02344
vt 0.68359 -0.62500
vt 0.99023 -0.75195
vt 0.99219 -0.31445
vt 0.65625 -0.95703
vt 0.26562 -0.19531
vt 0.25586 -0.16016
vt 0.26953 -0.23438
vt 0.33008 -0.01953
vt 0.26562 -0.09375
vt 0.23828 -0.04492
vt 0.15234 -0.04492
vt 0.14062 -0.01758
vt 0.06641 -0.17578
vt 0.21094 -0.22070
vt 0.69141 -0.69336
vt 0.90234 -0.98828
vt 0.68750 -0.95117
vt 0.92188 -0.81836
vt 0.67773 -0.69531
vt 0.89844 -0.98438
vt 0.90820 -0.82422
vt 0.68164 -0.94141
vt 0.48047 -0.56641
vt 0.20312 -0.95508
vt 0.19922 -0.56445
vt 0.47656 -0.56445
vt 0.19531 -0.56250
vt 0.33789 -0.46094
vt 0.16992 -0.93555
vt 0.33594 -0.45898
vt 0.46680 -0.33984
vt 0.41211 -0.28125
vt 0.49414 -0.38281
vt 0.40625 -0.28125
vt 0.11426 -0.77344
vt 0.14453 -0.77051
vt 0.11914 -0.95898
vt 0.11328 -0.77148
vt 0.09277 -0.84961
vt 0.31250 -0.72266
vt 0.26074 -0.65625
vt 0.31250 -0.64941
vt 0.26855 -0.72266
vt 1.00098 -0.12695
vt 0.73633 -0.17969
vt 0.77539 -0.35254
vt 0.79883 -0.11621
vt 0.93945 -0.02832
vt 0.29980 -0.41113
vt 0.21484 -0.34863
vt 0.28613 -0.29980
vt 0.17578 -0.45312
vt 0.27051 -0.46191
vt 0.21582 -0.61035
vt 0.19531 -0.61914
vt 0.14746 -0.48535
vt 0.92285 -0.95020
vt 0.80371 -0.88672
vt 0.94336 -0.91602
vt 0.80664 -0.91113
vt 0.75293 -0.60840
vt 0.96094 -0.67969
vt 0.79492 -0.73828
vt 0.23145 -0.26855
vt 0.28809 -0.26855
vt 0.29004 -0.30859
vt 0.96484 -0.77051
vt 0.77832 -0.07031
vt 0.75000 -0.01367
vt 0.33203 -0.65527
vt 0.39941 -0.57031
vt 0.38184 -0.62305
vt 0.33398 -0.49219
vt 0.39453 -0.48438
vt 0.61719 -0.96973
vt 0.74219 -0.92285
vt 0.70410 -0.98047
vt 0.53027 -0.89062
vt 0.47070 -0.67871
vt 0.43262 -0.79883
vt 0.56152 -0.79492
vt 0.44336 -0.04980
vt 0.50488 -0.12305
vt 0.49707 -0.04785
vt 0.44434 -0.37500
vt 0.60938 -0.04980
vt 0.59961 -0.22754
vt 0.57324 -0.36914
vt 0.61816 -0.56836
vt 0.44824 -0.56836
vt 0.22949 -0.19434
vt 0.03320 -0.03516
vt 0.22949 -0.07227
vt 0.03027 -0.21680
vt 0.03516 -0.39453
vt 0.14160 -0.72266
vt 0.02051 -0.64941
vt 0.02148 -0.72266
vt 0.44043 -0.96777
vt 0.14258 -0.84863
vt 0.11523 -0.84961
vt 0.14551 -0.77148
vt 0.18359 -0.96191
vt 0.21191 -0.79395
vt 0.26465 -0.81738
vt 0.04688 -0.87500
vt 0.08887 -0.79199
vt 0.24805 -0.89844
vt 0.15723 -0.96777
vt 0.19629 -0.86328
vt 0.09082 -0.94629
vt 0.26367 -0.81738
vt 0.11816 -0.92188
vt 0.12891 -0.77051
vt 0.09375 -0.85059
vt 0.07227 -0.77734
vt 0.20508 -0.79102
vt 0.26758 -0.80762
vt 0.93945 -0.60352
vt 0.77930 -0.34180
vt 0.77539 -0.55566
vt 0.33301 -0.74902
vt 0.22754 -0.84375
vt 0.16895 -0.90039
vt 0.16504 -0.84180
vt 0.74219 -0.78809
vt 0.68652 -0.75684
vt 0.72559 -0.59863
vt 0.06104 -0.00488
vt 0.34229 -0.72559
vt -0.02490 -0.42383
vt 0.56494 -0.00342
vt 1.02881 -1.03857
vt 0.41602 -0.23145
vt 0.14258 -0.14648
vt 0.50098 -0.10840
vt 0.13965 -0.23535
vt 0.09082 -0.08984
vt 0.40430 -0.00488
vt 0.34375 -0.10156
vt 0.07715 -0.00488
vt 0.00195 -0.02637
vt 0.02734 -0.47070
vt 0.20801 -0.70801
vt 0.12109 -0.76855
vt 0.15723 -0.45801
vt 0.02734 -0.38281
vt 0.13574 -0.37109
vt 0.03027 -0.31543
vt 0.00879 -0.25488
vt 0.26074 -0.35938
vt 0.36914 -0.35645
vt 0.28320 -0.45117
vt 0.33691 -0.25488
vt 0.12891 -0.25391
vt 1.00098 -0.34375
vt 0.99609 -0.44238
vt 0.98340 -0.30371
vt 0.64746 -0.12012
vt 0.64258 -0.21387
vt 0.59570 -0.16797
vt 0.79980 -0.09961
vt 0.78320 -0.02051
vt 0.96094 -0.11426
vt 0.85840 -0.52637
vt 0.95117 -0.67188
vt 0.94434 -0.52734
vt 0.85449 -0.67188
vt 0.89160 -0.67676
vt 0.88965 -0.53320
vt 0.76758 -0.66895
vt 0.78125 -0.52051
vt 0.89062 -0.72363
vt 0.98242 -0.70801
vt 0.74121 -0.70996
vt 0.86133 -0.71777
vt 0.92871 -0.17676
vt 0.76855 -0.24316
vt 0.88867 -0.39941
vt 0.89648 -0.50977
vt 0.79590 -0.45996
vt 0.93555 -0.30273
vt 0.60352 -0.48340
vt 0.71973 -0.51660
vt 0.60547 -0.62402
vt 0.73145 -0.44043
vt 0.61621 -0.36328
vt 0.00391 -0.19922
vt 0.08984 -0.69727
vt 0.08887 -0.89551
vt 0.61035 -0.92969
vt 0.60938 -0.90430
vt 0.67578 -0.94727
vt 0.67676 -0.99121
vt 0.71875 -0.63281
vt 0.94922 -0.25781
vt 0.90039 -0.20996
vt 0.88770 -0.34473
vt 0.94922 -1.04199
vt 0.90332 -0.72070
vt 0.98535 -0.72070
vt 0.82910 -1.04102
vt 0.82129 -0.72070
vt 0.64160 -0.61426
vt 0.53320 -0.36328
vt 0.50586 -0.31934
vt 0.49414 -0.17773
vt 0.58594 -0.07617
vt 0.48145 -0.35254
vt 0.80371 -0.89941
vt 0.84180 -0.95801
vt 0.79980 -0.90918
vt 0.75293 -0.89941
vt 0.78027 -0.95312
vt 0.47266 -0.30762
vt 0.42090 -0.35254
vt 0.42383 -0.27539
vt 0.47461 -0.34961
vt 0.51074 -0.27051
vt 0.52246 -0.35059
vt 0.44629 -0.38770
vt 0.47559 -0.37891
vt 0.72949 -0.27051
vt 0.81543 -0.36719
vt 0.75586 -0.37988
vt 0.79004 -0.26758
vt 0.77832 -0.22949
vt 0.72656 -0.37305
vt 0.70508 -0.28906
vt 0.71875 -0.25781
vt 0.75488 -0.23047
vt 0.80957 -0.36914
vt 0.74902 -0.38184
vt 0.51758 -0.41602
vt 0.56348 -0.10156
vt 0.51855 -0.20020
vt 0.55762 -0.18262
vt 0.48926 -0.14844
vt 0.53223 -0.05957
vt 0.48145 -0.10840
vt 0.40820 -0.15234
vt 0.46777 -0.21777
vt 0.61816 -0.09668
vt 0.65527 -0.07715
vt 0.63965 -0.15430
vt 0.63477 -0.03613
vt 0.72266 -0.12109
vt 0.74609 -0.05078
vt 0.79004 -0.10449
vt 0.71875 -0.07812
vt 0.42285 -0.10449
vt 0.60645 -0.24707
vt 0.55176 -0.24121
vt 0.59277 -0.27930
vt 0.60742 -0.21777
vt 0.64746 -0.24414
vt 0.74316 -0.20410
vt 0.67578 -0.21680
vt 0.92871 -0.15430
vt 0.91406 -0.04785
vt 0.95117 -0.14160
vt 0.90527 -0.15625
vt 0.90234 -0.19727
vt 0.93848 -0.19727
vt 0.95996 -0.19336
vt 0.88281 -0.15527
vt 0.87305 -0.06738
vt 0.84766 -0.18945
vt 0.43164 -0.70898
vt 0.41211 -0.70996
vt 0.41895 -0.74121
vt 0.43555 -0.66992
vt 0.45117 -0.71387
vt 0.46191 -0.66699
vt 0.87402 -0.19336
vt 0.89453 -0.19434
vt 0.59277 -0.69336
vt 0.59570 -0.61328
vt 0.59570 -0.66602
vt 0.58008 -0.61621
vt 0.63477 -0.69434
vt 0.62598 -0.56152
vt 0.64062 -0.61621
vt 0.62793 -0.66504
vt 0.11523 -0.18262
vt 0.18066 -0.26465
vt 0.17676 -0.20020
vt 0.12402 -0.26562
vt 0.05176 -0.17871
vt 0.06348 -0.26660
vt 0.24023 -0.18164
vt 0.30566 -0.25000
vt 0.24805 -0.26367
vt 0.30762 -0.21582
vt 0.29199 -0.14844
vt 0.36133 -0.20312
vt 0.13965 -0.12988
vt 0.05957 -0.14160
vt 0.18457 -0.12402
vt 0.02148 -0.12793
vt 0.04688 -0.06250
vt 0.24121 -0.06543
vt 0.20801 -0.12598
vt 0.22363 -0.04590
vt 0.37207 -0.12891
vt 0.29102 -0.03711
vt 0.24805 -0.03320
vt 0.32520 -0.06836
vt 0.37500 -0.25977
vt 0.07715 -0.42480
vt 0.11133 -0.42578
vt 0.04102 -0.42383
vt 0.26172 -0.42383
vt 0.28516 -0.42285
vt 0.23535 -0.42285
vt 0.93945 -0.31641
vt 0.98340 -0.34277
vt 0.96582 -0.35352
vt 0.94727 -0.26562
vt 0.89551 -0.25000
vt 0.50879 -0.87207
vt 0.48828 -0.89941
vt 0.54590 -0.90723
vt 0.43164 -0.86328
vt 0.91113 -0.39062
vt 0.92871 -0.39160
vt 0.91406 -0.33008
vt 0.50293 -0.97559
vt 0.44629 -0.90723
vt 0.46094 -0.92188
vt 0.49512 -0.94922
vt 0.40723 -0.77441
vt 0.39453 -0.84668
vt 0.44922 -0.78516
vt 0.37891 -0.89453
vt 0.32520 -0.92480
vt 0.36035 -0.92773
vt 0.89453 -0.33008
vt 0.87793 -0.32031
vt 0.84863 -0.34961
vt 0.86914 -0.35449
vt 0.46191 -1.01562
vt 0.44141 -0.94629
vt 0.83496 -0.82520
vt 0.86426 -0.70312
vt 0.87988 -0.82324
vt 0.83301 -0.70410
vt 0.42969 -0.99414
vt 0.42480 -0.91797
vt 0.42188 -0.93262
vt 0.39746 -0.90820
vt 0.37598 -0.99316
vt 0.53223 -0.98828
vt 0.37988 -1.01856
vt 0.84277 -0.81738
vt 0.90137 -0.83398
vt 0.35352 -1.00195
vt 0.38965 -0.92480
vt 0.37598 -0.98828
vt 0.92090 -0.92969
vt 0.96484 -0.92480
vt 0.92090 -0.96289
vt 0.97363 -0.85938
vt 0.92969 -0.86328
vt 0.97754 -0.78809
vt 0.88477 -0.80469
vt 0.11914 -0.85059
vt 0.06641 -0.75098
vt 0.07031 -0.83105
vt 0.09863 -0.71582
vt 0.17285 -0.72949
vt 0.17285 -0.65039
vt 0.06348 -0.61426
vt 0.03711 -0.68945
vt 0.08008 -0.90820
vt 0.12305 -0.94434
vt 0.17383 -0.52734
vt 0.49609 -0.90820
vt 0.54492 -0.92773
vt 0.58789 -0.43457
vt 0.57422 -0.32617
vt 0.56250 -0.42773
vt 0.61035 -0.30273
vt 0.64355 -0.34668
vt 0.64844 -0.33789
vt 0.78711 -0.18848
vt 0.50195 -0.84473
vt 0.55469 -0.90820
vt 0.92285 -0.19629
vt 0.41016 -0.65820
vt 0.15039 -0.08887
vt 0.17383 -0.92188
vt 0.17383 -0.79980
vt 0.17480 -0.97656
vt 0.54590 -0.91406
vt 0.74121 -0.20996
vt 0.56934 -0.90430
vt 0.58789 -0.86230
vt 0.68262 -0.82129
vt 0.79102 -0.82520
vt 0.88672 -0.84570
vt 0.79102 -0.83691
vt 0.88574 -0.83496
vt 0.46680 -0.42871
vt 0.70020 -0.24805
vt 0.42969 -0.56738
vt 0.38281 -0.58789
vt 0.40527 -0.60840
vt 0.62793 -0.61328
vt 0.44141 -0.74316
vt 0.45117 -0.71289
vt 0.62598 -0.61035
vt 0.59668 -0.61230
vt 0.39551 -0.74023
vt 0.86621 -0.19238
vt 0.45898 -0.61914
vt 0.48828 -0.69727
vt 0.45508 -0.65625
vt 0.47754 -0.75098
vt 0.02539 -0.05566
vt 0.04297 -0.03613
vt 0.36133 -0.95508
vt 0.89941 -0.58496
vt 0.97266 -0.66113
vt 0.92188 -0.64160
vt 0.91113 -0.59766
vt 0.96777 -0.64941
vt 0.94043 -0.67285
vt 0.95312 -0.64941
vt 0.91504 -0.63574
vt 0.95605 -0.64453
vt 0.91113 -0.62891
vt 0.92773 -0.63770
vt 0.91309 -0.59180
vt 0.96289 -0.64746
vt 0.94141 -0.67090
vt 0.87305 -0.67578
vt 0.83105 -0.65332
vt 0.87109 -0.70801
vt 0.82910 -0.65723
vt 0.33301 -0.74902
vt 0.46484 -0.73438
vt 0.77930 -0.87598
vt 0.79004 -0.86133
vt 0.81445 -0.87891
vt 0.79102 -0.22656
vt 0.74414 -0.94043
vt 0.77148 -0.96289
vt 0.73242 -0.96680
vt 0.68066 -0.80566
vt 0.58301 -0.84766
vt 0.93164 -0.98340
vt 0.78906 -0.58203
vt 0.83008 -0.67383
vt 0.79590 -0.59082
vt 0.82715 -0.70215
# 480 texture vertices

usemtl mat6.png
f 1/3 2/2 3/1
f 2/2 4/3 3/1
f 5/5 1/3 6/4
f 1/3 3/1 6/4
f 6/4 3/1 7/6
f 3/1 8/4 7/6
f 6/4 9/8 10/7
f 9/8 8/4 10/7
f 10/7 8/4 11/9
f 8/4 12/10 11/9
f 5/5 13/11 1/3
f 13/11 2/2 1/3
f 10/7 14/9 6/4
f 14/9 15/10 6/4
f 6/4 15/10 5/5
f 15/10 16/12 5/5
f 5/5 16/12 13/11
f 16/12 17/13 13/11
f 13/11 17/13 18/12
f 13/11 18/12 19/5
f 18/12 12/10 19/5
f 2/2 13/11 4/3
f 13/11 19/5 4/3
f 4/3 19/5 8/4
f 19/5 12/10 8/4
f 3/1 4/3 8/4
usemtl mat7.png
f 22/16 21/15 20/14
f 21/15 23/17 20/14
f 20/14 23/17 24/18
f 22/21 26/20 25/19
f 26/20 27/22 25/19
f 25/19 27/22 28/23
f 25/19 29/25 21/24
f 29/25 30/26 21/24
f 21/24 30/26 23/27
f 25/19 28/23 29/25
f 28/23 31/28 29/25
f 34/30 33/14 32/29
f 33/14 35/31 32/29
f 34/21 37/19 36/20
f 37/19 38/22 36/20
f 38/22 37/19 39/23
f 37/19 40/25 39/23
f 39/23 40/25 41/28
f 37/19 32/24 40/25
f 32/24 42/26 40/25
f 40/25 42/26 41/28
f 30/26 29/25 31/28
f 22/34 25/33 21/32
f 26/37 22/36 20/35
f 33/14 43/38 35/31
f 34/34 32/32 37/33
f 36/37 33/35 34/36
f 42/26 32/24 35/27
usemtl mat5.png
f 46/41 45/40 44/39
f 45/40 47/42 44/39
f 47/45 45/44 48/43
f 45/44 49/46 48/43
f 48/43 49/46 50/47
f 49/46 51/48 50/47
f 50/47 51/48 52/49
f 54/52 52/51 53/50
f 52/51 51/53 53/50
f 53/50 51/53 46/41
f 57/56 56/55 55/54
f 56/55 50/47 55/54
f 55/54 50/47 52/49
f 59/58 54/52 58/57
f 54/52 53/50 58/57
f 62/41 61/39 60/40
f 61/39 63/42 60/40
f 63/45 64/43 60/44
f 64/43 65/46 60/44
f 64/43 66/47 65/46
f 66/47 67/48 65/46
f 70/56 69/54 68/55
f 69/54 66/47 68/55
f 73/58 72/57 71/52
f 72/57 74/50 71/52
f 71/52 74/50 75/51
f 74/50 67/53 75/51
f 67/48 66/47 75/49
f 66/47 69/54 75/49
f 67/53 74/50 62/41
f 74/50 61/39 62/41
f 46/41 44/39 53/50
usemtl mat4.png
f 78/61 77/60 76/59
f 77/60 79/62 76/59
f 78/61 76/59 80/63
f 76/59 81/62 80/63
f 84/66 83/65 82/64
f 83/65 85/67 82/64
f 88/70 87/69 86/68
f 87/69 89/71 86/68
f 86/68 89/71 90/72
f 93/75 92/74 91/73
f 92/74 94/76 91/73
f 91/73 94/76 95/77
f 94/76 96/78 95/77
f 96/78 94/76 97/79
f 94/76 98/80 97/79
f 97/79 98/80 99/76
f 94/83 100/82 98/81
f 100/82 101/84 98/81
f 98/81 101/84 102/82
f 105/87 104/86 103/85
f 104/86 106/87 103/85
f 93/90 107/89 104/88
f 107/89 108/90 104/88
f 100/82 94/83 105/87
f 94/83 92/91 105/87
f 105/87 92/91 104/86
f 91/93 109/92 87/69
f 109/92 89/71 87/69
f 112/96 111/95 110/94
f 111/95 113/96 110/94
f 112/98 114/97 111/95
f 114/97 113/98 111/95
f 117/101 116/100 115/99
f 116/100 118/101 115/99
f 120/104 117/103 119/102
f 117/103 121/105 119/102
f 93/108 122/107 107/106
f 122/107 123/109 107/106
f 107/106 123/109 124/107
f 93/108 91/110 122/107
f 91/110 87/111 122/107
f 122/107 87/111 123/109
f 87/111 88/112 123/109
f 123/109 88/112 125/113
f 123/109 125/113 115/114
f 125/113 121/105 115/114
f 115/114 121/105 117/103
f 128/117 127/116 126/115
f 127/116 129/118 126/115
f 126/115 129/118 130/119
f 129/118 131/115 130/119
f 85/67 83/65 132/120
f 83/65 133/121 132/120
f 132/120 133/121 134/122
f 133/121 135/120 134/122
f 138/62 137/60 136/59
f 137/60 139/61 136/59
f 139/61 140/63 136/59
f 140/63 141/62 136/59
f 136/59 141/62 138/62
f 144/66 143/64 142/65
f 143/64 145/67 142/65
f 142/65 145/67 135/120
f 148/70 147/68 146/69
f 147/68 149/71 146/69
f 146/69 149/71 150/92
f 108/75 152/73 151/74
f 152/73 99/76 151/74
f 97/79 99/76 153/78
f 99/76 154/77 153/78
f 98/81 102/82 99/83
f 102/82 106/87 99/83
f 99/83 106/87 151/91
f 106/87 104/86 151/91
f 108/108 124/107 152/110
f 124/107 146/111 152/110
f 124/107 123/109 146/111
f 123/109 148/112 146/111
f 155/117 131/115 127/116
f 131/115 129/118 127/116
f 148/112 123/109 156/113
f 123/109 115/114 156/113
f 156/113 115/114 157/105
f 115/114 118/103 157/105
f 157/105 118/103 158/102
f 118/103 120/104 158/102
f 158/102 120/104 159/123
f 120/104 119/102 159/123
f 162/126 161/125 160/124
f 163/129 160/128 161/127
f 166/126 165/125 164/124
f 167/129 164/128 165/127
f 170/126 169/125 168/124
f 171/129 168/128 169/127
f 174/126 173/125 172/124
f 177/62 176/61 175/124
f 177/131 178/130 176/61
f 175/134 176/133 178/132
f 181/60 180/62 179/61
f 180/62 182/63 179/135
f 182/136 181/128 179/127
f 80/136 77/128 78/133
f 185/138 184/137 183/124
f 186/136 183/128 184/133
f 189/62 188/137 187/124
f 189/140 190/139 188/137
f 190/142 187/141 188/133
f 192/145 88/144 191/143
f 93/90 104/88 92/74
f 162/146 163/63 161/125
f 166/140 167/63 165/125
f 170/140 171/63 169/125
f 174/140 193/63 173/125
f 185/140 186/63 184/137
f 172/149 173/148 193/147
f 76/59 79/62 81/62
f 88/152 192/151 125/150
f 196/126 195/124 194/125
f 197/129 194/127 195/128
f 200/126 199/124 198/125
f 201/129 198/127 199/128
f 204/126 203/124 202/125
f 205/129 202/127 203/128
f 208/126 207/124 206/125
f 211/62 210/124 209/61
f 211/131 209/61 212/130
f 210/134 212/132 209/133
f 215/60 214/61 213/62
f 213/62 214/135 216/63
f 216/136 214/127 215/128
f 140/136 139/133 137/128
f 219/138 218/124 217/137
f 220/136 217/133 218/128
f 223/62 222/124 221/137
f 223/140 221/137 224/139
f 224/142 221/133 222/141
f 133/121 142/65 135/120
f 225/72 149/71 147/68
f 227/145 226/143 148/144
f 152/73 154/77 99/76
f 146/69 150/92 152/93
f 108/90 151/74 104/88
f 107/106 124/107 108/108
f 196/146 194/125 197/63
f 200/140 198/125 201/63
f 204/140 202/125 205/63
f 208/140 206/125 228/63
f 219/140 217/137 220/63
f 207/149 228/147 206/148
f 148/152 156/150 227/151
usemtl mat1.png
f 231/155 230/154 229/153
f 230/154 232/156 229/153
f 232/156 230/154 233/157
f 235/154 236/155 234/153
f 237/156 235/154 234/153
f 235/154 237/156 238/157
usemtl Sphinx_SG04
f 241/160 240/159 239/158
f 240/159 242/161 239/158
f 241/164 243/163 240/162
f 243/163 244/165 240/162
f 240/162 244/165 245/166
f 244/165 246/162 245/166
f 249/169 248/168 247/167
f 248/168 250/170 247/167
f 247/167 250/170 251/171
f 250/170 252/172 251/171
f 251/171 252/172 253/173
f 252/172 254/174 253/173
f 257/177 256/176 255/175
f 256/176 258/178 255/175
f 255/175 258/178 259/179
f 262/182 261/181 260/180
f 261/181 263/182 260/180
f 266/185 265/184 264/183
f 265/184 267/186 264/183
f 264/183 267/186 268/187
f 267/186 262/188 268/187
f 271/191 270/190 269/189
f 270/190 272/192 269/189
f 274/194 273/193 271/191
f 273/193 270/190 271/191
f 276/196 275/195 274/194
f 275/195 273/193 274/194
f 269/189 272/192 276/196
f 272/192 275/195 276/196
f 273/193 277/197 270/190
f 277/197 278/198 270/190
f 275/195 279/199 273/193
f 279/199 277/197 273/193
f 280/200 279/199 272/192
f 279/199 275/195 272/192
f 270/190 278/198 272/192
f 278/198 280/200 272/192
f 248/168 257/177 250/170
f 257/177 255/175 250/170
f 250/170 255/175 252/172
f 255/175 259/179 252/172
f 252/172 259/179 254/174
f 262/188 267/186 281/201
f 267/186 282/202 281/201
f 285/205 284/204 283/203
f 284/204 261/181 283/203
f 283/203 261/181 281/206
f 261/181 262/182 281/206
f 288/209 287/208 286/207
f 287/208 289/210 286/207
f 286/207 289/210 290/211
f 292/160 291/158 246/159
f 291/158 293/161 246/159
f 246/159 293/161 245/212
f 292/164 246/162 243/163
f 246/162 244/165 243/163
f 296/167 295/171 294/170
f 295/171 297/172 294/170
f 294/170 297/172 298/175
f 297/172 299/179 298/175
f 298/175 299/179 300/178
f 302/169 296/167 301/168
f 296/167 294/170 301/168
f 301/168 294/170 303/177
f 294/170 298/175 303/177
f 303/177 298/175 304/176
f 298/175 300/178 304/176
f 261/181 284/204 305/203
f 284/204 306/205 305/203
f 263/182 261/181 307/206
f 261/181 305/203 307/206
f 310/183 309/187 308/186
f 309/187 263/188 308/186
f 308/186 263/188 307/201
f 312/185 310/183 311/184
f 310/183 308/186 311/184
f 311/184 308/186 313/202
f 308/186 307/201 313/202
f 316/191 315/189 314/190
f 315/189 317/192 314/190
f 314/190 317/192 318/198
f 317/192 319/200 318/198
f 321/194 316/191 320/193
f 316/191 314/190 320/193
f 320/193 314/190 322/197
f 314/190 318/198 322/197
f 324/196 321/194 323/195
f 321/194 320/193 323/195
f 323/195 320/193 325/199
f 320/193 322/197 325/199
f 315/189 324/196 317/192
f 324/196 323/195 317/192
f 317/192 323/195 325/199
f 295/171 326/173 297/172
f 326/173 327/174 297/172
f 297/172 327/174 299/179
f 288/209 286/207 328/208
f 286/207 329/210 328/208
f 332/214 331/214 330/213
f 331/214 333/213 330/213
f 335/215 331/216 334/215
f 331/216 332/216 334/215
f 337/217 335/218 336/217
f 335/218 334/218 336/217
f 336/217 338/219 337/217
f 338/219 339/219 337/217
f 242/161 240/159 245/212
f 283/222 340/221 285/220
f 265/184 282/202 267/186
f 325/199 319/200 317/192
f 305/222 306/220 341/221
f 286/207 290/211 329/210
f 344/225 343/224 342/223
f 343/227 345/227 342/226
f 344/225 342/223 345/224
f 339/219 338/219 346/228
f 333/231 331/230 337/229
f 337/229 339/232 333/231
f 331/230 335/233 337/229
f 338/232 336/229 332/230
f 332/230 330/231 338/232
f 332/230 336/229 334/233
usemtl mat3.png
f 349/236 348/235 347/234
f 348/235 350/236 347/234
f 347/234 350/236 351/237
f 348/235 349/236 352/238
f 349/236 351/237 352/238
f 352/238 351/237 350/236
f 355/241 354/240 353/239
f 354/240 356/242 353/239
f 353/239 356/242 357/243
f 356/242 358/244 357/243
f 354/240 359/245 356/242
f 359/245 360/246 356/242
f 363/249 362/248 361/247
f 362/248 364/250 361/247
f 361/247 364/250 365/251
f 367/253 366/252 361/247
f 366/252 363/249 361/247
f 368/255 364/250 358/254
f 364/250 362/256 358/254
f 358/254 362/256 369/257
f 356/242 360/246 358/244
f 360/246 368/258 358/244
f 353/261 357/260 370/259
f 357/260 371/262 370/259
f 370/259 371/262 372/263
f 371/262 373/264 372/263
f 371/262 357/260 374/265
f 357/260 375/266 374/265
f 374/269 377/268 376/267
f 377/268 378/270 376/267
f 370/273 372/272 379/271
f 372/272 380/274 379/271
f 373/264 371/262 376/275
f 371/262 374/265 376/275
f 382/278 355/277 381/276
f 355/277 375/279 381/276
f 382/278 381/276 357/280
f 381/276 375/279 357/280
f 375/282 355/281 374/269
f 355/281 379/271 374/269
f 374/269 379/271 377/268
f 379/271 380/274 377/268
f 384/285 362/284 383/283
f 362/284 385/286 383/283
f 383/283 385/286 386/287
f 388/289 384/285 387/288
f 384/285 383/283 387/288
f 385/286 362/284 389/290
f 362/284 390/291 389/290
f 389/290 390/291 391/292
f 394/295 393/294 392/293
f 393/294 366/296 392/293
f 392/293 366/296 395/297
f 366/296 369/298 395/297
f 397/300 385/286 396/299
f 385/286 389/290 396/299
f 399/303 393/302 398/301
f 393/302 389/304 398/301
f 390/307 363/306 391/305
f 363/306 399/308 391/305
f 402/311 401/310 400/309
f 401/310 403/312 400/309
f 400/309 403/312 404/313
f 403/312 405/314 404/313
f 405/317 406/316 404/315
f 406/316 407/318 404/315
f 404/315 407/318 408/319
f 407/318 402/320 408/319
f 410/322 409/321 400/309
f 409/321 411/323 400/309
f 400/309 411/323 402/311
f 413/325 410/322 412/324
f 410/322 404/313 412/324
f 413/328 412/327 414/326
f 412/327 408/319 414/326
f 414/326 408/319 411/329
f 408/319 402/320 411/329
f 416/331 414/326 415/330
f 414/326 417/332 415/330
f 406/316 401/333 407/318
f 401/333 402/320 407/318
f 403/312 401/310 418/334
f 401/310 419/335 418/334
f 420/336 405/314 418/334
f 405/314 403/312 418/334
f 419/338 401/333 421/337
f 401/333 406/316 421/337
f 421/337 406/316 420/339
f 406/316 405/317 420/339
f 424/342 423/341 422/340
f 423/341 425/343 422/340
f 422/340 425/343 426/344
f 428/347 427/346 418/345
f 427/346 420/348 418/345
f 430/350 422/340 429/349
f 422/340 431/351 429/349
f 431/354 432/353 429/352
f 429/352 432/353 433/355
f 419/358 421/357 426/356
f 421/357 434/359 426/356
f 426/356 434/359 435/360
f 434/359 436/361 435/360
f 422/340 426/344 431/351
f 426/344 437/362 431/351
f 437/362 426/344 438/363
f 426/344 435/364 438/363
f 438/363 435/364 439/365
f 441/367 432/353 440/366
f 432/353 431/354 440/366
f 437/370 442/369 431/368
f 442/369 440/371 431/368
f 437/374 443/373 442/372
f 443/373 444/367 442/372
f 446/376 445/375 443/373
f 445/375 420/348 443/373
f 443/373 420/348 432/353
f 420/348 427/346 432/353
f 432/353 427/346 433/355
f 427/346 430/377 433/355
f 446/376 443/373 447/378
f 443/373 437/374 447/378
f 438/380 448/369 437/379
f 448/369 447/371 437/379
f 438/382 445/375 448/381
f 445/375 446/383 448/381
f 436/361 434/359 445/375
f 434/359 421/357 445/375
f 445/375 421/357 420/348
f 451/386 450/385 449/384
f 450/385 452/387 449/384
f 449/384 452/387 453/388
f 452/387 454/389 453/388
f 453/388 454/389 455/390
f 454/389 456/388 455/390
f 459/393 458/392 457/391
f 458/392 460/394 457/391
f 457/391 460/394 461/395
f 460/394 462/396 461/395
f 461/395 462/396 463/394
f 462/396 464/397 463/394
f 463/394 464/397 465/398
f 459/393 457/391 376/399
f 457/391 466/400 376/399
f 458/392 409/398 460/394
f 409/398 410/397 460/394
f 460/394 410/397 462/396
f 410/397 467/401 462/396
f 462/396 467/401 464/397
f 430/377 427/346 422/402
f 427/346 424/403 422/402
f 354/406 355/405 361/404
f 355/405 382/407 361/404
f 357/408 358/254 382/407
f 358/254 367/409 382/407
f 353/410 370/273 355/281
f 370/273 379/271 355/281
f 358/254 369/257 367/253
f 369/257 366/252 367/253
f 419/358 425/411 418/345
f 425/411 428/412 418/345
f 443/373 432/353 444/367
f 432/353 441/367 444/367
f 470/241 469/239 468/240
f 469/239 471/242 468/240
f 468/240 471/242 472/245
f 471/242 473/246 472/245
f 469/239 474/243 471/242
f 474/243 475/244 471/242
f 471/242 475/244 473/246
f 475/244 476/258 473/246
f 479/293 478/297 477/296
f 478/297 480/298 477/296
f 483/249 482/247 481/248
f 482/247 484/250 481/248
f 483/249 477/252 482/247
f 477/252 485/253 482/247
f 476/255 475/254 484/250
f 475/254 481/256 484/250
f 469/261 486/259 474/260
f 486/259 487/262 474/260
f 474/260 487/262 488/265
f 487/262 489/275 488/265
f 488/269 489/267 490/268
f 489/267 491/270 490/268
f 489/275 487/262 492/264
f 487/262 493/263 492/264
f 495/278 494/276 470/277
f 494/276 496/279 470/277
f 495/278 474/280 494/276
f 474/280 496/279 494/276
f 496/282 488/269 470/281
f 488/269 497/271 470/281
f 470/281 497/271 486/273
f 497/271 493/272 486/273
f 488/269 490/268 497/271
f 490/268 498/274 497/271
f 497/271 498/274 493/272
f 501/289 500/288 499/285
f 500/288 502/283 499/285
f 499/285 502/283 481/284
f 502/283 503/286 481/284
f 481/284 503/286 504/290
f 503/286 505/299 504/290
f 507/413 506/287 502/283
f 506/287 503/286 502/283
f 509/295 479/293 508/294
f 479/293 477/296 508/294
f 508/294 477/296 483/414
f 481/284 504/290 510/291
f 504/290 511/292 510/291
f 513/303 512/301 508/302
f 512/301 504/304 508/302
f 510/307 511/305 483/306
f 511/305 513/308 483/306
f 516/312 515/310 514/309
f 515/310 517/311 514/309
f 514/309 517/311 518/323
f 514/309 519/313 516/312
f 519/313 520/314 516/312
f 516/312 520/314 521/334
f 520/314 522/336 521/334
f 519/315 523/316 520/317
f 523/316 522/339 520/317
f 464/322 514/309 465/321
f 514/309 518/323 465/321
f 465/321 518/323 524/415
f 526/325 525/324 464/322
f 525/324 519/313 464/322
f 526/328 527/326 525/327
f 527/326 528/319 525/327
f 525/327 528/319 519/315
f 528/319 529/318 519/315
f 519/315 529/318 523/316
f 529/318 515/333 523/316
f 523/316 515/333 530/337
f 515/333 531/338 530/337
f 533/331 532/330 527/326
f 532/330 524/332 527/326
f 527/326 524/332 518/329
f 531/335 515/310 521/334
f 515/310 516/312 521/334
f 536/343 535/340 534/344
f 535/340 537/351 534/344
f 534/344 537/351 538/362
f 540/342 535/340 539/341
f 535/340 536/343 539/341
f 542/347 521/345 541/346
f 521/345 522/348 541/346
f 541/346 522/348 543/353
f 522/348 544/373 543/353
f 543/353 544/373 545/367
f 547/350 546/349 535/340
f 546/349 537/351 535/340
f 546/352 543/353 537/354
f 531/358 534/356 530/357
f 534/356 548/359 530/357
f 530/357 548/359 549/375
f 548/359 550/361 549/375
f 538/362 551/363 534/344
f 551/363 552/364 534/344
f 554/367 553/366 543/353
f 553/366 537/354 543/353
f 553/371 555/369 537/368
f 555/369 538/370 537/368
f 538/374 555/372 544/373
f 555/372 545/367 544/373
f 556/376 544/373 549/375
f 544/373 522/348 549/375
f 549/375 522/348 530/357
f 556/376 557/378 544/373
f 557/378 538/374 544/373
f 557/371 558/369 538/379
f 558/369 551/380 538/379
f 551/382 558/381 549/375
f 558/381 556/383 549/375
f 534/356 552/360 548/359
f 552/360 550/361 548/359
f 527/326 518/329 528/319
f 518/329 517/320 528/319
f 528/319 517/320 529/318
f 517/320 515/333 529/318
f 561/386 560/384 559/385
f 560/384 562/387 559/385
f 565/392 564/393 563/391
f 564/393 489/399 563/391
f 563/391 489/399 566/400
f 568/417 563/391 567/416
f 563/391 566/400 567/416
f 567/416 566/400 569/418
f 560/384 456/388 562/387
f 456/388 454/389 562/387
f 465/398 565/392 463/394
f 565/392 563/391 463/394
f 463/394 563/391 461/395
f 563/391 568/417 461/395
f 461/395 568/417 457/391
f 568/417 567/416 457/391
f 457/391 567/416 466/400
f 567/416 569/418 466/400
f 535/402 541/346 547/377
f 541/346 570/355 547/377
f 542/419 541/346 540/403
f 541/346 535/402 540/403
f 468/406 482/404 470/405
f 482/404 495/407 470/405
f 474/408 495/407 475/254
f 495/407 485/409 475/254
f 472/420 571/251 482/247
f 571/251 484/250 482/247
f 477/252 480/257 485/253
f 480/257 475/254 485/253
f 531/358 521/345 536/411
f 521/345 542/412 536/411
f 536/411 542/412 539/421
f 574/423 573/423 572/422
f 573/423 575/422 572/422
f 578/426 577/425 576/424
f 577/425 579/427 576/424
f 581/426 580/425 578/426
f 580/425 577/425 578/426
f 581/426 578/426 574/423
f 578/426 573/423 574/423
f 579/427 580/425 576/424
f 580/425 581/426 576/424
f 349/236 347/234 351/237
f 360/246 359/245 365/428
f 361/247 359/420 354/429
f 368/258 360/246 365/428
f 363/432 390/431 362/430
f 383/307 395/433 387/305
f 392/293 395/435 582/434
f 395/302 583/301 582/303
f 386/287 583/413 383/283
f 385/307 392/436 386/305
f 392/437 397/301 394/303
f 389/307 393/433 396/305
f 363/432 393/294 399/438
f 391/292 398/439 389/290
f 362/430 384/441 369/440
f 384/441 388/443 369/442
f 404/313 410/322 400/309
f 416/445 413/325 414/444
f 425/411 419/358 426/356
f 445/375 439/446 436/361
f 411/323 409/321 417/415
f 586/449 585/448 584/447
f 589/452 588/451 587/450
f 592/454 591/453 590/447
f 595/456 594/455 593/447
f 598/457 597/455 596/447
f 601/460 600/459 599/458
f 604/462 603/461 602/447
f 607/464 606/463 605/447
f 412/327 404/315 408/319
f 608/465 395/435 369/442
f 411/329 417/332 414/326
f 393/433 394/308 396/305
f 395/433 608/308 387/305
f 395/302 383/304 583/301
f 392/436 582/308 386/305
f 392/437 385/304 397/301
f 388/443 608/466 369/442
f 445/375 438/382 439/446
f 427/346 428/419 424/403
f 611/469 610/468 609/467
f 359/420 361/247 365/251
f 368/255 365/470 364/250
f 367/409 361/404 382/407
f 425/411 423/421 428/412
f 393/294 363/414 366/296
f 614/473 613/472 612/471
f 348/235 352/238 350/236
f 473/246 571/428 472/245
f 482/247 468/429 472/420
f 476/258 571/428 473/246
f 475/254 480/257 481/256
f 483/432 481/430 510/431
f 502/307 500/305 478/433
f 479/293 615/434 478/435
f 478/302 615/303 507/301
f 503/307 506/305 479/436
f 479/437 509/303 616/301
f 503/286 616/300 505/299
f 504/307 505/305 508/433
f 483/432 513/438 508/294
f 504/290 512/439 511/292
f 481/430 480/440 499/441
f 499/441 480/442 501/443
f 519/313 514/309 464/322
f 533/445 527/444 526/325
f 523/316 530/337 522/339
f 536/411 534/356 531/358
f 549/375 550/361 617/446
f 551/363 617/365 552/364
f 620/449 619/447 618/448
f 623/452 622/450 621/451
f 626/454 625/447 624/453
f 629/456 628/447 627/455
f 632/457 631/447 630/455
f 635/460 634/458 633/459
f 638/462 637/447 636/461
f 641/464 640/447 639/463
f 642/465 480/442 478/435
f 508/433 505/305 509/308
f 478/433 500/305 642/308
f 478/302 507/301 502/304
f 479/436 506/305 615/308
f 479/437 616/301 503/304
f 501/443 480/442 642/466
f 549/375 617/446 551/382
f 645/469 644/467 643/468
f 486/259 493/263 487/262
f 476/255 484/250 571/470
f 470/281 486/273 469/410
f 485/409 495/407 482/404
f 474/260 488/265 496/266
f 541/346 543/353 570/355
f 545/367 554/367 543/353
f 543/353 546/352 570/355
f 648/473 647/471 646/472
f 649/474 573/423 578/426
f 578/426 576/424 649/474
f 650/475 575/422 573/423
f 573/423 649/474 650/475
f 649/474 576/424 581/426
f 581/426 574/423 649/474
f 650/475 649/474 574/423
f 574/423 572/422 650/475
f 450/385 451/386 651/476
f 654/478 653/478 652/477
f 657/480 656/480 655/479
f 559/385 651/476 561/386
# 796 elements

