# Created by Metasequoia

mtllib Model.mtl

v 0.311971 17.306280 6.529058
v 0.281205 17.082701 6.505725
v 0.386128 17.356030 6.056811
v 0.386130 17.155830 6.070123
v 0.000506 16.829399 7.040504
v 0.000968 16.769859 6.841624
v 0.136244 16.991680 6.974603
v 0.135730 16.953920 6.783750
v 0.164470 16.541109 6.264275
v 0.130307 16.642550 6.395174
v 0.000897 16.464569 6.310884
v 0.000430 16.539810 6.471415
v 0.363177 17.186300 6.049128
v 0.405640 17.159330 5.907325
v 0.000480 16.769859 6.841624
v 0.000506 16.830080 7.040474
v 6.354561 0.145861 -0.409836
v 6.007270 1.199839 0.529358
v 7.610795 0.083989 1.508852
v 7.493260 0.480397 1.847789
v 8.066395 0.221513 2.417506
v 5.607106 -0.077273 2.302444
v 5.933615 0.598099 2.497728
v 4.817317 -0.142903 0.823900
v 4.972917 1.213698 0.915961
v 3.908583 0.191069 0.438255
v 4.152444 -0.138080 2.266393
v 4.437234 1.091955 1.082950
v 4.331220 0.332129 2.576797
v 4.645882 -0.103788 2.203336
v 5.844533 -0.054710 0.467155
v 6.173162 -0.017532 2.095382
v 6.313968 0.179901 3.339533
v 7.289355 0.024263 1.814685
v 7.522252 6.913985 -2.444117
v 5.730664 7.745049 0.307793
v 4.176270 8.233154 -1.354248
v 4.347656 8.448486 1.216064
v 2.614258 8.885986 -0.100830
v 5.058698 6.616316 0.358308
v 3.949006 6.884787 -1.366375
v 0.000430 16.540140 6.471053
v 0.000408 16.464569 6.310884
v -0.384895 17.155840 6.070093
v -0.279851 17.082710 6.505703
v -0.384898 17.356030 6.056781
v -0.310612 17.306280 6.529034
v -0.134788 16.953930 6.783739
v -0.134762 16.991680 6.974592
v -0.128980 16.642550 6.395164
v -0.163179 16.541109 6.264262
v -0.404938 17.159340 5.907293
v -0.362436 17.186310 6.049100
v -6.354561 0.145861 -0.409836
v -7.610795 0.083989 1.508852
v -6.007270 1.199839 0.529358
v -7.493260 0.480397 1.847789
v -4.972917 1.213698 0.915961
v -5.933615 0.598099 2.497728
v -4.817317 -0.142903 0.823900
v -5.607106 -0.077273 2.302444
v -4.437234 1.091955 1.082950
v -4.331220 0.332129 2.576797
v -4.645882 -0.103788 2.203336
v -4.340833 0.121889 3.440532
v -3.908583 0.191069 0.438255
v -4.152444 -0.138080 2.266393
v -6.173162 -0.017532 2.095382
v -5.844533 -0.054710 0.467155
v -6.313968 0.179901 3.339533
v -8.066198 0.221514 2.417059
v -7.289355 0.024263 1.814685
v -5.562103 1.201185 0.656006
v -7.522252 6.913985 -2.444117
v -4.176270 8.233154 -1.354736
v -5.730664 7.745049 0.307793
v -4.347656 8.448486 1.216064
v -2.614258 8.885986 -0.100830
v -5.058698 6.616316 0.358308
v -3.949006 6.884787 -1.366375
v -5.414130 4.458179 -2.121121
v 3.702279 2.495754 -2.443743
v 4.148572 3.143211 -2.326796
v 3.761067 2.571243 -4.596867
v 4.770586 2.522770 -2.542482
v -3.702279 2.495754 -2.443743
v -3.761067 2.571243 -4.596867
v -4.148572 3.143211 -2.326796
v -4.770586 2.522770 -2.542482
v 3.235352 8.840576 0.403565
v 5.165303 5.094696 -1.829378
v 6.957207 7.234540 -1.904390
v 6.917945 5.819816 -2.513024
v 3.104492 8.594971 -0.277100
v 4.150391 8.476807 1.126709
v 2.361816 9.663727 -4.199714
v 2.604824 15.445530 -2.530910
v 2.385236 14.141210 -1.298087
v 2.596538 14.702940 -2.827164
v 2.125373 14.117310 -1.319374
v 2.799849 14.042420 -1.309884
v 2.610840 10.928700 -4.647030
v 2.121513 14.104030 -1.317011
v 2.799701 14.061940 -1.329121
v 4.893278 15.387350 1.336736
v 4.525466 15.788140 1.464700
v 4.180135 15.085730 1.990383
v 4.262205 15.391840 1.160699
v 5.240992 15.872450 1.372636
v 4.873835 15.191740 2.308119
v 5.552287 15.280420 1.387229
v 5.910550 15.716480 1.435758
v 5.744748 14.821660 2.237019
v 6.043287 14.954670 1.153483
v 4.340833 0.121889 3.440532
v 5.562103 1.201185 0.656006
v 2.907279 14.030970 -1.350256
v 1.982288 14.133450 -1.323558
v 2.650991 15.703440 -2.848495
v 2.380371 8.963361 -4.633821
v 5.414130 4.458179 -2.121121
v 6.369390 4.778524 -2.356823
v 3.252930 8.408447 -0.376709
v 4.295410 8.370850 1.033936
v -3.235352 8.840576 0.403565
v -6.957207 7.234540 -1.904390
v -5.165303 5.094696 -1.829378
v -6.917945 5.819816 -2.513024
v -4.150391 8.476807 1.126709
v -3.104492 8.594971 -0.277100
v -2.361816 9.663727 -4.199714
v -2.392737 14.141050 -1.299229
v -2.615984 15.444670 -2.529634
v -2.607427 14.703560 -2.827131
v -2.808069 14.040110 -1.308456
v -2.133711 14.117240 -1.317567
v -2.610840 10.928700 -4.647030
v -2.808433 14.061570 -1.329129
v -2.132149 14.105130 -1.317477
v -4.893260 15.386540 1.336445
v -4.180154 15.085060 1.990044
v -4.525323 15.787400 1.464414
v -4.262110 15.391150 1.160474
v -5.240898 15.871580 1.372317
v -5.552365 15.279490 1.386888
v -4.873920 15.190940 2.307688
v -5.910565 15.715480 1.435386
v -6.043478 14.953650 1.153143
v -5.745006 14.820700 2.236542
v -2.917914 14.032020 -1.349215
v -2.659967 15.702490 -2.846494
v -1.990550 14.133210 -1.322827
v -2.380371 8.963361 -4.633821
v -6.369390 4.778524 -2.356823
v -4.295410 8.370850 1.033936
v -3.252930 8.408447 -0.377197
v 2.414651 14.556520 0.422986
v 2.907279 14.030970 -1.350256
v 3.121582 13.596850 1.115181
v 2.486409 14.558300 -0.763867
v 1.359335 13.816150 1.064164
v 1.982288 14.133450 -1.323558
v 2.240723 13.447860 -0.140300
v 2.010742 13.463780 2.129244
v 2.498279 4.997020 1.884881
v 1.895020 5.939209 -2.418701
v 1.946476 6.497660 1.943032
v 2.970735 5.072166 -0.705098
v 3.058348 3.869542 0.796542
v 3.485270 4.042063 -0.811075
v 3.956153 5.628867 2.645254
v 4.660625 3.968153 2.235985
v 5.156412 6.118585 1.264631
v 5.528694 4.668437 0.992773
v 4.072448 6.611473 -0.176677
v 4.761336 4.230695 -0.862752
v 3.365547 5.658580 -1.086039
v 3.944052 4.088549 -1.246213
v 5.202508 2.504842 -1.294724
v 4.864533 2.996399 -1.788662
v 4.113857 3.391891 -1.798884
v 4.077581 12.469490 0.222742
v 5.641021 14.368720 0.494624
v 5.049157 11.717910 -0.472235
v 5.131643 14.287960 0.850009
v 3.978427 12.936800 -1.098397
v 4.709162 14.559360 0.130028
v 6.354561 0.145861 -0.409836
v 3.702279 2.495754 -2.443743
v 3.908583 0.191069 0.438255
v 4.770586 2.522770 -2.542482
v 6.007270 1.199839 0.529358
v 0.311910 16.656570 6.066412
v 0.547231 17.351191 5.794570
v 0.571121 17.098200 5.518976
v 0.297766 16.778111 6.191143
v 0.185919 16.300690 5.991521
v 0.185967 16.492371 6.349287
v 0.000364 16.245470 5.979006
v 0.000424 16.376431 6.424098
v -0.184700 16.300699 5.991507
v -0.185140 16.492371 6.349273
v -0.310672 16.656570 6.066388
v -0.296495 16.778111 6.191120
v -0.570036 17.098209 5.518931
v -0.546072 17.351200 5.794528
v 0.352017 17.219589 6.569515
v 0.473538 17.225100 6.089196
v 0.513030 17.931580 5.659562
v 0.205571 17.442940 6.894587
v 0.442279 18.043779 6.050364
v 0.000497 17.527081 6.984883
v 0.000379 18.254299 6.138540
v -0.204113 17.442940 6.894570
v -0.441055 18.043779 6.050329
v -0.350646 17.219589 6.569488
v -0.512400 17.931580 5.659522
v -0.472299 17.225100 6.089159
v 0.591106 17.748541 5.276720
v 0.548194 16.995199 4.730628
v 0.388945 16.989740 5.223386
v 1.042299 17.675211 2.908973
v 0.507086 18.271049 5.048739
v 0.000248 18.620010 5.180931
v -0.506136 18.271061 5.048700
v 0.000366 16.609131 6.000963
v 0.000284 16.991400 5.405602
v -2.494193 14.557840 -0.762728
v -3.121582 13.596850 1.115181
v -2.917914 14.032020 -1.349215
v -2.414551 14.556340 0.423501
v -1.990550 14.133210 -1.322827
v -1.359375 13.816120 1.064072
v -2.010742 13.463780 2.129244
v -2.240723 13.447860 -0.140300
v -2.970735 5.072166 -0.705098
v -1.946476 6.497660 1.943032
v -1.895020 5.939209 -2.418701
v -2.498279 4.997020 1.884881
v -3.485270 4.042063 -0.811075
v -3.058348 3.869542 0.796542
v -4.660625 3.968153 2.235985
v -3.955986 5.629284 2.645064
v -5.528694 4.668437 0.992773
v -5.156869 6.118752 1.264593
v -4.761336 4.230695 -0.862752
v -4.072448 6.611473 -0.176677
v -3.944052 4.088549 -1.246213
v -3.365547 5.658580 -1.086039
v -4.864533 2.996399 -1.788662
v -5.202508 2.504842 -1.294724
v -4.113857 3.391891 -1.798884
v -5.131878 14.287100 0.849772
v -5.049906 11.717070 -0.472276
v -5.641267 14.367770 0.494406
v -4.078096 12.468830 0.222665
v -4.709245 14.558590 0.129922
v -3.978741 12.936150 -1.098278
v -4.770586 2.522770 -2.542482
v -3.908583 0.191069 0.438255
v -3.702279 2.495754 -2.443743
v -6.354561 0.145861 -0.409836
v -6.007270 1.199839 0.529358
v -1.041765 17.675261 2.909031
v -0.387940 16.989750 5.223356
v -0.547550 16.995260 4.730490
v -0.590091 17.748550 5.276674
v 0.716159 18.066320 5.635315
v 0.612198 18.463909 5.993497
v 1.209317 19.264940 5.482298
v 0.463782 17.745770 6.173403
v 1.079170 16.838310 3.313745
v 0.798920 16.784889 2.730820
v 0.787261 15.880570 4.244560
v 0.785841 17.431601 2.673299
v 0.721409 17.652691 3.213858
v 2.650991 15.703440 -2.848495
v 4.406250 9.290283 -0.067139
v 4.347656 8.448486 1.216064
v 2.659180 9.373779 1.016357
v 5.730664 7.745049 0.307793
v 7.522252 6.913985 -2.444117
v 4.176270 8.233154 -1.354248
v 2.614258 8.885986 -0.100830
v 5.414130 4.458179 -2.121121
v 4.471215 6.012726 -0.838065
v 5.058698 6.616316 0.358308
v 3.949006 6.884787 -1.366375
v 2.380371 8.963361 -4.633821
v 4.148572 3.143211 -2.326796
v 3.664297 2.865403 -1.870197
v 4.593406 2.504079 -0.705414
v 3.839357 2.234249 -1.063393
v 2.439453 9.436768 -1.223877
v 5.269448 15.336460 0.361807
v 4.525466 15.788140 1.464700
v 4.262205 15.391840 1.160699
v 4.893278 15.387350 1.336736
v 5.240992 15.872450 1.372636
v 5.552287 15.280420 1.387229
v 5.910550 15.716480 1.435758
v 6.043287 14.954670 1.153483
v 4.437234 1.091955 1.082950
v 4.972917 1.213698 0.915961
v 2.389160 9.191162 0.846924
v 0.321742 17.921410 6.584565
v 0.383756 17.591070 6.577345
v 0.265619 17.364050 6.805780
v 0.000311 16.475229 3.799547
v 0.434474 16.721319 3.793688
v 0.000299 18.332199 2.193160
v 0.000562 16.904140 7.451968
v 0.000404 18.697510 3.506605
v 0.000995 16.786869 7.039958
v 0.167985 16.903120 6.980234
v 0.000506 16.877560 7.035617
v -0.610993 18.463921 5.993449
v -0.715048 18.066330 5.635260
v -1.208256 19.264959 5.482204
v -0.462523 17.745781 6.173368
v -0.320860 17.921419 6.584540
v -0.382386 17.591080 6.577315
v -0.264186 17.364050 6.805760
v -1.078627 16.838341 3.313935
v -0.787017 15.880590 4.244753
v -0.798307 16.785049 2.731019
v -0.720542 17.652380 3.213904
v -0.785019 17.431589 2.673491
v -2.659967 15.702490 -2.846494
v -4.406250 9.290283 -0.067139
v -2.659180 9.373779 1.016357
v -4.347656 8.448486 1.216064
v -2.614258 8.885986 -0.100830
v -4.176270 8.233154 -1.354736
v -7.522252 6.913985 -2.444117
v -5.730664 7.745049 0.307793
v -4.471215 6.012726 -0.838065
v -5.414130 4.458179 -2.121121
v -5.058698 6.616316 0.358308
v -3.949006 6.884787 -1.366375
v -2.380371 8.963361 -4.633821
v -4.148572 3.143211 -2.326796
v -3.664297 2.865403 -1.870197
v -4.593406 2.504079 -0.705414
v -3.839357 2.234249 -1.063393
v -2.439453 9.436768 -1.223877
v -5.269421 15.335580 0.361632
v -6.043478 14.953650 1.153143
v -4.525323 15.787400 1.464414
v -4.262110 15.391150 1.160474
v -4.893260 15.386540 1.336445
v -5.552365 15.279490 1.386888
v -5.240898 15.871580 1.372317
v -5.910565 15.715480 1.435386
v -4.437234 1.091955 1.082950
v -4.972917 1.213698 0.915961
v -2.389160 9.191162 0.846924
v -0.433721 16.721531 3.793625
v 0.000506 16.786869 7.039958
v -0.166989 16.903120 6.980221
v 0.893407 17.234430 2.199736
v 1.363281 14.140370 -0.971336
v 1.208984 13.638300 1.186012
v 0.523499 16.167219 2.327354
v 1.729410 13.160940 1.207522
v 1.951305 13.729440 -1.278027
v 2.385404 11.119180 -0.546174
v 5.562103 1.201185 0.656006
v 5.844533 -0.054710 0.467155
v 4.817317 -0.142903 0.823900
v 1.769009 11.280140 1.274125
v -0.892792 17.234791 2.200211
v -0.523417 16.167061 2.327511
v -1.208984 13.638300 1.186012
v -1.363281 14.140370 -0.971336
v -1.951213 13.729160 -1.277750
v -1.729581 13.160710 1.207455
v -2.386014 11.118830 -0.546031
v -5.562103 1.201185 0.656006
v -5.844533 -0.054710 0.467155
v -4.817317 -0.142903 0.823900
v -1.769630 11.279910 1.274045
v 1.425781 9.427979 1.004639
v 4.492475 7.018216 2.575529
v 2.743850 6.031885 3.053194
v 4.520397 7.866510 -2.273743
v 2.416016 9.322998 -0.947021
v 3.313638 7.593511 -2.780063
v 5.463507 7.620522 1.508077
v 2.353841 6.661955 -2.963002
v -4.492475 7.018216 2.575529
v -1.425781 9.427979 1.004639
v -2.743850 6.031885 3.053194
v -2.416016 9.322998 -0.947021
v -4.520397 7.866510 -2.273743
v -3.313638 7.593511 -2.780063
v -5.463507 7.620522 1.508077
v -2.353223 6.662319 -2.963221
v 12.229050 14.237660 -1.239023
v 7.878802 16.412149 0.225002
v 12.828060 17.644341 0.011178
v 6.905843 15.690220 -0.315688
v 9.924548 14.119380 -1.696030
v 5.926631 15.525540 -0.250588
v 8.715180 11.857260 -2.098321
v 4.768564 14.450650 0.181524
v 14.523240 19.997030 2.211568
v 14.679160 19.624580 2.110492
v 7.716269 17.908979 0.744969
v 7.144118 16.573629 0.214675
v 5.817829 16.136860 0.008806
v -6.925536 15.721430 -0.317837
v -12.848700 17.674780 0.011490
v -7.898919 16.443750 0.225563
v -12.249400 14.270750 -1.239007
v -5.945494 15.558610 -0.250883
v -9.943563 14.151960 -1.694824
v -4.768682 14.449860 0.181407
v -8.575893 12.001790 -2.074972
v -7.734947 17.939211 0.746317
v -14.624280 19.707439 2.109508
v -14.468330 20.028419 2.211712
v -7.164476 16.604660 0.212561
v -5.836838 16.170429 0.008355
v 5.392468 15.459100 -0.118081
v 5.348689 15.705170 -0.109568
v 6.959893 12.068220 -1.722956
v 5.806645 11.141200 -1.600280
v -5.409893 15.490460 -0.118655
v -5.366916 15.735620 -0.111645
v -4.735568 15.257970 -0.137500
v -6.819782 12.215080 -1.700066
v -5.665105 11.288460 -1.576779
v 4.094905 12.719860 -0.959757
v 1.903365 10.777340 -0.548263
v -4.095291 12.719190 -0.959665
v -1.904006 10.777080 -0.548088
v 4.715316 15.228760 -0.136571
v 2.231985 12.811040 -1.129786
v 15.547560 19.897930 2.161126
v -2.232146 12.810710 -1.129549
v -15.567030 19.927731 2.161291
v 0.000000 6.572355 -4.901244
v 1.895020 5.939209 -2.418701
v 0.000000 8.131104 -2.879150
v 1.521973 4.866703 -5.192527
v 0.000000 5.726904 -12.595360
v 1.178223 4.482707 -11.412820
v 0.000000 5.587876 -14.050140
v 1.044434 4.332292 -13.981340
v 0.000000 5.404115 -15.977210
v 0.962402 4.240495 -15.545490
v 0.000000 5.097441 -19.189550
v 0.813477 4.073620 -18.399019
v 0.000000 4.662481 -24.957781
v 0.551269 3.951944 -24.637300
v 0.000000 4.420615 -27.801750
v 0.393066 3.887214 -27.506630
v 0.653737 17.913031 3.442036
v 0.523499 16.167219 2.327354
v 0.444297 17.122681 3.800337
v 0.893407 17.234430 2.199736
v 0.000456 18.623760 3.615321
v 0.000368 18.052010 1.516261
v -0.652953 17.912951 3.442294
v -0.892792 17.234791 2.200211
v -0.443921 17.122540 3.800393
v -0.523417 16.167061 2.327511
v 0.000190 16.833130 4.248721
v 0.000112 15.939680 2.431519
v 0.000601 15.939680 2.431519
v 1.208984 13.638300 1.186012
v 0.000000 13.418850 1.469055
v 0.000000 14.610500 -1.521285
v 2.385404 11.119180 -0.546174
v 1.951305 13.729440 -1.278027
v 0.000000 12.279570 -2.356977
v -1.951213 13.729160 -1.277750
v -2.386014 11.118830 -0.546031
v 0.000000 3.280914 -24.454250
v 0.000000 3.419253 -27.043440
v 0.000000 3.137542 -18.156490
v 0.000000 3.079767 -15.817460
v 0.000000 3.033045 -13.934950
v 0.000000 2.959295 -10.960620
v 0.000000 2.831565 -3.701572
v 0.000000 3.496338 0.588623
v 1.813477 4.399170 -0.966065
v 0.000000 4.751709 2.313232
v 1.946476 6.497660 1.943032
v 2.389160 9.191162 0.846924
v 1.769009 11.280140 1.274125
v 2.439453 9.436768 -1.223877
v -2.439453 9.436768 -1.223877
v -1.769630 11.279910 1.274045
v -2.389160 9.191162 0.846924
v -1.521973 4.866703 -5.192527
v -1.895020 5.939209 -2.418701
v -1.178223 4.482707 -11.412820
v -1.046875 4.335112 -13.934060
v -0.961914 4.239760 -15.559150
v -0.813477 4.073620 -18.399019
v -0.551269 3.951944 -24.637300
v -0.393066 3.887214 -27.506630
v -1.813477 4.399170 -0.966065
v -1.946476 6.497660 1.943032
v 0.000000 7.739014 3.083740
v 1.779297 8.979248 2.351807
v 1.293945 11.588670 1.619081
v 1.363281 14.140370 -0.971336
v 0.000285 16.917589 -0.162709
v 1.729410 13.160940 1.207522
v 0.000115 15.940120 2.431744
v -1.779297 8.979248 2.351807
v -1.293945 11.588670 1.619081
v -1.729581 13.160710 1.207455
v 0.000000 11.782280 1.934165
v -1.363281 14.140370 -0.971336
v -1.208984 13.638300 1.186012
v 0.000591 17.033850 4.868933
v 0.000294 17.234659 5.488741
v 0.000782 17.234659 5.488741
v 0.297766 16.778111 6.191143
v 0.000322 17.559999 5.704599
v 0.547231 17.351191 5.794570
v 0.000385 16.770140 6.148307
v 0.185967 16.492371 6.349287
v 0.000424 16.376431 6.424098
v 0.000423 17.389561 6.442425
v 0.473538 17.225100 6.089196
v 0.352017 17.219589 6.569515
v 0.000498 16.974979 6.979826
v 0.167985 16.903120 6.980234
v -0.546072 17.351200 5.794528
v -0.296495 16.778111 6.191120
v -0.185140 16.492371 6.349273
v -0.350646 17.219589 6.569488
v -0.472299 17.225100 6.089159
v -0.166989 16.903120 6.980221
v 0.234375 3.822649 -31.755619
v 0.000000 4.420615 -27.801750
v 0.000000 4.102790 -32.025330
v 0.393066 3.887214 -27.506630
v 0.000000 3.678281 -31.977421
v 0.000000 3.419253 -27.043440
v -0.234375 3.822649 -31.755619
v -0.393066 3.887214 -27.506630
v 0.000000 3.714731 -28.440149
v 1.360840 3.730830 -31.013399
v 1.982910 3.724986 -30.430380
v 0.000000 3.731752 -29.944599
v -1.982910 3.724986 -30.430380
v -1.360840 3.730830 -31.013399
v 0.000506 16.786869 7.039958
v 0.000000 9.100634 -6.056573
v 0.318359 10.674080 -3.663329
v 0.000000 11.687770 -4.358876
v -0.318359 10.663330 -3.663337
v 0.000000 10.269150 -1.469777
v -0.306641 11.667600 -1.483401
v 0.286133 11.667600 -1.483401
v -0.010302 16.595520 10.141780
v -0.010409 17.097980 9.363063
v -0.010371 16.765730 9.634849
v -0.010391 17.190241 9.504509
v -0.010712 17.916910 7.158498
v -0.010669 18.694700 7.494750
v 2.076498 18.515020 5.174922
v 0.478204 18.152361 4.510289
v 0.449079 17.806589 5.780160
v 1.848347 18.672880 4.331532
v 1.700899 18.982861 4.481009
v 3.086761 20.667259 1.423027
v 2.910786 19.667919 3.611338
v 3.268431 20.792641 1.586869
v 2.883512 21.016911 0.571880
v 3.001316 20.800421 1.480753
v 2.848445 20.682680 1.231204
v -0.477399 18.152370 4.510252
v -2.075516 18.515051 5.174760
v -0.447927 17.806601 5.780126
v -1.847595 18.672899 4.331388
v -1.700109 18.982880 4.480876
v -2.910236 19.667959 3.611111
v -3.001353 20.800461 1.480520
v -3.268439 20.792351 1.586975
v -3.086813 20.667299 1.422786
v -2.883797 21.016951 0.571655
v -2.849037 20.682720 1.230983
v 0.000000 13.087550 -1.523865
v 0.000000 14.579720 -1.504706
v 0.000000 14.497120 -2.722052
v 0.000000 14.063940 -2.623737
v 0.000000 13.460340 -1.835604
v 0.000000 9.866943 -2.000732
v 0.000000 9.436768 -3.254639
v 0.000000 8.960693 -3.118408
v 0.000000 8.569580 -2.360596
v 0.004395 3.931935 -30.277309
v 0.004395 3.891281 -28.557400
v 0.004395 5.923452 -30.462860
v 0.004395 5.251182 -30.782619
v 0.004395 3.933399 -30.277321
v 0.004395 3.890793 -28.557400
v 0.004395 1.962602 -30.470301
v 0.004395 2.576000 -30.944599
v -0.010740 17.527420 6.945466
v -0.010842 18.148520 6.208524
v 0.477377 17.460039 2.500186
v 0.401595 17.826000 2.835019
v 1.719443 17.810921 0.588351
v 0.775330 16.114750 0.917022
v 0.686581 16.665760 1.456504
v 2.027821 16.166840 -0.628104
v 1.835938 3.798414 -34.627941
v -0.400683 17.825809 2.834939
v -0.476760 17.460190 2.499784
v -1.718677 17.810711 0.588793
v -0.686032 16.665409 1.456707
v -0.775024 16.114389 0.917252
v -2.027511 16.166479 -0.627493
v -1.835938 3.798414 -34.627941
v 0.000000 13.640330 -3.585473
v 0.000000 8.659912 -4.507080
v 0.000000 7.130127 -3.590088
v 0.000000 7.856689 -3.154053
v 0.000000 7.821045 -4.802002
v 0.000000 6.069882 -5.569449
v 0.000000 6.355856 -4.260051
v 0.000000 7.246466 -6.592087
v 0.000000 5.841827 -8.436008
v 0.000000 5.961747 -7.170298
v 0.000000 6.835108 -9.238278
v 0.000000 5.707575 -11.361020
v 0.000000 5.798257 -10.401140
v 0.000000 6.522419 -11.915360
v 0.000000 5.396214 -14.382780
v 0.000000 5.476993 -13.529410
v 0.000000 6.120405 -14.868620
v 0.000000 5.201652 -17.100540
v 0.000000 5.269193 -16.390310
v 0.000000 5.799749 -17.536180
v 0.000000 5.528377 -20.200809
v 0.000000 5.054815 -19.116510
v 0.000000 4.987761 -19.826750
v 0.004395 5.758481 -34.681961
v 0.004395 1.995922 -34.762829
# 647 vertices

vt 0.27637 -0.74023
vt 0.64355 -0.63672
vt 0.64355 -0.73926
vt 0.27539 -0.63574
vt 0.28613 -0.74219
vt 0.50195 -0.60156
vt 0.52539 -0.74023
vt 0.29004 -0.60059
vt 0.27734 -0.73926
vt 0.71484 -0.65625
vt 0.74512 -0.73926
vt 0.34277 -0.60156
vt 0.30078 -0.73926
vt 0.40918 -0.63477
vt 0.41699 -0.74121
vt 0.29590 -0.62988
vt 0.27930 -0.73926
vt 0.73535 -0.65723
vt 0.29883 -0.62305
vt 0.74316 -0.73926
vt 0.47852 -0.12891
vt 0.49219 -0.01953
vt 0.49121 -0.01953
vt 0.99023 -0.24219
vt 0.88086 -0.01074
vt 0.99316 -0.01074
vt 0.89062 -0.23730
vt 0.96484 -0.28906
vt 0.99414 -0.01074
vt 0.88574 -0.23438
vt 0.98438 -0.24023
vt 0.88379 -0.01074
vt 0.88281 -0.01074
vt 0.98828 -0.23828
vt 0.89062 -0.23438
vt 0.77344 -0.24219
vt 0.76562 -0.24219
vt 0.76953 -0.23828
vt 0.77344 -0.25000
vt 0.76953 -0.24219
vt 0.76953 -0.24609
vt 0.76562 -0.23828
vt 0.96094 -0.28906
vt 0.99023 -0.23926
vt 0.98730 -0.23828
vt 0.98926 -0.24316
vt 0.88184 -0.01074
vt 0.39746 -0.76074
vt 0.39453 -0.99902
vt 0.67090 -0.87402
vt 0.01074 -0.99316
vt 0.01172 -0.76367
vt 0.70605 -0.99121
vt 0.99805 -0.95801
vt 1.00098 -0.99023
vt 0.70703 -0.95703
vt 0.59082 -0.66016
vt 0.69922 -0.66992
vt 0.96094 -0.29297
vt 0.88477 -0.01074
vt 0.84375 -0.41797
vt 0.98438 -0.06641
vt 0.91797 -0.05469
vt 0.67578 -0.04785
vt 0.02930 -0.60645
vt 0.00195 -0.00195
vt 1.00195 -0.99609
vt 0.70215 -0.99609
vt 0.84473 -0.41797
vt 0.00000 0.00000
vt 0.67578 -0.05078
vt 0.02832 -0.60645
vt 0.95508 -0.28613
vt 0.89160 -0.01074
vt 0.99121 -0.01074
vt 0.96582 -0.28906
vt 0.98828 -0.01074
vt 0.89746 -0.01074
vt 0.97363 -0.24414
vt 0.95410 -0.26758
vt 0.94531 -0.25195
vt 0.98926 -0.01074
vt 0.95801 -0.28711
vt 0.96875 -0.28809
vt 0.98535 -0.01074
vt 0.90039 -0.01074
vt 0.96973 -0.24609
vt 0.95801 -0.26367
vt 0.94727 -0.25293
vt 0.95703 -0.29004
vt 0.89062 -0.01074
vt 0.96680 -0.29004
vt 0.98438 -0.01074
vt 0.89648 -0.01074
vt 0.96973 -0.24219
vt 0.94922 -0.25293
vt 0.94434 -0.23535
vt 0.77344 -0.25781
vt 0.76562 -0.25781
vt 0.76562 -0.25000
vt 0.76953 -0.25781
vt 0.77344 -0.25391
vt 0.85156 -0.01074
vt 0.74609 -0.01074
vt 0.80078 -0.28125
vt 0.76562 -0.24609
vt 0.66895 -0.87500
vt 0.06641 -0.74805
vt 0.06445 -0.99805
vt 0.44629 -0.12305
vt 0.28809 -0.22949
vt 0.53271 -0.23291
vt 0.29883 -0.12402
vt 0.53174 -0.00684
vt 0.26953 -0.00488
vt 0.16895 -0.93701
vt 0.09180 -0.93799
vt 0.13867 -0.89111
vt 0.11475 -0.98926
vt 0.09131 -0.93799
vt 1.09619 -0.38672
vt 1.00537 -0.18555
vt 1.06543 -0.25635
vt 1.00830 -0.40576
vt 1.13379 -0.49658
vt 1.00732 -0.54297
vt 1.11182 -0.32275
vt 1.21338 -0.47119
vt 1.20898 -0.32324
vt 1.27637 -0.40625
vt 1.21240 -0.31543
vt 1.35205 -0.40283
vt 1.28662 -0.29932
vt 1.38135 -0.36328
vt 1.40137 -0.59717
vt 1.45801 -0.52979
vt 1.46289 -0.41602
vt 0.05273 -0.25439
vt 0.03906 -0.25635
vt 0.05518 -0.25635
vt 0.03906 -0.25439
vt 0.05273 -0.25244
vt 0.03955 -0.25244
vt 0.04004 -0.24951
vt 0.03906 -0.25146
vt 0.55957 -0.58936
vt 0.58203 -0.44922
vt 0.58545 -0.58887
vt 0.56982 -0.44922
vt 0.55811 -0.58936
vt 0.55811 -0.47705
vt 0.33740 -0.95850
vt 0.31104 -0.86914
vt 0.42090 -0.91943
vt 0.28613 -0.90576
vt 0.32275 -0.97754
vt 0.24316 -0.95459
vt 0.31445 -0.99609
vt 0.21191 -0.99365
vt 0.15869 -0.88428
vt 0.28027 -0.85938
vt 0.41846 -0.75195
vt 0.10254 -0.82275
vt 0.34424 -0.68506
vt 0.04590 -0.81592
vt 0.22607 -0.70361
vt 0.44043 -0.77783
vt 0.53613 -0.92334
vt 0.49121 -0.91943
vt 0.91797 -0.70703
vt 0.50000 -0.63672
vt 0.49707 -0.64111
vt 0.50537 -0.99219
vt 0.44629 -0.92236
vt 0.52148 -0.92676
vt 0.33057 -0.99170
vt 0.85352 -0.98682
vt 0.38232 -0.96729
vt 0.39111 -0.98828
vt 0.99463 -0.23486
vt 0.90332 -0.28223
vt 0.86816 -0.15381
vt 0.99268 -0.37061
vt 0.56006 -0.34619
vt 0.50781 -0.37500
vt 0.55469 -0.21484
vt 0.56201 -0.44531
vt 0.61475 -0.37109
vt 0.00049 -0.12109
vt 0.34033 -0.12402
vt 0.51221 -0.23535
vt 0.57861 -0.12109
vt 0.28760 -0.23145
vt 0.00195 -0.11963
vt 0.26807 -0.00488
vt 0.49756 -0.01025
vt 0.25635 -0.88672
vt 0.16113 -0.95654
vt 0.13916 -0.89111
vt 0.14014 -0.89111
vt 0.57764 -0.12207
vt 0.16211 -0.95557
vt 0.25537 -0.88672
vt 0.13965 -0.89111
vt 1.47754 -0.43262
vt 1.49512 -0.37988
vt 1.34082 -0.66992
vt 1.26269 -0.67383
vt 1.13769 -0.18799
vt 1.28369 -0.23193
vt 0.05078 -0.23779
vt 0.05273 -0.23145
vt 0.05420 -0.23340
vt 0.05078 -0.23242
vt 0.04785 -0.23145
vt 0.05957 -0.25537
vt 0.05713 -0.25537
vt 0.05957 -0.25586
vt 0.06006 -0.25342
vt 0.04688 -0.23584
vt 0.04492 -0.23779
vt 0.04541 -0.24170
vt 0.05713 -0.25391
vt 0.05566 -0.25049
vt 0.05811 -0.25049
vt 0.05762 -0.25342
vt 0.06055 -0.25098
vt 0.52295 -0.58984
vt 0.54395 -0.47754
vt 0.53613 -0.58984
vt 0.52588 -0.45020
vt 0.55127 -0.47705
vt 0.53564 -0.58984
vt 0.54395 -0.47705
vt 0.54102 -0.58984
vt 1.10059 -0.21680
vt 0.88916 -0.40479
vt 0.96436 -0.41162
vt 0.87842 -0.49707
vt 0.96680 -0.99414
vt 0.74609 -0.98438
vt 0.99609 -0.52734
vt 0.01074 -0.90918
vt 0.88965 -0.54053
vt 0.99609 -0.53125
vt 0.50049 -0.63672
vt 0.08203 -0.93994
vt 0.10400 -0.90771
vt 0.49463 -0.64062
vt 0.11377 -0.98828
vt 0.17432 -0.94238
vt 1.00732 -0.52393
vt 1.13818 -0.49219
vt 1.08594 -0.69189
vt 1.00537 -0.65430
vt 0.83594 -0.31299
vt 0.83105 -0.55371
vt 0.65137 -0.53223
vt 0.68506 -0.31201
vt 1.37500 -0.36914
vt 1.29248 -0.30518
vt 1.31494 -0.25537
vt 1.38232 -0.30811
vt 0.85889 -0.00146
vt 0.85889 -0.08398
vt 0.61572 -0.08252
vt 0.61035 -0.00146
vt 0.38574 -0.52344
vt 0.40820 -0.51025
vt 0.39062 -0.50049
vt 0.40771 -0.51025
vt 0.55762 -0.58936
vt 0.54688 -0.58984
vt 0.74268 -0.13037
vt 0.72363 -0.14600
vt 0.72656 -0.11426
vt 0.74316 -0.11328
vt 1.43994 -0.40332
vt 1.38184 -0.37305
vt 0.73193 -0.25537
vt 0.60986 -0.29590
vt 0.85205 -0.27051
vt 0.37061 -0.40576
vt 0.36182 -0.40576
vt 0.36426 -0.40723
vt 0.99316 0.00928
vt 0.99463 -0.14795
vt 0.87646 -0.14795
vt 0.98047 0.00000
vt 0.86328 -0.14844
vt 0.86328 0.00000
vt 0.98145 -0.00098
vt 1.01025 -0.40576
vt 1.05469 -0.41699
vt 1.00488 -0.18555
vt 0.04395 -0.35693
vt 0.04199 -0.36963
vt 0.04199 -0.35645
vt 1.39551 -0.59912
vt 1.34131 -0.65723
vt 1.35840 -0.58105
vt 0.42236 -0.34033
vt 0.40088 -0.40430
vt 0.45703 -0.40527
vt 1.35693 -0.58154
vt 1.39404 -0.59912
vt 1.34082 -0.65820
vt 0.04199 -0.35840
vt 0.04004 -0.35742
vt 0.03760 -0.37256
vt 0.54736 -0.58984
vt 0.54150 -0.58984
vt 0.33887 -0.40186
vt 0.34570 -0.40137
vt 0.90527 -0.70605
vt 0.45410 -0.08789
vt 0.96289 -0.40723
vt 0.22949 -0.10352
vt 0.68945 -0.73438
vt 0.13770 -0.09668
vt 0.47656 -0.98828
vt 0.09082 -0.08105
vt 0.91016 -0.00293
vt 0.87793 -0.08008
vt 0.34570 0.00000
vt 0.24609 0.00000
vt 0.17578 -0.00879
vt 0.08594 -0.05078
vt 0.10547 -0.01758
vt 0.26270 -0.97754
vt 0.05176 -0.91895
vt 0.00391 -0.02148
vt -0.04102 -0.11914
vt -0.26953 -0.38965
vt 0.83691 -0.82129
vt 0.96094 -0.89062
vt 0.94043 -0.95312
vt 0.99707 -0.02344
vt 0.95996 -0.88770
vt 0.83594 -0.81738
vt 0.93848 -0.95020
vt -1.29102 -0.96387
vt -0.68750 -0.73633
vt -0.26074 -0.96387
vt -1.59277 -0.68652
vt -2.36914 -0.96387
vt -2.59277 -0.66309
vt -2.64941 -0.96387
vt -3.08203 -0.63281
vt -3.01953 -0.96387
vt -3.38086 -0.61426
vt -3.63770 -0.96387
vt -3.92480 -0.58105
vt -4.91894 -0.96387
vt -5.19531 -0.61816
vt -5.83984 -0.96387
vt -6.13379 -0.61426
vt 2.82031 -0.62305
vt 2.33203 -0.32715
vt 2.79102 -0.30371
vt 2.30762 -0.69141
vt 3.22070 -0.96387
vt 2.41211 -0.96387
vt 2.47656 -0.01855
vt 2.31152 -0.01855
vt 1.54394 -0.39062
vt 1.27051 -0.02539
vt 1.46094 -0.96387
vt 0.91895 -0.70508
vt 1.24707 -0.67969
vt 0.95801 -0.96387
vt -5.59473 -0.00195
vt -6.39941 -0.00195
vt -4.33887 -0.00195
vt -3.85254 -0.00195
vt -3.45996 -0.00195
vt -2.84082 -0.00195
vt -1.81250 -0.01855
vt -0.99707 -0.03516
vt -0.78027 -0.53809
vt -0.21680 -0.01855
vt 0.00391 -0.45312
vt 0.47559 -0.47949
vt 0.90723 -0.56836
vt 0.29980 -0.68457
vt -3.07324 -0.63379
vt -3.38379 -0.61426
vt 0.22754 -0.01465
vt 0.44336 -0.36816
vt 0.88965 -0.34473
vt 1.44141 -0.70020
vt 2.09082 -0.96387
vt 1.22070 -0.49316
vt 0.97070 -0.02246
vt 1.43848 -0.70312
vt 2.88379 -0.01855
vt 3.29199 -0.01855
vt 0.67285 -0.08203
vt 0.56348 -0.16406
vt 0.57715 -0.08203
vt 0.68164 -0.16406
vt 0.78125 -0.12695
vt 0.78613 -0.16211
vt 0.87012 -0.09180
vt 0.92871 -0.00293
vt 0.99805 -0.08984
vt 0.83008 -0.01758
vt 0.76855 -0.08203
vt 0.76074 -0.04785
vt 0.42871 -0.96289
vt 0.43555 -0.96777
vt 0.43066 -0.96777
vt 0.43359 -0.96289
vt 0.42676 -0.95312
vt 0.43262 -0.95312
vt 0.72656 -0.51855
vt 0.80078 -0.67676
vt 0.88281 -0.59766
vt 0.72559 -0.63574
vt 0.74121 -0.07520
vt 0.79980 -0.75879
vt 0.73730 -0.71289
vt 0.79102 -0.70508
vt 0.73633 -0.71191
vt 0.68359 -0.63867
vt 0.67383 -0.59082
vt 0.67480 -0.59082
vt 0.01367 -0.99707
vt 0.13184 -1.22461
vt 0.12598 -1.10742
vt 0.04590 -1.19336
vt 0.55469 -1.74316
vt 0.34570 -1.92773
vt 0.35254 -0.93457
vt 0.55176 -0.76562
vt 0.57227 -0.96191
vt 0.40430 -0.64648
vt 0.40137 -0.64746
vt 0.09180 -0.20410
vt 0.21875 -0.62695
vt 0.04688 -0.21387
vt 0.01367 0.00293
vt 0.13086 -0.22852
vt 0.13086 -0.11426
vt 0.73145 -0.61133
vt 0.43555 -0.87695
vt 0.51953 -0.94141
vt 0.54883 -0.90234
vt 0.54883 -0.87500
vt 0.72949 -0.63965
vt 0.73047 -0.50781
vt 0.89746 -0.63379
vt 0.81641 -0.70605
vt 0.68066 -1.66309
vt 0.76465 -1.98438
vt 0.43262 -0.64648
vt 0.18848 -0.33594
vt 0.18848 -0.33203
vt 0.99805 0.00195
vt 0.41504 -0.65918
vt 0.42285 -0.84277
vt 0.52051 -0.83984
vt 0.88965 -0.98438
vt 0.41406 -0.96777
vt 0.58496 -0.95703
vt 0.61914 -0.96973
vt 0.42285 -0.81250
vt 0.42188 -0.74023
vt 0.45898 -0.79590
vt 0.50391 -0.85938
vt 0.42285 -0.73926
vt 0.87500 -0.97949
# 472 texture vertices

usemtl mat2.png
f 1/3 2/2 3/1
f 2/2 4/4 3/1
f 5/7 6/6 7/5
f 6/6 8/8 7/5
f 7/11 8/10 1/9
f 8/10 2/12 1/9
f 9/15 10/14 11/13
f 10/14 12/16 11/13
f 13/19 10/18 14/17
f 10/18 9/20 14/17
f 6/21 5/22 15/21
f 5/22 16/23 15/21
f 17/26 18/25 19/24
f 18/25 20/27 19/24
f 19/24 20/27 21/28
f 22/31 23/30 24/29
f 23/30 25/32 24/29
f 26/26 27/34 28/33
f 27/34 29/35 28/33
f 28/33 29/35 24/26
f 29/35 30/34 24/26
f 30/38 27/37 24/36
f 27/37 26/39 24/36
f 31/41 32/37 24/40
f 32/37 22/42 24/40
f 22/44 33/43 23/30
f 33/43 32/45 23/30
f 23/30 32/45 31/26
f 21/28 20/27 34/46
f 20/27 18/47 34/46
f 34/46 18/47 31/26
f 34/38 31/36 19/37
f 31/36 17/39 19/37
f 35/50 36/49 37/48
f 36/49 38/51 37/48
f 37/48 38/51 39/52
f 38/55 40/54 39/53
f 40/54 41/56 39/53
f 11/58 12/57 42/57
f 12/57 43/58 42/57
f 42/57 43/58 11/58
f 44/4 45/2 46/1
f 45/2 47/3 46/1
f 48/8 15/6 49/5
f 15/6 5/7 49/5
f 45/12 48/10 47/9
f 48/10 49/11 47/9
f 12/16 50/14 43/13
f 50/14 51/15 43/13
f 51/20 50/18 52/17
f 50/18 53/19 52/17
f 15/21 16/23 5/22
f 54/26 55/24 56/25
f 55/24 57/27 56/25
f 58/32 59/30 60/29
f 59/30 61/31 60/29
f 62/33 60/26 63/35
f 60/26 64/34 63/35
f 63/35 64/34 65/59
f 66/26 62/33 67/34
f 62/33 63/35 67/34
f 67/34 63/35 65/43
f 66/39 67/37 60/36
f 67/37 64/38 60/36
f 61/42 68/37 60/40
f 68/37 69/41 60/40
f 61/44 59/30 70/43
f 59/30 68/45 70/43
f 71/28 72/46 57/27
f 72/46 56/47 57/27
f 73/60 69/26 59/30
f 69/26 68/45 59/30
f 54/39 69/36 55/37
f 69/36 72/38 55/37
f 74/50 75/48 76/49
f 75/48 77/51 76/49
f 77/55 78/53 79/54
f 78/53 80/56 79/54
f 79/54 80/56 81/61
f 82/63 83/62 84/43
f 83/62 85/63 84/43
f 86/63 87/43 88/62
f 87/43 89/63 88/62
f 90/66 91/65 92/64
f 93/69 94/68 95/67
f 96/72 97/71 98/70
f 99/67 100/68 101/69
f 102/69 103/68 104/67
f 105/75 106/74 107/73
f 106/78 108/77 107/76
f 108/81 105/80 107/79
f 109/74 110/83 111/82
f 109/86 105/85 110/84
f 105/89 111/88 110/87
f 112/91 113/90 114/82
f 112/94 111/93 113/92
f 111/97 114/96 113/95
f 30/34 29/35 115/59
f 29/35 27/34 115/43
f 27/100 30/99 115/98
f 22/100 32/99 33/101
f 34/99 19/100 21/102
f 23/105 116/104 25/103
f 85/100 82/106 84/100
f 31/26 116/60 23/30
f 117/109 118/108 119/107
f 117/67 120/69 118/68
f 40/54 121/61 41/56
f 122/69 123/68 124/67
f 125/66 126/64 127/65
f 128/69 129/67 130/68
f 131/72 132/70 133/71
f 134/67 135/69 136/68
f 137/69 138/67 139/68
f 140/75 141/73 142/74
f 142/78 141/76 143/77
f 143/81 141/79 140/80
f 144/74 145/82 146/83
f 144/86 146/84 140/85
f 140/89 146/87 145/88
f 147/91 148/82 149/90
f 147/94 149/92 145/93
f 145/97 149/95 148/96
f 67/100 65/98 64/99
f 61/100 70/101 68/99
f 55/24 71/28 57/27
f 72/99 71/102 55/100
f 59/105 58/103 73/104
f 89/100 87/100 86/106
f 72/46 69/26 56/47
f 150/109 151/107 152/108
f 150/67 152/68 153/69
f 75/48 78/52 77/51
f 154/69 155/67 156/68
usemtl mat1.png
f 159/112 158/111 157/110
f 158/111 160/113 157/110
f 157/110 160/113 161/114
f 160/113 162/115 161/114
f 158/118 159/117 163/116
f 159/117 164/119 163/116
f 163/116 164/119 162/118
f 164/119 161/120 162/118
f 167/123 166/122 165/121
f 166/122 168/124 165/121
f 165/121 168/124 169/125
f 168/124 170/126 169/125
f 165/121 169/125 171/127
f 169/125 172/128 171/127
f 171/127 172/128 173/129
f 172/128 174/130 173/129
f 173/129 174/130 175/131
f 174/130 176/132 175/131
f 175/131 176/132 177/133
f 176/132 178/134 177/133
f 174/130 179/135 176/132
f 179/135 180/136 176/132
f 176/132 180/136 178/134
f 180/136 181/137 178/134
f 184/140 183/139 182/138
f 183/139 185/141 182/138
f 182/138 185/141 186/142
f 185/141 187/143 186/142
f 186/142 187/143 184/144
f 187/143 183/145 184/144
f 190/148 189/147 188/146
f 189/147 191/149 188/146
f 188/146 191/149 192/150
f 191/149 179/151 192/150
f 195/154 194/153 193/152
f 194/153 196/155 193/152
f 193/152 196/155 197/156
f 196/155 198/157 197/156
f 197/156 198/157 199/158
f 198/157 200/159 199/158
f 199/158 200/159 201/156
f 200/159 202/157 201/156
f 201/156 202/157 203/152
f 202/157 204/155 203/152
f 203/152 204/155 205/154
f 204/155 206/153 205/154
f 208/161 194/153 207/160
f 194/153 209/162 207/160
f 207/160 209/162 210/163
f 209/162 211/164 210/163
f 210/163 211/164 212/165
f 211/164 213/166 212/165
f 212/165 213/166 214/163
f 213/166 215/164 214/163
f 214/163 215/164 216/160
f 215/164 217/162 216/160
f 216/160 217/162 218/161
f 217/162 206/153 218/161
f 221/169 220/168 219/167
f 220/168 222/170 219/167
f 219/167 222/170 209/162
f 222/170 223/171 209/162
f 211/164 223/171 213/166
f 223/171 224/172 213/166
f 213/166 224/172 215/164
f 224/172 225/171 215/164
f 193/175 197/174 226/173
f 197/174 199/176 226/173
f 226/173 199/176 203/175
f 199/176 201/174 203/175
f 195/154 193/178 227/177
f 193/178 226/179 227/177
f 227/177 226/179 205/154
f 226/179 203/178 205/154
f 230/111 229/112 228/113
f 229/112 231/110 228/113
f 228/113 231/110 232/115
f 231/110 233/114 232/115
f 229/117 230/118 234/119
f 230/118 235/116 234/119
f 234/119 235/116 233/120
f 235/116 232/118 233/120
f 238/122 237/123 236/124
f 237/123 239/121 236/124
f 236/124 239/121 240/126
f 239/121 241/125 240/126
f 241/125 239/121 242/128
f 239/121 243/127 242/128
f 242/128 243/127 244/130
f 243/127 245/129 244/130
f 244/130 245/129 246/132
f 245/129 247/131 246/132
f 246/132 247/131 248/134
f 247/131 249/133 248/134
f 251/135 244/130 250/136
f 244/130 246/132 250/136
f 250/136 246/132 252/137
f 246/132 248/134 252/137
f 255/139 254/140 253/141
f 254/140 256/138 253/141
f 253/141 256/138 257/143
f 256/138 258/142 257/143
f 257/143 258/142 255/145
f 258/142 254/144 255/145
f 261/147 260/148 259/149
f 260/148 262/146 259/149
f 259/149 262/146 251/151
f 262/146 263/150 251/151
f 266/168 265/169 264/170
f 265/169 267/167 264/170
f 264/170 267/167 225/171
f 267/167 217/162 225/171
f 270/182 269/181 268/180
f 269/181 271/183 268/180
f 274/186 273/185 272/184
f 273/185 275/187 272/184
f 272/184 275/187 276/188
f 158/111 277/189 160/113
f 277/189 162/115 160/113
f 280/192 279/191 278/190
f 279/191 281/193 278/190
f 278/190 281/193 282/194
f 282/194 283/195 278/190
f 283/195 284/196 278/190
f 278/190 284/196 280/192
f 287/199 286/198 285/197
f 286/198 288/200 285/197
f 161/114 164/201 157/110
f 164/201 159/112 157/110
f 162/199 289/203 163/202
f 289/203 158/204 163/202
f 291/206 181/137 290/205
f 181/137 180/136 290/205
f 174/130 172/128 179/135
f 172/128 292/207 179/135
f 169/125 293/208 172/128
f 293/208 292/207 172/128
f 175/131 177/133 294/209
f 177/133 166/210 294/209
f 297/213 296/212 295/211
f 296/212 298/214 295/211
f 295/211 298/214 299/215
f 297/218 185/217 298/216
f 185/217 300/219 298/216
f 299/215 300/220 295/211
f 300/220 301/221 295/211
f 295/211 301/221 302/222
f 185/217 297/224 187/223
f 297/224 295/225 187/223
f 187/223 295/225 183/226
f 295/225 302/227 183/226
f 183/226 302/227 185/217
f 302/227 300/219 185/217
f 303/230 293/229 190/228
f 293/229 189/231 190/228
f 293/234 303/233 292/232
f 303/233 304/235 292/232
f 165/121 171/127 167/123
f 171/127 305/236 167/123
f 308/239 307/238 306/237
f 307/238 271/183 306/237
f 306/237 271/183 269/181
f 220/168 221/169 309/240
f 221/169 227/177 309/240
f 309/240 311/242 310/241
f 311/242 222/170 310/241
f 310/241 222/170 220/168
f 210/163 212/165 312/243
f 212/165 214/163 312/243
f 222/170 311/245 313/244
f 311/245 264/170 313/244
f 313/244 264/170 225/246
f 315/248 312/243 314/247
f 312/243 316/247 314/247
f 209/162 194/153 219/167
f 194/153 195/154 219/167
f 219/167 195/154 221/169
f 195/154 227/177 221/169
f 319/182 318/180 317/181
f 318/180 320/183 317/181
f 317/181 320/183 321/237
f 320/183 322/238 321/237
f 321/237 322/238 323/239
f 326/185 325/186 324/184
f 325/186 327/188 324/184
f 324/184 327/188 328/187
f 230/111 228/113 329/189
f 228/113 232/115 329/189
f 332/191 331/192 330/190
f 331/192 333/196 330/190
f 330/190 333/196 334/195
f 334/195 335/194 330/190
f 335/194 336/193 330/190
f 330/190 336/193 332/191
f 339/199 338/197 337/198
f 338/197 340/200 337/198
f 233/114 231/110 234/201
f 231/110 229/112 234/201
f 232/199 235/202 341/203
f 235/202 230/204 341/203
f 343/206 342/205 252/137
f 342/205 250/136 252/137
f 244/130 251/135 242/128
f 251/135 344/207 242/128
f 242/128 344/207 345/208
f 247/131 346/209 249/133
f 346/209 238/210 249/133
f 257/223 255/226 347/225
f 255/226 348/227 347/225
f 350/213 347/211 349/212
f 347/211 351/214 349/212
f 350/218 351/216 253/217
f 351/216 352/219 253/217
f 253/217 352/219 348/227
f 351/214 347/211 353/215
f 347/211 352/220 353/215
f 348/222 354/221 347/211
f 354/221 352/220 347/211
f 253/217 257/223 350/224
f 257/223 347/225 350/224
f 261/231 345/229 260/228
f 345/229 355/230 260/228
f 356/235 355/233 344/232
f 355/233 345/234 344/232
f 239/121 237/123 243/127
f 237/123 357/236 243/127
f 243/127 357/236 245/129
f 227/177 265/169 309/240
f 265/169 266/168 309/240
f 309/240 266/168 358/241
f 266/168 264/170 358/241
f 358/241 264/170 311/242
f 360/248 359/247 312/243
f 359/247 316/247 312/243
f 217/162 267/167 206/153
f 267/167 205/154 206/153
f 267/167 265/169 205/154
f 265/169 227/177 205/154
f 222/170 313/244 223/246
f 313/244 224/249 223/246
f 284/117 288/200 286/198 280/250
f 286/251 287/199 279/120 280/250
f 291/255 293/254 169/253 170/252
f 364/259 363/258 362/257 361/256
f 170/263 168/262 177/261 178/260
f 175/131 294/209 305/236 173/129
f 366/267 365/266 182/265 186/264
f 184/271 367/270 366/269 186/268
f 179/151 292/232 368/273 192/272
f 370/277 190/276 188/275 369/274
f 170/263 178/279 181/278 291/206
f 184/282 182/265 371/281 367/280
f 207/160 210/163 312/243 315/248
f 337/198 340/200 333/117 331/250
f 332/120 339/199 337/251 331/250
f 241/253 345/254 343/255 240/252
f 375/257 374/258 373/259 372/256
f 249/261 236/262 240/263 248/260
f 357/236 346/209 247/131 245/129
f 256/265 377/266 376/267 258/264
f 254/271 258/268 376/269 378/270
f 379/273 344/232 251/151 263/272
f 262/275 260/276 381/277 380/274
f 252/278 248/279 240/263 343/206
f 254/282 378/280 382/281 256/265
f 312/243 214/163 216/160 360/248
f 274/285 276/284 273/283
f 274/186 272/184 276/188
f 385/288 384/287 383/286
f 388/291 387/290 386/289
f 383/290 384/292 389/291
f 388/291 390/290 387/289
f 166/295 177/294 168/293
f 180/298 179/297 191/296
f 368/301 369/300 192/299
f 291/304 290/303 189/302
f 180/304 191/302 290/303
f 370/307 304/306 303/305
f 293/310 291/309 189/308
f 292/232 304/312 368/311
f 371/281 182/265 365/266
f 211/164 209/162 223/171
f 310/241 220/168 309/240
f 275/314 273/313 276/284
f 171/127 173/129 305/236
f 325/285 326/283 327/284
f 326/185 324/184 328/187
f 393/288 392/286 391/287
f 396/291 395/289 394/290
f 392/290 397/291 391/292
f 396/291 394/289 398/290
f 238/295 236/293 249/294
f 345/208 241/125 242/128
f 250/298 259/296 251/297
f 379/301 263/299 380/300
f 343/304 261/302 342/303
f 250/304 342/303 259/302
f 381/307 355/305 356/306
f 345/310 261/308 343/309
f 344/232 379/311 356/312
f 253/217 348/227 255/226
f 382/281 377/266 256/265
f 358/241 311/242 309/240
f 215/164 225/171 217/162
f 328/314 327/284 326/313
f 225/246 224/249 313/244
usemtl mat5.png
f 401/317 400/316 399/315
f 400/316 402/318 399/315
f 399/315 402/318 403/319
f 402/318 404/320 403/319
f 403/319 404/320 405/321
f 404/320 406/322 405/321
f 408/324 407/323 400/316
f 407/323 409/325 400/316
f 400/316 409/325 402/318
f 409/325 410/326 402/318
f 402/318 410/326 404/320
f 410/326 411/327 404/320
f 414/316 413/317 412/318
f 413/317 415/315 412/318
f 412/318 415/315 416/320
f 415/315 417/319 416/320
f 416/320 417/319 418/322
f 417/319 419/321 418/322
f 422/323 421/324 420/325
f 421/324 414/316 420/325
f 420/325 414/316 423/326
f 414/316 412/318 423/326
f 423/326 412/318 424/327
f 412/318 416/320 424/327
f 406/322 404/320 425/328
f 404/320 411/327 425/328
f 425/328 411/327 426/329
f 405/321 406/322 427/330
f 406/322 428/331 427/330
f 418/322 429/328 416/320
f 429/328 424/327 416/320
f 431/332 430/329 429/328
f 430/329 424/327 429/328
f 419/321 432/330 418/322
f 432/330 433/331 418/322
f 435/334 428/331 406/322 434/333
f 418/322 433/331 437/334 436/333
f 425/328 426/329 438/332
f 435/337 434/336 439/335
f 407/323 408/324 440/338
f 401/317 408/324 400/316
f 437/341 441/340 436/339
f 422/323 442/338 421/324
f 413/317 414/316 421/324
usemtl mat3.png
f 445/344 444/343 443/342
f 444/343 446/345 443/342
f 443/342 446/345 447/346
f 446/345 448/347 447/346
f 447/346 448/347 449/348
f 448/347 450/349 449/348
f 449/348 450/349 451/350
f 450/349 452/351 451/350
f 451/350 452/351 453/352
f 452/351 454/353 453/352
f 453/352 454/353 455/354
f 454/353 456/355 455/354
f 455/354 456/355 457/356
f 456/355 458/357 457/356
f 461/360 460/359 459/358
f 460/359 462/361 459/358
f 459/358 462/361 463/362
f 462/361 464/363 463/362
f 463/362 464/363 465/358
f 464/363 466/361 465/358
f 465/358 466/361 467/360
f 466/361 468/359 467/360
f 467/360 468/359 469/364
f 468/359 470/365 469/364
f 473/367 472/366 471/365
f 472/366 460/359 471/365
f 471/365 460/359 469/364
f 460/359 461/360 469/364
f 476/370 475/369 474/368
f 475/369 477/371 474/368
f 474/368 477/371 478/370
f 477/371 479/369 478/370
f 481/373 458/357 480/372
f 458/357 456/355 480/372
f 480/372 456/355 482/374
f 456/355 454/353 482/374
f 482/374 454/353 483/375
f 454/353 452/351 483/375
f 483/375 452/351 484/376
f 452/351 450/349 484/376
f 484/376 450/349 485/377
f 450/349 448/347 485/377
f 485/377 448/347 486/378
f 448/347 446/345 486/378
f 486/378 446/345 487/379
f 446/345 488/380 487/379
f 487/379 488/380 489/381
f 488/380 490/382 489/381
f 492/384 491/383 475/369
f 491/383 493/385 475/369
f 475/369 493/385 477/371
f 493/385 445/344 477/371
f 477/371 445/344 479/369
f 445/344 494/385 479/369
f 479/369 494/385 495/384
f 494/385 496/383 495/384
f 498/343 445/344 497/345
f 445/344 443/342 497/345
f 497/345 443/342 499/347
f 443/342 447/346 499/347
f 499/347 447/346 500/386
f 447/346 449/348 500/386
f 500/386 449/348 501/387
f 449/348 451/350 501/387
f 501/387 451/350 502/353
f 451/350 453/352 502/353
f 502/353 453/352 503/355
f 453/352 455/354 503/355
f 503/355 455/354 504/357
f 455/354 457/356 504/357
f 504/357 481/373 503/355
f 481/373 480/372 503/355
f 503/355 480/372 502/353
f 480/372 482/374 502/353
f 502/353 482/374 501/387
f 482/374 483/375 501/387
f 501/387 483/375 500/386
f 483/375 484/376 500/386
f 500/386 484/376 499/347
f 484/376 485/377 499/347
f 499/347 485/377 497/345
f 485/377 486/378 497/345
f 497/345 486/378 505/380
f 486/378 487/379 505/380
f 505/380 487/379 506/382
f 487/379 489/381 506/382
f 489/381 490/382 507/388
f 490/382 508/389 507/388
f 507/388 508/389 509/390
f 508/389 491/383 509/390
f 509/390 491/383 492/384
f 476/370 474/368 510/391
f 474/368 511/392 510/391
f 510/391 511/392 462/361
f 511/392 464/363 462/361
f 490/382 488/380 444/343
f 488/380 446/345 444/343
f 492/384 512/393 509/390
f 512/393 472/366 509/390
f 509/390 472/366 473/367
f 473/367 471/365 513/365
f 471/365 469/364 513/365
f 513/365 469/364 470/365
f 489/381 507/388 506/382
f 507/388 514/389 506/382
f 506/382 514/389 496/383
f 514/389 515/390 496/383
f 496/383 515/390 495/384
f 515/390 516/393 495/384
f 514/389 507/388 515/390
f 507/388 517/394 515/390
f 515/390 517/394 473/367
f 517/394 509/390 473/367
f 478/370 518/395 474/368
f 518/395 511/392 474/368
f 518/395 466/361 511/392
f 466/361 464/363 511/392
f 516/393 515/390 519/366
f 515/390 473/367 519/366
f 506/382 498/343 505/380
f 498/343 497/345 505/380
f 476/370 510/391 472/366 512/393
f 519/366 518/395 478/370 516/393
f 473/367 470/365 468/359 519/366
f 445/344 493/385 444/343
f 508/389 490/382 491/383
f 522/397 521/397 520/396
f 445/344 498/343 494/385
f 470/365 473/367 513/365
f 517/394 507/388 509/390
usemtl mat4.png
f 525/400 524/399 523/398
f 524/399 526/401 523/398
f 523/398 526/401 527/402
f 526/401 528/403 527/402
f 524/406 530/405 529/404
f 530/405 531/407 529/404
f 529/404 531/407 532/408
f 531/407 533/409 532/408
f 524/399 534/400 526/401
f 534/400 535/398 526/401
f 526/401 535/398 528/403
f 535/398 536/402 528/403
f 538/405 524/406 537/407
f 524/406 529/404 537/407
f 537/407 529/404 539/409
f 529/404 532/408 539/409
f 542/412 541/411 540/410
f 541/411 543/413 540/410
f 540/410 543/413 544/414
f 543/413 545/415 544/414
f 544/414 545/415 546/410
f 545/415 547/413 546/410
f 546/410 547/413 542/412
f 547/413 541/411 542/412
f 550/418 549/417 548/416
f 549/417 551/419 548/416
f 548/416 551/419 552/418
f 551/419 553/417 552/418
f 533/420 554/409 532/408
f 554/409 539/420 532/408
f 557/423 556/422 555/421
f 556/422 558/424 555/421
f 560/426 558/424 559/425
f 558/424 556/422 559/425
f 559/425 556/422 561/427
f 564/430 563/429 562/428
f 563/429 565/431 562/428
f 567/433 565/431 566/432
f 565/431 563/429 566/432
f 570/436 569/435 568/434
f 569/435 571/437 568/434
f 571/437 569/435 572/438
f 569/435 570/436 572/438
f 572/438 570/436 568/434
f 575/441 574/440 573/439
f 574/440 571/437 573/439
f 578/444 577/443 576/442
f 577/443 575/441 576/442
f 575/441 577/443 574/440
f 577/443 572/438 574/440
f 574/440 572/438 568/434
f 577/443 578/444 573/439
f 578/444 576/442 573/439
f 573/439 576/442 575/441
f 581/436 580/434 579/435
f 580/434 582/437 579/435
f 579/435 582/437 583/438
f 579/435 583/438 581/436
f 583/438 580/434 581/436
f 585/443 584/440 583/438
f 584/440 580/434 583/438
f 588/442 587/439 586/441
f 587/439 584/440 586/441
f 589/444 588/442 585/443
f 588/442 586/441 585/443
f 585/443 586/441 584/440
f 585/443 587/439 589/444
f 587/439 588/442 589/444
f 561/427 556/422 557/423 590/445
f 594/449 593/448 592/447 591/446
f 598/449 597/448 596/447 595/446
f 557/423 558/424 560/426 590/445
f 602/453 601/452 600/451 599/450
f 606/453 605/452 604/451 603/450
f 608/455 567/433 566/432 607/454
f 572/438 577/458 573/457 571/456
f 587/457 585/458 583/438 582/456
f 525/459 530/405 524/406
f 534/459 524/406 538/405
f 611/462 610/461 609/460
f 614/462 613/461 612/460
f 615/463 549/417 550/418
f 544/414 542/464 540/410
f 618/462 617/460 616/461
f 621/462 620/460 619/461
f 622/463 552/418 553/417
f 544/414 546/410 542/464
f 623/465 592/447 593/448
f 624/466 596/447 597/448
f 627/466 626/465 625/449
f 630/466 629/446 628/449
f 633/466 632/446 631/449
f 636/469 635/468 634/467
f 639/470 638/468 637/467
f 642/469 641/468 640/467
f 557/423 555/421 558/424
f 645/467 644/471 643/470
f 646/472 601/452 602/453
f 647/472 605/452 606/453
f 568/434 571/437 574/440
f 580/434 584/440 582/437
f 582/437 584/440 587/439
# 716 elements

