# Created by Metasequoia

mtllib Model.mtl

v 1.605370 14.116580 1.426589
v 1.625929 14.256800 1.083156
v 2.100654 15.688170 1.147791
v -1.605126 14.116570 1.427077
v -2.100410 15.688160 1.148279
v -1.625684 14.256790 1.083644
v 1.313467 13.222670 1.175320
v 1.381803 13.426260 0.845143
v 0.719286 12.096010 -0.767202
v 1.021286 12.744750 -1.608538
v 0.971094 13.100530 -1.456747
v 0.731641 12.682320 -0.816942
v -1.313223 13.222660 1.175808
v -1.381559 13.426250 0.845631
v -0.969386 13.100910 -1.456789
v -1.022011 12.744740 -1.608263
v -0.719747 12.096000 -0.766949
v -0.732128 12.682320 -0.816711
v 1.118498 14.313910 -2.255473
v -1.117078 14.314300 -2.255551
v 3.101678 13.068510 1.624493
v 2.884059 13.167910 1.760501
v 3.254664 13.925960 2.354321
v 2.328969 12.503030 1.096397
v 2.704728 12.546390 0.993533
v 2.737519 12.713860 -0.357648
v 2.874034 13.387550 -1.087860
v 2.400630 12.698820 -0.528862
v 3.086857 13.382610 -1.015451
v 3.355696 14.254320 -1.504219
v 5.593884 8.691366 1.030486
v 5.161952 9.121570 1.026143
v 5.229702 9.112922 0.727352
v 5.175887 9.336974 0.708633
v 5.126263 9.350736 0.991701
v 6.132351 8.654939 1.154571
v 5.782565 8.103757 1.144401
v 5.485956 8.325907 1.045315
v 6.449404 6.830754 1.387194
v 5.593884 8.691366 1.030486
v 5.126263 9.350736 0.991701
v 5.175887 9.336974 0.708633
v 6.499765 5.365517 1.589097
v 0.279297 13.646900 1.892823
v 0.307617 13.641780 2.370142
v 0.294922 13.556950 2.207258
v 0.223633 13.820790 2.143135
v 0.000000 13.603000 1.821515
v 0.000000 13.879300 2.123352
v -0.279297 13.646900 1.892823
v -0.223633 13.820790 2.143135
v -0.294922 13.556950 2.207258
v -0.307617 13.641780 2.370142
v 0.190918 13.329620 2.399279
v 0.000000 13.121750 2.374200
v 0.147949 13.220490 2.533370
v 0.000000 13.249890 2.553804
v 0.150391 13.534870 2.806991
v 0.000000 13.342500 2.815127
v 0.186523 13.403300 2.773517
v 0.000000 13.570560 2.817723
v 0.215820 13.831140 2.498317
v 0.000000 13.913190 2.442371
v 0.795410 9.132568 -0.617188
v 0.000000 7.122054 -0.911967
v 0.568848 7.271729 -0.805176
v 0.000000 9.590576 -0.696289
v 0.894531 9.785889 0.450684
v 0.000000 9.973877 -0.231445
v 0.326660 13.458530 2.840703
v 0.245605 13.119250 2.573780
v 0.204102 13.361340 2.880357
v 0.340820 13.165310 2.519307
v 0.330078 13.516120 2.721931
v 0.378418 13.227040 2.435513
v -0.190918 13.329620 2.399279
v -0.147949 13.220490 2.533370
v -0.186523 13.403300 2.773517
v -0.150391 13.534870 2.806991
v -0.215820 13.831140 2.498317
v -0.568848 7.271729 -0.805176
v -0.795410 9.132568 -0.617188
v -0.894531 9.785889 0.450684
v -0.340820 13.165310 2.519307
v -0.204102 13.361340 2.880357
v -0.245605 13.119250 2.573780
v -0.326660 13.458530 2.840703
v -0.378418 13.227040 2.435513
v -0.330078 13.516120 2.721931
v 0.000000 9.604248 1.390137
v 0.912598 10.694270 1.298000
v 0.588379 9.531982 1.184082
v 0.000000 10.942370 1.907522
v -0.912598 10.694270 1.298000
v 1.206055 10.403510 0.506751
v 0.720215 10.843950 -0.304582
v 0.000000 11.470870 -0.733012
v -0.720215 10.843950 -0.304582
v 0.000000 6.601807 1.256348
v 0.573930 8.515011 1.266731
v 0.342285 6.592041 0.937012
v -0.573930 8.515011 1.266731
v -0.588379 9.531982 1.184082
v -1.315918 9.044189 0.504394
v 1.282715 9.577881 0.357910
v 1.922297 7.446160 0.534883
v 1.162188 8.668106 1.365796
v 2.523382 7.110686 -0.185262
v 1.849207 7.574690 -0.714432
v 1.315918 9.044189 0.504394
v 0.778575 8.382034 -0.473875
v 0.522949 14.106480 2.456727
v 0.116211 13.843660 2.880712
v 0.352051 14.156340 2.693189
v 0.532227 13.762340 2.345806
v 0.185547 13.409480 2.752271
v 0.330078 12.935150 1.890034
v -1.206055 10.403510 0.506751
v -1.922297 7.446160 0.534883
v -1.282715 9.577881 0.357910
v -1.162188 8.668106 1.365796
v -2.523382 7.110686 -0.185262
v -1.849207 7.574690 -0.714432
v -0.875488 9.114990 -0.602051
v -0.116211 13.843660 2.880712
v -0.522949 14.106480 2.456727
v -0.352051 14.156340 2.693189
v -0.532227 13.762340 2.345806
v -0.185547 13.409480 2.752271
v -0.330078 12.935150 1.890034
v 0.003906 13.332160 2.907103
v 0.191406 13.366370 2.870025
v 0.182129 13.258690 2.794436
v 0.004395 13.256770 2.857599
v 0.003906 13.304800 2.689922
v 0.191406 13.309360 2.652822
v 0.198242 13.179430 2.577300
v 0.004395 13.197110 2.640277
v -0.003906 13.332160 2.907103
v -0.004395 13.256770 2.857599
v -0.182129 13.258690 2.794436
v -0.191406 13.366370 2.870025
v -0.003906 13.304800 2.689922
v -0.004395 13.197110 2.640277
v -0.198242 13.179430 2.577300
v -0.191406 13.309360 2.652822
v 0.214844 13.453160 2.414354
v 0.228027 13.417970 2.252702
v 0.206543 13.232310 2.517149
v 0.337891 13.414670 2.481484
v 0.293945 13.474700 2.830446
v 0.332031 13.669550 2.381464
v 0.382324 13.616850 2.632831
v 0.875488 9.114990 -0.602051
v -0.228027 13.417970 2.252702
v -0.214844 13.453160 2.414354
v -0.206543 13.232310 2.517149
v -0.293945 13.474700 2.830446
v -0.337891 13.414670 2.481484
v -0.332031 13.669550 2.381464
v -0.342285 6.592041 0.937012
v -0.778575 8.382034 -0.473875
v -0.382324 13.616850 2.632831
v -2.320045 12.506960 1.101187
v -2.694576 12.548920 0.996644
v -3.093281 13.072650 1.628846
v -2.874360 13.170650 1.763290
v -2.877970 13.388580 -1.087641
v -3.090723 13.383600 -1.015105
v -2.743325 12.713660 -0.357087
v -2.406574 12.698710 -0.528512
v -3.244792 13.928240 2.357806
v -3.361938 14.254460 -1.503277
v -5.616845 8.724524 1.040632
v -5.185189 9.156145 1.034017
v -5.250669 9.148358 0.735371
v -5.197448 9.371126 0.717884
v -5.147730 9.386754 1.001680
v -5.805717 8.136683 1.154155
v -6.152378 8.689892 1.163306
v -5.508366 8.359533 1.052985
v -6.471569 6.865022 1.395484
v -6.520285 5.399992 1.597679
v -5.616845 8.724524 1.040632
v -5.147730 9.386754 1.001680
v -5.197448 9.371126 0.717884
v 0.000000 13.903260 -0.225099
v 1.490723 12.831260 -0.838572
v 1.691895 13.395970 -0.148891
v 0.000000 13.101430 -0.945601
v -1.691895 13.395970 -0.148891
v -1.490723 12.831260 -0.838572
v 4.671914 8.612444 0.430803
v 3.909885 10.044090 -0.050894
v 3.179053 9.869765 0.406362
v 5.279418 8.850997 0.494374
v 4.521545 8.722621 1.106465
v 3.673287 10.286160 0.944738
v 4.523926 10.492030 0.535644
v 4.094127 10.858850 0.400170
v 5.146777 8.914749 1.355144
v 1.403809 12.307070 1.679946
v 2.879768 11.922320 0.842589
v 2.015592 11.632040 0.980080
v 2.848786 13.099540 1.084579
v 1.686523 13.088360 1.313241
v 3.070488 12.075440 -0.207268
v 1.909857 11.968100 -0.588700
v 2.695077 13.086430 -0.305957
v 3.124505 13.337300 0.404233
v 2.878039 13.201160 0.421896
v 1.605469 11.588640 1.528879
v 1.206055 10.403510 0.506751
v 0.912598 10.694270 1.298000
v 1.886719 11.301570 0.180867
v 3.119687 1.203217 -0.983924
v 3.322987 -0.000526 -1.747782
v 3.626904 0.018415 -0.033084
v 2.354304 1.295172 -1.533343
v 1.674486 1.241563 -1.155823
v 1.569151 -0.003157 -1.549000
v 1.718239 0.018743 0.106605
v 1.728761 1.494469 0.146202
v 1.997061 0.803414 0.933450
v 2.518052 1.405937 0.400640
v 0.720215 10.843950 -0.304582
v 3.345526 0.840783 0.842603
v 3.050845 1.586536 0.061218
v 0.000000 11.470870 -0.733012
v 2.730407 2.804187 -1.063408
v 1.800423 4.199640 -1.227107
v 2.119147 2.688049 -1.307515
v 2.745613 4.632040 -0.320318
v 2.749483 2.964381 -0.484410
v 2.487982 4.382953 0.221659
v 1.595105 2.563231 -1.015149
v 0.968998 4.181700 -0.070122
v 1.677380 4.813920 -1.002372
v 1.579939 2.809327 -0.154922
v 1.441781 4.078436 0.703558
v 0.929688 13.701450 0.667804
v 0.628906 12.793900 1.582362
v -4.671914 8.612444 0.430803
v -3.122539 9.878128 0.406208
v -3.909885 10.044090 -0.050894
v -4.521545 8.722621 1.106465
v -3.673287 10.286160 0.944738
v -5.146777 8.914749 1.355144
v -4.094127 10.858850 0.400170
v -4.523926 10.492030 0.535644
v -2.879768 11.922320 0.842589
v -1.403809 12.307070 1.679946
v -2.015592 11.632040 0.980080
v -2.848786 13.099540 1.084579
v -3.070488 12.075440 -0.207268
v -1.909857 11.968100 -0.588700
v -2.695077 13.086430 -0.305957
v -2.878039 13.201160 0.421896
v -3.124505 13.337300 0.404233
v -1.206055 10.403510 0.506751
v -1.605469 11.588640 1.528879
v -0.912598 10.694270 1.298000
v -1.886719 11.301570 0.180867
v -3.322987 -0.000526 -1.747782
v -3.119687 1.203217 -0.983924
v -3.626904 0.018415 -0.033084
v -2.354304 1.295172 -1.533343
v -1.569151 -0.003157 -1.549000
v -1.674486 1.241563 -1.155823
v -1.718239 0.018743 0.106605
v -1.997061 0.803414 0.933450
v -1.728761 1.494469 0.146202
v -2.518052 1.405937 0.400640
v -3.345526 0.840783 0.842603
v -3.050845 1.586536 0.061218
v -0.720215 10.843950 -0.304582
v -1.800423 4.199640 -1.227107
v -2.730407 2.804187 -1.063408
v -2.119147 2.688049 -1.307515
v -2.745613 4.632040 -0.320318
v -1.677380 4.813920 -1.002372
v -2.749483 2.964381 -0.484410
v -2.487982 4.382953 0.221659
v -1.595105 2.563231 -1.015149
v -0.968998 4.181700 -0.070122
v -1.579939 2.809327 -0.154922
v -1.441781 4.078436 0.703558
v -0.929688 13.701450 0.667804
v -1.686523 13.088360 1.313241
v -0.628906 12.793900 1.582362
v -5.279418 8.850997 0.494374
v 3.264878 12.155080 0.410556
v -3.264878 12.155080 0.410556
v 2.354304 1.295172 -1.533343
v 1.595105 2.563231 -1.015149
v 1.674486 1.241563 -1.155823
v 2.119147 2.688049 -1.307515
v 3.119687 1.203217 -0.983924
v 2.730407 2.804187 -1.063408
v 3.050845 1.586536 0.061218
v 2.749483 2.964381 -0.484410
v 2.518052 1.405937 0.400640
v 2.263379 2.724288 0.191644
v 1.728761 1.494469 0.146202
v 1.579939 2.809327 -0.154922
v 2.487982 4.382953 0.221659
v 2.021970 4.263929 0.883045
v 1.441781 4.078436 0.703558
v 1.015625 15.077230 1.664973
v 0.473145 14.602240 2.438455
v 0.451660 14.892620 1.909333
v 0.893066 14.750840 2.257116
v 0.700684 14.472800 1.761114
v 0.720703 14.317280 2.292723
v 0.641113 14.509480 1.412542
v 0.363770 15.140170 1.188468
v 0.000000 15.132570 1.933124
v 0.000000 15.358460 1.126153
v -0.451660 14.892620 1.909333
v -0.363770 15.140170 1.188468
v -0.700684 14.472800 1.761114
v -0.641113 14.509480 1.412542
v 0.000000 10.942370 1.907522
v 1.403809 12.307070 1.679946
v 1.605469 11.588640 1.528879
v 0.000000 12.405480 1.879579
v -1.605469 11.588640 1.528879
v -1.403809 12.307070 1.679946
v -2.119147 2.688049 -1.307515
v -1.674486 1.241563 -1.155823
v -1.595105 2.563231 -1.015149
v -2.354304 1.295172 -1.533343
v -2.730407 2.804187 -1.063408
v -3.119687 1.203217 -0.983924
v -2.749483 2.964381 -0.484410
v -3.050845 1.586536 0.061218
v -2.263379 2.724288 0.191644
v -2.518052 1.405937 0.400640
v -1.579939 2.809327 -0.154922
v -1.728761 1.494469 0.146202
v -2.021970 4.263929 0.883045
v -2.487982 4.382953 0.221659
v -1.441781 4.078436 0.703558
v -0.893066 14.750840 2.257116
v -0.473145 14.602240 2.438455
v -1.015625 15.077230 1.664973
v -0.720703 14.317280 2.292723
v 0.000000 12.657810 1.573818
v 0.628906 12.793900 1.582362
v -0.628906 12.793900 1.582362
v 0.797852 14.213290 2.060225
v 0.648438 13.941720 1.615963
v 0.000000 15.060190 1.170801
v 2.745613 4.632040 -0.320318
v 1.697144 5.482594 1.203691
v 2.280946 5.291464 -0.229927
v 0.352051 14.156340 2.693189
v 0.522949 14.106480 2.456727
v 0.000000 14.237030 2.943392
v 0.000000 14.887270 2.440575
v 0.823731 15.509950 0.998715
v 0.968998 4.181700 -0.070122
v 2.355416 0.019681 -2.309411
v 3.322987 -0.000526 -1.747782
v 1.569151 -0.003157 -1.549000
v 2.259533 0.100140 2.120191
v 2.216476 0.390715 1.697751
v 2.329332 0.162646 1.697744
v 2.104178 0.162686 1.697745
v 2.561851 0.126456 2.136794
v 2.486074 0.390669 1.697749
v 2.598930 0.162600 1.697742
v 2.373776 0.162639 1.697744
v 2.848543 0.126407 2.136792
v 2.773254 0.390619 1.697747
v 2.885622 0.162550 1.697740
v 2.660468 0.162589 1.697742
v 3.107884 0.126362 2.136791
v 3.032104 0.390575 1.655745
v 3.144963 0.162505 1.697738
v 2.919810 0.162544 1.697740
v 3.378453 0.126317 2.059625
v 3.303165 0.390529 1.620580
v 3.415532 0.162460 1.620573
v 3.190379 0.162499 1.620574
v 0.522461 14.156240 0.500395
v 0.000000 14.269250 0.081206
v -0.522461 14.156240 0.500395
v 1.622071 5.104834 -0.635717
v 1.677380 4.813920 -1.002372
v 0.950668 4.975692 0.000201
v 0.116211 13.843660 2.880712
v 0.000000 13.826650 2.913321
v 0.000000 7.788818 1.068359
v 0.342285 6.592041 0.937012
v 0.573930 8.515011 1.266731
v 0.000000 6.601807 1.256348
v -0.342285 6.592041 0.937012
v -1.718239 0.018743 0.106605
v -0.797852 14.213290 2.060225
v -0.648438 13.941720 1.615963
v -0.618652 13.719850 2.006942
v -1.697144 5.482594 1.203691
v -2.745613 4.632040 -0.320318
v -2.280946 5.291464 -0.229927
v -0.352051 14.156340 2.693189
v -0.522949 14.106480 2.456727
v -0.823731 15.509950 0.998715
v -0.968998 4.181700 -0.070122
v -0.950668 4.975692 0.000201
v -2.355416 0.019681 -2.309411
v -3.322987 -0.000526 -1.747782
v -1.569151 -0.003157 -1.549000
v -0.116211 13.843660 2.880712
v -2.216476 0.390715 1.697751
v -2.259533 0.100140 2.120191
v -2.329332 0.162646 1.697744
v -2.104178 0.162686 1.697745
v -2.486074 0.390669 1.697749
v -2.561851 0.126456 2.136794
v -2.598930 0.162600 1.697742
v -2.373776 0.162639 1.697744
v -2.773254 0.390619 1.697747
v -2.848543 0.126407 2.136792
v -2.885622 0.162550 1.697740
v -2.660468 0.162589 1.697742
v -3.032104 0.390575 1.655745
v -3.107884 0.126362 2.136791
v -3.144963 0.162505 1.697738
v -2.919810 0.162544 1.697740
v -3.303165 0.390529 1.620580
v -3.378453 0.126317 2.059625
v -3.415532 0.162460 1.620573
v -3.190379 0.162499 1.620574
v -1.622071 5.104834 -0.635717
v -1.677380 4.813920 -1.002372
v 0.532227 13.762340 2.345806
v 4.706855 7.170664 0.641989
v 4.828227 7.320524 0.651753
v 4.681866 7.354940 1.272262
v 4.545902 7.167458 1.236450
v 4.764261 7.250603 1.321046
v 4.886738 7.198110 0.661571
v -0.532227 13.762340 2.345806
v -4.706855 7.170664 0.641989
v -4.545902 7.167458 1.236450
v -4.681866 7.354940 1.272262
v -4.828227 7.320524 0.651753
v -4.764261 7.250603 1.321046
v -4.886738 7.198110 0.661571
v 3.626904 0.018415 -0.033084
v 1.718239 0.018743 0.106605
v 0.618652 13.719850 2.006942
v 0.516113 13.861990 2.471026
v 1.060547 14.556240 1.893463
v 0.940430 13.883850 2.032409
v 0.744629 13.905350 2.205462
v 0.805664 13.615660 2.016824
v 0.533691 13.744450 2.382693
v 1.140625 14.112860 1.713606
v 0.771484 13.744840 1.991818
v 0.745117 13.265950 1.817548
v 0.504883 13.573400 2.200545
v 1.144043 13.907400 1.508056
v 2.638585 2.673582 1.575224
v 2.736981 0.813055 0.832839
v 2.557627 1.328285 0.431406
v 0.912598 10.694270 1.298000
v 1.804372 6.140161 3.278531
v 2.011609 4.227948 0.833652
v 1.767985 5.209447 1.082580
v -3.626904 0.018415 -0.033084
v -1.060547 14.556240 1.893463
v -0.516113 13.861990 2.471026
v -0.940430 13.883850 2.032409
v -0.805664 13.615660 2.016824
v -0.744629 13.905350 2.205462
v -0.533691 13.744450 2.382693
v -1.140625 14.112860 1.713606
v -0.745117 13.265950 1.817548
v -0.771484 13.744840 1.991818
v -0.504883 13.573400 2.200545
v -1.144043 13.907400 1.508056
v -0.573930 8.515011 1.266731
v -2.736981 0.813055 0.832839
v -2.638585 2.673582 1.575224
v -2.557627 1.328285 0.431406
v -0.912598 10.694270 1.298000
v -2.011609 4.227948 0.833652
v -1.804372 6.140161 3.278531
v -1.767985 5.209447 1.082580
v 5.279418 8.850997 0.494374
v 5.375414 7.778964 1.405715
v 5.257441 8.643985 1.324174
v 5.459946 7.670885 0.680799
v 4.671914 8.612444 0.430803
v 5.168200 7.801407 0.661269
v 4.886738 7.198110 0.661571
v 4.828227 7.320524 0.651753
v 4.764261 7.250603 1.321046
v 0.000000 7.590576 0.392578
v 0.778575 8.382034 -0.473875
v 0.000000 7.972135 -0.671196
v 0.157715 7.586182 0.408203
v 0.000000 7.788818 1.068359
v 0.381817 7.880924 1.014194
v 0.000000 14.269250 0.081206
v 0.929688 13.701450 0.667804
v 0.522461 14.156240 0.500395
v 0.000000 13.903260 -0.225099
v -0.522461 14.156240 0.500395
v -0.929688 13.701450 0.667804
v 2.137827 0.490837 1.692870
v 3.560611 0.018377 1.637661
v 1.994800 0.018647 1.721185
v 3.395452 0.502341 1.581023
v 1.997061 0.803414 0.933450
v 3.345526 0.840783 0.842603
v 0.000000 13.313170 3.037653
v 0.186523 13.403300 2.773517
v 0.000000 13.342500 2.815127
v 0.250000 13.340230 3.013592
v 0.000000 13.555620 3.200234
v 0.181641 13.581890 3.160620
v 0.307617 13.641780 2.370142
v 0.506348 13.471930 2.067394
v 0.294922 13.556950 2.207258
v 0.532227 13.762340 2.345806
v 0.382324 13.616850 2.632831
v 0.000000 12.935100 2.492529
v 0.414551 13.432540 1.708267
v 0.000000 13.160230 2.064413
v 0.171387 12.999620 2.447353
v 0.000000 13.190280 2.695927
v 0.205078 13.195590 2.642828
v 0.190918 13.329620 2.399279
v 0.280762 13.365140 2.414011
v 0.147949 13.220490 2.533370
v 0.000000 13.249890 2.553804
v -0.205078 13.195590 2.642828
v -0.147949 13.220490 2.533370
v -0.280762 13.365140 2.414011
v -0.190918 13.329620 2.399279
v 0.307129 8.782502 -3.136663
v -0.287109 8.728271 -0.008789
v 0.287109 8.728271 -0.008789
v -0.307129 8.782502 -3.136663
v 0.307129 8.781911 -3.996039
v -0.307129 8.781911 -3.996039
v 0.307129 8.781865 -7.266548
v -0.307129 8.781865 -7.266548
v 0.307129 8.781761 -7.791939
v -0.307129 8.781761 -7.791939
v 0.307129 8.781766 -9.797800
v -0.307129 8.781766 -9.797800
v 0.307129 8.781688 -11.691360
v -0.307129 8.781688 -11.691360
v 0.000000 9.328889 -3.136262
v 0.000000 9.328857 -0.008789
v 0.000000 9.328787 -3.996126
v 0.000000 9.328252 -7.266636
v 0.000000 9.328149 -7.792027
v 0.000000 9.328153 -9.797888
v 0.000000 9.328075 -11.691440
v -5.459946 7.670885 0.680799
v -5.257441 8.643985 1.324174
v -5.375414 7.778964 1.405715
v -5.279418 8.850997 0.494374
v -5.168200 7.801407 0.661269
v -4.671914 8.612444 0.430803
v -4.828227 7.320524 0.651753
v -4.886738 7.198110 0.661571
v -4.764261 7.250603 1.321046
v -0.157715 7.586182 0.408203
v -0.778575 8.382034 -0.473875
v -0.381817 7.880924 1.014194
v -3.395452 0.502341 1.581023
v -1.994800 0.018647 1.721185
v -3.560611 0.018377 1.637661
v -2.137827 0.490837 1.692870
v -3.345526 0.840783 0.842603
v -1.997061 0.803414 0.933450
v -0.250000 13.340230 3.013592
v -0.186523 13.403300 2.773517
v -0.181641 13.581890 3.160620
v -0.532227 13.762340 2.345806
v -0.294922 13.556950 2.207258
v -0.506348 13.471930 2.067394
v -0.307617 13.641780 2.370142
v -0.382324 13.616850 2.632831
v -0.171387 12.999620 2.447353
v -0.414551 13.432540 1.708267
v 2.636491 10.785730 -0.285585
v 1.886719 11.301570 0.180867
v 3.081769 10.069100 0.369210
v 1.909857 11.968100 -0.588700
v 3.909885 10.044090 -0.050894
v 3.755358 11.486580 0.371522
v 3.070488 12.075440 -0.207268
v 4.094127 10.858850 0.400170
v 4.529662 7.678096 1.721087
v 4.572626 8.572077 1.667845
v 4.905267 8.309555 1.554507
v 4.576995 8.253379 1.291317
v 2.878039 13.201160 0.421896
v 2.206480 13.484290 0.542305
v 2.695077 13.086430 -0.305957
v 2.848786 13.099540 1.084579
v 4.521545 8.722621 1.106465
v 5.036146 7.872818 1.307859
v 5.146777 8.914749 1.355144
v 1.910065 6.733094 1.148988
v 0.573930 8.515011 1.266731
v 1.315918 9.044189 0.504394
v 0.744781 6.356135 1.165248
v 1.697144 5.482594 1.203691
v 0.950668 4.975692 0.000201
v 0.641113 14.509480 1.412542
v 0.648438 13.941720 1.615963
v 0.648926 13.603360 1.915703
v 2.280946 5.291464 -0.229927
v 2.242266 6.656671 0.420160
v 1.695877 6.562839 -0.679711
v 0.695757 6.316491 -0.662598
v 0.437818 6.164548 0.404179
v 0.000000 12.657810 1.573818
v 0.628906 12.793900 1.582362
v 1.622071 5.104834 -0.635717
v 0.618652 13.719850 2.006942
v 0.116211 13.843660 2.880712
v 0.000000 13.826650 2.913321
v 2.879768 11.922320 0.842589
v 3.673287 10.286160 0.944738
v 2.015592 11.632040 0.980080
v 3.264878 12.155080 0.410556
v 3.179053 9.869765 0.406362
v 0.000000 9.046988 -11.914790
v -3.264878 12.155080 0.410556
v -3.755358 11.486580 0.371522
v -3.070488 12.075440 -0.207268
v -2.879768 11.922320 0.842589
v -4.529662 7.678096 1.721087
v -4.905267 8.309555 1.554507
v -4.572626 8.572077 1.667845
v -4.576995 8.253379 1.291317
v -2.206480 13.484290 0.542305
v -2.878039 13.201160 0.421896
v -2.695077 13.086430 -0.305957
v -2.848786 13.099540 1.084579
v -4.521545 8.722621 1.106465
v -5.146777 8.914749 1.355144
v -0.744781 6.356135 1.165248
v -0.573930 8.515011 1.266731
v -1.910065 6.733094 1.148988
v -0.695630 6.316963 -0.662610
v -0.437818 6.164548 0.404179
v -0.641113 14.509480 1.412542
v -0.648438 13.941720 1.615963
v -1.315918 9.044189 0.504394
v -2.242266 6.656671 0.420160
v -2.280946 5.291464 -0.229927
v -1.697144 5.482594 1.203691
v -1.695877 6.562839 -0.679711
v -0.628906 12.793900 1.582362
v -0.116211 13.843660 2.880712
v -0.648926 13.603360 1.915703
v -0.950668 4.975692 0.000201
v -0.618652 13.719850 2.006942
v -1.622071 5.104834 -0.635717
v -3.673287 10.286160 0.944738
v -2.015592 11.632040 0.980080
v -2.636491 10.785730 -0.285585
v -1.909857 11.968100 -0.588700
v -3.909885 10.044090 -0.050894
v -4.094127 10.858850 0.400170
v -3.081769 10.069100 0.369210
v -3.122539 9.878128 0.406208
v -1.886719 11.301570 0.180867
v 4.681866 7.354940 1.272262
v 1.718239 0.018743 0.106605
v 3.626904 0.018415 -0.033084
v -5.036146 7.872818 1.307859
v -4.681866 7.354940 1.272262
v -1.718239 0.018743 0.106605
v -3.626904 0.018415 -0.033084
v 1.686523 13.088360 1.313241
v 1.605469 11.588640 1.528879
v 1.691895 13.395970 -0.148891
v 1.403809 12.307070 1.679946
v 0.795410 9.132568 -0.617188
v -1.686523 13.088360 1.313241
v -1.605469 11.588640 1.528879
v -1.691895 13.395970 -0.148891
v -1.403809 12.307070 1.679946
v -0.795410 9.132568 -0.617188
# 695 vertices

vt 0.07031 0.77637
vt 0.10352 0.39551
vt 0.01660 0.39551
vt 0.13281 0.01172
vt 0.01465 0.01074
vt 0.01660 0.39551
vt 0.10352 0.39551
vt 0.07031 0.77637
vt 0.13281 0.01172
vt 0.01465 0.01074
vt 0.13086 0.01074
vt 1.95703 -0.87402
vt 1.90039 -0.83105
vt 1.90039 -0.95898
vt 1.62793 -0.83105
vt 1.85156 -0.83984
vt 1.85156 -0.82324
vt 1.67285 -0.96191
vt 1.85156 -0.98926
vt 1.85156 -0.96777
vt 0.85547 0.03125
vt 0.71484 0.14453
vt 0.80859 0.20410
vt 0.50000 0.03125
vt 0.87891 0.14453
vt 0.97656 0.03125
vt 0.81152 0.20703
vt 0.99609 0.46777
vt 0.88086 0.46582
vt 0.93750 0.32812
vt 0.89941 0.14453
vt 0.53125 0.12500
vt 1.25146 0.39307
vt 1.31592 0.31543
vt 1.23047 0.33154
vt 1.30322 0.39697
vt 1.23682 0.43164
vt 1.32129 0.43164
vt 1.13916 0.36182
vt 1.15137 0.43262
vt 1.09766 0.38135
vt 1.09473 0.43164
vt 1.49609 0.40332
vt 1.56592 0.44727
vt 1.47998 0.32959
vt 1.47315 0.44531
vt 1.39209 0.39355
vt 1.38428 0.44531
vt 1.87549 0.77441
vt 1.99316 0.45557
vt 1.87354 0.45557
vt 1.99316 0.84570
vt 1.77588 0.94775
vt 1.99316 0.94385
vt 1.99121 0.06592
vt 1.86475 0.00635
vt 1.99121 0.00635
vt 1.86475 0.06592
vt 1.99121 0.08496
vt 1.87012 0.08984
vt 1.01611 0.00635
vt 1.28223 0.26709
vt 1.19531 0.00732
vt 1.01611 0.40283
vt 1.40088 0.20752
vt 1.34766 0.00732
vt 1.50195 0.28467
vt 1.63818 0.00537
vt 1.63818 0.37012
vt 1.36231 0.46045
vt 1.48193 0.79590
vt 1.43506 0.45752
vt 1.40576 0.98975
vt 1.50586 0.96826
vt 1.71338 0.86768
vt 1.65185 0.82812
vt 1.54883 0.49805
vt 1.48682 0.72021
vt 1.64697 0.39404
vt 1.72803 0.47119
vt 1.82666 0.67285
vt 1.02783 0.62207
vt 1.35010 0.48438
vt 1.11426 0.73291
vt 1.03174 0.49316
vt 1.86475 0.05762
vt 1.99121 0.00879
vt 1.99121 0.05762
vt 1.69727 0.05762
vt 1.69727 0.06592
vt 1.80713 0.70117
vt 1.01709 0.75684
vt 1.33935 0.89404
vt 1.25293 1.00537
vt 1.33496 0.76562
vt 1.72070 0.18506
vt 1.81494 0.18262
vt 1.81494 0.12939
vt 1.72021 0.12988
vt 1.81690 0.14404
vt 1.72021 0.12891
vt 1.71973 0.18848
vt 1.81738 0.18604
vt 1.83643 0.10938
vt 1.89502 0.18213
vt 1.75146 0.18506
vt 1.85010 0.10547
vt 1.71533 0.18750
vt 1.91113 0.18555
vt 1.20557 0.43994
vt 0.13281 0.01172
vt 0.01465 0.01074
vt 0.01660 0.39551
vt 0.10352 0.39551
vt 0.13086 0.01074
vt 0.07031 0.77637
vt 1.95703 -0.87402
vt 1.90039 -0.95898
vt 1.90039 -0.83105
vt 1.85156 -0.83984
vt 1.62793 -0.83105
vt 1.85156 -0.82324
vt 1.85156 -0.98926
vt 1.67285 -0.96191
vt 1.85156 -0.96777
vt 0.71484 0.14453
vt 0.85547 0.03125
vt 0.80859 0.20410
vt 0.50000 0.03125
vt 0.53125 0.12500
vt 0.87891 0.14453
vt 0.97656 0.03125
vt 0.81152 0.20703
vt 0.88086 0.46582
vt 0.99609 0.46777
vt 0.93750 0.32812
vt 0.89941 0.14453
vt 1.03027 -0.44922
vt 1.31934 -0.58594
vt 1.31836 -0.44824
vt 1.03027 -0.58887
vt 1.41016 -0.98926
vt 1.41309 -0.60449
vt 1.34277 -0.59277
vt 1.55957 -0.98828
vt 1.63769 -0.62793
vt 1.64356 -0.55078
vt 1.56152 -0.98828
vt 1.97461 -0.10645
vt 1.80762 -0.21875
vt 1.97852 -0.21484
vt 1.74219 -0.03613
vt 1.97559 -0.03613
vt 1.81445 -0.21875
vt 1.98047 -0.10352
vt 1.97852 -0.21875
vt 1.74609 -0.03516
vt 1.68164 -0.03613
vt 1.67383 -0.00977
vt 1.36231 -0.01367
vt 1.16406 -0.24316
vt 1.16602 -0.01367
vt 1.36231 -0.32324
vt 1.94727 -0.23730
vt 1.69727 -0.43945
vt 1.99023 -0.43945
vt 1.70117 -0.23730
vt 1.69824 -0.44043
vt 1.52832 -0.21680
vt 1.38574 -0.20117
vt 1.38184 -0.40527
vt 1.52539 -0.03320
vt 1.35840 -0.37793
vt 1.16797 -0.26367
vt 1.36035 -0.28613
vt 1.17285 -0.37793
vt 1.52637 -0.21680
vt 1.38379 -0.39941
vt 1.02930 -0.65430
vt 1.02832 -0.91406
vt 1.31836 -0.70020
vt 1.84082 -0.80273
vt 1.77344 -0.54004
vt 1.73926 -0.79883
vt 1.93750 -0.46387
vt 1.99121 -0.80371
vt 1.99121 -0.46094
vt 1.84180 -0.80371
vt 1.77832 -0.46191
vt 1.13379 -0.29297
vt 1.03418 -0.15332
vt 1.04981 -0.15332
vt 1.03418 -0.35938
vt 1.13379 -0.35938
vt 1.97852 -0.03711
vt 1.63574 -0.62891
vt 1.54981 -0.26367
vt 1.68359 -0.27148
vt 1.68262 -0.41602
vt 1.55176 -0.41602
vt 1.31250 -0.87500
vt 1.31250 -0.79395
vt 1.03809 -0.90430
vt 1.14941 -0.99023
vt 1.68164 -0.21875
vt 1.54785 -0.26465
vt 1.54981 -0.41699
vt 1.68066 -0.41699
vt 1.68164 -0.27344
vt 1.02539 -0.61230
vt 1.51074 -0.98926
vt 1.53320 -0.98633
vt 0.99219 0.47754
vt 0.88086 0.68457
vt 0.87109 0.47852
vt 0.99512 0.68555
vt 0.80469 0.56641
vt 0.77832 0.75781
vt 0.69531 0.52441
vt 0.69531 0.70508
vt 0.80371 0.56836
vt 0.77832 0.75977
vt 0.76074 0.88574
vt 0.61914 0.86523
vt 0.59277 0.35840
vt 0.43359 0.47266
vt 0.43359 0.36035
vt 0.59277 0.47266
vt 0.68359 0.34668
vt 0.74023 0.47266
vt 0.48633 0.83203
vt 0.57422 0.87500
vt 0.56250 0.80859
vt 0.51953 0.90625
vt 0.42578 0.84570
vt 0.42578 0.94141
vt 0.41309 0.68359
vt 0.15039 0.99023
vt 0.07129 0.82324
vt 0.40723 0.87207
vt 0.57812 0.30273
vt 0.57812 0.25781
vt 0.53125 0.29590
vt 0.60938 0.66016
vt 0.57031 0.66406
vt 0.63672 0.80078
vt 0.40430 0.90918
vt 0.38867 0.89941
vt 0.40430 0.86426
vt 0.38086 0.93066
vt 0.88184 0.87695
vt 0.60254 0.98730
vt 0.74902 0.98633
vt 0.52734 0.60547
vt 0.57031 0.57812
vt 0.54297 0.73828
vt 0.42383 0.56641
vt 0.42578 0.79297
vt 0.59277 0.17969
vt 0.84277 0.87695
vt 0.00781 0.87695
vt 0.05469 0.98730
vt 0.00684 0.98730
vt 0.00977 0.94727
vt 0.33789 0.67090
vt 0.18262 0.57715
vt 0.18262 0.65137
vt 0.18262 0.61426
vt 0.98828 0.85156
vt 0.83984 0.73047
vt 0.99609 0.73047
vt 0.80078 0.86719
vt 0.75781 0.88086
vt 0.87305 0.99023
vt 0.88867 0.87891
vt 0.77637 0.98438
vt 0.75586 0.88281
vt 0.87109 0.99023
vt 0.75781 0.98926
vt 0.87500 0.88281
vt 0.45703 0.48047
vt 0.42090 0.57812
vt 0.42480 0.48047
vt 0.47852 0.99414
vt 0.50098 0.95215
vt 0.50488 0.99414
vt 0.47852 0.95215
vt 0.77148 0.31836
vt 0.68750 0.66406
vt 0.74902 0.98730
vt 0.59766 0.55859
vt 0.89258 0.43164
vt 0.89160 0.46094
vt 0.98730 0.46094
vt 0.98730 0.43164
vt 0.98926 0.46191
vt 0.98828 0.43164
vt 0.89062 0.43066
vt 0.79004 0.23340
vt 0.68848 0.23340
vt 0.68848 0.30078
vt 0.49902 0.93555
vt 0.55566 0.91602
vt 0.55078 0.94336
vt 0.18164 0.13477
vt 0.61230 0.13477
vt 0.36328 0.28418
vt 0.14062 0.36719
vt 0.31445 0.37402
vt 0.15039 0.17383
vt 0.15039 0.61230
vt 0.39844 0.56152
vt 0.22559 0.54980
vt 0.39844 0.66016
vt 0.39844 0.35645
vt 0.01172 0.79395
vt 0.03906 0.79395
vt 0.01172 0.82715
vt 0.65137 0.22363
vt 0.65137 0.14160
vt 0.78320 0.18262
vt 0.78516 0.18262
vt 0.08105 0.77930
vt 0.01465 0.01074
vt 0.13281 0.01172
vt 0.15820 0.68359
vt 0.01172 0.01172
vt 0.29883 0.99023
vt 0.54102 0.52246
vt 0.53320 0.57129
vt 0.50684 0.52637
vt 0.54004 0.52148
vt 0.61230 0.13281
vt 0.18164 0.13379
vt 0.36328 0.28320
vt 0.22559 0.54883
vt 0.39844 0.55957
vt 0.39844 0.35547
vt 0.54004 -0.01465
vt 0.51172 -0.19238
vt 0.48730 -0.09277
vt 0.61914 -0.19238
vt 0.67969 -0.09473
vt 0.67969 -0.18652
vt 0.61914 -0.25781
vt 0.64941 -0.25391
vt 0.51074 -0.26660
vt 0.01172 -0.48047
vt 0.03516 -0.44922
vt 0.01270 -0.44434
vt 0.02246 -0.47949
vt 0.01270 -0.46777
vt 0.03027 -0.46094
vt 0.00684 -0.83691
vt 0.15039 -0.82812
vt 0.04785 -0.86816
vt 0.00781 -0.76758
vt 0.80371 -0.46875
vt 0.55566 -0.56543
vt 0.83105 -0.56543
vt 0.58008 -0.46875
vt 0.80371 -0.36035
vt 0.58008 -0.36035
vt 0.01367 -0.20996
vt 0.15430 -0.25488
vt 0.01367 -0.25488
vt 0.10352 -0.21680
vt 0.01367 -0.01172
vt 0.10352 -0.07129
vt 0.29492 -0.23828
vt 0.34570 -0.31348
vt 0.27344 -0.26465
vt 0.31543 -0.20312
vt 0.19238 -0.27148
vt 0.21875 -0.20215
vt 0.15723 -0.39258
vt 0.21582 -0.37695
vt 0.16113 -0.43262
vt 0.20801 -0.35254
vt 0.04688 -0.29395
vt 0.17773 -0.29395
vt 0.22949 -0.27539
vt 0.23145 -0.27734
vt 0.13281 -0.27539
vt 0.04688 -0.27539
vt 0.99219 -0.75586
vt 0.98926 -0.99414
vt 0.99219 -0.67773
vt 0.99219 -0.37891
vt 0.99219 -0.33789
vt 0.99219 -0.18066
vt 0.99219 -0.03125
vt 0.92969 -0.75586
vt 0.92969 -0.99414
vt 0.92969 -0.67773
vt 0.92969 -0.37891
vt 0.92969 -0.33789
vt 0.92969 -0.18066
vt 0.92969 -0.03125
vt 0.85449 -0.94238
vt 0.91113 -0.97363
vt 0.90918 -0.86328
vt 0.88184 -0.98730
vt 0.80469 -0.75293
vt 0.66602 -0.87793
vt 0.74023 -1.00293
vt 0.65918 -0.80078
vt 0.88574 -0.31934
vt 0.83691 -0.17676
vt 0.89648 -0.20312
vt 0.85645 -0.22656
vt 0.70117 -0.59766
vt 0.61035 -0.57910
vt 0.68750 -0.61426
vt 0.71582 -0.58008
vt 0.85449 -0.11523
vt 0.88379 -0.01367
vt 0.82324 -0.18652
vt 0.53223 -0.02246
vt 0.44141 -0.08984
vt 0.38867 -0.02441
vt 0.45801 -0.10840
vt 0.46289 -0.13281
vt 0.32031 -0.60547
vt 0.36719 -0.41016
vt 0.23145 -0.40918
vt 0.45605 -0.58398
vt 0.37109 -0.74609
vt 0.51074 -0.71680
vt 0.04785 -0.98242
vt 0.19336 -0.88281
vt 0.30762 -0.97168
vt 0.21387 -0.96484
vt 0.25879 -0.77051
vt 0.36621 -0.75488
vt 0.27539 -0.63281
vt 0.20508 -0.62402
vt 0.13965 -0.51074
vt 0.07617 -0.62891
vt 0.02734 -0.50293
vt 0.01465 -0.64746
vt 0.46484 -0.38574
vt 0.38379 -0.85742
vt 0.35156 -0.78613
vt 0.35449 -0.95410
vt 0.13672 -0.71191
vt 0.07910 -0.71484
vt 0.43164 -0.29004
vt 0.26270 -0.05469
vt 0.26270 -0.01172
vt 0.56543 -1.00977
vt 0.54590 -0.74414
vt 0.51660 -0.91797
vt 0.65527 -1.01660
vt 0.44824 -0.41699
vt 0.48730 -0.46289
vt 0.52246 -0.60449
vt 0.92090 -0.83496
vt 0.39648 -0.85059
vt 0.39648 -0.82227
vt 0.39648 -0.99219
vt 0.96191 -0.00781
vt 0.47070 -0.17578
vt 0.47266 -0.13379
vt 0.50000 -0.05078
vt 0.68066 -0.25391
vt 0.82324 -0.25391
vt 0.48730 -0.20215
vt 0.45215 -0.25488
vt 0.43066 -0.26758
vt 0.44336 -0.22559
vt 0.87695 -0.46875
vt 0.91113 -0.33008
vt 0.92285 -0.48340
vt 0.82129 -0.48340
vt 0.82129 -0.71875
vt 0.92285 -0.71875
vt 0.47852 -0.33301
vt 0.49316 -0.46875
vt 0.62109 -0.60742
vt 0.91504 -0.09570
vt 0.86816 -0.01953
vt 0.49707 -0.01758
vt 0.55371 -0.01465
vt 0.34180 -0.11035
vt 0.34277 -0.07910
vt 0.34766 -0.08691
vt 0.28711 -0.04590
vt 0.32715 -0.04102
vt 0.33105 -0.05859
vt 0.31152 -0.10742
vt 0.29883 -0.08887
vt 0.06152 -0.42480
vt 0.02246 -0.46680
vt 0.28906 -0.01758
# 495 texture vertices

usemtl mat1.png
f 1/3 2/2 3/1
f 4/3 5/1 6/2
f 2/2 1/3 7/5 8/4
f 9/5 10/3 11/2 12/4
f 13/5 4/3 6/2 14/4
f 15/2 16/3 17/5 18/4
f 11/2 10/3 19/1
f 15/2 20/1 16/3
f 23/8 22/7 21/6
f 22/7 24/9 21/6
f 21/6 24/9 25/10
f 28/11 27/7 26/10
f 27/7 29/6 26/10
f 30/8 29/6 27/7
usemtl mat4.png
f 32/14 33/13 31/12
f 33/17 34/16 31/15
f 35/20 32/19 31/18
usemtl mat1.png
f 38/23 37/22 36/21
f 37/22 39/24 36/21
f 41/26 40/25 36/21
f 40/25 38/27 36/21
f 36/30 42/29 41/28
f 42/26 36/21 40/31
f 37/22 43/32 39/24
usemtl mat3.png
f 46/35 45/34 44/33
f 45/34 47/36 44/33
f 44/33 47/36 48/37
f 47/36 49/38 48/37
f 48/37 49/38 50/33
f 49/38 51/36 50/33
f 50/33 51/36 52/35
f 51/36 53/34 52/35
f 44/33 48/37 54/39
f 48/37 55/40 54/39
f 54/39 55/40 56/41
f 55/40 57/42 56/41
f 60/45 59/44 58/43
f 59/44 61/46 58/43
f 58/43 61/46 62/47
f 61/46 63/48 62/47
f 62/47 63/48 47/36
f 63/48 49/38 47/36
f 66/51 65/50 64/49
f 65/50 67/52 64/49
f 64/49 67/52 68/53
f 67/52 69/54 68/53
f 72/57 71/56 70/55
f 71/56 73/58 70/55
f 70/55 73/58 74/59
f 73/58 75/60 74/59
f 48/37 50/33 55/40
f 50/33 76/39 55/40
f 55/40 76/39 57/42
f 76/39 77/41 57/42
f 59/44 78/45 61/46
f 78/45 79/43 61/46
f 61/46 79/43 63/48
f 79/43 80/47 63/48
f 63/48 80/47 49/38
f 80/47 51/36 49/38
f 65/50 81/51 67/52
f 81/51 82/49 67/52
f 67/52 82/49 69/54
f 82/49 83/53 69/54
f 86/56 85/57 84/58
f 85/57 87/55 84/58
f 84/58 87/55 88/60
f 87/55 89/59 88/60
f 92/63 91/62 90/61
f 91/62 93/64 90/61
f 90/61 93/64 94/62
f 91/62 92/63 95/65
f 92/63 68/66 95/65
f 95/65 68/66 96/67
f 68/66 69/68 96/67
f 96/67 69/68 97/69
f 69/68 98/67 97/69
f 47/36 45/34 62/47
f 45/34 60/45 62/47
f 62/47 60/45 58/43
f 101/72 100/71 99/70
f 100/71 90/73 99/70
f 99/70 90/73 102/71
f 90/73 103/74 102/71
f 102/71 103/74 104/75
f 103/74 83/53 104/75
f 104/75 83/53 82/49
f 107/78 106/77 105/76
f 106/77 108/79 105/76
f 105/76 108/79 109/80
f 111/81 64/49 110/75
f 64/49 68/53 110/75
f 110/75 68/53 92/74
f 114/84 113/83 112/82
f 113/83 115/85 112/82
f 90/73 100/71 92/74
f 100/71 110/75 92/74
f 72/88 116/87 71/86
f 116/87 75/60 71/86
f 71/86 75/60 117/89
f 71/56 117/90 73/58
f 117/90 75/60 73/58
f 90/61 94/62 103/63
f 94/62 118/65 103/63
f 103/63 118/65 83/66
f 118/65 98/67 83/66
f 83/66 98/67 69/68
f 51/36 80/47 53/34
f 80/47 78/45 53/34
f 121/78 120/76 119/77
f 120/76 122/79 119/77
f 122/79 120/76 123/80
f 120/76 124/91 123/80
f 127/94 126/93 125/92
f 126/93 128/95 125/92
f 85/88 86/86 129/87
f 86/86 88/60 129/87
f 129/87 88/60 89/59
f 86/56 84/58 130/90
f 84/58 88/60 130/90
f 134/99 133/98 132/97 131/96
f 138/103 137/102 136/101 135/100
f 142/97 141/98 140/99 139/96
f 146/101 145/102 144/103 143/100
f 149/106 148/105 147/104
f 152/109 151/108 150/107
f 54/39 46/35 44/33
f 116/87 74/59 75/60
f 113/83 153/110 115/85
f 109/80 154/91 105/76
f 80/47 79/43 78/45
f 157/106 156/104 155/105
f 160/109 159/107 158/108
f 102/71 161/72 99/70
f 104/75 82/49 162/81
f 76/39 50/33 52/35
f 130/89 88/60 86/86
f 125/83 128/85 163/110
usemtl mat1.png
f 167/114 166/113 165/112 164/111
f 171/115 170/112 169/113 168/114
f 167/114 172/116 166/113
f 173/116 168/114 169/113
usemtl mat4.png
f 176/119 175/118 174/117
f 176/122 174/121 177/120
f 178/125 174/124 175/123
usemtl mat1.png
f 181/128 180/127 179/126
f 180/127 182/129 179/126
f 179/126 182/129 183/130
f 185/132 180/127 184/131
f 180/127 181/133 184/131
f 180/136 185/135 186/134
f 186/132 184/137 180/127
usemtl mat4.png
f 189/140 188/139 187/138
f 188/139 190/141 187/138
f 187/138 190/141 191/140
f 190/141 192/139 191/140
f 195/144 194/143 193/142
f 194/143 196/145 193/142
f 198/143 195/144 197/142
f 195/144 193/142 197/142
f 194/143 200/147 199/146
f 200/147 198/143 199/146
f 199/146 198/143 201/148
f 198/143 197/142 201/148
f 204/151 203/150 202/149
f 203/150 205/152 202/149
f 202/149 205/152 206/153
f 208/156 188/155 207/154
f 188/155 209/157 207/154
f 209/157 211/159 210/158
f 211/159 205/152 210/158
f 214/162 213/161 212/160
f 213/161 215/163 212/160
f 218/166 217/165 216/164
f 217/165 219/167 216/164
f 219/167 221/168 220/164
f 221/168 222/166 220/164
f 222/171 224/170 223/169
f 224/170 225/172 223/169
f 215/175 213/174 208/173
f 213/174 226/176 208/173
f 218/178 228/177 227/170
f 228/177 225/172 227/170
f 227/170 225/172 224/170
f 188/181 229/180 190/179
f 229/180 192/181 190/179
f 232/184 231/183 230/182
f 231/183 233/185 230/182
f 230/182 233/185 234/186
f 233/185 235/187 234/186
f 232/184 236/188 231/183
f 236/188 237/185 231/183
f 231/183 237/185 238/189
f 240/187 237/185 239/186
f 237/185 236/188 239/186
f 189/192 241/191 206/190
f 241/191 242/193 206/190
f 206/190 242/193 202/194
f 245/143 244/144 243/142
f 244/144 246/142 243/142
f 244/144 247/143 246/142
f 247/143 248/148 246/142
f 245/143 250/146 249/147
f 250/146 247/143 249/147
f 253/151 252/149 251/150
f 252/149 254/152 251/150
f 256/156 255/154 192/155
f 255/154 257/157 192/155
f 192/155 257/157 191/195
f 257/157 259/158 258/159
f 259/158 254/152 258/159
f 262/162 261/160 260/161
f 261/160 263/163 260/161
f 266/166 265/164 264/165
f 265/164 267/167 264/165
f 267/167 269/164 268/168
f 269/164 270/166 268/168
f 270/171 272/169 271/170
f 272/169 273/172 271/170
f 271/170 273/172 274/170
f 273/172 275/177 274/170
f 274/170 275/177 266/178
f 263/175 256/173 260/174
f 256/173 276/176 260/174
f 279/184 278/182 277/183
f 278/182 280/185 277/183
f 277/183 280/185 281/189
f 278/182 282/186 280/185
f 282/186 283/187 280/185
f 279/184 277/183 284/188
f 277/183 285/185 284/188
f 284/188 285/185 286/186
f 285/185 287/187 286/186
f 191/192 289/190 288/191
f 289/190 290/193 288/191
f 250/196 245/143 291/145
f 245/143 243/142 291/145
f 217/200 218/199 222/198 221/197
f 226/204 229/203 188/202 208/201
f 207/154 209/157 210/158 292/205
f 210/158 205/152 203/150 292/205
f 270/209 266/208 264/207 268/206
f 276/204 256/201 192/202 229/203
f 255/154 293/205 259/158 257/157
f 259/158 293/205 251/150 254/152
f 241/210 189/140 187/138
f 199/146 201/212 196/211
f 194/143 199/196 196/145
f 188/155 189/195 209/157
f 233/185 231/183 238/189
f 288/210 187/138 191/140
f 250/146 291/211 248/212
f 289/190 252/194 290/193
f 248/148 247/143 250/146
f 254/152 252/149 289/153
f 285/185 277/183 281/189
usemtl mat1.png
f 296/215 295/214 294/213
f 295/214 297/216 294/213
f 294/213 297/216 298/215
f 297/216 299/214 298/215
f 298/215 299/214 300/217
f 299/214 301/218 300/217
f 300/217 301/218 302/219
f 301/218 303/220 302/219
f 302/219 303/220 304/221
f 303/220 305/222 304/221
f 301/218 306/223 303/220
f 306/223 307/224 303/220
f 303/220 307/224 305/222
f 307/224 308/223 305/222
f 311/227 310/226 309/225
f 310/226 312/228 309/225
f 309/225 312/228 313/229
f 312/228 314/230 313/229
f 313/233 315/232 311/231
f 315/232 316/234 311/231
f 311/231 316/234 317/235
f 316/234 318/236 317/235
f 317/235 318/236 319/231
f 318/236 320/234 319/231
f 319/231 320/234 321/233
f 320/234 322/232 321/233
f 325/239 324/238 323/237
f 324/238 326/240 323/237
f 323/237 326/240 327/239
f 326/240 328/238 327/239
f 331/214 330/215 329/216
f 330/215 332/213 329/216
f 329/216 332/213 333/214
f 332/213 334/215 333/214
f 333/214 334/215 335/218
f 334/215 336/217 335/218
f 335/218 336/217 337/220
f 336/217 338/219 337/220
f 337/220 338/219 339/222
f 338/219 340/221 339/222
f 342/223 335/218 341/224
f 335/218 337/220 341/224
f 341/224 337/220 343/223
f 337/220 339/222 343/223
f 345/226 319/227 344/228
f 319/227 346/225 344/228
f 344/228 346/225 347/230
f 346/225 321/229 347/230
f 295/214 296/215 305/222
f 296/215 304/221 305/222
f 349/243 348/242 326/241
f 348/242 350/243 326/241
f 314/245 351/244 313/233
f 351/244 352/246 313/233
f 315/249 353/248 316/247
f 353/248 318/250 316/247
f 356/253 355/252 354/251
f 355/252 306/223 354/251
f 358/255 314/245 357/254
f 314/245 310/256 357/254
f 357/254 310/256 359/257
f 310/256 360/258 359/257
f 359/257 360/258 345/256
f 360/258 319/231 345/256
f 311/227 309/225 361/259
f 309/225 313/229 361/259
f 307/224 355/252 308/223
f 355/252 362/260 308/223
f 364/263 363/262 294/261
f 363/262 365/264 294/261
f 368/267 367/266 366/265
f 367/266 369/268 366/265
f 372/267 371/266 370/265
f 371/266 373/268 370/265
f 376/267 375/266 374/265
f 375/266 377/268 374/265
f 380/267 379/266 378/265
f 379/266 381/268 378/265
f 384/267 383/266 382/265
f 383/266 385/268 382/265
f 315/271 386/270 353/269
f 386/270 387/272 353/269
f 353/269 387/272 388/270
f 390/275 389/274 354/273
f 389/274 356/276 354/273
f 391/279 389/278 362/277
f 389/278 390/280 362/277
f 357/254 359/282 392/281
f 359/282 393/283 392/281
f 310/256 311/231 360/258
f 311/231 317/235 360/258
f 360/258 317/235 319/231
f 396/286 395/285 394/284
f 395/285 397/287 394/284
f 394/284 397/287 398/285
f 318/250 353/248 320/247
f 353/248 322/249 320/247
f 331/214 339/222 330/215
f 339/222 340/221 330/215
f 330/215 340/221 399/288
f 347/245 321/233 400/244
f 321/233 401/246 400/244
f 400/244 401/246 402/289
f 405/253 404/251 403/252
f 404/251 342/223 403/252
f 403/252 342/223 341/224
f 407/255 406/254 347/245
f 406/254 345/256 347/245
f 319/227 408/259 346/225
f 408/259 321/229 346/225
f 341/224 343/223 403/252
f 343/223 409/260 403/252
f 403/252 409/260 410/290
f 412/263 332/261 411/262
f 332/261 413/264 411/262
f 393/283 359/282 414/281
f 359/282 406/254 414/281
f 417/267 416/265 415/266
f 416/265 418/268 415/266
f 421/267 420/265 419/266
f 420/265 422/268 419/266
f 425/267 424/265 423/266
f 424/265 426/268 423/266
f 429/267 428/265 427/266
f 428/265 430/268 427/266
f 433/267 432/265 431/266
f 432/265 434/268 431/266
f 436/275 404/273 435/274
f 404/273 405/276 435/274
f 410/279 409/277 435/278
f 409/277 436/280 435/278
f 358/255 437/291 351/244 314/245
f 441/295 440/294 439/293 438/292
f 441/298 438/297 443/296 442/293
f 407/255 347/245 400/244 444/291
f 448/293 447/294 446/295 445/292
f 450/296 445/297 446/298 449/293
f 451/288 298/215 300/217
f 304/221 296/215 452/288
f 313/233 352/246 315/232
f 310/301 314/300 312/299
f 313/304 311/303 361/302
f 355/252 307/224 306/223
f 437/291 453/289 351/244
f 456/307 455/306 454/305
f 459/310 458/309 457/308
f 460/311 457/308 458/309
f 463/314 462/313 461/312
f 461/312 462/313 464/315
f 363/318 364/317 365/316
f 366/321 369/320 368/319
f 370/322 373/320 372/319
f 374/322 377/320 376/319
f 378/322 381/320 380/319
f 382/322 385/320 384/319
f 453/289 352/246 351/244
f 467/325 466/324 465/323
f 323/237 468/326 325/239
f 471/327 470/325 469/323
f 324/238 349/328 326/240
f 355/252 391/290 362/260
f 443/331 438/330 439/329
f 440/331 441/330 442/332
f 472/288 336/217 334/215
f 321/233 322/232 401/246
f 345/301 344/299 347/300
f 321/304 408/302 319/303
f 444/291 400/244 402/289
f 475/335 474/334 473/333
f 478/310 477/308 476/309
f 479/311 476/309 477/308
f 482/314 481/337 480/336
f 481/337 483/338 480/336
f 411/318 413/316 412/317
f 416/321 417/319 418/320
f 420/322 421/319 422/320
f 424/322 425/319 426/320
f 428/322 429/319 430/320
f 432/322 433/319 434/320
f 353/269 388/270 322/271
f 345/256 406/254 359/257
f 394/284 398/285 484/286
f 487/325 486/323 485/324
f 323/237 327/239 488/326
f 491/327 490/323 489/325
f 328/238 326/240 350/328
f 450/331 448/329 445/330
f 447/331 449/332 446/330
usemtl mat2.png
f 494/341 493/340 492/339
f 493/340 495/342 492/339
f 492/339 495/342 496/343
f 495/342 497/344 496/343
f 499/346 497/344 498/345
f 497/344 495/342 498/345
f 498/345 495/342 500/347
f 495/342 493/340 500/347
f 503/350 502/349 501/348
f 502/349 504/351 501/348
f 501/348 504/351 505/352
f 504/351 506/353 505/352
f 509/356 508/355 507/354
f 508/355 510/357 507/354
f 507/354 510/357 511/356
f 510/357 512/355 511/356
f 515/360 514/359 513/358
f 514/359 516/361 513/358
f 513/358 516/361 517/362
f 516/361 518/363 517/362
f 521/366 520/365 519/364
f 520/365 522/367 519/364
f 519/364 522/367 523/368
f 522/367 524/369 523/368
f 527/372 526/371 525/370
f 526/371 528/373 525/370
f 525/370 528/373 520/374
f 528/373 529/375 520/374
f 532/378 531/377 530/376
f 531/377 533/379 530/376
f 530/376 533/379 534/380
f 533/379 535/381 534/380
f 537/383 536/382 535/381
f 536/382 538/384 535/381
f 535/381 538/384 534/380
f 538/384 539/385 534/380
f 534/380 539/385 540/381
f 539/385 541/384 540/381
f 540/381 541/384 542/383
f 541/384 543/382 542/383
f 546/387 545/387 544/386
f 545/387 547/386 544/386
f 544/386 547/386 548/388
f 547/386 549/388 548/388
f 548/388 549/388 550/389
f 549/388 551/389 550/389
f 550/389 551/389 552/390
f 551/389 553/390 552/390
f 552/390 553/390 554/391
f 553/390 555/391 554/391
f 554/391 555/391 556/392
f 555/391 557/392 556/392
f 559/394 546/387 558/393
f 546/387 544/386 558/393
f 558/393 544/386 560/395
f 544/386 548/388 560/395
f 560/395 548/388 561/396
f 548/388 550/389 561/396
f 561/396 550/389 562/397
f 550/389 552/390 562/397
f 562/397 552/390 563/398
f 552/390 554/391 563/398
f 563/398 554/391 564/399
f 554/391 556/392 564/399
f 567/340 566/341 565/342
f 566/341 568/339 565/342
f 565/342 568/339 569/344
f 568/339 570/343 569/344
f 569/344 571/346 565/342
f 571/346 572/345 565/342
f 565/342 572/345 567/340
f 572/345 573/347 567/340
f 575/349 503/350 574/351
f 503/350 501/348 574/351
f 574/351 501/348 576/353
f 501/348 505/352 576/353
f 579/359 578/360 577/361
f 578/360 580/358 577/361
f 577/361 580/358 581/363
f 580/358 582/362 581/363
f 584/365 521/366 583/367
f 521/366 519/364 583/367
f 583/367 519/364 585/369
f 519/364 523/368 585/369
f 588/371 587/372 586/373
f 587/372 589/370 586/373
f 586/373 589/370 590/375
f 589/370 584/374 590/375
f 592/377 532/378 591/379
f 532/378 530/376 591/379
f 591/379 530/376 540/381
f 530/376 534/380 540/381
f 545/387 559/394 547/386
f 559/394 558/393 547/386
f 547/386 558/393 549/388
f 558/393 560/395 549/388
f 549/388 560/395 551/389
f 560/395 561/396 551/389
f 551/389 561/396 553/390
f 561/396 562/397 553/390
f 553/390 562/397 555/391
f 562/397 563/398 555/391
f 555/391 563/398 557/392
f 563/398 564/399 557/392
f 595/402 594/401 593/400
f 594/401 596/403 593/400
f 599/406 598/405 597/404
f 598/405 600/407 597/404
f 603/410 602/409 601/408
f 602/409 604/411 601/408
f 601/408 604/411 603/410
f 607/414 606/413 605/412
f 606/413 608/415 605/412
f 609/417 496/343 604/416
f 496/343 497/344 604/416
f 604/416 497/344 610/418
f 609/421 602/420 611/419
f 602/420 494/341 611/419
f 604/423 494/341 603/422
f 494/341 602/420 603/422
f 614/426 613/425 612/424
f 613/425 615/427 612/424
f 612/424 615/427 616/428
f 615/427 617/429 616/428
f 509/356 618/430 508/355
f 618/430 619/431 508/355
f 508/355 619/431 531/432
f 619/431 620/433 531/432
f 616/435 621/434 612/424
f 621/434 622/436 612/424
f 612/424 622/436 614/426
f 622/436 623/437 614/426
f 614/426 623/437 502/438
f 623/437 624/439 502/438
f 502/438 624/439 504/440
f 624/439 625/441 504/440
f 520/374 529/375 522/367
f 529/375 524/369 522/367
f 533/379 526/371 535/381
f 526/371 537/383 535/381
f 620/442 526/371 531/377
f 526/371 533/379 531/377
f 627/444 508/355 626/443
f 508/355 531/432 626/443
f 626/443 531/432 532/445
f 536/382 537/383 527/372
f 537/383 526/371 527/372
f 622/436 621/434 623/437
f 621/434 628/446 623/437
f 623/437 628/446 624/439
f 628/446 617/447 624/439
f 624/439 617/447 625/441
f 528/373 526/371 629/448
f 526/371 620/442 629/448
f 529/375 630/449 524/369
f 630/449 631/450 524/369
f 524/369 631/450 523/368
f 631/450 585/369 523/368
f 634/453 633/452 632/451
f 633/452 598/405 632/451
f 632/451 598/405 635/454
f 598/405 599/406 635/454
f 613/425 506/455 615/427
f 506/455 504/456 615/427
f 615/427 504/456 625/457
f 636/458 595/402 597/404
f 595/402 593/400 597/404
f 597/404 593/400 599/406
f 593/400 596/403 599/406
f 636/460 633/452 595/459
f 633/452 634/453 595/459
f 595/459 634/453 594/461
f 564/399 556/392 637/462
f 556/392 557/392 637/462
f 637/462 557/392 564/399
f 640/406 639/405 638/454
f 639/405 641/451 638/454
f 644/409 643/410 642/408
f 643/410 645/411 642/408
f 642/408 645/411 644/409
f 648/414 647/412 646/413
f 647/412 649/415 646/413
f 650/417 645/416 570/343
f 645/416 569/344 570/343
f 650/421 651/419 644/420
f 651/419 566/341 644/420
f 644/420 566/341 643/422
f 566/341 645/423 643/422
f 574/456 576/455 652/427
f 576/455 653/425 652/427
f 652/427 653/425 654/424
f 656/441 655/439 574/440
f 655/439 575/438 574/440
f 511/356 512/355 657/430
f 512/355 658/431 657/430
f 660/436 654/424 659/426
f 654/424 653/425 659/426
f 662/435 654/424 661/434
f 654/424 660/436 661/434
f 661/434 660/436 663/437
f 660/436 659/426 663/437
f 663/437 659/426 575/438
f 532/445 592/432 626/443
f 592/432 512/355 626/443
f 626/443 512/355 664/444
f 584/374 583/367 590/375
f 583/367 585/369 590/375
f 590/375 585/369 665/449
f 585/369 631/450 665/449
f 591/379 588/371 592/377
f 588/371 666/442 592/377
f 543/382 587/372 542/383
f 587/372 588/371 542/383
f 542/383 588/371 540/381
f 588/371 591/379 540/381
f 654/424 662/428 652/427
f 662/428 667/429 652/427
f 652/427 667/429 656/457
f 666/442 588/371 668/448
f 588/371 586/373 668/448
f 661/434 663/437 669/446
f 663/437 655/439 669/446
f 669/446 655/439 667/447
f 655/439 656/441 667/447
f 512/355 592/432 658/431
f 592/432 666/433 658/431
f 658/431 666/433 668/430
f 639/405 670/452 641/451
f 670/452 671/453 641/451
f 673/403 672/400 640/406
f 672/400 674/404 640/406
f 640/406 674/404 639/405
f 674/404 675/407 639/405
f 639/405 675/407 670/452
f 677/458 674/404 676/402
f 674/404 672/400 676/402
f 676/402 672/400 678/401
f 672/400 673/403 678/401
f 677/460 676/459 670/452
f 676/459 671/453 670/452
f 493/340 494/465 604/464 610/463
f 679/467 610/418 497/344 499/466
f 610/471 679/470 500/469 493/468
f 517/362 680/473 515/472 513/358
f 681/477 514/476 515/475 680/474
f 518/363 516/361 514/479 681/478
f 645/464 566/465 567/340 682/463
f 569/344 682/418 683/467 571/466
f 573/469 683/470 682/471 567/468
f 578/472 684/473 582/362 580/358
f 578/475 579/476 685/477 684/474
f 579/479 577/361 581/363 685/478
f 598/405 633/452 600/407
f 606/413 686/480 608/414
f 609/482 604/416 602/481
f 494/341 492/484 611/483
f 634/487 687/486 594/485
f 686/490 606/489 688/488
f 634/487 689/492 687/491
f 502/349 503/350 690/493
f 613/494 505/352 506/353
f 606/489 607/489 688/495
f 619/431 629/430 620/433
f 615/427 625/457 617/429
f 646/413 649/414 691/480
f 650/482 644/481 645/416
f 566/341 651/483 568/484
f 671/487 678/485 692/486
f 691/490 693/488 646/489
f 671/487 692/491 694/492
f 575/349 695/493 503/350
f 653/494 576/353 505/352
f 574/456 652/427 656/457
f 646/489 693/495 648/489
f 569/344 645/416 682/418
f 575/438 655/439 663/437
f 671/453 676/459 678/461
# 721 elements

