# Created by Metasequoia

mtllib Model.mtl

v 3.765625 170.700104 5.677715
v 7.750000 177.511993 3.722875
v 0.000000 172.498001 9.989689
v 0.000000 178.482605 11.128760
v -7.750000 177.511993 3.722875
v -3.765625 170.700104 5.677715
v 11.703130 153.845306 8.743025
v 6.375000 159.263702 5.067059
v 11.734380 159.182495 5.045185
v 4.703125 154.887894 9.312158
v 7.734375 147.416702 10.524540
v 0.000000 154.126007 9.921263
v 0.000000 146.912094 10.914490
v -7.734375 147.416702 10.524540
v -6.375000 159.263702 5.067059
v -11.703130 153.845306 8.743025
v -11.734380 159.182495 5.045185
v -4.703125 154.887894 9.312158
v 1.687500 184.247803 9.689808
v 1.953125 184.919601 9.533387
v 3.500000 183.372604 8.893169
v 1.218750 184.560501 10.627210
v 1.421875 185.247894 10.267670
v 0.000000 185.326202 10.923890
v 0.000000 184.732605 11.486530
v -1.218750 184.560501 10.627210
v 1.406250 187.388702 10.923360
v 1.125000 186.873093 11.079740
v 0.000000 187.560593 11.220190
v 0.000000 186.966904 11.392210
v 9.359375 186.215393 5.408119
v 8.687500 183.043701 5.768301
v 2.921875 186.356995 9.095526
v 9.875000 185.559097 5.033293
v 10.000000 186.199707 4.939380
v 9.218750 182.465500 5.424704
v 3.265625 182.716400 8.971460
v 11.984380 185.760101 -3.310381
v 12.015630 186.416306 -3.201176
v 0.000000 143.299194 10.161100
v 0.000000 153.811600 8.857132
v 4.703125 136.069397 10.353860
v -4.703125 136.069397 10.353860
v 0.000000 137.526505 15.766750
v 0.000000 126.845596 11.112400
v -9.218750 182.465500 5.424704
v -8.687500 183.043701 5.768301
v -3.500000 183.372604 8.893169
v -9.875000 185.559097 5.033293
v -9.359375 186.215393 5.408119
v -10.000000 186.199707 4.939380
v -11.984380 185.760101 -3.310381
v -12.015630 186.416306 -3.201176
v -1.421875 185.247894 10.267670
v -1.953125 184.919601 9.533387
v -1.687500 184.247803 9.689808
v -3.265625 182.716400 8.971460
v -1.406250 187.388702 10.923360
v -1.125000 186.873093 11.079740
v -2.921875 186.356995 9.095526
v 7.562500 126.805603 9.307928
v -7.562500 126.805603 9.307928
v 3.203125 187.341705 10.470250
v 0.000000 196.731293 6.983525
v 4.734375 196.059204 6.311832
v 0.000000 186.935593 11.095350
v 11.406250 187.856003 5.220201
v 8.968750 194.574097 3.265385
v 1.406250 185.497498 8.517631
v 0.000000 185.154297 10.752060
v -1.406250 185.497498 8.517631
v 0.000000 180.952103 14.143710
v -3.062500 179.747696 8.894098
v 0.000000 177.186707 14.832160
v 8.375000 185.324799 5.314598
v 3.062500 179.747696 8.894098
v 9.312500 180.949799 5.112598
v 7.750000 177.511993 3.722875
v 11.375000 185.057693 -0.325872
v 11.234380 186.729401 -0.841917
v 12.796880 182.666199 -3.825205
v 8.953125 176.089096 -0.151701
v 12.812500 177.681595 -5.230156
v 17.734381 188.476807 -10.951580
v 10.703130 180.791107 -4.465340
v 11.718750 185.322006 -5.560234
v 0.000000 164.703995 -8.981411
v 0.000000 162.930206 -11.491910
v 8.031250 163.056503 -6.492015
v -8.031250 163.056503 -6.492015
v -4.328125 165.234299 -5.676584
v -5.281250 159.884399 2.728363
v 0.000000 162.167603 0.398732
v 0.000000 162.457993 1.459539
v 5.281250 159.884399 2.728363
v 0.000000 157.966293 6.337205
v 4.328125 165.234299 -5.676584
v 0.000000 178.482605 11.128760
v 0.000000 168.480194 1.037730
v 4.296875 172.993698 -6.932055
v 8.531250 173.932999 0.145721
v 3.765625 170.700104 5.677715
v 0.000000 168.652603 3.100154
v 14.468750 188.212708 -5.092232
v -3.203125 187.341705 10.470250
v -11.406250 187.856003 5.220201
v -8.375000 185.324799 5.314598
v -11.234380 186.729401 -0.841917
v -11.375000 185.057693 -0.325872
v -4.734375 196.059204 6.311832
v -8.968750 194.574097 3.265385
v -12.796880 182.666199 -3.825205
v -8.953125 176.089096 -0.151701
v -14.468750 188.212708 -5.092232
v -17.734381 188.476807 -10.951580
v -12.812500 177.681595 -5.230156
v -10.703130 180.791107 -4.465340
v -11.718750 185.322006 -5.560234
v -4.296875 172.993698 -6.932055
v -8.531250 173.932999 0.145721
v -7.750000 177.511993 3.722875
v -3.765625 170.700104 5.677715
v -9.312500 180.949799 5.112598
v 5.640625 201.057098 -1.658076
v 8.968750 194.574097 3.265385
v 4.734375 196.059204 6.311832
v 11.171880 197.212402 -5.703904
v 6.171875 201.789001 -11.204990
v 10.593750 196.850098 -17.000509
v 15.421880 193.630905 -19.187149
v 16.562500 195.879196 -25.656380
v 13.875000 188.868500 -6.826749
v 11.234380 186.729401 -0.841917
v 11.718750 185.322006 -5.560234
v 11.375000 185.057693 -0.325872
v 18.171881 191.099503 -19.608379
v 24.406250 193.628693 -27.624531
v 19.390631 187.255798 -19.732389
v 10.703130 180.791107 -4.465340
v 22.609381 191.754395 -25.092831
v 28.250000 190.471893 -30.092430
v 21.437500 188.129395 -25.404400
v 25.515631 187.957001 -27.232450
v 4.296875 172.993698 -6.932055
v 15.281250 179.334900 -16.558531
v 8.953125 176.089096 -0.151701
v 8.531250 173.932999 0.145721
v 9.625000 189.833603 -20.858030
v 0.000000 187.270004 -25.435431
v 0.000000 197.989899 -20.250759
v -10.593750 196.850098 -17.000509
v -6.171875 201.789001 -11.204990
v -11.171880 197.212402 -5.703904
v -5.640625 201.057098 -1.658076
v 2.406250 185.160202 -27.028610
v 6.171875 184.051300 -25.497101
v 4.984375 186.065994 -29.028820
v 0.000000 175.756302 -18.651331
v 0.000000 186.331100 -30.747610
v -2.406250 185.160202 -27.028610
v 0.000000 202.804703 -11.049010
v 0.000000 202.244705 -1.158388
v 6.406250 186.489105 -24.232121
v 10.531250 185.425903 -26.997431
v 10.281250 184.348801 -23.044090
v 0.000000 196.731293 6.983525
v 0.000000 164.703995 -8.981411
v 4.328125 165.234299 -5.676584
v 0.000000 171.492905 -10.103500
v 2.031250 178.263702 10.347580
v 5.828125 176.200500 7.598151
v 2.171875 177.060593 10.379140
v 6.421875 177.481705 7.472825
v 0.000000 165.310394 8.975921
v 3.765625 170.700104 5.677715
v 0.000000 168.652603 3.100154
v 0.593750 163.826904 12.273130
v 0.000000 167.185898 10.850410
v 0.000000 172.498001 9.989689
v -3.765625 170.700104 5.677715
v 17.593750 184.349503 -20.200390
v 22.109381 184.598602 -23.841021
v -8.968750 194.574097 3.265385
v -4.734375 196.059204 6.311832
v -15.421880 193.630905 -19.187149
v -16.562500 195.879196 -25.656380
v -18.171881 191.099503 -19.608379
v -24.406250 193.628693 -27.624531
v -13.875000 188.868500 -6.826749
v -11.234380 186.729401 -0.841917
v -21.437500 188.129395 -25.404400
v -19.390631 187.255798 -19.732389
v -25.515631 187.957001 -27.232450
v -28.250000 190.471893 -30.092430
v -15.281250 179.334900 -16.558531
v -4.296875 172.993698 -6.932055
v -6.171875 184.051300 -25.497101
v -4.984375 186.065994 -29.028820
v -10.281250 184.348801 -23.044090
v -22.109381 184.598602 -23.841021
v -17.593750 184.349503 -20.200390
v -6.406250 186.489105 -24.232121
v -9.625000 189.833603 -20.858030
v -10.531250 185.425903 -26.997431
v -22.609381 191.754395 -25.092831
v -11.718750 185.322006 -5.560234
v -11.375000 185.057693 -0.325872
v -4.328125 165.234299 -5.676584
v -5.828125 176.200500 7.598151
v -2.031250 178.263702 10.347580
v -2.171875 177.060593 10.379140
v -6.421875 177.481705 7.472825
v -9.125000 173.590607 5.317605
v -0.593750 163.826904 12.273130
v -10.703130 180.791107 -4.465340
v -8.953125 176.089096 -0.151701
v -8.531250 173.932999 0.145721
v 9.125000 173.590607 5.317605
v -1.730929 136.773193 25.867710
v -1.685534 136.898697 25.871040
v -1.775948 136.854401 25.854111
v -1.652641 136.811493 25.882360
v -1.669915 136.704697 25.833790
v -1.624708 136.726898 25.842260
v -1.571012 136.831894 25.855101
v -1.534340 136.919403 25.783710
v -1.575401 136.921402 25.823990
v -1.507928 136.828705 25.793230
v -1.577584 136.738602 25.826509
v -1.541156 136.736801 25.790791
v -1.480299 136.802902 25.713341
v -1.500281 136.851196 25.606770
v -1.490378 136.878296 25.656590
v -1.495521 136.761398 25.636801
v -1.525202 136.721893 25.744659
v -1.534000 136.697906 25.700480
v -1.549513 136.715195 25.584150
v -1.656873 136.743195 25.509781
v -1.566459 136.787506 25.526711
v -1.627802 136.676804 25.569490
v -1.565164 136.671295 25.670071
v -1.610371 136.649094 25.661610
v -1.709430 136.656494 25.596760
v -1.808067 136.722595 25.597111
v -1.767006 136.720505 25.556829
v -1.772515 136.659698 25.658630
v -1.657496 136.637405 25.677361
v -1.693923 136.639206 25.713070
v -1.800144 136.685501 25.738520
v -1.842126 136.790695 25.774050
v -1.852029 136.763702 25.724230
v -1.784922 136.727005 25.815050
v -1.709877 136.654099 25.759211
v -1.701079 136.678101 25.803391
v -1.609239 136.667404 25.761450
v -1.665163 136.686203 25.847660
v -1.789205 136.715393 25.825220
v -1.698164 136.658005 25.815470
v -1.732042 136.764297 25.880960
v -1.617308 136.709595 25.856621
v -1.649144 136.804901 25.896481
v -1.567406 136.722107 25.839960
v -1.562720 136.826401 25.867630
v -1.528848 136.720093 25.802130
v -1.495941 136.823105 25.802120
v -1.511959 136.704300 25.753290
v -1.466672 136.795807 25.717510
v -1.521255 136.679001 25.706499
v -1.482785 136.751801 25.636490
v -1.554269 136.650803 25.674330
v -1.539948 136.702896 25.580750
v -1.602123 136.627304 25.665371
v -1.622859 136.662292 25.565229
v -1.652026 136.614899 25.682020
v -1.709277 136.640793 25.594090
v -1.690584 136.616806 25.719851
v -1.776062 136.644104 25.659599
v -1.707473 136.632599 25.768690
v -1.805318 136.671494 25.744190
v -1.820236 136.829102 25.836020
v -1.848159 136.800705 25.798941
v -1.782247 136.856995 25.863211
v -1.736662 136.882507 25.878540
v -1.686662 136.903793 25.881121
v -1.635613 136.919601 25.870581
v -1.586994 136.928604 25.847830
v -1.544197 136.930405 25.814280
v -1.510016 136.924805 25.772320
v -1.486908 136.912094 25.724701
v -1.476278 136.893295 25.674761
v -1.479066 136.869507 25.625879
v -1.494854 136.842606 25.581341
v -1.522790 136.814102 25.544270
v -1.606363 136.760803 25.501751
v -1.656358 136.739395 25.499180
v -1.560766 136.786194 25.517071
v -1.707381 136.723694 25.509701
v -1.798798 136.712799 25.566010
v -1.833004 136.718399 25.607981
v -1.755976 136.714600 25.532440
v -1.856117 136.731094 25.655581
v -1.863960 136.773697 25.754410
v -1.866735 136.750000 25.705521
v -1.600093 136.644608 25.772020
v -1.790833 136.668900 25.467030
v -1.798798 136.712799 25.566010
v -2.041238 136.639206 25.621260
v -1.755976 136.714600 25.532440
v -1.540428 136.698593 25.312799
v -1.707381 136.723694 25.509701
v -1.848159 136.800705 25.798941
v -1.863960 136.773697 25.754410
v -1.921471 136.790894 25.844801
v -1.820236 136.829102 25.836020
v -1.801705 136.942703 26.068331
v -1.586994 136.928604 25.847830
v -1.635613 136.919601 25.870581
v -1.551300 136.972397 25.914101
v -1.544197 136.930405 25.814280
v -1.300895 137.001999 25.759871
v -1.494854 136.842606 25.581341
v -1.479066 136.869507 25.625879
v -1.420661 136.850296 25.536329
v -1.522790 136.814102 25.544270
v -1.782247 136.856995 25.863211
v -1.736662 136.882507 25.878540
v -1.686662 136.903793 25.881121
v -1.866735 136.750000 25.705521
v -1.856117 136.731094 25.655581
v -1.833004 136.718399 25.607981
v -1.510016 136.924805 25.772320
v -1.486908 136.912094 25.724701
v -1.476278 136.893295 25.674761
v -1.560766 136.786194 25.517071
v -1.606363 136.760803 25.501751
v -1.656358 136.739395 25.499180
v 0.000000 144.046402 -10.960970
v 0.000000 126.059097 -8.475647
v 20.031250 145.666306 -6.967462
v -20.031250 145.666306 -6.967462
v 4.718750 153.788696 8.529467
v 0.000000 157.966293 6.337205
v 6.375000 159.257797 3.950777
v 0.000000 153.811600 8.857132
v 6.437500 146.863602 10.637030
v 4.703125 136.069397 10.353860
v 16.015631 146.718704 6.610985
v 7.562500 126.805603 9.307928
v 15.656250 126.232101 -2.612258
v 11.000000 117.427902 8.716633
v 17.125000 117.853897 -3.676006
v 18.574961 93.721107 8.492554
v 24.072550 93.322571 -7.337872
v 30.084961 64.187393 -8.431385
v 0.000000 91.211433 -15.347170
v 0.000000 63.648930 -16.987789
v -30.084961 64.187393 -8.431629
v 49.173580 158.562103 -1.787540
v 43.923580 153.844299 1.462019
v 38.079830 154.016205 1.665100
v 53.079990 153.844406 2.977694
v 50.152500 158.515198 -1.586262
v 76.558693 158.093399 -1.724337
v 54.845459 154.531403 -7.411355
v 76.771683 154.422104 -6.333817
v 49.258469 149.751205 -2.316069
v 76.590073 149.923004 -1.692957
v 76.390678 154.422394 2.479002
v 38.095459 149.079407 -3.677487
v 78.444710 154.297104 -6.091612
v 78.229401 157.671600 -1.982030
v 78.045769 153.141296 2.221411
v 78.260651 150.501099 -1.981928
v 84.737122 156.042007 3.441709
v 88.129051 155.823105 3.707030
v 85.254982 152.589203 3.921193
v 88.429947 156.262299 1.206350
v 87.363762 153.252502 -6.320822
v 88.392189 155.408798 -6.933362
v 88.090340 153.782501 -4.636599
v 88.619667 153.874100 -1.686348
v 83.929283 151.372696 1.083208
v 88.180092 153.731506 1.236987
v 87.877586 153.448807 3.394089
v 89.009087 147.167694 4.790477
v 80.557114 149.497604 1.706814
v 89.126801 146.791504 6.586249
v 90.312927 148.728897 6.285274
v 97.365868 152.907104 3.506594
v 97.280777 153.250702 2.007223
v 96.240288 151.797897 3.386873
v 96.171204 152.110306 1.965541
v 96.028801 149.360703 -1.783090
v 88.715279 156.297607 -4.653364
v 95.976631 149.173203 -2.923280
v 88.853973 156.639297 -1.701127
v 94.513611 149.079498 -1.682318
v 94.507378 148.829498 -3.025811
v 89.796867 152.813400 -3.910935
v 93.563782 149.282501 -4.333735
v 93.496140 149.141800 -5.442610
v 92.183197 149.001205 -5.530251
v 92.251717 149.204300 -4.233912
v 97.805511 151.719696 0.598822
v 97.752617 151.782104 -0.697597
v 96.540321 150.813599 0.698456
v 96.533218 150.860397 -0.832512
v 50.142330 149.719894 -3.896219
v 38.111080 151.844406 -7.489374
v 0.000000 117.563698 -10.419250
v -17.125000 117.853897 -3.676006
v -15.656250 126.232101 -2.612258
v -11.000000 117.427902 8.716633
v -7.562500 126.805603 9.307928
v 0.000000 162.930206 -11.491910
v 0.000000 172.601303 -13.759970
v 10.609380 172.587494 -6.885076
v -10.609380 172.587494 -6.885076
v -8.031250 163.056503 -6.492015
v -6.109375 172.465302 4.114787
v -5.281250 159.884399 2.728363
v 8.031250 163.056503 -6.492015
v 6.109375 172.465302 4.114787
v 5.281250 159.884399 2.728363
v 16.001221 101.975800 -0.228710
v 7.282471 99.339653 9.234650
v 7.406250 102.648903 9.371582
v 7.657471 63.130360 7.933071
v 14.969970 63.058868 -0.829071
v 14.501220 58.442650 -1.011780
v 11.954350 57.056469 -9.029711
v 13.438720 12.386740 -3.779633
v 11.016850 10.380860 -12.695240
v 12.157470 5.650937 -10.268660
v 2.157471 2.041341 9.807714
v 4.110596 8.243245 -4.080537
v 7.219971 10.054080 3.076154
v 3.079346 2.274693 -4.988185
v 1.923096 0.026837 9.677691
v 7.469971 5.354222 -10.956230
v 7.813721 2.369950 -11.425680
v 6.985596 -0.095967 18.614870
v 6.969971 1.902753 18.760361
v 13.594970 0.027477 9.615191
v 13.516850 2.041662 9.776464
v 12.188720 2.274594 -4.566309
v 11.407470 8.743126 -3.564793
v 7.110596 5.474078 11.028230
v 3.001221 0.259056 -4.957407
v 7.719971 0.354309 -11.379280
v 12.157470 0.258983 -4.644906
v 0.907471 12.849400 -4.190399
v 7.485596 16.965839 2.659338
v 7.532471 58.650558 7.343092
v 0.594971 58.031101 -0.144069
v 0.469971 62.603931 0.525845
v -0.233154 96.873367 2.830753
v 0.000000 99.242683 3.793457
v 0.000000 97.820801 3.590332
v 0.233154 96.873367 2.830753
v 0.000000 98.789551 -5.065918
v 0.030029 97.515762 -4.818504
v -0.030029 97.515762 -4.818504
v 3.516846 63.730721 -9.102566
v 2.548096 10.677370 -12.943710
v 3.423096 56.928150 -9.240810
v 12.141850 63.711430 -9.025272
v 13.407470 7.805444 -2.799386
v 15.750000 104.820801 -0.409668
v 8.593750 103.242699 -8.847168
v 8.860596 101.317596 -8.158295
v 12.875000 117.880699 -1.800320
v 11.343750 117.638100 6.563744
v 0.000000 126.845596 11.112400
v 0.000000 117.185699 10.526940
v 2.719971 5.369752 -10.549970
v 1.282471 6.883743 -3.549603
v 0.000000 117.588303 -8.590385
v 0.000000 103.398903 -8.987793
v -8.593750 103.242699 -8.847168
v 0.000000 102.227097 9.684082
v -7.406250 102.648903 9.371582
v -4.718750 153.788696 8.529467
v -6.375000 159.257797 3.950777
v -43.923580 153.844299 1.462019
v -49.173580 158.562103 -1.787540
v -38.079830 154.016205 1.665100
v -53.079990 153.844406 2.977694
v -78.229401 157.671600 -1.982030
v -76.390610 154.422394 2.463380
v -78.045769 153.141296 2.221411
v -76.558693 158.093399 -1.724337
v -78.444710 154.297104 -6.091612
v -76.771683 154.422104 -6.333817
v -78.260651 150.501099 -1.981928
v -76.590073 149.923004 -1.692957
v -90.312927 148.728897 6.285274
v -89.126801 146.791504 6.586249
v -85.254982 152.589203 3.921193
v -87.363762 153.252502 -6.320822
v -88.376556 155.408798 -6.933290
v -88.090340 153.782501 -4.636599
v -88.619667 153.874100 -1.686348
v -89.009087 147.167694 4.790477
v -80.557114 149.497604 1.706814
v -83.929283 151.372696 1.083208
v -88.180092 153.731506 1.236987
v -97.365868 152.907104 3.506594
v -88.429947 156.262299 1.206350
v -88.129051 155.823105 3.707030
v -97.280777 153.250702 2.007223
v -87.877586 153.448807 3.394089
v -96.240288 151.797897 3.386873
v -96.171204 152.110306 1.965541
v -96.028801 149.360703 -1.783090
v -88.715279 156.297607 -4.653364
v -88.853973 156.639297 -1.701127
v -95.976631 149.173203 -2.923280
v -89.796867 152.813400 -3.910935
v -94.513611 149.079498 -1.682318
v -94.507378 148.829498 -3.025811
v -93.563782 149.282501 -4.333735
v -93.496140 149.141800 -5.442610
v -92.183197 149.001205 -5.530251
v -92.251717 149.204300 -4.233912
v -84.737122 156.042007 3.441709
v -97.805511 151.719696 0.598822
v -97.752617 151.782104 -0.697597
v -96.540321 150.813599 0.698456
v -96.533218 150.860397 -0.832512
v -54.845459 154.531403 -7.411355
v -49.258469 149.751205 -2.316069
v -50.142330 149.719894 -3.896219
v -38.095459 149.079407 -3.677487
v -15.296880 146.718704 6.610985
v -38.111080 151.844406 -7.489374
v -50.152500 158.515198 -1.586262
v -18.574961 93.721107 8.492310
v -25.360689 62.583401 8.857765
v -24.072550 93.322571 -7.338116
v -16.001221 101.975800 -0.228710
v -7.282471 99.339653 9.234650
v -15.750000 104.820801 -0.409668
v -8.860596 101.317596 -8.158295
v -11.343750 117.638100 6.563744
v -6.985596 -0.095967 18.614870
v -6.969971 1.902753 18.760361
v -2.157471 2.041341 9.807714
v -13.594970 0.027477 9.615191
v -3.079346 2.274693 -4.988185
v -12.188720 2.274594 -4.566309
v -1.923096 0.026837 9.677691
v -7.469971 5.354222 -10.956230
v -7.813721 2.369950 -11.425680
v -11.407470 8.743126 -3.564793
v -13.516850 2.041662 9.776464
v -7.219971 10.054080 3.076154
v -3.001221 0.259056 -4.957407
v -7.719971 0.354309 -11.379280
v -12.157470 0.258983 -4.644906
v -0.907471 12.849400 -4.190399
v -1.282471 6.883743 -3.549603
v -7.485596 16.965839 2.659338
v -0.469971 62.603931 0.525845
v -3.516846 63.730721 -9.102566
v -2.548096 10.677370 -12.943710
v -0.594971 58.031101 -0.144069
v -3.423096 56.928150 -9.240810
v -7.532471 58.650558 7.343092
v -12.141850 63.711430 -9.025272
v -14.969970 63.058868 -0.829071
v -11.954350 57.056469 -9.029711
v -7.673096 63.130360 7.933071
v -14.501220 58.442650 -1.011780
v -13.438720 12.386740 -3.779633
v -11.016850 10.380860 -12.695240
v -12.157470 5.650937 -10.268660
v -13.407470 7.805444 -2.799386
v -12.875000 117.880699 -1.800320
v -4.110596 8.243245 -4.080537
v -2.719971 5.369752 -10.549970
v -4.703125 136.069397 10.353860
v -6.437500 146.863602 10.637030
v -7.110596 5.474078 11.028230
v 25.360689 62.583401 8.858009
v 19.031250 160.667007 -3.880950
v 19.046881 159.356400 1.907348
v 10.078130 162.751907 -5.579807
v 22.390631 162.439301 -4.060030
v 0.000000 144.696396 -17.582270
v 19.796881 158.518707 -10.045030
v 0.000000 161.041504 -15.081380
v 22.765631 154.169693 -10.629740
v 0.000000 106.820198 -30.002319
v 25.390631 107.967003 -19.340361
v 27.625000 65.871490 -29.363689
v 43.546879 110.198799 -12.593120
v 43.656250 64.362244 -15.319720
v 43.548580 160.530502 -1.006502
v 38.079830 154.016205 1.665100
v 23.468750 159.424301 0.624863
v 49.173580 158.562103 -1.787540
v 54.845459 154.531403 -7.411355
v 23.812500 158.822205 -8.019993
v 20.421881 174.804001 -15.526140
v 18.406250 169.524994 -6.853042
v 17.703131 169.369598 -3.806174
v 28.437500 168.493805 -6.696530
v 0.000000 172.601303 -13.759970
v 10.609380 172.587494 -6.885076
v 0.000000 175.487701 -30.213591
v -20.421881 174.804001 -15.526140
v 43.000000 64.170113 -14.919000
v 42.765629 110.063499 -12.338800
v 27.140631 65.661034 -28.838341
v 24.953131 107.819901 -16.235760
v 0.000000 106.600800 -15.698140
v 20.031250 145.666306 -6.967462
v 0.000000 144.046402 -10.960970
v 0.000000 29.825899 -48.281239
v 31.437500 26.835871 -35.036819
v 31.968750 26.962709 -35.552921
v 0.000000 29.683270 -47.591171
v -31.437500 26.835871 -35.036819
v -27.140631 65.661034 -28.838341
v -43.000000 64.170113 -14.919000
v -42.765629 110.063499 -12.338800
v 38.111080 151.844406 -7.489374
v 50.078129 17.307770 -10.488000
v 49.359379 17.192560 -10.130810
v 4.718750 153.788696 8.529467
v 16.015631 146.718704 6.610985
v 6.437500 146.863602 10.637030
v 6.375000 159.257797 3.950777
v -6.375000 159.257797 3.950777
v -19.046881 159.356400 1.907348
v -10.078130 162.751907 -5.579807
v -4.718750 153.788696 8.529467
v -19.796881 158.518707 -10.045030
v -22.765631 154.169693 -10.629740
v -23.812500 158.822205 -8.019993
v -54.845459 154.531403 -7.411355
v -43.548580 160.530502 -1.006502
v -49.173580 158.562103 -1.787540
v -43.546879 110.198799 -12.593120
v -25.390631 107.951897 -19.344540
v -27.625000 65.871490 -29.363689
v 0.000000 67.275673 -39.869850
v -19.031250 160.667007 -3.880950
v -22.390631 162.439301 -4.060030
v -23.736080 159.108902 0.977552
v -31.968750 26.962709 -35.552921
v -43.656250 64.362244 -15.319720
v -50.078129 17.307770 -10.488000
v -17.703131 169.369598 -3.806174
v -18.781250 170.321503 -8.431347
v -28.437500 168.493805 -6.696530
v -20.031250 145.666306 -6.967462
v -38.111080 151.844406 -7.489374
v -24.953131 107.819901 -16.235760
v 0.000000 67.031326 -34.133202
v -49.359379 17.192560 -10.130810
v -15.296880 146.718704 6.610985
v -6.437500 146.863602 10.637030
v -38.079830 154.016205 1.665100
v 89.431976 138.900299 31.950171
v 79.800888 152.094803 40.783859
v 90.781563 141.095093 43.302952
v 83.439667 149.587006 30.266951
v 89.232803 145.496902 26.066040
v 81.814789 149.714294 26.931370
v 85.061783 150.138901 22.901640
v 90.127228 154.166595 26.880310
v 77.262901 145.292603 -61.692329
v 85.308907 151.040100 -14.764580
v 80.542633 145.089798 -62.035751
v 79.612701 148.210693 -57.030079
v 88.354637 154.149002 -15.026490
v 90.150337 150.212402 -15.287530
v 93.199364 149.967499 22.207640
v 102.199699 150.705505 38.400410
v 97.075188 149.090195 25.735350
v 91.588951 161.938095 38.830120
v 92.111298 150.479004 50.380310
v -10.609380 172.587494 -6.885076
# 685 vertices

vt 0.33691 -0.18066
vt 0.49902 -0.06836
vt 0.41602 -0.19238
vt 0.33594 -0.04883
vt 0.17578 -0.06836
vt 0.25879 -0.19238
vt 1.00000 -0.75684
vt 0.83594 -0.54102
vt 1.00098 -0.56055
vt 0.77344 -0.70117
vt 0.91309 -0.96094
vt 0.61328 -0.72070
vt 0.61816 -0.99023
vt 0.62402 -1.09570
vt 0.62793 -1.08008
vt 0.66113 -1.11523
vt 0.60547 -1.09277
vt 0.60938 -1.07910
vt 0.56641 -1.07910
vt 0.56641 -1.09277
vt 0.60352 -1.05859
vt 0.61719 -1.01660
vt 0.62988 -1.06055
vt 0.59766 -1.03711
vt 0.56738 -1.01660
vt 0.56738 -1.03516
vt 0.66895 -1.09082
vt 0.78906 -1.01269
vt 0.79004 -1.09180
vt 0.66992 -1.01367
vt 0.64648 -1.03613
vt 0.84082 -1.09082
vt 0.82910 -1.07812
vt 0.84180 -1.07812
vt 0.79297 -1.11133
vt 0.80469 -1.13086
vt 0.65625 -1.13574
vt 0.92676 -1.09082
vt 0.98047 -1.07812
vt 0.31250 -0.00293
vt 0.32812 -0.18066
vt 0.40820 -0.00391
vt 0.00879 -0.22559
vt 0.00977 -0.06348
vt 0.18652 -0.22559
vt 0.00977 -0.50391
vt 0.24414 -0.54102
vt 0.49023 -0.50098
vt 0.30273 -0.32324
vt 0.89258 -0.39062
vt 0.99023 -0.02734
vt 0.89453 -0.03125
vt 0.99023 -0.37695
vt 0.58594 -0.34180
vt 0.62500 -0.06055
vt 0.90625 -0.46289
vt 0.99023 -0.44531
vt 0.99023 -0.57617
vt 0.83984 -0.64648
vt 0.99023 -0.68555
vt 0.72461 -0.49805
vt 0.71484 -0.62500
vt 0.78711 -0.70703
vt 0.52148 -0.49023
vt 0.50781 -0.37500
vt 0.13867 -0.24609
vt 0.04688 -0.45508
vt 0.02539 -0.23828
vt 0.17578 -0.41016
vt 0.32422 -0.03516
vt 0.44531 -0.34375
vt 0.42969 -0.30469
vt 0.42188 -0.33203
vt 0.46094 -0.33594
vt 0.46094 -0.26562
vt 0.45898 -0.23242
vt 0.41211 -0.23438
vt 0.42383 -0.26758
vt 0.35352 -0.22266
vt 0.33008 -0.25000
vt 0.30273 -0.20898
vt 0.05273 -0.08984
vt -0.00586 -0.09375
vt 0.12109 -0.03516
vt 0.42773 -0.27344
vt 0.33008 -0.31836
vt 0.43359 -0.35156
vt 0.63281 -0.82227
vt 0.78906 -0.95312
vt 0.58203 -0.72852
vt 0.36719 -0.41406
vt 0.30859 -0.33594
vt 0.26562 -0.38672
vt 0.44336 -0.32422
vt 0.19336 -0.07617
vt 0.41797 -0.28711
vt 0.40820 -0.32617
vt 0.46680 -0.34961
vt 0.45508 -0.38477
vt 0.40625 -0.32617
vt 0.41211 -0.38281
vt 0.62695 -0.06055
vt 0.50977 -0.37500
vt 0.58594 -0.33984
vt 0.83984 -0.81445
vt 0.78516 -0.92383
vt 0.83398 -0.97656
vt 0.74805 -0.71680
vt 0.70703 -0.67969
vt 0.78125 -0.67383
vt 0.78516 -0.50000
vt 0.30469 -0.24414
vt 0.29102 -0.18359
vt 0.40820 -0.15820
vt 0.13281 -0.22461
vt 0.13477 -0.41406
vt 0.02539 -0.45117
vt 0.09375 -0.47461
vt 0.01367 -0.49023
vt 0.31445 -0.32227
vt 0.45312 -0.21875
vt 0.32422 -0.42383
vt 0.07812 -0.54492
vt 0.38477 -0.30078
vt 0.49023 -0.31055
vt 0.39258 -0.37891
vt 0.45312 -0.39258
vt 0.14062 -0.76172
vt 0.26172 -0.58203
vt 0.02148 -0.59375
vt 0.01172 -0.62695
vt 0.73242 -0.17773
vt 0.56055 -0.51367
vt 0.98047 -0.20898
vt 0.97461 -0.51367
vt 0.64453 -0.38086
vt 0.49023 -0.43359
vt 0.52539 -0.81250
vt 0.52539 -0.75977
vt 0.67188 -0.76953
vt 0.34375 -0.87305
vt 0.70898 -0.87305
vt 0.96875 -0.68750
vt 0.97070 -0.76953
vt 0.80664 -0.08398
vt 0.75586 -0.00586
vt 0.71094 -0.03906
vt 0.79883 -0.04492
vt 0.81836 -0.00781
vt 0.53125 -0.58398
vt 0.59570 -0.70312
vt 0.53711 -0.31055
vt 0.53711 -0.23633
vt 0.45703 -0.27344
vt 0.59766 -0.31445
vt 0.97070 -0.98438
vt 0.83984 -0.98047
vt 0.14062 -0.98828
vt 0.08008 -0.90039
vt 0.19531 -0.87305
vt 0.37891 -0.01172
vt 0.43555 -0.04883
vt 0.37891 -0.04883
vt 0.43555 -0.01172
vt 0.26953 -0.11914
vt 0.15625 -0.02930
vt 0.26953 -0.01758
vt 0.20312 -0.11914
vt 0.29492 -0.12305
vt 0.04688 -0.12109
vt 0.11914 -0.11914
vt 0.04688 -0.02734
vt 0.52734 -0.23438
vt 0.61719 -0.14844
vt 0.60156 -0.16406
vt 0.54492 -0.19336
vt 0.32422 -0.50391
vt 0.43945 -0.50000
vt 0.83789 -0.06055
vt 0.96875 -0.05078
vt 0.49219 -0.02930
vt 0.54883 -0.01562
vt 0.60742 -0.13672
vt 0.10938 -0.22852
vt 0.02734 -0.43750
vt 0.00781 -0.24023
vt 0.66602 -0.50586
vt 0.99707 -0.66797
vt 0.99707 -0.50586
vt 0.66602 -0.66797
vt 0.34766 -0.50586
vt 0.34766 -0.66797
vt 0.66602 -0.67090
vt 0.99707 -0.83301
vt 0.99707 -0.67090
vt 0.66602 -0.83301
vt 0.34766 -0.67090
vt 0.34766 -0.83301
vt 0.66602 -0.17285
vt 0.99707 -0.33496
vt 0.99707 -0.17285
vt 0.66602 -0.33496
vt 0.34766 -0.17285
vt 0.34766 -0.33496
vt 0.66602 -0.33594
vt 0.99707 -0.49805
vt 0.99707 -0.33594
vt 0.66602 -0.49805
vt 0.34766 -0.33594
vt 0.34766 -0.49805
vt 0.66602 -0.83789
vt 0.99707 -1.00000
vt 0.99707 -0.83789
vt 0.66602 -1.00000
vt 0.34766 -0.83789
vt 0.34766 -1.00000
vt 0.66602 -0.00391
vt 0.99707 -0.16602
vt 0.99707 -0.00391
vt 0.66602 -0.16602
vt 0.34766 -0.00391
vt 0.34766 -0.16602
vt 0.00586 -0.58105
vt 0.00586 -0.74609
vt 0.00586 -0.24707
vt 0.00586 -0.41016
vt 0.00586 -0.91211
vt 0.00586 -0.07910
vt 1.82031 0.32422
vt 1.98633 -0.33789
vt 1.98633 0.32422
vt 1.82031 -0.33789
vt 1.65527 0.32422
vt 1.65527 -0.33789
vt 1.48926 0.32422
vt 1.48926 -0.33789
vt 1.32422 0.32422
vt 1.32422 -0.33789
vt 1.15820 0.32422
vt 1.15820 -0.33789
vt 0.99316 0.32422
vt 0.99316 -0.33789
vt 0.82715 0.32422
vt 0.82715 -0.33789
vt 0.66211 0.32422
vt 0.66211 -0.33789
vt 0.49609 0.32422
vt 0.49609 -0.33789
vt 0.33105 0.32422
vt 0.33105 -0.33789
vt 0.16504 0.32422
vt 0.16504 -0.33789
vt 0.00000 0.32422
vt 0.00000 -0.33789
vt 1.90332 -1.00000
vt 1.98633 -1.00000
vt 1.82031 -1.00000
vt 1.73828 -1.00000
vt 1.65527 -1.00000
vt 1.57227 -1.00000
vt 1.48926 -1.00000
vt 1.40723 -1.00000
vt 1.32422 -1.00000
vt 1.24121 -1.00000
vt 1.15820 -1.00000
vt 1.07617 -1.00000
vt 0.99316 -1.00000
vt 0.91016 -1.00000
vt 0.74512 -1.00000
vt 0.66211 -1.00000
vt 0.82715 -1.00000
vt 0.57910 -1.00000
vt 0.41406 -1.00000
vt 0.33105 -1.00000
vt 0.49609 -1.00000
vt 0.24805 -1.00000
vt 0.08301 -1.00000
vt 0.00000 -1.00000
vt 0.16504 -1.00000
vt 1.91016 0.98633
vt 1.74414 0.98633
vt 1.57910 0.98633
vt 1.41309 0.98633
vt 1.24805 0.98633
vt 1.08203 0.98633
vt 0.91699 0.98633
vt 0.75098 0.98633
vt 0.58594 0.98633
vt 0.41992 0.98633
vt 0.25488 0.98633
vt 0.08887 0.98633
vt 0.01562 -0.98633
vt 0.33887 -0.81250
vt 0.01562 -0.01172
vt 0.29199 -0.98633
vt 0.98633 -0.29102
vt 0.81348 -0.33789
vt 0.98633 -0.01172
vt 0.98633 -0.29199
vt 0.63965 -0.38477
vt 0.51270 -0.51172
vt 0.38477 -0.63867
vt 0.44336 -0.43848
vt 0.44336 -0.54590
vt 0.62109 -0.43945
vt 0.73242 -0.35254
vt 0.83398 -0.31641
vt 0.72559 -0.31738
vt 0.82324 -0.35254
vt 0.74219 -0.43945
vt 0.76367 -0.50977
vt 0.69238 -0.43555
vt 0.74609 -0.54590
vt 0.62012 -0.54590
vt 0.75195 -0.60840
vt 0.62012 -0.60840
vt 0.75195 -0.78223
vt 0.63086 -0.78223
vt 0.63379 -0.99219
vt 0.44336 -0.78223
vt 0.44336 -0.99219
vt 0.66211 -0.35156
vt 0.66211 -0.38379
vt 0.73535 -0.38379
vt 0.63281 -0.38379
vt 0.63281 -0.35156
vt 0.44922 -0.33203
vt 0.64844 -0.31445
vt 0.44922 -0.28516
vt 0.63965 -0.23828
vt 0.44922 -0.23340
vt 0.44922 -0.19141
vt 0.73535 -0.25781
vt 0.73535 -0.19141
vt 0.66211 -0.19141
vt 0.89062 -0.21289
vt 0.88965 -0.23633
vt 0.93945 -0.85645
vt 0.95996 -0.82520
vt 0.95996 -0.87207
vt 0.93945 -0.82520
vt 0.93945 -0.89160
vt 0.95996 -0.89160
vt 0.95996 -0.76270
vt 0.93945 -0.79102
vt 0.93945 -0.76270
vt 0.95996 -0.80957
vt 0.84863 -0.70117
vt 0.87695 -0.70117
vt 0.86426 -0.68555
vt 0.87695 -0.73047
vt 0.76562 -0.84277
vt 0.87598 -0.85254
vt 0.87695 -0.84277
vt 0.81738 -0.85938
vt 0.88574 -0.87598
vt 0.89258 -0.91113
vt 0.83594 -0.94531
vt 0.88867 -0.94531
vt 0.85547 -0.97754
vt 0.88574 -0.97266
vt 0.81055 -0.68945
vt 0.92285 -0.62109
vt 0.80078 -0.62598
vt 0.93848 -0.64160
vt 0.92285 -0.68555
vt 0.99023 -0.70020
vt 0.88477 -0.73145
vt 0.99023 -0.72363
vt 0.88086 -0.70215
vt 0.87402 -0.96777
vt 0.98926 -0.98633
vt 0.97266 -0.97168
vt 0.87988 -0.98535
vt 0.88184 -0.98340
vt 0.87598 -0.96484
vt 0.97266 -0.94531
vt 0.98926 -0.97168
vt 0.98926 -0.94531
vt 0.87598 -0.96973
vt 0.87695 -0.72656
vt 0.87891 -0.69629
vt 0.90430 -0.94531
vt 0.88965 -0.97559
vt 0.88184 -0.93945
vt 0.87500 -0.72754
vt 0.87012 -0.69824
vt 0.87891 -0.96387
vt 0.86719 -0.97949
vt 0.88477 -0.97168
vt 0.88086 -0.94531
vt 0.87402 -0.98340
vt 0.90430 -0.97168
vt 0.87598 -0.98145
vt 0.88965 -0.96875
vt 0.88477 -0.96582
vt 0.86621 -0.97949
vt 0.89160 -0.94727
vt 0.92578 -0.94531
vt 0.76562 -0.73535
vt 0.87695 -0.76660
vt 0.87695 -0.80273
vt 0.76562 -0.82617
vt 0.87695 -0.83301
vt 0.80078 -0.95410
vt 0.76562 -0.93945
vt 0.88184 -0.72852
vt 0.87988 -0.69922
vt 0.87695 -0.98047
vt 0.87988 -0.96387
vt 0.88281 -0.96875
vt 0.88184 -0.97754
vt 0.63281 -0.19141
vt 0.65430 -0.23828
vt 0.84277 -0.28613
vt 0.44336 -0.60840
vt 0.95898 -0.42285
vt 0.95898 -0.37012
vt 0.91602 -0.37012
vt 0.91602 -0.42285
vt 0.87988 -0.37012
vt 0.87988 -0.42285
vt 0.86133 -0.41406
vt 0.53027 -0.03320
vt 0.57910 -0.15625
vt 0.53418 -0.15625
vt 0.62012 -0.03418
vt 0.28711 -0.24121
vt 0.16699 -0.25586
vt 0.16699 -0.23730
vt 0.16699 -0.50000
vt 0.22949 -0.50000
vt 0.22949 -0.53223
vt 0.31543 -0.53711
vt 0.22949 -0.73145
vt 0.33496 -0.73926
vt 0.28320 -0.81445
vt 0.76660 -0.15625
vt 0.90430 -0.08203
vt 0.80176 -0.01172
vt 0.89648 -0.15723
vt 0.76660 -0.18066
vt 0.95605 -0.08691
vt 0.99707 -0.15723
vt 0.65527 -0.18066
vt 0.65527 -0.15625
vt 0.88965 -0.04785
vt 0.95020 -0.00684
vt 0.88965 -0.01562
vt 0.95312 -0.05371
vt 0.99707 -0.08691
vt 0.83496 -0.04492
vt 0.73145 -0.08691
vt 0.66016 -0.13379
vt 0.90137 -0.18066
vt 0.99707 -0.16211
vt 0.89746 -0.16211
vt 0.99707 -0.18066
vt 0.88574 -0.01660
vt 0.87695 -0.04395
vt 0.88574 -0.04688
vt 0.87695 -0.01855
vt 0.08008 -0.73145
vt 0.14648 -0.73145
vt 0.14355 -0.81445
vt 0.14746 -0.53223
vt 0.08008 -0.53223
vt 0.08008 -0.50000
vt 0.08008 -0.28223
vt 0.14746 -0.25586
vt 0.14746 -0.50000
vt 0.08301 -0.25879
vt 0.08008 -0.27051
vt 0.01367 -0.26758
vt 0.01367 -0.29102
vt 0.02246 -0.35059
vt 0.09473 -0.34180
vt 0.02344 -0.41406
vt 0.39551 -0.73535
vt 0.44824 -0.51953
vt 0.44238 -0.72461
vt 0.39844 -0.52344
vt 0.31543 -0.49707
vt 0.16699 -0.53223
vt 0.16699 -0.73145
vt 0.16699 -0.81445
vt 0.22949 -0.81445
vt 0.23438 -0.22363
vt 0.31934 -0.22559
vt 0.33691 -0.27539
vt 0.32031 -0.16797
vt 0.20703 -0.10352
vt 0.45117 -0.49609
vt 0.39551 -0.53711
vt 0.39551 -0.49707
vt 0.44922 -0.52148
vt 0.42480 -0.26758
vt 0.39551 -0.27441
vt 0.33398 -0.22266
vt 0.42480 -0.29102
vt 0.22461 -0.99512
vt 0.00195 -0.87500
vt 0.19727 -0.87500
vt 0.00293 -0.99512
vt 0.13281 -0.85840
vt 0.28418 -0.83105
vt 0.34668 -0.85840
vt 0.13281 -0.83105
vt 0.04102 -0.85840
vt 0.34375 -0.83105
vt 0.28418 -0.85840
vt 0.42090 -0.17383
vt 0.33594 -0.16602
vt 0.42090 -0.22461
vt 0.42090 -0.26074
vt 0.24023 -0.73340
vt 0.15137 -0.79785
vt 0.25391 -0.79785
vt 0.04980 -0.73242
vt 0.23730 -0.55371
vt 0.05859 -0.55664
vt 0.23828 -0.50488
vt 0.06348 -0.50684
vt 0.14648 -0.24219
vt 0.01074 -0.80566
vt 0.00879 -0.72949
vt 0.08008 -0.81445
vt 0.14746 -0.23730
vt 0.08984 -0.10352
vt 0.20312 -0.10547
vt 0.08984 -0.23340
vt 0.08594 -0.25293
vt 0.87891 -0.94238
vt 0.87305 -0.97656
vt 0.88477 -0.94141
vt 0.84668 -0.19141
vt 0.44922 -0.38379
vt 0.75195 -0.99219
vt 0.99316 -0.02930
vt 0.39551 -0.40625
vt 0.06543 -0.79590
vt 0.91602 -0.91406
vt 0.90723 -0.92383
vt 0.91602 -0.92383
vt 0.87695 -0.98633
vt 0.86621 -0.97461
vt 0.87402 -0.04492
vt 0.87402 -0.01660
vt 0.83496 -0.03320
vt 0.15137 -0.00488
vt 0.13672 -0.05664
vt 0.06152 -0.00488
vt 0.20410 -0.00488
vt 0.47559 -0.10840
vt 0.33887 -0.05664
vt 0.47559 -0.05664
vt 0.32422 -0.14941
vt 0.47559 -0.45215
vt 0.39648 -0.44922
vt 0.38672 -0.58789
vt 0.29199 -0.51758
vt 0.29199 -0.58887
vt 0.16895 -0.25293
vt 0.13965 -0.22559
vt 0.20508 -0.11133
vt 0.14941 -0.28125
vt 0.18359 -0.29004
vt 0.23828 -0.10840
vt 0.27246 -0.00488
vt 0.23828 -0.04980
vt 0.08594 -0.30469
vt 0.08594 -0.37207
vt 0.00684 -0.30469
vt 0.11523 -0.37207
vt 0.12500 -0.37207
vt 0.14648 -0.41309
vt 0.00684 -0.55078
vt 0.13965 -0.57617
vt 0.08301 -0.47363
vt 0.07520 -0.61914
vt 0.54492 -0.81348
vt 0.61621 -0.80371
vt 0.54102 -0.80371
vt 0.70801 -0.79688
vt 0.54590 -0.90820
vt 0.74512 -0.85938
vt 0.68164 -0.99707
vt 0.98438 -0.84570
vt 0.97168 -0.99707
vt 0.39941 -0.99707
vt 0.41016 -0.90527
vt 0.39941 -0.90332
vt 0.41016 -0.99707
vt 0.72266 -0.77734
vt 0.79688 -0.69531
vt 0.98828 -0.82324
vt 0.39941 -0.80371
vt 0.41016 -0.81348
vt 0.41309 -0.00488
vt 0.47852 -0.05469
vt 0.32227 -0.00488
vt 0.00781 -0.11230
vt 0.09668 -0.15625
vt 0.02148 -0.18945
vt 0.03027 -0.05664
vt 0.61621 -0.05664
vt 0.47949 -0.10840
vt 0.47949 -0.05664
vt 0.63086 -0.14941
vt 0.71680 -0.10840
vt 0.77246 -0.29004
vt 0.78711 -0.25293
vt 0.80566 -0.28125
vt 0.72559 -0.35449
vt 0.55859 -0.44922
vt 0.56836 -0.58789
vt 0.47949 -0.45215
vt 0.47949 -0.58691
vt 0.68262 -0.00488
vt 0.63281 -0.00488
vt 0.54199 -0.00488
vt 0.75000 -0.11133
vt 0.71680 -0.04980
vt 0.47949 -0.72363
vt 0.57129 -0.72363
vt 0.66309 -0.49414
vt 0.66309 -0.72363
vt 0.00684 -0.45117
vt 0.12500 -0.30469
vt 0.10938 -0.37207
vt 0.54688 -0.99707
vt 0.72363 -0.76855
vt 0.70020 -0.77637
vt 0.79199 -0.71777
vt 0.76074 -0.70020
vt 0.47559 -0.58691
vt 0.47559 -0.72363
vt 0.38379 -0.72363
vt 0.29199 -0.72363
vt 0.11328 -0.71973
vt 0.09570 -0.85059
vt 0.01172 -0.79883
vt 0.24902 -0.85156
vt 0.30762 -0.79785
vt 0.35449 -0.84668
vt 0.35449 -0.84570
vt 0.30566 -0.88477
vt 0.34277 -0.96582
vt 0.22168 -0.96582
vt 0.34277 -0.99219
vt 0.22168 -0.99219
vt 0.16309 -0.96582
vt 0.15723 -0.97754
vt 0.15332 -0.99219
vt 0.11426 -0.72070
vt 0.09473 -0.84863
vt 0.25000 -0.85254
vt 0.01367 -0.79883
vt 0.34863 -0.97168
vt 0.16699 -0.97266
vt 0.11523 -0.97168
vt 0.00586 -0.89844
vt 0.11816 -0.97070
vt 0.00781 -0.90332
vt 0.30469 -0.88477
vt 0.35254 -0.84570
vt 0.30957 -0.79883
vt 0.15625 -0.51660
vt 0.12012 -0.47363
vt 0.16797 -0.62012
vt 0.13867 -0.57617
vt 0.15723 -0.51758
vt 0.47656 -0.05469
vt 0.15332 -0.97949
# 674 texture vertices

usemtl mat1.png
f 1/3 2/2 3/1
f 2/2 4/4 3/1
f 3/1 4/4 5/5
f 3/1 5/5 6/6
usemtl mat3.png
f 9/9 8/8 7/7
f 8/8 10/10 7/7
f 7/7 10/10 11/11
f 10/10 12/12 11/11
f 11/11 12/12 13/13
f 12/12 14/11 13/13
f 17/9 16/7 15/8
f 16/7 18/10 15/8
f 12/12 18/10 14/11
f 18/10 16/7 14/11
f 21/16 20/15 19/14
f 20/15 22/17 19/14
f 20/15 23/18 22/17
f 23/18 24/19 22/17
f 22/17 24/19 25/20
f 24/19 26/17 25/20
f 20/23 27/22 23/21
f 27/22 28/24 23/21
f 27/22 29/25 28/24
f 29/25 30/26 28/24
f 32/29 31/28 21/27
f 31/28 33/30 21/27
f 21/27 33/30 20/31
f 35/34 31/33 34/32
f 31/33 32/35 34/32
f 34/32 32/35 36/36
f 32/35 21/16 36/36
f 36/36 21/16 37/37
f 21/16 19/14 37/37
f 39/39 35/34 38/38
f 35/34 34/32 38/38
f 42/42 41/41 40/40
f 41/41 43/42 40/40
f 42/45 40/44 44/43
f 40/44 43/45 44/43
f 44/43 43/45 45/46
f 48/16 47/35 46/36
f 47/35 49/32 46/36
f 47/35 50/33 49/32
f 50/33 51/34 49/32
f 49/32 51/34 52/38
f 51/34 53/39 52/38
f 24/19 54/18 26/17
f 54/18 55/15 26/17
f 26/17 55/15 56/14
f 55/15 48/16 56/14
f 56/14 48/16 57/37
f 48/16 46/36 57/37
f 55/23 54/21 58/22
f 54/21 59/24 58/22
f 58/22 59/24 29/25
f 59/24 30/26 29/25
f 47/29 48/27 50/28
f 48/27 60/30 50/28
f 42/49 45/48 61/47
f 44/43 45/46 42/45
f 48/27 55/31 60/30
f 43/49 62/47 45/48
usemtl mat4.png
f 65/52 64/51 63/50
f 64/51 66/53 63/50
f 68/55 65/52 67/54
f 65/52 63/50 67/54
f 67/54 63/50 69/56
f 63/50 66/53 69/56
f 69/56 66/53 70/57
f 66/53 71/56 70/57
f 70/57 71/56 72/58
f 71/56 73/59 72/58
f 72/58 73/59 74/60
f 67/54 69/56 75/61
f 69/56 76/59 75/61
f 75/61 76/59 77/62
f 76/59 78/63 77/62
f 77/62 78/63 79/64
f 77/62 79/64 75/61
f 79/64 80/65 75/61
f 75/61 80/65 67/54
f 74/60 76/59 72/58
f 76/59 69/56 72/58
f 72/58 69/56 70/57
f 79/68 82/67 81/66
f 82/67 83/69 81/66
f 81/66 83/69 84/70
f 86/73 84/72 85/71
f 84/72 83/74 85/71
f 89/77 88/76 87/75
f 88/76 90/77 87/75
f 87/75 90/77 91/78
f 90/77 92/79 91/78
f 91/78 92/79 93/80
f 92/79 94/80 93/80
f 93/80 94/80 95/79
f 94/80 96/81 95/79
f 87/75 97/78 89/77
f 97/78 95/79 89/77
f 76/84 74/83 98/82
f 74/83 73/84 98/82
f 100/87 99/86 97/85
f 99/86 93/80 97/85
f 102/89 101/88 78/63
f 101/88 82/90 78/63
f 78/63 82/90 79/64
f 102/93 103/92 101/91
f 103/92 99/86 101/91
f 101/91 99/86 100/94
f 84/70 104/95 81/66
f 104/95 79/68 81/66
f 66/53 105/50 71/56
f 105/50 106/54 71/56
f 71/56 106/54 107/61
f 106/54 108/65 107/61
f 107/61 108/65 109/64
f 111/55 106/54 110/52
f 106/54 105/50 110/52
f 110/52 105/50 64/51
f 105/50 66/53 64/51
f 113/67 109/68 112/66
f 109/68 114/95 112/66
f 112/66 114/95 115/70
f 115/70 116/69 112/66
f 116/69 113/67 112/66
f 116/74 115/72 117/71
f 115/72 118/73 117/71
f 119/87 91/85 99/86
f 91/85 93/80 99/86
f 122/89 121/63 120/88
f 121/63 113/90 120/88
f 122/93 120/91 103/92
f 120/91 99/86 103/92
f 113/90 121/63 109/64
f 121/63 123/62 109/64
f 109/64 123/62 107/61
f 123/62 73/59 107/61
f 107/61 73/59 71/56
f 104/97 84/96 86/73
f 82/99 85/71 83/98
f 79/101 104/100 86/73
f 95/79 97/78 93/80
f 98/60 78/63 76/59
f 67/104 80/103 68/102
f 121/63 73/59 123/62
f 114/97 118/73 115/96
f 113/99 116/98 117/71
f 109/101 118/73 114/100
f 98/60 73/59 121/63
f 96/81 94/80 92/79
f 99/86 120/91 119/94
f 106/104 111/102 108/103
usemtl mat2.png
f 126/107 125/106 124/105
f 125/106 127/108 124/105
f 129/111 128/110 127/109
f 128/110 124/105 127/109
f 131/114 129/113 130/112
f 129/113 127/115 130/112
f 130/112 127/115 132/116
f 127/115 133/117 132/116
f 132/116 133/117 134/118
f 133/117 135/119 134/118
f 137/121 130/112 136/120
f 130/112 132/116 136/120
f 136/120 132/116 138/122
f 132/116 134/118 138/122
f 138/122 134/118 139/123
f 136/120 138/122 140/124
f 138/122 141/125 140/124
f 143/127 142/126 138/122
f 142/126 141/125 138/122
f 145/129 139/123 144/128
f 139/123 146/130 144/128
f 144/128 146/130 147/131
f 131/133 148/132 129/111
f 148/132 149/134 129/111
f 129/111 149/134 150/135
f 149/134 151/111 150/135
f 150/135 151/111 152/110
f 151/111 153/109 152/110
f 152/110 153/109 154/105
f 137/137 148/132 130/136
f 148/132 131/133 130/136
f 157/140 156/139 155/138
f 156/139 158/141 155/138
f 155/138 158/141 159/142
f 158/141 160/138 159/142
f 162/144 124/105 161/143
f 124/105 128/110 161/143
f 161/143 128/110 150/135
f 128/110 129/111 150/135
f 165/147 164/146 163/145
f 164/146 156/148 163/145
f 163/145 156/148 157/149
f 164/151 165/150 156/139
f 165/150 158/141 156/139
f 141/154 142/153 140/152
f 142/153 148/132 140/152
f 140/152 148/132 136/155
f 148/132 137/137 136/155
f 126/157 124/105 166/156
f 124/105 162/144 166/156
f 166/156 162/144 154/105
f 162/144 161/143 154/105
f 154/105 161/143 152/110
f 161/143 150/135 152/110
f 168/159 167/158 144/128
f 167/158 169/160 144/128
f 144/128 169/160 145/129
f 169/160 158/141 145/129
f 145/129 158/141 165/150
f 172/163 171/162 170/161
f 171/162 173/164 170/161
f 176/167 175/166 174/165
f 175/166 177/168 174/165
f 174/165 177/168 178/169
f 177/171 175/166 178/170
f 175/166 179/172 178/170
f 178/170 179/172 180/166
f 138/175 181/174 143/173
f 181/174 142/176 143/173
f 138/122 139/123 181/177
f 139/123 145/129 181/177
f 181/177 145/129 182/178
f 145/129 165/150 182/178
f 142/153 165/147 148/132
f 165/147 163/145 148/132
f 148/132 163/145 149/134
f 163/145 155/179 149/134
f 149/134 155/179 159/180
f 184/107 154/105 183/106
f 154/105 153/108 183/106
f 186/114 185/112 151/113
f 185/112 153/115 151/113
f 188/121 187/120 185/112
f 187/120 189/116 185/112
f 185/112 189/116 153/115
f 189/116 190/117 153/115
f 193/127 192/122 191/126
f 192/122 194/125 191/126
f 196/128 195/129 169/160
f 195/129 158/141 169/160
f 198/140 160/138 197/139
f 160/138 158/141 197/139
f 197/139 158/141 199/150
f 158/141 195/129 199/150
f 199/150 195/129 200/178
f 195/129 201/177 200/178
f 197/148 202/145 198/149
f 202/145 160/179 198/149
f 185/136 186/133 203/132
f 186/133 151/111 203/132
f 203/132 151/111 149/134
f 199/147 202/145 204/146
f 202/145 197/148 204/146
f 159/180 160/179 149/134
f 160/179 202/145 149/134
f 149/134 202/145 203/132
f 202/145 199/147 203/132
f 203/132 199/147 191/153
f 194/154 205/152 191/153
f 205/152 203/132 191/153
f 207/119 190/117 206/118
f 190/117 189/116 206/118
f 206/118 189/116 192/122
f 189/116 187/120 192/122
f 192/122 187/120 205/124
f 208/159 196/128 167/158
f 196/128 169/160 167/158
f 211/163 210/161 209/162
f 210/161 212/164 209/162
f 209/162 212/164 213/181
f 176/167 174/165 180/166
f 174/165 214/168 180/166
f 192/175 193/173 201/174
f 193/173 191/176 201/174
f 201/174 191/176 199/147
f 201/177 215/123 192/122
f 215/123 206/118 192/122
f 217/131 216/130 196/128
f 216/130 215/123 196/128
f 196/128 215/123 195/129
f 215/123 201/177 195/129
f 205/152 187/155 203/132
f 187/155 188/137 203/132
f 203/132 188/137 185/136
f 181/183 182/182 165/147
f 157/149 155/179 163/145
f 173/164 171/162 218/181
f 181/174 165/147 142/176
f 125/186 133/185 127/184
f 201/183 199/147 200/182
f 197/139 199/150 204/151
f 154/105 184/157 166/156
f 214/171 178/170 180/166
f 214/168 174/165 178/169
f 192/122 205/124 194/125
f 183/186 153/184 190/185
f 221/189 220/188 219/187
f 220/188 222/190 219/187
f 219/187 222/190 223/191
f 222/190 224/192 223/191
f 227/195 226/194 225/193
f 226/194 228/196 225/193
f 225/193 228/196 229/197
f 228/196 230/198 229/197
f 233/201 232/200 231/199
f 232/200 234/202 231/199
f 231/199 234/202 235/203
f 234/202 236/204 235/203
f 239/207 238/206 237/205
f 238/206 240/208 237/205
f 237/205 240/208 241/209
f 240/208 242/210 241/209
f 245/213 244/212 243/211
f 244/212 246/214 243/211
f 243/211 246/214 247/215
f 246/214 248/216 247/215
f 251/219 250/218 249/217
f 250/218 252/220 249/217
f 249/217 252/220 253/221
f 252/220 254/222 253/221
f 255/223 223/191 224/192
f 255/224 229/197 230/198
f 255/225 235/203 236/204
f 255/226 241/209 242/210
f 255/227 247/215 248/216
f 255/228 253/221 254/222
usemtl mat1.png
f 258/231 257/230 256/229
f 257/230 259/232 256/229
f 256/229 259/232 260/233
f 259/232 261/234 260/233
f 260/233 261/234 262/235
f 261/234 263/236 262/235
f 262/235 263/236 264/237
f 263/236 265/238 264/237
f 264/237 265/238 266/239
f 265/238 267/240 266/239
f 266/239 267/240 268/241
f 267/240 269/242 268/241
f 268/241 269/242 270/243
f 269/242 271/244 270/243
f 270/243 271/244 272/245
f 271/244 273/246 272/245
f 272/245 273/246 274/247
f 273/246 275/248 274/247
f 274/247 275/248 276/249
f 275/248 277/250 276/249
f 276/249 277/250 278/251
f 277/250 279/252 278/251
f 278/251 279/252 258/253
f 279/252 257/254 258/253
f 281/256 280/255 257/230
f 280/255 259/232 257/230
f 280/255 282/257 259/232
f 282/257 283/258 259/232
f 259/232 283/258 261/234
f 283/258 284/259 261/234
f 261/234 284/259 285/260
f 261/234 285/260 263/236
f 285/260 286/261 263/236
f 263/236 286/261 287/262
f 263/236 287/262 265/238
f 287/262 288/263 265/238
f 265/238 288/263 289/264
f 265/238 289/264 267/240
f 289/264 290/265 267/240
f 267/240 290/265 291/266
f 267/240 291/266 269/242
f 291/266 292/267 269/242
f 269/242 292/267 293/268
f 295/270 273/246 294/269
f 273/246 271/244 294/269
f 294/269 271/244 296/271
f 271/244 293/268 296/271
f 275/248 273/246 297/272
f 273/246 295/270 297/272
f 299/274 277/250 298/273
f 277/250 275/248 298/273
f 298/273 275/248 300/275
f 275/248 297/272 300/275
f 279/252 277/250 301/276
f 277/250 299/274 301/276
f 281/278 257/254 302/277
f 257/254 279/252 302/277
f 302/277 279/252 303/279
f 279/252 301/276 303/279
f 304/280 258/231 256/229
f 304/281 256/229 260/233
f 304/282 260/233 262/235
f 304/283 262/235 264/237
f 304/284 264/237 266/239
f 304/285 266/239 268/241
f 304/286 268/241 270/243
f 304/287 270/243 272/245
f 304/288 272/245 274/247
f 304/289 274/247 276/249
f 304/290 276/249 278/251
f 304/291 278/251 258/253
f 271/244 269/242 293/268
usemtl default
f 307/294 306/293 305/292
f 306/293 308/295 305/292
f 305/292 308/295 309/294
f 308/295 310/293 309/294
f 312/297 307/294 311/296
f 307/294 313/298 311/296
f 311/296 313/298 314/297
f 313/298 315/294 314/297
f 317/293 315/294 316/295
f 315/294 318/292 316/295
f 316/295 318/292 319/293
f 318/292 320/294 319/293
f 322/297 320/294 321/299
f 320/294 323/298 321/299
f 321/299 323/298 324/297
f 323/298 309/294 324/297
f 314/297 315/294 325/300
f 315/294 326/301 325/300
f 317/293 327/302 315/294
f 327/302 326/301 315/294
f 312/297 328/300 307/294
f 328/300 329/301 307/294
f 307/294 329/301 330/302
f 319/293 320/294 331/302
f 320/294 332/301 331/302
f 322/297 333/300 320/294
f 333/300 332/301 320/294
f 324/297 309/294 334/300
f 309/294 335/301 334/300
f 310/293 336/302 309/294
f 336/302 335/301 309/294
f 307/294 330/302 306/293
usemtl mat5.png
f 339/305 338/304 337/303
f 338/304 340/305 337/303
f 343/308 342/307 341/306
f 342/307 344/309 341/306
f 341/306 344/309 345/310
f 344/309 346/311 345/310
f 345/310 346/311 347/312
f 346/311 348/313 347/312
f 347/312 348/313 349/314
f 348/313 350/315 349/314
f 349/314 350/315 351/316
f 350/315 352/317 351/316
f 351/316 352/317 353/318
f 352/317 354/319 353/318
f 353/318 354/319 355/320
f 354/319 356/321 355/320
f 355/320 356/321 357/319
f 351/316 338/304 349/314
f 338/304 339/305 349/314
f 349/314 339/305 347/312
f 360/324 359/323 358/322
f 359/323 361/325 358/322
f 358/322 361/325 362/326
f 361/325 363/327 362/326
f 362/326 363/327 364/328
f 363/327 365/329 364/328
f 364/328 365/329 366/330
f 365/329 367/331 366/330
f 366/330 367/331 368/332
f 359/335 360/334 369/333
f 360/334 347/336 369/333
f 369/333 347/336 339/337
f 371/340 370/339 363/338
f 370/339 365/341 363/338
f 372/343 371/340 368/342
f 371/340 363/338 368/342
f 368/346 367/345 372/344
f 367/345 373/347 372/344
f 370/339 373/347 365/341
f 373/347 367/345 365/341
f 376/350 375/349 374/348
f 375/349 377/351 374/348
f 379/354 378/353 370/352
f 378/353 373/355 370/352
f 378/353 380/356 373/355
f 380/356 381/357 373/355
f 373/355 381/357 382/358
f 381/357 383/359 382/358
f 382/358 383/359 376/360
f 383/359 384/361 376/360
f 386/364 385/363 372/362
f 385/363 387/365 372/362
f 372/362 387/365 388/366
f 390/369 377/368 389/367
f 377/368 375/370 389/367
f 391/373 389/372 384/371
f 389/372 375/374 384/371
f 383/376 377/375 392/373
f 377/375 390/372 392/373
f 390/379 389/378 392/377
f 389/378 391/373 392/377
f 392/377 391/373 384/380
f 395/369 394/381 393/367
f 394/381 396/382 393/367
f 399/383 398/377 397/373
f 398/377 393/378 397/373
f 380/385 399/383 381/384
f 399/383 397/373 381/384
f 401/369 379/386 400/367
f 379/386 394/387 400/367
f 402/373 378/388 401/372
f 378/388 379/389 401/372
f 378/391 402/377 380/390
f 402/377 403/373 380/390
f 395/372 398/373 394/392
f 398/373 399/393 394/392
f 381/395 397/373 396/394
f 397/373 393/372 396/394
f 403/373 400/372 380/396
f 400/372 394/397 380/396
f 387/378 385/373 388/377
f 385/373 382/398 388/377
f 388/377 382/398 376/399
f 388/366 376/350 372/362
f 376/350 374/348 372/362
f 372/362 374/348 371/400
f 374/348 377/351 371/400
f 371/400 377/351 396/401
f 379/404 370/403 394/402
f 370/403 371/400 394/402
f 394/402 371/400 396/401
f 372/406 373/355 386/405
f 373/355 382/358 386/405
f 405/369 396/407 404/367
f 396/407 377/408 404/367
f 383/410 406/373 377/409
f 406/373 404/372 377/409
f 381/411 396/374 407/373
f 396/374 405/372 407/373
f 405/379 404/378 407/377
f 404/378 406/373 407/377
f 407/377 406/373 383/412
f 403/373 402/377 400/378
f 402/377 401/379 400/378
f 368/332 361/413 366/330
f 361/413 408/414 366/330
f 366/330 408/414 364/328
f 408/414 409/415 364/328
f 361/413 359/335 408/414
f 359/335 369/333 408/414
f 408/414 369/333 409/415
f 369/333 339/337 409/415
f 353/318 355/320 351/316
f 355/320 410/416 351/316
f 351/316 410/416 338/304
f 410/416 411/316 338/304
f 338/304 411/316 412/314
f 411/316 413/315 412/314
f 412/314 413/315 414/313
f 417/419 416/418 415/417
f 416/418 418/419 415/417
f 415/417 418/419 419/420
f 418/419 420/421 419/420
f 419/420 420/421 421/422
f 420/421 342/423 421/422
f 423/421 417/419 422/420
f 417/419 415/417 422/420
f 342/426 343/425 423/424
f 343/425 417/427 423/424
f 342/423 423/421 424/422
f 423/421 422/420 424/422
f 427/430 426/429 425/428
f 426/429 428/431 425/428
f 425/428 428/431 429/432
f 428/431 430/433 429/432
f 429/432 430/433 431/434
f 430/433 432/435 431/434
f 431/434 432/435 433/436
f 432/435 434/437 433/436
f 437/440 436/439 435/438
f 436/439 438/441 435/438
f 435/438 438/441 439/442
f 436/439 440/443 438/441
f 440/443 441/444 438/441
f 439/442 442/445 435/438
f 442/445 443/446 435/438
f 446/441 445/438 444/442
f 445/438 443/446 444/442
f 444/442 443/446 442/445
f 446/449 444/448 438/447
f 444/448 439/450 438/447
f 441/444 440/451 446/441
f 440/451 447/452 446/441
f 446/441 447/452 445/438
f 447/452 437/440 445/438
f 445/438 437/440 448/453
f 437/440 435/438 448/453
f 448/453 435/438 443/454
f 438/457 441/456 449/455
f 441/456 450/458 449/455
f 451/455 450/458 446/457
f 450/458 441/456 446/457
f 438/461 449/460 446/459
f 449/460 451/462 446/459
f 437/465 453/464 452/463
f 453/464 454/466 452/463
f 452/463 454/466 455/467
f 454/466 456/468 455/467
f 428/471 426/470 457/469
f 426/470 458/472 457/469
f 457/469 458/472 459/473
f 458/472 460/469 459/473
f 459/473 460/469 461/474
f 460/469 462/475 461/474
f 457/477 463/476 456/468
f 463/476 464/478 456/468
f 452/481 455/480 465/479
f 455/480 466/482 465/479
f 431/434 467/483 429/432
f 467/483 425/428 429/432
f 454/466 428/471 456/468
f 428/471 457/469 456/468
f 428/431 454/484 430/433
f 454/484 432/435 430/433
f 454/484 453/485 432/435
f 453/485 437/486 432/435
f 432/435 437/486 468/487
f 471/490 470/489 469/488
f 470/489 472/491 469/488
f 469/488 472/491 473/492
f 464/495 466/494 456/493
f 466/494 455/496 456/493
f 470/499 471/498 461/497
f 471/498 463/500 461/497
f 348/503 474/502 473/501
f 474/502 475/504 473/501
f 440/507 434/506 447/505
f 434/506 468/508 447/505
f 447/505 468/508 437/509
f 440/507 436/511 476/510
f 436/511 477/508 476/510
f 472/513 470/499 478/512
f 470/499 479/514 478/512
f 478/512 479/514 480/499
f 479/514 461/515 480/499
f 434/518 440/517 433/516
f 440/517 465/519 433/516
f 433/516 465/519 431/520
f 465/519 466/521 431/520
f 431/520 466/521 467/522
f 466/521 464/523 467/522
f 467/522 464/523 471/524
f 465/526 476/525 452/463
f 476/525 477/527 452/463
f 452/463 477/527 437/465
f 467/483 471/490 425/428
f 471/490 469/488 425/428
f 425/428 469/488 427/430
f 469/488 473/492 427/430
f 463/475 457/469 461/474
f 457/469 459/473 461/474
f 473/530 475/529 427/528
f 475/529 481/531 427/528
f 427/528 481/531 458/532
f 481/531 482/528 458/532
f 484/308 483/306 342/307
f 483/306 344/309 342/307
f 487/324 486/322 485/323
f 486/322 488/325 485/323
f 491/343 490/342 489/340
f 490/342 492/338 489/340
f 489/340 492/338 493/339
f 492/338 494/341 493/339
f 493/339 494/341 495/347
f 494/341 496/345 495/347
f 495/347 496/345 491/344
f 496/345 490/346 491/344
f 498/365 491/362 497/366
f 491/362 499/350 497/366
f 501/354 493/352 500/353
f 493/352 495/355 500/353
f 500/353 495/355 502/356
f 495/355 503/357 502/356
f 505/364 491/362 504/363
f 491/362 498/365 504/363
f 507/359 503/357 506/358
f 503/357 495/355 506/358
f 506/358 495/355 505/405
f 495/355 491/406 505/405
f 510/370 509/368 508/367
f 509/368 511/369 508/367
f 510/374 508/372 512/371
f 508/372 513/373 512/371
f 511/372 509/375 514/373
f 509/375 507/376 514/373
f 511/379 514/377 508/378
f 514/377 513/373 508/378
f 507/533 512/380 514/377
f 512/380 513/373 514/377
f 517/382 516/381 515/367
f 516/381 518/369 515/367
f 502/385 503/384 519/383
f 503/384 520/373 519/383
f 519/383 520/373 521/377
f 520/373 515/378 521/377
f 521/377 515/378 518/379
f 516/387 501/386 522/367
f 501/386 523/369 522/367
f 501/389 500/388 523/372
f 500/388 524/373 523/372
f 500/391 502/390 524/377
f 502/390 525/373 524/377
f 524/377 525/373 522/378
f 519/393 521/373 516/392
f 521/373 518/372 516/392
f 515/372 520/373 517/394
f 520/373 503/395 517/394
f 516/397 522/372 502/396
f 522/372 525/373 502/396
f 512/361 507/359 499/360
f 507/359 506/358 499/360
f 498/378 497/377 504/373
f 497/377 506/398 504/373
f 504/373 506/398 505/534
f 501/404 516/402 493/403
f 516/402 489/400 493/403
f 499/350 491/362 526/348
f 491/362 489/400 526/348
f 509/408 517/407 527/367
f 517/407 528/369 527/367
f 527/372 529/373 509/409
f 529/373 507/410 509/409
f 528/372 517/374 530/373
f 517/374 503/411 530/373
f 528/379 530/377 527/378
f 530/377 529/373 527/378
f 503/535 507/412 530/377
f 507/412 529/373 530/377
f 492/327 531/328 494/329
f 531/328 532/330 494/329
f 494/329 532/330 496/331
f 532/330 490/332 496/331
f 490/332 532/330 488/413
f 532/330 533/414 488/413
f 488/413 533/414 485/335
f 533/414 534/333 485/335
f 485/335 534/333 487/334
f 534/333 535/536 487/334
f 532/330 531/328 533/414
f 531/328 536/415 533/414
f 533/414 536/415 534/333
f 536/415 340/337 534/333
f 534/333 340/337 535/536
f 490/537 488/325 492/327
f 488/325 537/326 492/327
f 492/327 537/326 531/328
f 537/326 486/322 531/328
f 539/538 538/317 357/319
f 538/317 540/318 357/319
f 357/319 540/318 355/320
f 540/318 411/316 355/320
f 355/320 411/316 410/416
f 413/315 411/316 538/317
f 411/316 540/318 538/317
f 342/426 420/424 484/425
f 420/424 418/427 484/425
f 542/429 482/430 541/428
f 482/430 543/488 541/428
f 541/428 543/488 544/490
f 543/488 480/489 544/490
f 481/531 475/529 482/528
f 475/529 545/530 482/528
f 548/438 547/446 546/445
f 547/446 549/442 546/445
f 551/449 550/447 549/448
f 550/447 552/450 549/448
f 549/448 552/450 546/539
f 554/444 551/441 553/451
f 551/441 555/452 553/451
f 551/441 556/438 555/452
f 556/438 557/440 555/452
f 550/441 548/438 552/442
f 548/438 546/445 552/442
f 550/457 558/455 554/456
f 558/455 559/458 554/456
f 554/456 559/458 551/457
f 559/458 560/455 551/457
f 560/462 558/460 551/459
f 558/460 550/461 551/459
f 562/527 561/463 557/465
f 561/463 563/464 557/465
f 565/478 462/476 564/468
f 462/476 460/477 564/468
f 568/482 567/480 566/479
f 567/480 561/481 566/479
f 563/464 561/463 569/466
f 561/463 567/467 569/466
f 569/466 567/467 564/468
f 572/434 571/432 570/483
f 571/432 541/428 570/483
f 570/483 541/428 544/490
f 542/429 541/428 573/431
f 541/428 571/432 573/431
f 573/431 571/432 574/433
f 571/432 572/434 574/433
f 574/433 572/434 575/435
f 572/434 576/436 575/435
f 575/435 576/436 577/437
f 569/466 564/468 573/471
f 564/468 460/469 573/471
f 573/471 460/469 542/470
f 460/469 458/472 542/470
f 542/470 458/472 482/528
f 557/486 575/435 578/487
f 575/435 577/437 578/487
f 573/431 574/433 569/484
f 574/433 575/435 569/484
f 569/484 575/435 563/485
f 575/435 557/486 563/485
f 480/489 543/488 579/491
f 543/488 545/492 579/491
f 567/496 568/494 564/493
f 568/494 565/495 564/493
f 480/499 461/497 544/498
f 461/497 462/500 544/498
f 544/498 462/500 565/540
f 547/446 556/438 549/442
f 556/438 551/441 549/442
f 414/503 545/501 474/502
f 545/501 475/504 474/502
f 553/507 555/505 577/506
f 555/505 578/508 577/506
f 553/507 581/510 580/511
f 581/510 562/508 580/511
f 580/511 562/508 557/509
f 516/402 517/401 489/400
f 517/401 509/351 489/400
f 489/400 509/351 526/348
f 509/351 510/349 526/348
f 526/348 510/349 499/350
f 576/516 572/520 566/519
f 572/520 568/521 566/519
f 577/518 576/516 553/517
f 576/516 566/519 553/517
f 553/517 566/519 581/541
f 566/526 561/463 581/525
f 561/463 562/527 581/525
f 572/520 570/522 568/521
f 570/522 565/523 568/521
f 412/314 414/313 535/312
f 414/313 582/311 535/312
f 535/312 582/311 583/310
f 582/311 344/309 583/310
f 583/310 344/309 483/306
f 338/304 412/314 340/305
f 412/314 535/312 340/305
f 554/444 553/443 550/441
f 553/443 580/439 550/441
f 550/441 580/439 548/438
f 580/439 557/440 548/438
f 548/438 557/440 584/453
f 557/440 556/438 584/453
f 584/453 556/438 547/454
f 384/380 383/533 392/377
f 380/544 394/543 399/542
f 386/534 382/398 385/373
f 383/412 381/535 407/377
f 398/377 395/379 393/378
f 358/322 362/326 364/328
f 361/325 368/537 363/327
f 352/317 585/538 354/319
f 376/546 384/361 375/545
f 445/438 448/453 443/454
f 444/448 442/539 439/450
f 450/549 451/548 449/547
f 461/515 479/514 470/499
f 437/509 477/508 436/511
f 464/540 463/500 471/498
f 440/517 476/541 465/519
f 426/470 427/528 458/472
f 432/435 468/487 434/437
f 502/544 519/542 516/543
f 522/378 523/379 524/377
f 486/322 537/326 488/325
f 499/546 510/545 512/361
f 559/549 558/547 560/548
f 548/438 584/453 547/454
f 578/508 555/505 557/509
f 506/398 497/377 499/399
f 480/499 579/513 478/512
f 570/522 544/524 565/523
f 482/430 545/492 543/488
usemtl mat6.png
f 588/552 587/551 586/550
f 587/551 589/553 586/550
f 592/556 591/555 590/554
f 591/555 593/557 590/554
f 590/554 593/557 594/558
f 593/557 595/559 594/558
f 594/558 595/559 596/560
f 595/559 597/561 596/560
f 596/560 597/561 598/562
f 601/565 600/564 599/563
f 600/564 602/566 599/563
f 595/559 593/557 597/561
f 593/557 603/567 597/561
f 589/569 604/568 591/555
f 604/568 593/557 591/555
f 589/570 601/565 604/568
f 601/565 599/563 604/568
f 604/568 599/563 603/567
f 599/563 602/566 603/567
f 592/573 605/572 588/571
f 605/572 606/574 588/571
f 588/571 606/574 607/575
f 606/574 608/576 607/575
f 610/579 605/578 609/577
f 605/578 611/580 609/577
f 609/577 611/580 612/578
f 598/583 597/582 613/581
f 597/582 614/584 613/581
f 613/581 614/584 615/585
f 614/584 616/586 615/585
f 615/585 616/586 617/587
f 616/586 618/588 617/587
f 617/587 618/588 619/589
f 622/592 621/591 620/590
f 621/591 623/593 620/590
f 620/590 623/593 624/591
f 623/593 625/585 624/591
f 624/591 625/585 626/581
f 625/585 627/594 626/581
f 597/582 603/595 614/584
f 603/595 628/596 614/584
f 614/584 628/596 618/588
f 630/598 621/591 629/597
f 621/591 622/592 629/597
f 592/600 588/599 591/555
f 588/599 586/601 591/555
f 591/555 586/601 589/569
f 633/604 632/603 631/602
f 632/603 587/551 631/602
f 631/602 587/551 634/605
f 587/551 588/552 634/605
f 589/553 587/551 601/565
f 587/551 632/603 601/565
f 601/565 632/603 600/564
f 637/552 636/551 635/605
f 636/551 638/602 635/605
f 592/608 590/607 639/606
f 590/607 640/609 639/606
f 639/606 640/609 641/610
f 640/609 642/611 641/610
f 641/610 642/611 643/612
f 642/611 644/613 643/612
f 642/611 640/609 645/614
f 640/609 646/615 645/614
f 645/614 646/615 647/616
f 646/615 594/617 647/616
f 647/616 594/617 648/618
f 650/553 636/551 649/550
f 636/551 637/552 649/550
f 641/610 650/619 639/606
f 650/619 649/620 639/606
f 639/606 649/620 637/621
f 650/623 641/610 651/622
f 641/610 643/612 651/622
f 648/618 620/624 647/616
f 620/624 652/625 647/616
f 647/616 652/625 653/626
f 652/625 654/627 653/626
f 637/571 612/572 592/573
f 612/572 611/628 592/573
f 592/573 611/628 605/572
f 635/629 655/575 637/571
f 655/575 656/630 637/571
f 637/571 656/630 612/572
f 656/630 657/576 612/572
f 659/596 627/594 658/588
f 627/594 660/586 658/588
f 658/588 660/586 617/587
f 660/586 625/585 617/587
f 617/587 625/585 661/631
f 625/585 623/593 661/631
f 661/631 623/593 615/585
f 623/593 621/591 615/585
f 615/585 621/591 613/581
f 621/591 630/598 613/581
f 613/581 630/598 598/583
f 630/598 629/597 598/583
f 653/633 626/581 645/632
f 626/581 627/594 645/632
f 653/583 654/597 662/598
f 654/597 624/591 662/598
f 662/598 624/591 626/581
f 620/590 624/591 652/592
f 624/591 654/597 652/592
f 645/635 627/594 642/634
f 627/594 659/596 642/634
f 664/604 638/602 663/603
f 638/602 636/551 663/603
f 663/603 636/551 651/565
f 636/551 650/553 651/565
f 644/566 665/564 643/563
f 665/564 651/565 643/563
f 646/615 640/609 594/617
f 640/609 590/607 594/617
f 594/558 596/560 648/636
f 596/560 620/637 648/636
f 620/637 596/560 622/638
f 596/560 598/562 622/638
f 622/638 598/562 629/639
f 668/642 667/641 666/640
f 667/641 669/643 666/640
f 666/640 669/643 670/644
f 669/643 671/645 670/644
f 670/644 671/645 672/646
f 671/645 673/647 672/646
f 676/648 675/649 674/648
f 675/649 677/650 674/648
f 679/649 677/650 678/651
f 677/650 675/649 678/651
f 678/651 675/649 672/652
f 670/653 679/649 680/652
f 679/649 678/651 680/652
f 680/652 678/651 673/654
f 682/657 681/656 666/655
f 681/656 668/658 666/655
f 674/659 677/650 676/648
f 677/650 679/649 676/648
f 676/648 679/649 675/649
f 679/649 670/660 675/649
f 675/649 670/660 672/652
f 669/643 667/641 683/661
f 667/641 684/662 683/661
f 684/664 681/656 683/663
f 681/656 682/657 683/663
f 683/663 682/657 673/665
f 682/657 680/666 673/665
f 671/645 669/643 673/647
f 669/643 683/661 673/647
f 680/666 682/657 670/667
f 682/657 666/655 670/667
f 606/574 605/572 608/576
f 634/669 607/668 610/579
f 605/672 607/671 608/670
f 605/672 610/579 607/671
f 618/588 616/586 614/584
f 593/557 604/568 603/567
f 635/669 685/579 655/668
f 612/578 685/579 609/577
f 617/587 619/589 658/588
f 662/598 626/581 653/583
f 639/606 637/621 592/673
f 625/585 660/586 627/594
f 651/565 665/564 663/603
f 612/672 657/670 655/671
f 612/672 655/671 685/579
f 645/614 647/616 653/626
f 617/587 661/631 615/585
f 678/651 672/652 673/674
f 668/642 684/662 667/641
f 684/664 668/658 681/656
f 607/575 634/629 588/571
f 656/630 655/575 657/576
# 1056 elements

