# Created by Metasequoia

mtllib Model.mtl

v 0.404297 10.681810 10.862110
v 0.114746 10.349520 11.810820
v 0.402344 10.520350 10.790260
v 0.112793 10.026520 11.662920
v 0.382812 10.417010 10.760061
v 0.106445 10.116580 11.293770
v 0.382812 10.349450 10.652840
v 0.106445 9.971172 11.152000
v 0.000000 10.116580 11.293770
v 0.000000 9.971172 11.152000
v -0.112793 10.026520 11.662920
v -0.114746 10.349520 11.810820
v -0.402344 10.520350 10.790260
v -0.404297 10.681810 10.862110
v -0.106445 9.971172 11.152000
v -0.106445 10.116580 11.293770
v -0.382812 10.349450 10.652840
v -0.382812 10.417010 10.760061
v 0.000000 9.820245 10.725071
v 0.519531 10.215450 10.397831
v 0.531738 10.320870 10.024960
v 0.093262 9.829807 10.925570
v 0.000000 11.806980 10.204910
v 0.619629 11.463260 10.582180
v 0.000000 11.520360 11.102001
v 0.526367 11.625740 8.109710
v 0.000000 11.765970 8.034368
v 0.458496 10.421060 10.631420
v 0.137695 9.978848 11.162491
v 0.000000 9.765606 11.008310
v 0.000000 9.963787 11.209410
v -0.137695 9.978848 11.162491
v -0.093262 9.829807 10.925570
v -0.519531 10.215450 10.397831
v 0.000000 9.407284 11.268860
v 0.689453 11.155420 9.168180
v 0.000000 11.736770 9.087870
v -0.689453 11.155420 9.168180
v 0.000000 10.443640 11.788191
v 0.267578 11.023220 11.214211
v 0.194336 10.340910 11.638161
v 0.000000 11.086510 11.270460
v -0.267578 11.023220 11.214211
v 0.502441 10.631580 10.895811
v 0.000000 10.274210 11.679531
v 0.000000 10.795700 10.340950
v 0.000000 10.297030 10.692690
v 0.000000 9.963336 11.896530
v -0.194336 10.340910 11.638161
v 0.719727 10.775580 10.082621
v 1.091309 11.441120 9.555750
v 1.100586 12.202450 9.700230
v 1.926758 12.877320 9.026300
v 0.981445 11.448060 9.827320
v 0.794434 11.789230 10.275301
v 0.680664 11.687450 10.686371
v 0.742676 12.636460 10.413511
v 0.706055 11.662110 10.461170
v 0.636231 11.243230 10.433870
v 0.649902 11.195720 10.059851
v 0.391113 11.176380 11.001261
v 0.692871 11.243070 10.506269
v 0.808594 10.838600 10.166981
v 0.932617 11.201720 9.967279
v 0.963867 11.105490 9.931000
v 0.725098 11.070900 10.250021
v 0.533691 10.958120 10.738941
v 0.816894 10.613250 10.146450
v 0.978027 10.769700 10.010900
v 0.704102 9.952703 10.527470
v 0.830566 10.466190 10.161360
v 0.918457 10.511340 9.997601
v -0.531738 10.320870 10.024960
v -0.619629 11.463260 10.582180
v -0.526367 11.625260 8.109796
v -0.502441 10.631580 10.895811
v -0.458496 10.421060 10.631420
v -0.719727 10.775580 10.082621
v -1.100586 12.202450 9.700230
v -1.091309 11.441120 9.555750
v -1.926758 12.877110 9.026741
v -0.981445 11.448060 9.827320
v -0.636231 11.243230 10.433870
v -0.649902 11.195720 10.059851
v -0.680664 11.687450 10.686371
v -0.794434 11.789230 10.275301
v -0.742676 12.636460 10.413511
v -0.706055 11.662110 10.461170
v -0.391113 11.176380 11.001261
v -0.692871 11.243070 10.506269
v -0.932617 11.201720 9.967279
v -0.808594 10.838600 10.166981
v -0.963867 11.105490 9.931000
v -0.725098 11.070900 10.250021
v -0.533691 10.958120 10.738941
v -0.816894 10.613250 10.146450
v -0.704102 9.952703 10.527470
v -0.830566 10.466190 10.161360
v 1.492676 12.562650 8.229836
v 0.986816 11.449420 8.505571
v 0.625000 11.691070 9.098570
v 0.687988 11.036710 10.085360
v -0.986816 11.449420 8.505571
v -1.492676 12.562650 8.229836
v -0.625000 11.691070 9.098570
v -0.978027 10.769700 10.010900
v -0.918457 10.511340 9.997601
v -0.687988 11.036710 10.085360
v 2.461005 0.990920 5.885879
v 1.684113 0.096004 7.355251
v 2.216553 0.084681 6.359426
v 2.712272 1.075895 6.155067
v 2.993904 1.083447 6.185491
v 3.501658 0.133835 7.824834
v 2.885059 0.041298 6.639115
v 3.145152 1.036597 6.104687
v 2.493226 0.102731 7.852012
v 2.493419 0.031305 6.559763
v 4.117542 0.124721 7.263221
v 3.351934 0.038294 6.513760
v 3.368640 0.934889 5.923492
v 3.448490 0.222072 -1.084652
v 2.774547 1.093537 -2.099242
v 3.043862 0.276904 -2.064432
v 2.549522 1.101830 -1.978691
v 2.752284 0.283224 -1.778150
v -1.684113 0.096004 7.355251
v -2.461005 0.990920 5.885879
v -2.216553 0.084681 6.359426
v -2.712272 1.075895 6.155067
v -2.493419 0.031305 6.559763
v -3.501658 0.133835 7.824834
v -2.993904 1.083447 6.185491
v -2.885059 0.041298 6.639115
v -3.145152 1.036597 6.104687
v -3.351934 0.038294 6.513760
v -2.493714 0.102731 7.852012
v -4.117542 0.124721 7.263221
v -3.369106 0.935033 5.923512
v -3.704058 0.138299 6.271852
v -2.774547 1.093537 -2.099242
v -3.448490 0.222072 -1.084652
v -3.043862 0.276904 -2.064432
v -2.549522 1.101830 -1.978691
v 3.704058 0.138299 6.271852
v 1.929503 1.096950 -1.915436
v 2.219690 1.148703 -1.818257
v 1.733360 0.185397 -0.464102
v 1.588194 1.047156 -2.062058
v 0.873963 0.184502 -0.990245
v 2.807118 0.235686 -0.489609
v 1.246251 0.266181 -1.965109
v 1.711734 0.240749 -1.752226
v 2.170152 0.232426 -1.669145
v -2.219690 1.148703 -1.818257
v -1.929503 1.096950 -1.915436
v -1.733360 0.185397 -0.464102
v -1.588194 1.047156 -2.062058
v -0.873963 0.184502 -0.990245
v -2.807118 0.235686 -0.489609
v -1.246251 0.266181 -1.965109
v -1.711734 0.240749 -1.752226
v -2.170152 0.232426 -1.669145
v -2.752284 0.283224 -1.778150
v 1.513916 6.231090 -3.639477
v 1.426758 7.651508 -2.042231
v -0.000244 7.318285 -3.622951
v 1.571777 6.392350 -2.528867
v 2.090820 5.697955 -2.288802
v 1.821777 6.491544 -2.830600
v 1.148438 4.736306 -1.374486
v 2.677734 6.684585 -1.525866
v 2.450195 5.205680 3.637873
v 1.909180 5.463689 4.268257
v 1.984863 4.438467 3.825209
v 2.635742 5.983159 4.793199
v 2.593262 4.558286 3.763075
v 3.033691 5.124879 4.583673
v 2.380371 5.049592 6.200887
v 1.514160 3.830788 5.892250
v 1.757813 5.115451 5.964930
v 1.967773 3.725712 5.848912
v 2.432941 3.551152 5.156770
v 1.845454 3.252714 4.646648
v 1.934570 7.350709 0.031426
v 2.250977 6.272686 -0.385829
v 2.436035 7.827740 -1.885938
v 1.285156 6.720120 3.392136
v 3.241356 2.495331 4.349298
v 2.804606 2.513046 3.722143
v 2.820055 2.182039 3.837094
v 2.742676 3.837201 3.377144
v 3.553953 4.303763 4.233631
v 0.728027 10.519870 7.673715
v 0.000000 10.103720 6.309784
v 0.783203 9.639039 6.934779
v 0.000000 11.197760 7.360727
v 0.000414 6.421959 -16.070900
v 0.392083 5.810265 -17.833090
v 0.525223 5.821102 -16.069139
v 0.000614 6.354504 -17.302940
v -0.391124 5.810091 -17.833139
v -0.257474 5.803674 -21.948219
v 1.085205 5.847130 -6.657671
v -0.000244 6.917066 -6.676107
v -1.085205 5.846643 -6.657635
v 1.137207 6.936660 5.097421
v 0.989258 7.116589 6.402790
v 0.000000 7.737562 4.595183
v 0.000000 7.154284 3.084915
v -1.285156 6.720120 3.392136
v 2.111781 2.593175 -1.126668
v 1.801383 1.981616 -2.451927
v 1.399226 2.774841 -1.793392
v 2.278961 1.872954 -2.234495
v 2.512858 1.880088 -2.591514
v 2.774547 1.093537 -2.099242
v 0.000000 8.284211 5.705246
v -1.137207 6.936660 5.097421
v 1.929503 1.096950 -1.915436
v 1.588194 1.047156 -2.062058
v 2.219690 1.148703 -1.818257
v 2.549522 1.101830 -1.978691
v 0.000000 7.875891 -1.113466
v 1.382813 7.262871 -0.183928
v -1.426758 7.651508 -2.042231
v -1.514404 6.231090 -3.639477
v -1.571289 6.392350 -2.528867
v 0.259130 5.803456 -21.948189
v 0.000656 5.326588 -17.301760
v 0.000716 5.550717 -22.019878
v 0.000023 6.574037 -12.352449
v 0.780722 5.815924 -12.365309
v -0.524586 5.821025 -16.069201
v -0.000041 6.753585 -9.105446
v 0.899678 5.830428 -9.110851
v -0.780317 5.816085 -12.365429
v 1.479004 5.524093 -0.149196
v -0.899643 5.830275 -9.110985
v 0.689453 11.155420 9.168180
v 0.000000 11.736770 9.087870
v -1.382813 7.263359 -0.183927
v 0.000813 6.150909 -22.023569
v -1.479004 5.524093 -0.149196
v -1.984863 4.438467 3.825209
v -2.450195 5.205680 3.637873
v -1.909180 5.463689 4.268257
v -2.593262 4.558286 3.763075
v -2.635742 5.983159 4.793199
v -3.033691 5.124879 4.583673
v -2.380371 5.049592 6.200887
v -2.432941 3.551152 5.156770
v -1.967773 3.725712 5.848912
v -1.845454 3.252714 4.646648
v -1.514160 3.830788 5.892250
v -1.757813 5.115451 5.964930
v -1.821777 6.491544 -2.830600
v -1.148858 4.736180 -1.374063
v -2.090820 5.697955 -2.288802
v -2.677734 6.684585 -1.525866
v -1.934570 7.350709 0.031426
v -2.436035 7.827740 -1.885938
v -0.989258 7.116589 6.402790
v -3.241497 2.494895 4.349127
v -2.742883 3.837610 3.376766
v -3.553953 4.303763 4.233631
v -2.804606 2.513046 3.722143
v -2.820055 2.182039 3.837094
v -0.728027 10.519870 7.673715
v -0.783203 9.639039 6.934779
v -1.801383 1.981616 -2.451927
v -2.111781 2.593175 -1.126668
v -1.399226 2.774841 -1.793392
v -2.278961 1.872954 -2.234495
v -1.929503 1.096950 -1.915436
v -2.219690 1.148703 -1.818257
v -2.512858 1.880088 -2.591514
v -2.936192 2.767042 -1.684929
v -2.774547 1.093537 -2.099242
v -2.549522 1.101830 -1.978691
v -2.250977 6.272686 -0.385829
v -0.689453 11.155420 9.168180
v 2.936192 2.767042 -1.684929
v -1.588194 1.047156 -2.062058
v 0.000955 5.841867 -24.175308
v 0.259130 5.803456 -21.948189
v 0.000813 6.150909 -22.023569
v 0.000716 5.550717 -22.019878
v -0.257474 5.803674 -21.948219
v 2.432941 3.551152 5.156770
v 2.924665 3.311952 5.369779
v 1.845454 3.252714 4.646648
v 3.033691 5.124879 4.583673
v 2.250977 6.272686 -0.385829
v 2.425325 4.795288 -0.210381
v 1.148438 4.736306 -1.374486
v 3.483438 5.184294 -1.576525
v 2.677734 6.684585 -1.525866
v 2.366262 4.854448 -2.654557
v 2.090820 5.697955 -2.288802
v 1.984863 4.438467 3.825209
v 2.742676 3.837201 3.377144
v 2.593262 4.558286 3.763075
v 3.553953 4.303763 4.233631
v 0.000000 9.963336 11.896530
v 0.000000 10.443640 11.788191
v 0.194336 10.340910 11.638161
v -0.194336 10.340910 11.638161
v 0.170898 10.215460 10.929911
v 0.000000 10.274710 10.919161
v 0.289551 10.562010 10.579361
v 0.000000 10.248600 11.119370
v 0.000000 10.621290 10.406879
v 0.134766 10.596390 10.377901
v 0.000000 10.589320 10.607290
v -0.289551 10.562010 10.579361
v -0.170898 10.215460 10.929911
v 3.332676 1.904334 4.976931
v 3.590884 1.137065 4.829474
v 3.325952 1.597743 5.292366
v 3.859429 1.466691 4.177985
v 3.318750 1.275485 5.623936
v 3.404172 0.833707 5.530680
v 4.053745 0.985729 4.222872
v 3.759020 1.888241 3.784902
v 3.261662 2.236914 4.619028
v 4.317729 1.642774 2.842771
v 4.056643 1.998114 2.642643
v 3.831008 2.451017 2.971112
v 4.131574 2.790365 1.402004
v 0.195897 5.831211 -19.475948
v 1.560555 5.617456 -20.457169
v 0.008395 5.542673 -20.246449
v 1.646268 5.756357 -20.203110
v 0.005628 6.097311 -20.241058
v 1.542418 5.997688 -20.448050
v 3.019531 6.341710 4.231001
v 2.590332 5.714933 5.176924
v 3.034180 7.722288 3.518461
v 2.598145 5.352428 4.279768
v 3.207884 2.489782 4.347017
v 0.000000 11.400340 12.276741
v 0.110352 10.677120 11.527790
v 0.000000 10.436400 11.781471
v 0.110352 11.543260 12.095230
v 0.000000 12.811360 12.750380
v 0.000000 11.686180 11.913721
v -0.110352 11.543260 12.095230
v 0.000000 11.119280 11.438921
v -0.050781 10.966200 11.333811
v 0.050781 10.966200 11.333811
v -2.924665 3.311952 5.369779
v -2.432941 3.551152 5.156770
v -1.845454 3.252714 4.646648
v -3.033691 5.124879 4.583673
v -2.425325 4.795288 -0.210381
v -2.250977 6.272686 -0.385829
v -1.148858 4.736180 -1.374063
v -3.483438 5.184294 -1.576525
v -2.677734 6.684585 -1.525866
v -2.366262 4.854448 -2.654557
v -2.090820 5.697955 -2.288802
v -2.742883 3.837610 3.376766
v -1.984863 4.438467 3.825209
v -2.593262 4.558286 3.763075
v -3.553953 4.303763 4.233631
v -0.134766 10.596390 10.377901
v -3.590884 1.137065 4.829474
v -3.332676 1.904334 4.976931
v -3.325952 1.597743 5.292366
v -3.859429 1.466691 4.177985
v -4.183823 1.305102 3.607699
v -3.319217 1.275628 5.623955
v -3.404172 0.833707 5.530680
v -3.759020 1.888241 3.784902
v -3.261662 2.236914 4.619028
v -3.831008 2.451017 2.971112
v -4.056643 1.998114 2.642643
v -4.131574 2.790365 1.402004
v -3.207884 2.489782 4.347017
v -1.559087 5.617270 -20.457338
v -0.194241 5.831126 -19.475979
v -0.006742 5.542651 -20.246449
v -1.644761 5.756407 -20.203289
v -2.963046 5.762267 -21.276098
v -0.004138 6.097297 -20.241058
v -1.541090 5.997554 -20.448219
v -2.590332 5.714933 5.176924
v -3.019531 6.341710 4.231001
v -3.034180 7.722288 3.518461
v -2.598145 5.352428 4.279768
v -0.110352 10.677120 11.527790
v 0.000000 7.213224 1.904652
v 0.000000 7.923776 1.083736
v 0.000000 7.390549 0.743177
v 0.000000 7.990044 1.616148
v 0.000000 8.394948 -0.357128
v 0.000000 8.478616 0.242521
v 0.000000 9.699758 -0.714438
v 0.000000 7.492032 0.583350
v 0.000000 7.720141 -0.587331
v 0.001026 6.667305 -21.942570
v 0.001002 7.001821 -21.683630
v 0.000896 7.484437 -23.061239
v 0.000648 6.194574 -20.800669
v 0.000806 6.132441 -21.606339
v 0.000715 5.529634 -21.623678
v 0.001075 4.619422 -21.656389
v 0.000685 5.502935 -20.788099
v 0.001111 4.950070 -22.050859
v 0.000000 11.598240 7.857680
v 0.000000 11.726550 8.438339
v 0.000000 12.321640 6.479820
v 0.000000 11.592740 8.146902
v 0.000000 10.653370 7.941396
v 0.000000 10.790960 8.284241
v 0.000000 10.735030 6.611550
v 0.000000 11.207440 7.009239
v 0.000000 10.631120 4.972799
v 0.000000 10.927330 6.864182
v 0.000000 10.227650 7.417233
v 0.000000 9.552563 6.008778
v 0.000000 9.971573 6.097545
v 0.000000 9.132913 5.048281
v 0.000000 9.724705 6.110126
v 0.000000 9.397887 6.887589
v 0.000000 8.540079 5.606028
v 0.000000 8.932405 5.683280
v 0.000000 8.123191 4.936063
v 0.000000 8.736120 5.718315
v 0.000000 8.304878 6.627869
v 0.000000 8.539488 6.684211
v 2.212228 3.317270 -2.497810
v 2.199144 3.492487 -2.308847
v 2.288243 3.645188 -2.549340
v 1.110352 6.790206 6.747519
v 0.437500 7.263207 6.810721
v 0.852539 6.781058 6.503073
v 0.984863 7.550853 6.799285
v 0.552734 8.161845 6.921725
v 0.791992 7.603175 6.564434
v 0.974609 8.396777 6.907027
v 0.440918 8.862054 7.131579
v 0.772461 8.416639 6.697289
v 0.676758 9.049376 7.164849
v 0.433105 9.576130 7.399914
v 0.532227 9.152691 6.995089
v 0.654297 9.702707 7.429567
v 0.481934 10.156220 7.824986
v 0.486328 9.844347 7.320063
v 0.680176 10.352840 8.079812
v 0.498047 10.649600 8.551773
v 0.511719 10.496840 8.017186
v 0.694824 10.666640 8.933180
v 0.498047 10.735530 9.481371
v 0.511231 10.805390 8.929541
v 0.695312 10.642180 9.659370
v 0.498535 10.711260 10.207800
v 0.511231 10.781250 9.655811
v 1.606201 5.712089 -3.639511
v 1.164307 5.615386 -2.963579
v 1.095459 5.884840 -3.547432
v 1.339600 7.080062 -3.613271
v 1.089600 6.738222 -3.374665
v 1.013428 7.073401 -2.851420
v 0.968994 6.760285 -5.345542
v 0.770264 6.479750 -5.272038
v 0.666260 6.655967 -4.366954
v 0.764893 6.608217 -7.620403
v 0.559815 6.297260 -7.554456
v 0.465088 6.394671 -6.768921
v 0.879189 6.433606 -10.228876
v 0.509313 6.103528 -10.131969
v 0.492249 6.196811 -9.433388
v 1.180908 5.493570 -5.346420
v 0.800049 5.615408 -4.408452
v 0.764893 5.647566 -5.389567
v 0.992920 5.459131 -7.619650
v 0.518310 5.346226 -6.637981
v 0.582275 5.632349 -7.621122
v 0.871620 5.434810 -10.166498
v 0.529834 5.506479 -9.496965
v 0.537808 5.675833 -10.124632
v 2.095215 4.830656 2.928983
v 1.858887 4.524931 3.538531
v 1.654785 4.840051 2.991844
v 1.867188 4.931555 2.210959
v 1.749512 4.635499 2.832792
v 1.672363 4.988517 2.263363
v 1.807129 5.174313 1.505989
v 1.643555 4.931523 1.959749
v 1.589844 5.235891 1.497798
v 1.775879 5.408310 0.718249
v 1.575195 5.157918 1.079983
v 1.563965 5.419361 0.660159
v 1.386719 6.570845 0.925404
v 1.363770 6.440477 1.690199
v 1.535156 6.754406 0.931644
v 1.282715 6.507545 2.885149
v 1.606934 6.820672 2.007575
v 1.350098 6.467497 2.023419
v 1.271484 6.600309 4.806810
v 0.921875 7.127936 5.611628
v 1.364746 7.075428 4.710251
v 4.183823 1.305102 3.607699
v 2.964713 5.762183 -21.275768
v 2.507813 5.064364 5.384677
v 2.363281 5.128485 5.864600
v 2.678711 5.769099 5.960830
v 2.034180 4.227168 5.956214
v 2.295898 4.792313 6.428721
v 2.254395 4.449456 5.742035
v 1.907715 6.748122 0.227568
v 2.022461 6.458200 -0.254925
v 1.691406 6.194491 -0.101181
v 2.013672 7.281014 -0.497888
v 1.835449 7.329242 -0.039868
v 2.197266 8.152042 -0.232050
v 2.287109 8.866311 -1.874943
v 2.302246 7.654291 -1.440180
v 2.044434 7.447532 -0.554488
v 2.598145 4.852068 4.062779
v 2.535645 5.370963 4.138255
v 2.679199 5.452716 3.341033
v 2.124512 7.184284 -2.293810
v 2.159668 7.534748 -1.790795
v 2.155273 7.852415 -2.955756
v 1.320313 6.864783 3.322723
v 1.325195 6.572833 3.269695
v 1.286133 6.668570 3.723912
v 2.212481 3.077035 -2.806480
v 2.198925 3.282303 -2.650927
v 2.288351 3.390975 -2.914215
v 2.212558 2.763616 -2.915289
v 2.199361 3.001855 -2.818437
v 2.288308 3.039213 -3.100941
v 2.212670 2.404213 -3.046271
v 2.199474 2.642452 -2.949420
v 2.287935 2.679765 -3.231906
v 0.000000 11.085880 11.242821
v -2.199144 3.492487 -2.308847
v -2.212228 3.317270 -2.497810
v -2.288243 3.645188 -2.549340
v -0.437500 7.263207 6.810721
v -1.110352 6.790206 6.747519
v -0.852539 6.781058 6.503073
v -0.552734 8.161845 6.921725
v -0.984863 7.550853 6.799285
v -0.791992 7.603175 6.564434
v -0.440918 8.862054 7.131579
v -0.974609 8.396777 6.907027
v -0.772461 8.416639 6.697289
v -0.433105 9.576130 7.399914
v -0.676758 9.049376 7.164849
v -0.532227 9.152691 6.995089
v -0.481934 10.156220 7.824986
v -0.654297 9.702707 7.429567
v -0.486328 9.844347 7.320063
v -0.498535 10.649600 8.551773
v -0.680176 10.352840 8.079812
v -0.511719 10.496840 8.017186
v -0.498047 10.735530 9.481371
v -0.694824 10.666640 8.933180
v -0.511231 10.805390 8.929541
v -0.498535 10.711260 10.207800
v -0.695312 10.642180 9.659370
v -0.511231 10.781250 9.655811
v -1.164063 5.615112 -2.963627
v -1.606689 5.711602 -3.639475
v -1.095459 5.884353 -3.547397
v -1.089600 6.738222 -3.374665
v -1.339600 7.080062 -3.613271
v -1.013428 7.073401 -2.851420
v -0.770264 6.479750 -5.272038
v -0.968994 6.759798 -5.345506
v -0.666260 6.655967 -4.366954
v -0.559815 6.297260 -7.554456
v -0.765381 6.608217 -7.620403
v -0.465088 6.394671 -6.768921
v -0.509244 6.103293 -10.132042
v -0.879115 6.433910 -10.229012
v -0.492128 6.197040 -9.433462
v -0.800049 5.615408 -4.408452
v -1.181396 5.493570 -5.346420
v -0.764893 5.647566 -5.389567
v -0.518310 5.346226 -6.637981
v -0.993408 5.459131 -7.619650
v -0.582275 5.632349 -7.621122
v -0.529738 5.506763 -9.497049
v -0.871548 5.434615 -10.166626
v -0.537877 5.676128 -10.124716
v -1.858887 4.524931 3.538531
v -2.095215 4.830656 2.928983
v -1.654785 4.840051 2.991844
v -1.749512 4.635499 2.832792
v -1.867188 4.931555 2.210959
v -1.672363 4.988517 2.263363
v -1.643555 4.931523 1.959749
v -1.807129 5.174313 1.505989
v -1.589844 5.235891 1.497798
v -1.575195 5.157918 1.079983
v -1.775879 5.408310 0.718249
v -1.563965 5.419361 0.660159
v -1.363770 6.440477 1.690199
v -1.386719 6.570845 0.925404
v -1.535156 6.754406 0.931644
v -1.606934 6.820672 2.007575
v -1.282715 6.507545 2.885149
v -1.350098 6.467497 2.023419
v -0.921875 7.127936 5.611628
v -1.271484 6.600309 4.806810
v -1.364746 7.075428 4.710251
v -4.317729 1.642774 2.842771
v -4.053745 0.985729 4.222872
v -2.363281 5.128485 5.864600
v -2.507813 5.064364 5.384677
v -2.678711 5.769099 5.960830
v -2.296387 4.792313 6.428721
v -2.034180 4.227168 5.956214
v -2.254395 4.449456 5.742035
v -2.022461 6.458200 -0.254925
v -1.907715 6.748122 0.227568
v -1.691406 6.194491 -0.101181
v -1.835449 7.329242 -0.039868
v -2.013672 7.281014 -0.497888
v -2.197266 8.152042 -0.232050
v -2.302246 7.654291 -1.440180
v -2.287109 8.866311 -1.874943
v -2.044434 7.447532 -0.554488
v -2.535645 5.370963 4.138255
v -2.598145 4.852068 4.062779
v -2.679199 5.452716 3.341033
v -2.159668 7.534748 -1.790795
v -2.124512 7.184284 -2.293810
v -2.155273 7.852415 -2.955756
v -1.325195 6.572833 3.269695
v -1.320313 6.864783 3.322723
v -1.286133 6.668753 3.724015
v -2.198925 3.282303 -2.650927
v -2.212481 3.077035 -2.806480
v -2.288351 3.390975 -2.914215
v -2.199361 3.001855 -2.818437
v -2.212558 2.763616 -2.915289
v -2.288308 3.039213 -3.100941
v -2.198988 2.642408 -2.949403
v -2.212670 2.404213 -3.046271
v -2.287935 2.679765 -3.231906
v -0.000244 7.001510 -5.400976
v -0.000244 7.102039 -4.839429
v -0.000244 7.651633 -5.435554
v -0.000244 6.793345 -7.699624
v -0.000244 6.827737 -7.138597
v -0.000244 7.410626 -7.734724
v -0.000074 6.608932 -10.317093
v -0.000064 6.668808 -9.749933
v -0.000059 7.298103 -10.304770
v -0.000024 6.522767 -12.197001
v -0.000030 6.562506 -11.600290
v 0.000465 7.174569 -12.399069
v 0.000491 6.398134 -14.145769
v 0.000493 6.447281 -13.577499
v 0.000520 7.107477 -14.121500
v 0.000526 6.336495 -15.907619
v 0.000399 6.391064 -15.346220
v 0.000550 6.987456 -15.942780
v 0.000726 6.291786 -17.549009
v 0.000689 6.285241 -16.982670
v 0.000747 6.943114 -17.543638
v 0.000000 7.956156 5.207540
v 0.000000 8.053040 4.404834
v 0.000000 7.574017 4.482839
v 0.000000 7.481022 4.044671
v 0.000000 7.860638 3.163270
v 0.000000 7.165474 3.319652
v -0.037694 6.947508 -19.239470
v 0.000455 6.221793 -18.937359
v 0.000393 6.239792 -18.509809
v 0.000574 5.457241 -18.621658
v 0.000561 5.496012 -19.155289
v 0.000780 4.693775 -19.387070
v 0.000837 4.207291 -23.283760
v 0.000000 7.107257 2.805507
v 0.000000 8.035483 2.179799
v 0.000000 7.183100 2.053056
v 0.000000 7.792401 -1.137900
v 0.000000 8.496217 -1.969271
v 0.000000 7.640235 -1.866941
v -0.000244 7.366692 -2.997836
v -0.000244 8.028028 -3.645754
v -0.000244 7.266606 -3.546688
v 0.000244 9.948920 9.043076
v 0.000244 9.793660 8.955151
v 0.000244 9.882012 9.108006
v 0.000244 9.806798 9.191978
v 0.000244 9.633461 9.147997
v 0.000244 9.758929 9.272049
v 0.000244 9.768542 10.035749
v 0.000244 9.722177 9.921965
v 0.000244 9.538060 10.067932
v 0.000244 9.704141 9.774008
v 0.000244 9.626037 9.648012
v 0.000244 9.421885 9.872101
v 0.000244 9.602128 9.562067
v 0.000244 9.646098 9.446836
v 0.000244 9.411717 9.428234
v 0.000244 9.876918 10.169563
v 0.000244 9.777808 10.096302
v 0.000244 9.697683 10.316996
v 0.000000 2.477609 6.422870
v 0.000000 2.239219 6.419533
v 0.000000 2.361314 6.857881
v 0.000000 2.054454 6.254173
v 0.000000 1.854306 6.125228
v 0.000000 1.725111 6.562072
v 0.000000 1.746814 5.950337
v 0.000000 1.622648 5.747058
v 0.000000 1.316749 6.084416
v 0.000000 1.577687 5.603027
v 0.000000 1.633356 5.371587
v 0.000000 1.178644 5.393275
v 0.000000 8.945960 0.996401
v 0.000000 9.996889 7.201783
v 0.000000 9.200521 6.836690
v 1.209473 2.718620 2.648129
v 1.845454 3.252714 4.646648
v 1.984863 4.438467 3.825209
v 1.313965 2.362386 5.368574
v 0.272461 2.138748 5.290542
v 0.000000 3.677133 -1.000721
v 0.000000 3.778620 0.078671
v 1.148438 4.736306 -1.374486
v -1.148858 4.736180 -1.374063
v 2.820055 2.182039 3.837094
v 2.201686 2.437467 4.295980
v 2.776362 1.420407 4.195922
v 2.804606 2.513046 3.722143
v 2.111781 2.593175 -1.126668
v 2.809720 3.246714 -1.497071
v 2.936192 2.767042 -1.684929
v 2.174350 3.105240 -0.803618
v 1.535304 3.209614 -1.867036
v 2.273497 3.634516 -2.033544
v 2.366262 4.854448 -2.654557
v 3.483438 5.184294 -1.576525
v 2.425325 4.795288 -0.210381
v 2.137470 3.298206 -2.726884
v 1.399226 2.774841 -1.793392
v 1.801383 1.981616 -2.451927
v 2.203375 1.693747 4.864352
v 2.461005 0.990920 5.885879
v 2.913699 0.805746 5.221828
v 2.712272 1.075895 6.155067
v 2.732527 2.333796 5.193851
v 2.993904 1.083447 6.185491
v 3.145152 1.036597 6.104687
v 2.927746 0.036450 5.260672
v 3.351934 0.038294 6.513760
v 3.704058 0.138299 6.271852
v 2.885059 0.041298 6.639115
v 2.493419 0.031305 6.559763
v 3.368640 0.934889 5.923492
v 2.924665 3.311952 5.369779
v 2.770168 2.517812 4.640088
v 2.742676 3.837201 3.377144
v 3.241356 2.495331 4.349298
v 3.553953 4.303763 4.233631
v 3.433434 1.904119 4.977246
v 0.000000 9.971623 8.958040
v 0.531738 10.320870 10.024960
v 0.719727 10.775580 10.082621
v 0.219238 10.239930 10.155491
v 0.171143 9.769084 9.775486
v 0.000000 10.108990 10.297550
v 0.000244 9.787072 10.165152
v -0.170654 9.769084 9.775486
v 0.000244 9.556743 9.423868
v 0.689453 11.155420 9.168180
v 0.728027 10.519870 7.673715
v 0.000000 2.533784 6.464944
v 0.200684 4.264002 7.090032
v 0.000000 4.131858 7.241876
v -0.200684 4.264002 7.090032
v 0.000000 6.580441 7.219493
v 0.000000 2.051022 6.482263
v -0.272461 2.138748 5.290542
v 0.000000 1.514714 5.679951
v 0.000000 2.151409 3.757632
v 0.000000 9.746885 8.164053
v -0.728027 10.519870 7.673715
v 0.000000 8.913371 7.552585
v -0.783203 9.639039 6.934779
v -0.989258 7.116589 6.402790
v 1.711734 0.240749 -1.752226
v 2.144223 0.258024 -3.272247
v 1.246251 0.266181 -1.965109
v 2.170152 0.232426 -1.669145
v 1.479004 5.524093 -0.149196
v 0.000000 2.374295 2.065359
v -1.209473 2.718620 2.648129
v -1.313965 2.362386 5.368574
v 0.000695 5.231472 -16.072159
v 0.780722 5.815924 -12.365309
v 0.525223 5.821102 -16.069139
v -0.000095 5.075362 -12.354580
v -0.780317 5.816085 -12.365429
v -0.899643 5.830275 -9.110985
v 0.899678 5.830428 -9.110851
v 0.000063 4.891024 -9.114721
v -1.085205 5.846643 -6.657635
v 2.512858 1.880088 -2.591514
v 2.150867 1.679832 -3.430058
v 2.774547 1.093537 -2.099242
v 3.043862 0.276904 -2.064432
v 1.085205 5.847130 -6.657671
v -0.000244 4.752422 -6.689801
v -1.514404 6.231090 -3.639477
v 1.514160 3.830788 5.892250
v 1.757813 5.115451 5.964930
v 1.588194 1.047156 -2.062058
v 2.752284 0.283224 -1.778150
v 1.513916 6.231090 -3.639477
v 0.000000 4.652869 -3.617670
v 0.989258 7.116589 6.402790
v 1.571777 6.392350 -2.528867
v 0.783203 9.639039 6.934779
v 0.392083 5.810265 -17.833090
v 0.000656 5.326588 -17.301760
v 0.000000 9.820245 10.725071
v -0.531738 10.320870 10.024960
v 2.216553 0.084681 6.359426
v -1.845454 3.252714 4.646648
v -1.984863 4.438467 3.825209
v -1.479004 5.524093 -0.149196
v -2.732527 2.333796 5.193851
v -3.241497 2.494895 4.349127
v -2.770168 2.517812 4.640088
v -3.433900 1.904262 4.977265
v -3.145152 1.036597 6.104687
v -3.369106 0.935033 5.923512
v -2.809720 3.246714 -1.497071
v -2.111781 2.593175 -1.126668
v -2.936192 2.767042 -1.684929
v -2.174350 3.105240 -0.803618
v -2.425325 4.795288 -0.210381
v -1.535304 3.209614 -1.867036
v -2.273497 3.634516 -2.033544
v -2.366262 4.854448 -2.654557
v -3.483438 5.184294 -1.576525
v -2.137470 3.298206 -2.726884
v -2.512858 1.880088 -2.591514
v -2.150867 1.679832 -3.430058
v -2.144223 0.258024 -3.272247
v -1.801383 1.981616 -2.451927
v -1.588194 1.047156 -2.062058
v -1.399226 2.774841 -1.793392
v -2.203375 1.693747 4.864352
v -2.913699 0.805746 5.221828
v -2.461005 0.990920 5.885879
v -2.776362 1.420407 4.195922
v -2.201686 2.437467 4.295980
v -2.820055 2.182039 3.837094
v -2.804606 2.513046 3.722143
v -2.993904 1.083447 6.185491
v -2.712272 1.075895 6.155067
v -3.351934 0.038294 6.513760
v -2.927746 0.036450 5.260672
v -3.704058 0.138299 6.271852
v -2.885059 0.041298 6.639115
v -2.924665 3.311952 5.369779
v -2.742883 3.837610 3.376766
v -3.553953 4.303763 4.233631
v -0.719727 10.775580 10.082621
v -0.219238 10.239930 10.155491
v -0.689453 11.155420 9.168180
v -1.246251 0.266181 -1.965109
v -1.711734 0.240749 -1.752226
v -2.170152 0.232426 -1.669145
v -0.524586 5.821025 -16.069201
v -0.391124 5.810091 -17.833139
v -1.757813 5.115451 5.964930
v -1.514160 3.830788 5.892250
v -2.752284 0.283224 -1.778150
v -3.043862 0.276904 -2.064432
v -2.774547 1.093537 -2.099242
v -2.493419 0.031305 6.559763
v -2.216553 0.084681 6.359426
v -1.571289 6.392350 -2.528867
# 887 vertices

vt 1.00000 -0.35547
vt 0.00000 0.00000
vt 1.00000 0.00000
vt 0.00000 -0.35547
vt 1.00000 -0.73438
vt 0.19336 -0.50977
vt 1.00000 -0.50977
vt 0.19336 -0.79102
vt 0.41602 -0.79688
vt 0.18555 -0.51172
vt 0.34180 -0.51172
vt 0.25977 -0.79688
vt 0.42676 -0.51172
vt 0.44238 -0.52246
vt 0.94531 -0.17969
vt 0.42871 -0.50391
vt 0.73438 -0.31055
vt 0.56055 -0.25879
vt 0.71387 -0.18848
vt 0.59473 -0.57910
vt 0.73145 -0.58887
vt 0.64062 -0.31738
vt 0.63281 -0.29785
vt 0.71484 -0.31250
vt 0.54785 -0.29785
vt 0.54785 -0.32812
vt 0.53125 -0.31738
vt 0.53125 -0.27930
vt 0.52148 -0.21777
vt 0.59180 -0.19336
vt 0.59277 -0.20996
vt 0.57910 -0.22754
vt 0.59766 -0.52637
vt 0.74316 -0.40430
vt 0.67578 -0.51953
vt 0.60059 -0.41309
vt 0.44434 -0.83301
vt 0.86914 -0.89160
vt 0.44238 -0.94727
vt 0.82227 -0.70312
vt 0.82617 -0.58789
vt 0.99707 -0.82812
vt 0.90918 -0.78320
vt 0.99609 -0.43359
vt 0.86426 -0.22852
vt 0.99609 -0.19043
vt 0.94629 -0.07910
vt 0.99609 -0.07031
vt 0.14941 -0.13184
vt 0.15137 -0.00488
vt 0.18359 -0.13184
vt 0.62695 -0.09766
vt 0.36133 -0.28027
vt 0.81250 0.16699
vt 0.44824 -0.29883
vt 0.60547 -0.19336
vt 0.54004 -0.07031
vt 0.77441 0.14062
vt 0.52539 -0.21191
vt 0.66797 -0.20703
vt 0.42676 -0.10547
vt 0.85547 0.23926
vt 0.53711 -0.20312
vt 0.34473 -0.29785
vt 0.44043 -0.29199
vt 0.10938 -0.24023
vt 0.38965 -0.38574
vt 0.16211 -0.72754
vt 0.04492 -0.56738
vt 0.09668 -0.55664
vt 0.03711 -0.75391
vt 0.01855 -1.01758
vt 0.26367 -0.74609
vt 0.23047 -0.61426
vt 0.53418 -1.01269
vt 0.35254 -0.76953
vt 0.33496 -0.67285
vt 0.03906 -0.23340
vt 0.16504 -0.08789
vt 0.31445 -0.18652
vt 0.03809 -0.09180
vt 0.74414 -0.31250
vt 0.58789 -0.05273
vt 0.63184 -0.20996
vt 0.72168 -0.15918
vt 0.70996 0.11719
vt 0.63184 -0.14258
vt 0.47266 -0.10547
vt 0.30664 -0.30078
vt 0.56250 -0.46484
vt 0.50098 -0.24023
vt 0.67969 -0.36816
vt 0.64160 -0.15723
vt 0.10156 -0.64258
vt 0.00098 -0.25488
vt -0.01758 -0.02148
vt 0.18750 -1.00195
vt -0.55078 -0.02148
vt 0.29883 -0.02148
vt 0.03320 0.00977
vt 0.14648 -0.98633
vt -0.58398 0.00977
vt 0.27734 0.00977
vt 0.02344 0.00391
vt 0.14062 -0.97461
vt -0.59766 0.00391
vt 0.32227 0.00391
vt 0.02930 -0.01367
vt 0.11328 -0.99805
vt -0.68555 -0.01367
vt 0.28711 -0.01367
vt 0.15039 -0.99805
vt 0.31055 -0.02539
vt 1.00195 -0.02539
vt 0.02148 -0.02539
vt -0.57227 -0.02539
vt 1.00781 -0.02148
vt 0.98828 0.00977
vt 1.00000 0.00391
vt 0.98047 -0.01367
vt 0.53906 -1.00586
vt 0.37109 -0.02734
vt 0.73633 -0.02344
vt 0.60938 -1.00000
vt 0.36914 0.00195
vt 0.80469 0.00195
vt 1.00488 -0.99902
vt 0.84375 -0.85645
vt 1.00488 -0.74219
vt 0.87598 -0.99902
vt 0.71191 -0.32715
vt 0.61230 -0.22461
vt 0.62988 -0.52637
vt 0.73535 -0.03320
vt 0.62207 -0.07227
vt 0.55078 -0.14648
vt 0.53711 0.00488
vt 0.62988 -0.14941
vt 0.73438 0.00000
vt 0.73340 -0.18652
vt 0.63965 -0.23535
vt 0.46191 -0.36621
vt 0.53027 -0.26758
vt 0.61328 -0.39746
vt 0.68848 -0.39746
vt 0.59180 -0.50488
vt 0.62109 -0.25195
vt 0.70996 -0.32227
vt 0.62598 -0.02637
vt 0.57324 -0.03027
vt 0.52930 -0.45703
vt 0.78125 -0.66895
vt 0.99023 -0.27051
vt 0.91309 -0.64844
vt 0.60645 -0.53418
vt 0.00098 -0.97266
vt 0.15723 -0.90137
vt 0.15723 -0.97266
vt 0.15723 -0.61523
vt 0.00098 -0.61523
vt 0.00684 0.00391
vt 0.25781 -0.48438
vt 0.00684 -0.48438
vt 0.25781 0.00391
vt 0.50586 -0.50879
vt 0.74707 -0.65430
vt 0.50488 -0.71973
vt 0.64844 -0.53320
vt 0.94531 -0.38477
vt 0.26270 -0.00391
vt 0.00391 -0.48633
vt 0.00391 -0.00391
vt 0.26270 -0.48633
vt 0.73926 -0.32812
vt 0.48828 -0.38574
vt 0.77344 -0.01367
vt 0.98828 -0.01074
vt 0.36426 -0.00781
vt 0.30762 -0.17676
vt 0.30762 -0.00781
vt 0.40137 -0.20801
vt 0.47949 -0.19727
vt 0.47949 -0.39453
vt 0.55762 -0.01660
vt 0.30762 -0.39453
vt 0.38867 -0.39453
vt 0.44434 -0.39453
vt 0.76562 -0.74219
vt 0.64551 -0.84961
vt 0.88672 -0.13672
vt 0.78809 -0.69336
vt 0.68750 -0.59473
vt 0.92773 -0.14941
vt 0.48926 -0.37988
vt 0.62109 -0.52832
vt 0.56250 -0.21777
vt 0.25488 -0.82129
vt 0.61719 -0.99902
vt 0.25488 -0.99902
vt 0.25488 -0.74219
vt 0.93945 -0.33301
vt 0.47949 -0.00781
vt 0.58398 -0.29785
vt 0.58398 -0.00488
vt 0.66602 -0.00488
vt 0.50586 -0.00488
vt 0.13086 -0.57129
vt 0.14062 -0.55859
vt 0.14844 -0.60059
vt 0.04688 -0.59863
vt 0.25293 -0.99707
vt 0.28320 -0.81543
vt 0.29297 -0.89551
vt 0.01660 -0.75391
vt 0.05078 -0.99707
vt 0.00391 -0.84863
vt 0.00684 -0.93262
vt 0.08691 -0.64258
vt 0.11426 -0.66113
vt 0.07812 -0.64258
vt 0.14258 -0.99414
vt 0.13379 -0.87109
vt 0.30957 -0.90039
vt 0.00195 -0.83398
vt 0.02832 -0.98340
vt 0.17578 0.06543
vt 0.26855 -0.28516
vt 0.07324 -0.28613
vt 0.57812 -0.84082
vt 0.68066 -0.81152
vt 0.57812 -0.62891
vt 0.67383 -0.90234
vt 0.68066 -0.60840
vt 0.62012 -0.61133
vt 0.67871 -0.62891
vt -0.00195 -0.35645
vt 0.26367 -0.49414
vt -0.00195 -0.47559
vt 0.30566 -0.35645
vt 0.23438 -0.35645
vt 0.00684 -0.48145
vt 0.00684 -0.35645
vt 0.27246 -0.48535
vt 0.49121 -0.35645
vt 0.24902 -0.35352
vt 0.00293 -0.48633
vt 0.00293 -0.35352
vt 0.24121 -0.48633
vt 0.52148 -0.35352
vt 0.30957 -0.47656
vt 0.25781 -0.36328
vt 0.50586 -0.36328
vt 0.14062 -0.49219
vt 0.79883 -0.03223
vt 0.82812 -0.17383
vt 0.88184 -0.06348
vt 0.75781 -0.16016
vt 0.82715 -0.15527
vt 0.77051 -0.00195
vt 0.80957 -0.36523
vt 0.87500 -0.07617
vt 0.00098 -0.36328
vt 0.00098 -0.47949
vt 0.74121 -0.71191
vt 0.79492 -0.97363
vt 0.70996 -0.98047
vt 0.80273 -0.71191
vt 0.88672 -0.34180
vt 0.86426 -0.71094
vt 0.87891 -0.91016
vt 0.88086 -0.96777
vt 0.50391 -0.35645
vt 0.85156 -0.40820
vt 0.75293 0.01367
vt 0.83203 -0.13574
vt 0.88184 -0.04297
vt 0.76953 -0.13770
vt 0.82812 -0.15234
vt 0.75000 -0.13477
vt 0.81348 -0.34375
vt 0.88770 -0.07422
vt 0.51855 -0.13184
vt 0.61621 -0.14941
vt 0.51855 -0.30078
vt 0.70410 -0.00098
vt 0.51855 0.00195
vt 0.61621 -0.14844
vt 0.51855 -0.13672
vt 0.89648 -0.19922
vt 0.98828 -0.13086
vt 0.97559 -0.45703
vt 0.92188 -0.15918
vt 0.80957 -0.17676
vt 0.87402 -0.13672
vt 0.89355 -0.19043
vt 1.00293 -0.07910
vt 0.96875 -0.45020
vt 0.93262 -0.13086
vt 0.88086 -0.13184
vt 0.87793 -0.20020
vt 0.97949 -0.10352
vt 0.97266 -0.45898
vt 0.90527 -0.14844
vt 0.85547 -0.14062
vt 0.88574 -0.20898
vt 0.99023 -0.10352
vt 0.96289 -0.45703
vt 0.91406 -0.13965
vt 0.81543 -0.18359
vt 0.85156 -0.11035
vt 0.02930 -0.13477
vt 0.08398 -0.13281
vt 0.04980 -0.04785
vt 0.52637 -0.22070
vt 0.51367 0.01270
vt 0.67090 0.01562
vt 0.52539 -0.27832
vt 0.71387 -0.00098
vt 0.52539 -0.00098
vt 0.51660 -0.31055
vt 0.51270 0.00391
vt 0.66699 0.00293
vt 0.51758 0.00977
vt 0.69141 0.00391
vt 0.51953 -0.27930
vt 0.15137 -0.56445
vt 0.13770 -0.73340
vt 0.08691 -0.68457
vt 0.52637 0.00391
vt 0.68555 0.01172
vt 0.51953 -0.33691
vt 0.68164 0.00977
vt 0.52148 -0.33691
vt 0.52051 0.00488
vt 0.51953 -0.31543
vt 0.52930 0.01270
vt 0.68359 0.01367
vt 0.53223 0.00879
vt 0.52539 -0.31738
vt 0.52344 -0.31152
vt 0.53027 0.01367
vt 0.53418 0.00977
vt 0.91992 -0.96387
vt 0.52734 0.01855
vt 0.68164 0.01562
vt 0.52734 -0.21484
vt 0.68945 0.01660
vt 0.52637 -0.19043
vt 0.52637 0.01855
vt 0.58789 0.01562
vt 0.66406 -0.00977
vt 0.51953 -0.01074
vt 0.63477 -0.24219
vt 0.55273 -0.23828
vt 0.66309 -0.00586
vt 0.53320 -0.00684
vt 0.46777 -0.29395
vt 0.30762 -0.29395
vt 0.39258 0.00000
vt 0.46875 -0.29297
vt 0.30859 -0.29199
vt 0.39648 0.00098
vt 0.46973 -0.29590
vt 0.30957 -0.29395
vt 0.40039 -0.00098
vt 0.47559 -0.28809
vt 0.31543 -0.29004
vt 0.39746 0.00488
vt 0.82129 -0.33008
vt 0.82812 -0.18848
vt 0.80957 -0.18848
vt 0.44336 -0.79395
vt 0.51465 -0.92578
vt 0.56641 -0.84863
vt 0.45703 -0.98926
vt 0.39551 -0.98145
vt 0.39453 -0.51758
vt 0.40820 -0.59082
vt 0.49316 -0.47949
vt 0.73730 -0.64453
vt 0.74512 -0.65527
vt 0.77148 -0.61621
vt 0.72363 -0.65625
vt 0.70898 -0.55078
vt 0.74023 -0.58984
vt 0.75391 -0.58887
vt 0.70703 -0.55273
vt 0.66895 -0.60156
vt 0.62793 -0.61230
vt 0.70508 -0.62500
vt 0.69531 -0.68848
vt 0.75488 -0.64648
vt 0.69922 -0.55957
vt 0.70117 -0.65137
vt 0.66602 -0.58594
vt 0.69922 -0.60254
vt 0.77734 -0.61816
vt 0.79980 -0.55859
vt 0.79395 -0.56152
vt 0.78809 -0.54297
vt 0.73340 -0.60449
vt 0.77930 -0.53320
vt 0.77637 -0.52930
vt 0.15625 -0.26367
vt 0.19922 -0.13867
vt 0.23633 -0.16309
vt 0.15234 -0.12695
vt 0.11328 -0.13477
vt 0.03711 -0.64258
vt 0.08301 -0.59570
vt 0.09277 -0.62207
vt 0.04590 -0.59668
vt 0.68457 -0.61523
vt 0.72461 -0.62695
vt 0.72070 -0.67480
vt 0.66797 -0.70215
vt 0.71094 -0.62012
vt 0.62305 -0.65723
vt 0.73047 -0.57910
vt 0.77441 -0.52539
vt 0.88867 -0.33594
vt 0.94531 -0.17969
vt 0.97949 -0.20410
vt 0.42773 -0.54785
vt 0.39258 -0.57910
vt 0.41992 -0.54004
vt 0.38477 -0.55957
vt 0.37793 -0.59668
vt 0.97949 -0.29297
vt 0.97949 -0.44531
vt 0.91113 -0.63965
vt 0.98633 -0.38672
vt 0.98633 -0.77930
vt 0.91992 -0.39258
vt 0.96289 -0.02148
vt 0.87500 -0.68945
vt 0.89746 -0.82031
vt 0.96875 -0.91016
vt 0.89258 -0.46094
vt 0.89551 -0.54980
vt 0.97949 -0.55957
vt 0.96973 -0.85547
vt 0.71484 -0.52246
vt 0.73926 -0.60449
vt 0.68848 -0.53125
vt 0.74121 -0.52051
vt 0.55371 -0.55176
vt 0.36426 -0.75293
vt 0.63965 -0.53125
vt 0.63379 -0.44336
vt 0.64453 -0.36426
vt 0.93164 -0.81348
vt 0.97852 -0.61133
vt 0.97852 -0.81250
vt 0.92676 -0.61035
vt 0.97852 -0.43359
vt 0.92090 -0.43359
vt 0.97852 -0.29980
vt 0.74023 -0.61133
vt 0.72266 -0.64844
vt 0.76465 -0.56738
vt 0.79004 -0.54688
vt 0.91699 -0.30176
vt 0.97461 -0.13574
vt -0.00293 -0.55664
vt 0.13965 -0.91113
vt 0.01270 -0.91602
vt 0.24609 -0.65723
vt 0.35352 -0.55664
vt 0.69824 -0.55859
vt 0.77344 -0.53027
vt 0.91406 -0.13477
vt -0.00293 -0.26855
vt 0.25293 -0.30566
vt 0.55664 -0.68945
vt 0.45312 -0.56348
vt 0.55664 -0.62500
vt 0.35938 -0.55957
vt 0.42871 -0.71094
vt 0.90723 -0.86523
vt 0.97852 -0.90918
vt 0.93457 -0.87988
vt 0.42676 -0.51172
vt 0.04590 -0.63574
vt 0.02832 -0.59570
vt 0.03320 -0.63672
vt 0.08691 -0.58398
vt 0.08594 -0.15625
vt 0.07715 -0.95117
vt 0.13770 -0.84180
vt 0.14258 -0.98633
# 491 texture vertices

usemtl mat1.png
f 1/3 2/2 3/1
f 2/2 4/4 3/1
f 5/7 6/6 7/5
f 6/6 8/8 7/5
f 6/11 9/10 8/9
f 9/10 10/12 8/9
f 11/4 12/2 13/1
f 12/2 14/3 13/1
f 15/8 16/6 17/5
f 16/6 18/7 17/5
f 10/12 9/10 15/9
f 9/10 16/11 15/9
usemtl mat2.png
f 21/15 20/14 19/13
f 20/14 22/16 19/13
f 25/19 24/18 23/17
f 24/18 26/20 23/17
f 23/17 26/20 27/21
f 21/24 28/23 20/22
f 28/23 29/25 20/22
f 20/22 29/25 22/26
f 29/25 30/27 22/26
f 29/25 31/28 30/27
f 31/28 32/25 30/27
f 30/27 32/25 33/26
f 32/25 34/22 33/26
f 22/31 30/30 35/29
f 30/30 33/31 35/29
f 35/29 33/31 19/32
f 26/35 36/34 27/33
f 36/34 37/36 27/33
f 27/33 37/36 38/34
f 41/39 40/38 39/37
f 40/38 42/40 39/37
f 39/37 42/40 43/38
f 41/43 45/42 44/41
f 45/42 46/44 44/41
f 44/41 46/44 28/45
f 46/44 47/46 28/45
f 28/45 47/46 29/47
f 47/46 31/48 29/47
f 41/51 48/50 45/49
f 48/50 49/51 45/49
f 26/54 24/53 36/52
f 24/53 50/55 36/52
f 53/58 52/57 51/56
f 52/57 54/59 51/56
f 57/62 56/61 55/60
f 56/61 58/63 55/60
f 60/65 54/59 59/64
f 54/59 52/57 59/64
f 56/61 61/66 58/63
f 61/66 62/67 58/63
f 65/70 64/69 63/68
f 64/69 66/71 63/68
f 63/68 66/71 67/72
f 69/74 63/68 68/73
f 63/68 67/72 68/73
f 68/73 67/72 70/75
f 70/75 71/76 68/73
f 71/76 72/77 68/73
f 24/80 25/79 40/78
f 25/79 42/81 40/78
f 24/83 28/23 50/82
f 28/23 21/24 50/82
f 73/15 19/13 34/14
f 19/13 33/16 34/14
f 25/19 23/17 74/18
f 23/17 75/20 74/18
f 49/43 76/41 45/42
f 76/41 46/44 45/42
f 47/46 46/44 77/45
f 46/44 76/41 77/45
f 31/48 47/46 32/47
f 47/46 77/45 32/47
f 78/55 74/53 38/52
f 74/53 75/54 38/52
f 42/81 25/79 43/78
f 25/79 74/80 43/78
f 32/25 77/23 34/22
f 77/23 73/24 34/22
f 81/58 80/56 79/57
f 80/56 82/59 79/57
f 79/57 82/59 83/64
f 82/59 84/65 83/64
f 87/62 86/60 85/61
f 86/60 88/63 85/61
f 85/61 88/63 89/66
f 88/63 90/67 89/66
f 73/24 77/23 78/82
f 77/23 74/83 78/82
f 93/70 92/68 91/69
f 92/68 94/71 91/69
f 94/71 92/68 95/72
f 92/68 96/73 95/72
f 95/72 96/73 97/75
f 96/73 98/76 97/75
f 19/32 22/31 35/29
f 24/85 44/84 28/23
f 101/88 100/87 99/86
f 100/87 101/88 102/89
f 40/92 41/91 44/90
f 40/95 44/94 24/93
f 38/34 75/35 27/33
f 23/17 27/21 75/20
f 43/38 49/39 39/37
f 74/85 77/23 76/84
f 105/88 104/86 103/87
f 106/74 96/73 92/68
f 98/76 96/73 107/77
f 103/87 108/89 105/88
f 43/92 76/90 49/91
f 43/95 74/93 76/94
usemtl mat6.png
f 111/98 110/97 109/96
f 110/97 112/99 109/96
f 115/102 114/101 113/100
f 114/101 116/103 113/100
f 118/106 117/105 112/104
f 117/105 113/107 112/104
f 120/110 119/109 116/108
f 119/109 121/111 116/108
f 124/114 123/113 122/112
f 123/113 125/115 122/112
f 122/112 125/115 126/116
f 129/98 128/96 127/97
f 128/96 130/99 127/97
f 127/97 130/99 131/117
f 134/102 133/100 132/101
f 133/100 135/103 132/101
f 132/101 135/103 136/118
f 131/106 130/104 137/105
f 130/104 133/107 137/105
f 137/105 133/107 134/119
f 136/110 135/108 138/109
f 135/108 139/111 138/109
f 138/109 139/111 140/120
f 143/114 142/112 141/113
f 142/112 144/115 141/113
f 111/123 118/122 110/121
f 118/117 112/99 110/97
f 113/107 117/105 115/119
f 116/103 114/101 120/118
f 118/123 115/122 117/121
f 115/123 120/122 114/121
f 119/109 145/120 121/111
f 120/123 145/122 119/121
f 148/112 147/113 146/115
f 150/112 146/113 149/115
f 151/112 125/113 147/115
f 149/114 152/113 150/112
f 153/115 146/116 150/112
f 147/114 154/113 151/112
f 154/126 126/125 151/124
f 126/115 125/116 151/112
f 122/124 126/126 124/125
f 146/114 153/113 148/112
f 153/126 154/125 148/124
f 154/115 147/116 148/112
f 150/124 152/126 153/125
f 129/123 127/121 131/122
f 131/123 137/121 134/122
f 134/123 132/121 136/122
f 136/123 138/121 140/122
f 157/112 156/115 155/113
f 159/112 158/115 156/113
f 160/112 155/115 144/113
f 158/114 159/112 161/113
f 162/115 159/112 156/116
f 155/114 160/112 163/113
f 163/126 160/124 164/125
f 164/115 160/112 144/116
f 142/124 143/125 164/126
f 144/115 142/112 164/116
f 156/114 157/112 162/113
f 162/126 157/124 163/125
f 163/115 157/112 155/116
f 159/124 162/125 161/126
usemtl mat3.png
f 167/129 166/128 165/127
f 166/128 168/130 165/127
f 171/133 170/132 169/131
f 170/132 172/134 169/131
f 175/137 174/136 173/135
f 174/136 176/138 173/135
f 173/135 176/138 177/139
f 176/138 178/140 177/139
f 181/143 180/142 179/141
f 180/142 182/144 179/141
f 179/141 182/144 183/145
f 182/144 184/146 183/145
f 186/148 172/134 185/147
f 172/134 187/149 185/147
f 185/147 187/149 166/150
f 187/149 170/132 166/150
f 166/150 170/132 168/151
f 170/132 171/133 168/151
f 175/154 188/153 174/152
f 188/153 181/155 174/152
f 191/158 190/157 189/156
f 190/157 192/159 189/156
f 189/156 192/159 193/160
f 196/163 195/162 194/161
f 195/162 197/164 194/161
f 200/167 199/166 198/165
f 199/166 201/168 198/165
f 198/165 201/168 202/166
f 201/168 203/169 202/166
f 165/172 204/171 167/170
f 204/171 205/173 167/170
f 167/170 205/173 206/171
f 208/175 181/155 207/174
f 181/155 188/153 207/174
f 207/174 188/153 209/176
f 188/153 210/177 209/176
f 209/176 210/177 211/153
f 214/180 213/179 212/178
f 213/179 215/181 212/178
f 212/178 215/181 216/182
f 215/181 217/183 216/182
f 208/175 207/174 218/184
f 207/174 209/176 218/184
f 218/184 209/176 219/174
f 209/176 211/153 219/174
f 221/185 220/185 213/179
f 220/185 215/181 213/179
f 220/185 222/186 215/181
f 222/186 223/187 215/181
f 215/181 223/187 217/183
f 225/189 166/128 224/188
f 166/128 167/129 224/188
f 224/188 167/129 226/128
f 167/129 227/127 226/128
f 226/128 227/127 228/130
f 199/192 230/191 229/190
f 230/191 231/193 229/190
f 233/172 200/171 232/170
f 200/171 198/173 232/170
f 232/170 198/173 234/171
f 236/172 233/171 235/170
f 233/171 232/173 235/170
f 235/170 232/173 237/171
f 174/136 181/143 176/138
f 181/143 179/141 176/138
f 176/138 179/141 178/140
f 179/141 183/145 178/140
f 171/195 186/148 238/194
f 186/148 185/147 238/194
f 238/194 185/147 225/196
f 185/147 166/150 225/196
f 204/172 236/171 205/170
f 236/171 235/173 205/170
f 205/170 235/173 239/171
f 208/163 218/162 196/161
f 218/162 195/164 196/161
f 194/163 197/162 240/161
f 197/162 241/164 240/161
f 175/199 238/198 188/197
f 238/198 225/189 188/197
f 188/197 225/189 210/200
f 225/189 224/188 210/200
f 210/200 224/188 242/189
f 224/188 226/128 242/189
f 199/166 229/169 201/168
f 229/169 243/201 201/168
f 201/168 243/201 203/169
f 210/200 242/189 211/197
f 242/189 244/198 211/197
f 211/197 244/198 245/199
f 247/136 245/137 246/135
f 245/137 248/139 246/135
f 246/135 248/139 249/138
f 248/139 250/140 249/138
f 249/138 250/140 251/141
f 250/140 252/145 251/141
f 251/141 252/145 253/144
f 252/145 254/146 253/144
f 253/144 254/146 255/142
f 253/144 255/142 251/141
f 255/142 256/143 251/141
f 251/141 256/143 249/138
f 256/143 247/136 249/138
f 249/138 247/136 246/135
f 228/151 258/133 257/132
f 258/133 259/131 257/132
f 257/132 259/131 260/134
f 262/149 261/147 226/150
f 261/147 242/196 226/150
f 245/154 247/152 211/153
f 247/152 256/155 211/153
f 211/153 256/155 219/174
f 256/155 263/175 219/174
f 219/174 263/175 218/184
f 266/160 265/159 264/156
f 265/159 267/157 264/156
f 264/156 267/157 268/158
f 270/163 269/161 195/162
f 269/161 197/164 195/162
f 273/180 272/178 271/179
f 272/178 274/181 271/179
f 271/179 274/181 275/185
f 274/181 276/186 275/185
f 278/202 277/182 272/178
f 277/182 274/181 272/178
f 231/193 230/191 203/190
f 230/191 202/192 203/190
f 277/182 279/183 274/181
f 279/183 280/187 274/181
f 274/181 280/187 276/186
f 258/195 244/194 281/148
f 244/194 261/147 281/148
f 281/148 261/147 260/134
f 261/147 262/149 260/134
f 260/134 262/149 257/132
f 262/149 226/150 257/132
f 257/132 226/150 228/151
f 195/164 218/162 270/161
f 218/162 263/163 270/161
f 269/163 282/161 197/162
f 282/161 241/164 197/162
f 216/182 283/202 212/178
f 177/139 175/137 173/135
f 170/132 187/149 172/134
f 184/146 182/144 180/142
f 261/147 244/194 242/196
f 202/166 234/167 198/165
f 206/171 227/172 167/170
f 275/185 284/185 271/179
f 234/171 237/172 232/170
f 237/171 239/172 235/170
f 239/171 206/172 205/170
usemtl mat5.png
f 287/205 286/204 285/203
f 286/204 288/206 285/203
f 285/203 288/206 289/204
f 292/209 291/208 290/207
f 291/208 293/210 290/207
f 296/213 295/212 294/211
f 295/212 297/214 294/211
f 294/211 297/214 298/215
f 297/214 299/216 298/215
f 298/215 299/216 300/217
f 303/220 302/219 301/218
f 302/219 292/209 301/218
f 291/223 304/222 293/221
f 304/222 302/224 293/221
f 293/221 302/224 303/225
f 307/228 306/227 305/226
f 306/227 308/228 305/226
f 311/231 310/230 309/229
f 310/230 312/232 309/229
f 314/234 313/233 311/231
f 313/233 315/235 311/231
f 311/231 315/235 310/230
f 315/235 316/231 310/230
f 310/230 316/231 317/229
f 320/238 319/237 318/236
f 319/237 321/239 318/236
f 320/242 322/241 319/240
f 322/241 323/243 319/240
f 319/240 323/243 324/244
f 326/247 318/246 325/245
f 318/246 321/248 325/245
f 325/245 321/248 327/249
f 330/252 329/251 328/250
f 329/251 325/253 328/250
f 333/256 332/255 331/254
f 332/255 334/257 331/254
f 331/254 334/257 335/256
f 334/257 336/255 335/256
f 339/260 338/259 337/258
f 338/259 340/261 337/258
f 329/251 341/262 325/253
f 341/262 326/263 325/253
f 344/266 343/265 342/264
f 343/265 345/267 342/264
f 342/264 345/267 346/268
f 345/267 347/269 346/268
f 346/268 347/269 348/267
f 347/269 349/270 348/267
f 348/267 349/270 350/271
f 347/269 345/267 349/270
f 345/267 351/271 349/270
f 354/209 353/207 352/208
f 353/207 355/210 352/208
f 358/213 357/211 356/212
f 357/211 359/214 356/212
f 362/217 361/216 360/215
f 361/216 359/214 360/215
f 360/215 359/214 357/211
f 365/220 364/218 363/219
f 364/218 354/209 363/219
f 352/223 355/221 366/222
f 355/221 363/224 366/222
f 367/234 316/231 313/233
f 316/231 315/235 313/233
f 370/238 369/236 368/237
f 369/236 371/239 368/237
f 368/237 371/239 372/272
f 370/242 368/240 373/241
f 368/240 374/243 373/241
f 376/247 375/245 369/246
f 375/245 371/248 369/246
f 379/252 378/250 377/251
f 378/250 375/253 377/251
f 377/251 375/253 380/262
f 375/253 376/263 380/262
f 383/256 382/254 381/255
f 382/254 384/257 381/255
f 381/255 384/257 385/273
f 382/254 386/256 384/257
f 386/256 387/255 384/257
f 384/257 387/255 385/273
f 390/260 389/258 388/259
f 389/258 391/261 388/259
f 346/268 348/267 342/264
f 348/267 392/265 342/264
f 342/264 392/265 344/266
f 395/276 394/275 393/274
f 394/275 396/277 393/274
f 399/280 398/279 397/278
f 398/279 400/274 397/278
f 397/278 400/274 401/281
f 404/284 403/283 402/282
f 403/283 405/285 402/282
f 402/282 405/285 406/286
f 409/285 408/287 407/286
f 408/287 410/288 407/286
f 413/291 412/290 411/289
f 412/290 414/292 411/289
f 411/289 414/292 415/293
f 414/292 416/294 415/293
f 419/297 418/296 417/295
f 418/296 420/298 417/295
f 417/295 420/298 421/299
f 424/302 423/301 422/300
f 423/301 425/303 422/300
f 422/300 425/303 426/304
f 429/307 428/306 427/305
f 428/306 430/308 427/305
f 427/305 430/308 431/309
f 430/308 432/310 431/309
f 435/313 434/312 433/311
f 438/316 437/315 436/314
f 441/316 440/315 439/314
f 444/316 443/315 442/314
f 447/316 446/315 445/314
f 450/316 449/315 448/314
f 453/316 452/315 451/314
f 456/316 455/315 454/314
f 459/316 458/315 457/314
f 462/319 461/318 460/317
f 465/318 464/319 463/317
f 468/318 467/319 466/317
f 471/318 470/319 469/317
f 474/318 473/319 472/317
f 477/319 476/318 475/317
f 480/319 479/318 478/317
f 483/319 482/318 481/317
f 486/322 485/321 484/320
f 489/322 488/321 487/320
f 492/322 491/321 490/320
f 495/322 494/321 493/320
f 498/325 497/324 496/323
f 501/323 500/325 499/324
f 504/325 503/324 502/323
f 319/237 505/272 321/239
f 300/328 299/327 296/326
f 506/273 336/255 334/257
f 506/273 334/257 332/255
f 509/331 508/330 507/329
f 512/334 511/333 510/332
f 515/337 514/336 513/335
f 518/339 517/337 516/338
f 521/337 520/341 519/340
f 524/333 523/332 522/342
f 527/335 526/337 525/336
f 530/324 529/323 528/325
f 533/313 532/312 531/311
f 536/313 535/312 534/311
f 539/313 538/312 537/311
f 351/271 540/343 349/270
f 343/265 351/271 345/267
f 543/313 542/311 541/312
f 287/205 285/203 289/204
f 355/221 365/225 363/224
f 310/230 317/229 312/232
f 546/316 545/314 544/315
f 549/316 548/314 547/315
f 552/316 551/314 550/315
f 555/316 554/314 553/315
f 558/316 557/314 556/315
f 561/316 560/314 559/315
f 564/316 563/314 562/315
f 567/316 566/314 565/315
f 570/319 569/317 568/318
f 573/318 572/317 571/319
f 576/318 575/317 574/319
f 579/318 578/317 577/319
f 582/318 581/317 580/319
f 585/319 584/317 583/318
f 588/319 587/317 586/318
f 591/319 590/317 589/318
f 594/322 593/320 592/321
f 597/322 596/320 595/321
f 600/322 599/320 598/321
f 603/322 602/320 601/321
f 606/325 605/323 604/324
f 609/323 608/324 607/325
f 612/325 611/323 610/324
f 613/249 371/248 375/245
f 374/243 368/240 614/244
f 362/328 358/326 361/327
f 617/331 616/329 615/330
f 620/334 619/332 618/333
f 623/337 622/335 621/336
f 626/339 625/338 624/337
f 629/337 628/340 627/341
f 632/333 631/342 630/332
f 635/335 634/336 633/337
f 638/324 637/325 636/323
f 641/313 640/311 639/312
f 644/313 643/311 642/312
f 647/313 646/311 645/312
f 350/271 349/270 540/343
f 392/265 348/267 350/271
f 650/346 649/345 648/344
f 653/346 652/345 651/344
f 656/346 655/345 654/344
f 659/346 658/345 657/344
f 662/346 661/345 660/344
f 665/346 664/345 663/344
f 668/346 667/345 666/344
f 671/349 670/348 669/347
f 674/349 673/348 672/347
f 677/345 676/350 675/346
f 680/346 679/344 678/345
f 681/284 410/288 408/287
f 684/349 683/348 682/347
f 687/344 686/346 685/345
f 690/344 689/346 688/345
f 693/353 692/352 691/351
f 696/353 695/352 694/351
f 699/356 698/355 697/354
f 702/356 701/355 700/354
f 705/356 704/355 703/354
f 708/356 707/355 706/354
f 711/359 710/358 709/357
f 714/362 713/361 712/360
f 717/365 716/364 715/363
f 720/368 719/367 718/366
f 394/275 721/369 396/277
f 421/299 722/370 417/295
f 426/304 723/371 422/300
usemtl mat4.png
f 726/374 725/373 724/372
f 725/373 727/375 724/372
f 724/372 727/375 728/376
f 731/379 730/378 729/377
f 730/378 732/379 729/377
f 735/382 734/381 733/380
f 734/381 736/383 733/380
f 739/386 738/385 737/384
f 738/385 740/387 737/384
f 737/384 740/387 741/388
f 740/387 731/389 741/388
f 741/388 731/389 742/390
f 731/389 743/391 742/390
f 742/390 743/391 738/385
f 743/391 744/392 738/385
f 738/385 744/392 745/393
f 738/385 739/386 742/390
f 739/386 746/394 742/390
f 742/390 746/394 747/395
f 746/394 748/396 747/395
f 742/390 747/395 741/388
f 747/395 737/384 741/388
f 751/399 750/398 749/397
f 750/398 752/400 749/397
f 749/397 752/400 753/401
f 752/400 754/402 753/401
f 753/401 754/402 755/403
f 758/406 757/405 756/404
f 757/405 759/407 756/404
f 756/404 759/407 760/408
f 756/411 751/410 758/409
f 751/410 761/412 758/409
f 763/414 762/413 734/381
f 762/413 725/415 734/381
f 734/381 725/415 736/383
f 725/415 764/416 736/383
f 766/418 762/413 765/417
f 762/413 763/414 765/417
f 765/417 763/414 753/401
f 763/414 734/381 753/401
f 753/401 734/381 749/397
f 734/381 735/382 749/397
f 749/397 735/382 751/399
f 735/382 767/419 751/399
f 751/399 767/419 761/420
f 767/419 755/403 761/420
f 731/389 740/387 745/393
f 740/387 738/385 745/393
f 770/423 769/422 768/421
f 769/422 771/424 768/421
f 768/421 771/424 772/425
f 771/424 773/426 772/425
f 772/425 773/426 774/427
f 773/426 775/425 774/427
f 774/427 775/425 776/428
f 775/425 768/421 776/428
f 776/428 768/421 772/425
f 770/423 768/421 777/429
f 768/421 778/430 777/429
f 728/433 780/432 779/431
f 780/432 781/434 779/431
f 779/431 781/434 782/432
f 781/434 783/435 782/432
f 728/433 779/431 784/436
f 779/431 785/433 784/436
f 784/436 785/433 786/437
f 785/433 787/438 786/437
f 786/437 787/438 728/433
f 778/430 768/421 788/439
f 768/421 789/430 788/439
f 788/439 789/430 790/440
f 789/430 791/441 790/440
f 790/440 791/441 792/442
f 795/445 794/444 793/443
f 794/444 796/446 793/443
f 797/447 726/374 731/379
f 726/374 724/372 731/379
f 731/379 724/372 730/378
f 724/372 798/448 730/378
f 730/378 798/448 799/372
f 798/448 785/376 799/372
f 799/372 785/376 800/375
f 728/451 787/450 798/449
f 787/450 785/451 798/449
f 803/454 802/453 801/452
f 802/453 804/455 801/452
f 801/452 804/455 805/453
f 804/455 806/456 805/453
f 802/453 807/456 804/455
f 807/456 808/457 804/455
f 804/455 808/457 806/456
f 808/457 809/458 806/456
f 811/460 810/459 794/444
f 810/459 812/461 794/444
f 794/444 812/461 813/462
f 807/456 814/458 808/457
f 814/458 815/463 808/457
f 808/457 815/463 809/458
f 815/463 816/464 809/458
f 728/467 727/466 780/465
f 727/466 817/468 780/465
f 780/465 817/468 818/469
f 767/419 735/382 765/417
f 735/382 733/380 765/417
f 739/386 810/459 746/394
f 810/459 811/460 746/394
f 746/394 811/460 748/396
f 811/460 794/444 748/396
f 748/396 794/444 819/470
f 794/444 795/445 819/470
f 796/446 794/444 820/471
f 794/444 813/462 820/471
f 814/458 821/464 815/463
f 821/464 822/472 815/463
f 815/463 822/472 816/464
f 823/474 783/473 818/469
f 783/473 780/465 818/469
f 824/477 731/476 821/475
f 731/476 729/478 821/475
f 821/475 729/478 822/479
f 729/478 816/475 822/479
f 825/441 790/440 823/442
f 790/440 783/480 823/442
f 788/439 790/440 778/430
f 790/440 825/441 778/430
f 803/454 801/452 826/481
f 801/452 827/482 826/481
f 771/424 769/422 773/426
f 769/422 828/483 773/426
f 773/426 828/483 829/422
f 830/486 750/485 756/484
f 750/485 751/487 756/484
f 755/403 767/419 753/401
f 767/419 765/417 753/401
f 800/375 831/373 799/372
f 831/373 832/374 799/372
f 799/372 832/374 732/379
f 832/374 833/447 732/379
f 836/414 835/417 834/401
f 835/417 837/419 834/401
f 834/401 837/419 838/403
f 837/419 839/420 838/403
f 842/386 841/384 840/385
f 841/384 843/387 840/385
f 840/385 843/387 844/393
f 843/387 845/388 844/393
f 844/393 845/388 732/389
f 845/388 846/390 732/389
f 732/389 846/390 847/391
f 846/390 840/385 847/391
f 847/391 840/385 848/392
f 840/385 844/393 848/392
f 840/385 846/390 842/386
f 846/390 849/394 842/386
f 842/386 849/394 850/459
f 849/394 851/460 850/459
f 850/459 851/460 852/444
f 851/460 853/396 852/444
f 852/444 853/396 854/470
f 849/394 846/390 855/395
f 846/390 845/388 855/395
f 855/395 845/388 841/384
f 845/388 843/387 841/384
f 858/398 857/399 856/397
f 857/399 859/382 856/397
f 856/397 859/382 860/381
f 859/382 861/380 860/381
f 860/381 861/380 862/383
f 864/400 834/401 863/402
f 834/401 838/403 863/402
f 867/406 866/404 865/405
f 866/404 868/407 865/405
f 866/411 867/409 857/410
f 867/409 839/412 857/410
f 869/413 860/381 831/415
f 860/381 862/383 831/415
f 831/415 862/383 870/416
f 871/418 835/417 869/413
f 835/417 836/414 869/413
f 869/413 836/414 860/381
f 836/414 834/401 860/381
f 860/381 834/401 856/397
f 834/401 864/400 856/397
f 856/397 864/400 858/398
f 872/423 768/421 829/422
f 768/421 873/424 829/422
f 829/422 873/424 773/426
f 873/424 775/425 773/426
f 789/430 768/421 874/429
f 768/421 872/423 874/429
f 854/470 875/445 852/444
f 875/445 876/443 852/444
f 852/444 876/443 877/446
f 805/453 878/454 801/452
f 878/454 879/481 801/452
f 801/452 879/481 827/482
f 881/468 782/465 880/469
f 782/465 783/473 880/469
f 880/469 783/473 792/474
f 785/467 782/465 800/466
f 782/465 881/468 800/466
f 861/380 859/382 835/417
f 859/382 837/419 835/417
f 851/460 849/394 853/396
f 849/394 855/395 853/396
f 877/446 882/471 852/444
f 882/471 883/462 852/444
f 852/444 883/462 884/461
f 839/420 837/419 857/399
f 837/419 859/382 857/399
f 868/407 866/404 885/408
f 866/404 886/488 885/408
f 887/477 816/475 732/476
f 816/475 729/478 732/476
f 857/487 858/485 866/484
f 858/485 886/486 866/484
f 776/428 772/425 774/427
f 724/372 728/376 798/448
f 783/435 781/434 780/432
f 728/433 784/436 786/437
f 725/491 817/490 727/489
f 760/408 830/488 756/404
f 782/432 785/433 779/431
f 831/491 800/489 881/490
f 873/424 768/421 775/425
f 730/378 799/372 732/379
f 884/461 850/459 852/444
f 792/442 783/480 790/440
# 778 elements

