# Created by Metasequoia

mtllib Model.mtl

v -0.000168 10.520070 3.216024
v -0.000051 10.147460 2.578322
v 0.000120 11.465550 1.746034
v 0.000135 10.900820 1.172057
v 0.000323 8.200490 3.725480
v -0.000134 8.197946 3.132192
v -0.000005 5.752781 3.054375
v 0.000111 6.219141 2.517803
v -0.000099 4.724363 1.536355
v 0.000280 5.283167 1.171951
v 0.662099 9.949328 2.355148
v 0.874146 9.824936 1.172114
v 0.873920 9.357886 1.971519
v 0.662090 10.639610 1.172254
v -0.000051 10.147460 2.578322
v 0.000135 10.900820 1.172057
v -0.661739 9.949054 2.355350
v -0.662239 10.639540 1.172017
v -0.874272 9.357882 1.971658
v -0.874043 9.824489 1.172045
v 0.661928 8.189161 2.779825
v 0.874287 8.167804 2.258707
v -0.000134 8.197946 3.132192
v -0.661914 8.189095 2.779586
v -0.873908 8.168006 2.258403
v 0.661924 6.390628 2.261717
v 0.874248 6.952201 1.908413
v 0.000111 6.219141 2.517803
v -0.661917 6.390561 2.261477
v -0.873941 6.951754 1.908344
v 0.662121 5.606919 1.172129
v 0.873924 6.421970 1.172100
v 0.000280 5.283167 1.171951
v -0.661724 5.607294 1.172097
v -0.874271 6.422173 1.171797
v 0.018203 12.633260 0.364322
v -0.019535 13.161060 -1.715322
v 0.019412 11.932890 -0.363167
v -0.019438 13.919770 -0.946239
v 0.029073 11.636920 -0.493358
v -0.030537 10.924830 -3.830170
v 0.031182 10.126300 -1.037073
v -0.030561 12.547400 -3.269001
v 0.021161 9.681805 -0.781992
v -0.022256 9.181484 -3.215838
v 0.022993 8.584638 -1.185691
v -0.022395 10.360490 -2.797865
v 0.018307 8.154148 -0.891321
v -0.019272 8.020588 -3.021088
v 0.019427 7.269335 -1.366596
v -0.019431 8.972575 -2.524610
v 0.012845 6.496684 -1.366520
v -0.013700 6.564630 -2.882167
v 0.014116 5.907512 -1.769684
v -0.013833 7.199769 -2.458564
v 1.289504 13.173530 5.927600
v 1.405781 13.260940 5.917926
v 1.401325 13.194430 5.852543
v 1.289423 13.219310 5.991408
v 1.176551 13.195980 5.851507
v 1.171224 13.260510 5.918208
v -1.305674 13.217030 5.994016
v -1.417616 13.194320 5.855673
v -1.422475 13.259460 5.918972
v -1.305593 13.172830 5.928772
v -1.187921 13.260550 5.918807
v -1.192824 13.195490 5.855811
v 1.483955 13.445890 5.740788
v 1.481248 13.393830 5.692050
v 1.095195 13.392570 5.693195
v 1.093021 13.444550 5.741791
v 1.800274 13.295420 6.080478
v 1.837157 13.110360 6.149035
v 1.670176 12.898450 6.638207
v 1.602154 13.174840 6.603010
v 1.043130 13.174830 6.603088
v 0.975314 12.898230 6.638132
v 0.808052 13.110460 6.148883
v 0.844957 13.295620 6.080241
v 1.336310 12.614760 3.346245
v 1.336246 11.773540 3.552446
v 1.375930 12.176680 5.251860
v 1.336089 13.044160 5.039914
v -1.499633 13.446400 5.744822
v -1.499100 13.394180 5.696356
v -1.108767 13.446010 5.743248
v -1.110675 13.393810 5.694858
v -1.802268 13.295780 6.080458
v -1.603910 13.175160 6.603032
v -1.671996 12.898590 6.637990
v -1.839266 13.110500 6.149127
v -1.044897 13.174730 6.603170
v -0.846960 13.295860 6.080519
v -0.809694 13.110530 6.148880
v -0.977135 12.898580 6.638147
v -1.337503 12.614990 3.346518
v -1.337691 13.044390 5.040198
v -1.377752 12.177170 5.251808
v -1.337360 11.773800 3.552360
v 1.226657 5.952411 -0.643359
v 2.681705 4.145539 -0.756145
v 1.922216 5.308430 -1.519526
v 1.862856 4.880366 1.422720
v 1.844004 6.845152 -0.236917
v 3.093457 6.093125 1.622908
v 2.563058 6.409400 -1.098091
v 4.079505 5.612511 0.112870
v 3.837846 0.198643 -0.416758
v 4.088545 -0.000645 3.244233
v 5.922917 -0.000750 2.297359
v 2.934312 0.246492 0.001297
v 3.848583 0.535173 -0.529512
v 2.850009 0.563399 -0.042705
v 3.564387 1.252849 -0.027161
v 2.586911 2.468190 1.209773
v 3.150571 0.729066 0.767617
v 3.327808 2.857444 0.158857
v 4.484631 0.723870 0.181932
v 4.563398 2.480945 0.222596
v 3.162672 3.349361 2.068606
v 4.389898 4.170197 2.381852
v 4.772566 3.350783 1.367045
v 3.168733 3.704212 0.048582
v 2.579120 11.107230 0.814746
v 3.462683 9.891881 1.376102
v 2.367536 10.538430 1.255272
v 3.877381 10.609450 0.768727
v 2.374768 10.832630 0.173819
v 3.599018 10.225880 -0.247409
v 2.229031 10.221980 0.629692
v 3.212759 9.334232 0.562142
v 4.675208 9.918770 0.818289
v 4.666257 9.614730 -0.050205
v 4.326188 9.069075 0.363627
v 4.912643 8.834939 2.073964
v 4.120960 9.461810 1.169053
v 5.356194 9.104622 2.022549
v 4.843571 9.422494 0.245370
v 5.778024 8.724489 1.747865
v 5.259298 8.505044 1.764648
v 5.988204 8.205940 3.587715
v 4.914253 8.657007 3.088863
v 5.931028 8.649179 3.062866
v 4.844125 8.185461 3.586506
v 6.071865 7.512749 3.619529
v 4.808843 7.512691 3.599242
v 4.319703 8.200702 2.799753
v 4.808695 8.751595 2.853454
v 4.503689 8.145720 2.966383
v 4.656436 8.761730 2.358642
v 4.374073 7.947219 2.688111
v 4.671342 8.134151 2.238683
v 5.997421 8.161520 3.075799
v 4.792673 7.393563 3.332434
v 6.091155 7.393511 3.321567
v 4.927758 8.166891 3.134815
v 5.841478 8.332912 2.048997
v 4.904190 8.235694 2.588194
v 4.557258 7.894248 2.866649
v -1.862514 4.880198 1.422285
v -1.922542 5.308141 -1.519241
v -2.681581 4.145806 -0.756428
v -1.227351 5.952125 -0.643353
v -3.093251 6.092800 1.622098
v -1.844184 6.844835 -0.236584
v -4.079104 5.611989 0.112471
v -2.563584 6.408873 -1.098685
v -2.935150 0.247023 0.001530
v -5.922131 0.000048 2.296062
v -4.087848 -0.000013 3.243434
v -3.838200 0.198784 -0.416528
v -2.850187 0.563382 -0.042603
v -3.849122 0.535250 -0.529938
v -3.327929 2.857386 0.158059
v -3.150767 0.729160 0.767203
v -2.586650 2.468106 1.209414
v -3.564333 1.252837 -0.027332
v -4.563302 2.481275 0.221827
v -4.484303 0.724102 0.181388
v -4.389140 4.170183 2.381079
v -3.162293 3.349623 2.068188
v -4.772245 3.351190 1.366504
v -3.168340 3.704141 0.047841
v -3.878256 10.610210 0.768833
v -2.367839 10.538780 1.255569
v -3.463543 9.892177 1.375828
v -2.579538 11.108080 0.814499
v -3.599237 10.226770 -0.247850
v -2.375203 10.832720 0.173507
v -3.213430 9.334393 0.561838
v -2.229849 10.222420 0.630001
v -4.667026 9.615541 -0.050719
v -4.676192 9.919661 0.817850
v -4.327098 9.069818 0.363221
v -5.357314 9.105261 2.022072
v -4.121813 9.462177 1.168697
v -4.913783 8.835486 2.073558
v -5.779642 8.725378 1.747703
v -4.844411 9.423366 0.244795
v -5.260079 8.505753 1.764534
v -4.845714 8.186215 3.586489
v -5.932492 8.649936 3.063094
v -4.915675 8.657772 3.088764
v -5.989824 8.206894 3.587559
v -4.810969 7.513422 3.599250
v -6.073545 7.513673 3.619398
v -4.658151 8.762252 2.358934
v -4.505102 8.146371 2.966344
v -4.810530 8.752357 2.853327
v -4.321061 8.201313 2.799716
v -4.672562 8.134780 2.238549
v -4.375907 7.947841 2.688056
v -4.929226 8.167628 3.134742
v -6.092762 7.394411 3.321408
v -4.794247 7.394239 3.332433
v -5.999393 8.162464 3.075579
v -4.905504 8.236394 2.588063
v -5.842665 8.333745 2.048692
v -4.558663 7.894885 2.866605
v 4.472446 2.840061 2.454122
v 4.674807 3.941187 2.956995
v 4.359023 3.310884 2.418394
v 1.635467 6.262397 -1.200258
v 2.933294 0.096266 -1.144397
v 3.155199 0.259984 -0.108153
v 3.618171 0.237451 -0.346947
v 3.339469 0.526418 -0.274124
v 5.800333 0.422572 2.222963
v 4.028364 1.204864 1.128469
v 4.070482 0.469036 3.118380
v 4.698010 -0.000935 3.802234
v 4.113592 -0.000886 3.230935
v 4.252763 0.442851 3.030629
v 4.459254 -0.000806 3.056319
v 4.986879 -0.000765 3.635446
v 4.494191 -0.000649 3.034820
v 4.603180 0.399900 2.860824
v 4.818321 -0.000845 2.867976
v 5.378263 -0.000731 3.502914
v 4.837759 -0.000549 2.861459
v 5.001030 0.382875 2.657666
v 5.241144 -0.000528 2.651122
v 5.732741 -0.000641 3.257526
v 5.250107 -0.000617 2.648030
v 5.328829 0.372874 2.491400
v 5.562761 -0.000699 2.485784
v 6.047009 -0.000639 3.024839
v 5.577337 -0.000837 2.475912
v 5.641038 0.403084 2.322237
v 5.886642 -0.000412 2.324217
v 3.473449 3.308417 0.789326
v 5.278696 6.873789 3.209154
v 5.437542 7.393574 3.359088
v 5.104931 7.393215 3.359251
v 5.260298 7.512661 3.597230
v 2.028613 10.861120 0.699831
v 4.962231 6.908354 3.266867
v 4.812864 7.393744 3.358988
v 4.948632 7.499707 3.565571
v 5.082913 7.393314 3.359234
v 5.620960 6.877742 3.211578
v 5.460535 7.393527 3.359081
v 5.620719 7.488399 3.580124
v 5.777018 7.393663 3.359032
v 5.928760 6.885943 3.214107
v 5.808339 7.393423 3.359098
v 5.936920 7.492704 3.577548
v 6.070041 7.393639 3.359454
v 4.397999 7.720970 3.082971
v 4.330294 8.186548 2.802019
v 4.494841 8.101233 2.926789
v 4.414235 7.951203 2.740051
v 5.844099 8.902020 2.362794
v 1.324914 12.695850 7.136818
v 1.324577 13.145440 6.803632
v 1.428151 12.927250 6.763094
v 1.221440 12.927420 6.763352
v 1.498626 12.718010 6.999602
v 1.529610 13.160760 6.685103
v 1.605445 12.977600 6.639753
v 1.150702 12.718560 6.999367
v 1.043981 12.977550 6.639760
v 1.119627 13.160960 6.685055
v -4.471699 2.840037 2.452954
v -4.674243 3.941481 2.955974
v -4.028168 1.205061 1.127660
v -4.358368 3.311336 2.417431
v -1.635491 6.262179 -1.200574
v -2.934163 0.096201 -1.143697
v -3.618551 0.237560 -0.346650
v -3.155767 0.260047 -0.108401
v -3.340037 0.526450 -0.274410
v -5.799326 0.423281 2.221303
v -4.069554 0.469582 3.117188
v -4.696275 -0.000139 3.800938
v -4.251408 0.443423 3.029638
v -4.112643 -0.000248 3.229711
v -4.457868 -0.000132 3.055251
v -4.985556 0.000052 3.633824
v -4.601807 0.400511 2.859736
v -4.493224 0.000023 3.033493
v -4.817338 -0.000143 2.866560
v -5.376894 0.000129 3.501173
v -5.000056 0.383521 2.656219
v -4.836773 0.000155 2.860037
v -5.240140 0.000212 2.649592
v -5.731379 0.000244 3.255701
v -5.327838 0.373551 2.489864
v -5.249102 0.000124 2.646497
v -5.561322 0.000073 2.484417
v -6.045658 0.000266 3.022941
v -5.640039 0.404272 2.320618
v -5.576317 -0.000067 2.474290
v -5.885856 0.000384 2.322929
v -3.473292 3.308270 0.788799
v -5.280287 6.874506 3.209105
v -5.106989 7.394425 3.359386
v -5.439141 7.394364 3.359012
v -5.261949 7.513444 3.597195
v -2.029001 10.861850 0.699650
v -5.845351 8.902731 2.362949
v -4.963827 6.909023 3.266862
v -4.950266 7.500433 3.565571
v -4.814445 7.394425 3.358988
v -5.084990 7.394069 3.359189
v -5.622561 6.878519 3.211488
v -5.622377 7.489241 3.580045
v -5.462135 7.394320 3.359003
v -5.778627 7.394511 3.358915
v -5.930369 6.886775 3.213980
v -5.938586 7.493601 3.577430
v -5.809949 7.394277 3.358978
v -6.071658 7.394538 3.359302
v -4.399958 7.721609 3.082965
v -4.496245 8.101877 2.926749
v -4.331654 8.187160 2.801982
v -4.415596 7.951810 2.740008
v -1.326482 12.696230 7.136568
v -1.429940 12.927380 6.763218
v -1.326284 13.145540 6.803703
v -1.223244 12.927770 6.763034
v -1.500576 12.718610 6.999308
v -1.607291 12.977910 6.639826
v -1.531142 13.161110 6.684749
v -1.152652 12.718480 6.999584
v -1.121645 13.161040 6.685111
v -1.045837 12.978130 6.639706
v 5.287283 9.403654 -1.189961
v 5.908624 8.705915 1.185616
v 5.687325 8.724342 1.806456
v 4.791534 9.422239 0.290272
v -5.288037 9.404303 -1.190402
v -4.792385 9.423104 0.289708
v -5.688665 8.725420 1.805974
v -5.909802 8.706988 1.185044
v 2.819860 13.795880 5.179814
v 2.691059 13.961320 5.139758
v 3.663748 14.807510 3.424735
v 1.949942 13.585800 5.693523
v 2.095908 13.813770 5.499195
v 2.185183 13.856550 5.028468
v 2.062588 13.605860 5.405418
v -0.041979 13.961410 5.139299
v -0.171178 13.796010 5.179023
v -1.015102 14.807430 3.423866
v 0.698993 13.585850 5.693188
v 0.553219 13.814150 5.499116
v 0.586379 13.605800 5.404799
v 0.463655 13.856470 5.028313
v -2.692735 13.961660 5.139977
v -2.821840 13.796320 5.179710
v -3.665214 14.808180 3.424666
v -1.951616 13.586080 5.693085
v -2.097467 13.814190 5.499027
v -2.064404 13.606080 5.404991
v -2.186853 13.856810 5.028678
v 0.169148 13.796040 5.179097
v 0.040248 13.961270 5.139385
v 1.013553 14.807190 3.423953
v -0.700682 13.585910 5.693048
v -0.554812 13.813790 5.499012
v -0.465370 13.856670 5.028014
v -0.588203 13.606330 5.404860
v 1.336164 14.986670 2.535249
v 1.335963 14.311230 2.536496
v 1.375937 14.234060 5.179113
v 1.336088 14.936150 5.178965
v 1.335597 13.696110 0.556401
v 1.335609 13.120160 0.909507
v 1.375897 14.241080 2.818284
v 1.335946 14.840640 2.452468
v 1.345580 3.096372 -22.935040
v 1.318815 7.513537 -23.395491
v 1.318484 7.530759 -24.744459
v 1.346400 3.135364 -24.215740
v 1.345427 1.984908 -22.934610
v 1.346002 1.946258 -24.215950
v 1.318713 -2.449521 -24.743641
v 1.319042 -2.432073 -23.395309
v 0.776461 2.553829 -22.406170
v -2.293581 2.527818 -22.867029
v -2.306622 2.527334 -24.215340
v 0.737609 2.554875 -23.687370
v 1.888423 2.554071 -22.406059
v 1.927243 2.554870 -23.687380
v 4.971381 2.526750 -24.215521
v 4.958522 2.526991 -22.867020
v 0.912153 2.553730 -24.662550
v -2.063772 2.527228 -25.392750
v -2.075822 2.527205 -26.741070
v 0.882580 2.554516 -25.943331
v 1.752472 2.553853 -24.662760
v 1.781519 2.554443 -25.943510
v 4.739517 2.526543 -26.741060
v 4.727635 2.526756 -25.392559
v 2.289587 14.260660 4.174065
v 0.358929 14.260530 4.173431
v 1.344154 13.292120 6.762189
v 1.328223 13.664360 7.105905
v 1.328338 13.968770 6.780015
v 1.344269 13.580760 6.461056
v -1.337428 14.987220 2.535578
v -1.337818 14.936700 5.178925
v -1.377892 14.234360 5.178768
v -1.337140 14.311770 2.536434
v -1.336634 13.696400 0.556154
v -1.337373 14.840650 2.452395
v -1.377094 14.241380 2.818318
v -1.336600 13.120480 0.909281
v -1.347711 3.096398 -22.934870
v -1.348787 3.135208 -24.216009
v -1.321261 7.531033 -24.744539
v -1.321238 7.513484 -23.395611
v -1.347632 1.985207 -22.935020
v -1.321084 -2.432033 -23.395250
v -1.320978 -2.449660 -24.744030
v -1.348605 1.946328 -24.215830
v -0.778707 2.553840 -22.406210
v -0.739938 2.554880 -23.687611
v 2.304087 2.527774 -24.215139
v 2.291096 2.527711 -22.866791
v -1.890828 2.553602 -22.406450
v -4.960944 2.526817 -22.867670
v -4.973853 2.526680 -24.216049
v -1.929294 2.554552 -23.687481
v -0.914614 2.553908 -24.662649
v -0.885114 2.554529 -25.943569
v 2.073232 2.527233 -26.740801
v 2.061194 2.527701 -25.392460
v -1.754942 2.553814 -24.662470
v -4.730346 2.526736 -25.393120
v -4.742279 2.526641 -26.741989
v -1.784116 2.554698 -25.943489
v -2.291527 14.261110 4.173744
v -0.360887 14.260870 4.173669
v -1.345930 13.292750 6.762084
v -1.346533 13.580700 6.461075
v -1.330189 13.968780 6.779931
v -1.330415 13.664410 7.105909
v 1.242285 3.821331 -7.542587
v -0.000142 3.058425 -3.863530
v 0.312392 2.884151 -7.361820
v 1.273025 4.185730 -4.561505
v 2.205776 2.884023 -7.351504
v 2.215779 3.054796 -3.859306
v 1.172020 1.850559 -7.378567
v 1.181362 2.116976 -3.657615
v 1.226803 1.895475 -14.086860
v 0.516305 2.591156 -14.115670
v -0.000106 4.107827 1.565809
v 0.411438 4.420395 1.750745
v 0.806719 4.163433 1.597383
v 0.000208 4.388090 1.796268
v -0.806696 4.163281 1.597564
v -0.411386 4.420506 1.750769
v 0.828249 10.584980 1.814154
v 0.004941 11.435930 1.202584
v -0.002607 11.677200 1.465531
v 0.872698 10.341820 1.183904
v 0.824357 7.830167 2.533440
v 0.860248 6.294239 1.136113
v 0.000151 2.341015 -1.472474
v 1.055560 2.499083 -1.430164
v -1.055330 2.499135 -1.430030
v 2.171595 7.778840 1.492414
v 1.341719 10.933290 1.428340
v 0.528442 11.943120 0.901157
v 1.323025 12.261070 2.291680
v 2.102438 11.626690 0.653692
v 1.894667 12.827950 1.640809
v 1.308236 12.676930 4.387327
v 1.860945 13.752370 3.065242
v 1.303601 13.053930 5.317563
v 1.945601 13.767960 5.279946
v 1.374837 12.460770 0.186654
v 1.373110 13.363620 1.138994
v 1.336055 14.390820 2.945984
v 1.375777 14.313510 5.443693
v 0.668812 12.827720 1.655388
v 0.712046 13.768230 3.091810
v 0.698293 13.721300 5.430178
v 1.197029 3.185608 -17.845390
v 0.744519 2.467836 -21.871260
v 1.223971 3.052174 -22.148100
v 0.625366 2.466502 -17.813869
v 1.212607 3.368728 -14.108250
v 1.256074 1.991672 -17.786461
v 1.288162 2.050813 -22.127159
v 1.946175 2.471345 -17.862789
v 1.846689 2.469781 -21.879881
v 2.036478 2.590336 -14.148370
v 1.776260 2.579889 -25.647141
v 1.382435 2.984390 -25.491980
v 0.939902 2.526875 -25.761000
v 1.354508 2.114430 -25.605200
v 1.324510 13.517660 6.113277
v 1.513140 13.462860 5.652734
v 1.289079 13.460810 5.628952
v 1.800543 13.365870 6.018842
v 1.324420 12.900030 6.831994
v 1.627354 12.988170 6.620374
v 0.848655 13.365690 6.018464
v 1.066013 13.464160 5.652336
v 1.021922 12.988090 6.620004
v 2.665482 11.785640 0.896328
v 2.035324 10.672980 1.438291
v 2.196343 11.515970 0.581818
v 2.413661 10.763220 1.657743
v 3.103410 11.165430 0.663496
v 2.770230 10.528280 1.431677
v 2.052766 10.117830 1.403807
v 2.399072 10.088640 1.394388
v 2.854145 10.424440 -0.182535
v 2.154931 10.696920 -0.197342
v 2.526180 10.710700 -0.561274
v 2.710550 11.705900 0.191141
v 2.216610 7.111358 -0.071537
v 2.525941 6.758590 1.829201
v 1.895389 6.531430 1.127591
v 3.313089 7.693716 0.078640
v 2.149257 6.814565 -0.685653
v 3.237909 7.361578 -0.991304
v 2.047582 6.287465 -1.197600
v 2.817650 6.336738 -1.966410
v 3.047893 6.109422 1.519095
v 3.733571 6.493543 0.194531
v 3.619839 6.286872 -0.587920
v 3.280987 5.792181 -1.344270
v -1.273480 4.185851 -4.561518
v -0.312893 2.883912 -7.361992
v -1.243243 3.821448 -7.542871
v -2.215938 3.054507 -3.859606
v -2.206931 2.883722 -7.351715
v -1.181280 2.116693 -3.657795
v -1.172477 1.850723 -7.378798
v -0.517801 2.591341 -14.115650
v -1.227981 1.895494 -14.087220
v -1.342410 10.933380 1.428572
v -0.824219 7.830364 2.533497
v -2.171542 7.778944 1.492349
v -0.828140 10.585110 1.814236
v -0.529467 11.943300 0.901337
v -1.895846 12.828100 1.640643
v -2.103190 11.626940 0.653817
v -1.324212 12.261540 2.291471
v -1.861858 13.752940 3.065331
v -1.309996 12.676880 4.387652
v -1.947238 13.768670 5.279683
v -1.304833 13.054140 5.317521
v -1.374341 13.364070 1.139147
v -1.375625 12.460870 0.186515
v -1.337543 14.390880 2.945995
v -1.377841 14.313840 5.443382
v -0.670013 12.827590 1.655059
v -0.713085 13.768040 3.091790
v -0.700361 13.721350 5.430007
v -0.626718 2.466509 -17.814030
v -1.225999 3.052602 -22.148230
v -0.747139 2.467704 -21.871519
v -1.198534 3.186054 -17.845320
v -1.214192 3.368575 -14.108160
v -1.290071 2.050975 -22.127460
v -1.257823 1.991794 -17.786610
v -1.848604 2.469869 -21.880060
v -1.947739 2.471218 -17.862961
v -2.037672 2.590533 -14.148540
v -1.385255 2.984301 -25.492001
v -1.779302 2.580158 -25.647160
v -0.942755 2.526807 -25.761391
v -1.356869 2.114318 -25.605459
v -1.802135 13.366220 6.018793
v -1.305130 13.460540 5.630706
v -1.529123 13.464670 5.655137
v -1.326470 13.517730 6.113245
v -1.629314 12.988590 6.620062
v -1.326410 12.900400 6.831699
v -1.082015 13.463600 5.655264
v -0.850255 13.365900 6.018719
v -1.023394 12.988140 6.620077
v -2.414346 10.763630 1.658001
v -2.197060 11.516260 0.581956
v -2.036278 10.673330 1.437997
v -2.666470 11.786020 0.896285
v -2.771211 10.528960 1.431962
v -3.104096 11.165630 0.663149
v -2.400124 10.089150 1.394619
v -2.053506 10.118060 1.403545
v -2.155457 10.696980 -0.197347
v -2.854301 10.424720 -0.183062
v -2.711254 11.706550 0.190765
v -2.526941 10.710940 -0.561225
v -3.312773 7.693645 0.078309
v -1.895457 6.531709 1.127419
v -2.525128 6.758247 1.828633
v -2.216862 7.110896 -0.071758
v -3.238104 7.361552 -0.991580
v -2.149437 6.813957 -0.685831
v -2.818044 6.336771 -1.966727
v -2.047486 6.287298 -1.197955
v -3.733431 6.493385 0.194215
v -3.047709 6.109171 1.518597
v -3.619611 6.286767 -0.588276
v -3.281320 5.791922 -1.344392
v -0.000606 12.984260 0.292587
v -0.000250 10.715800 -1.236543
v 1.560405 10.547980 -0.765877
v 2.525459 10.207250 0.338939
v 1.522511 7.073848 -1.420389
v -0.000207 4.793531 -3.084466
v 1.347502 4.693799 -3.064012
v 2.097944 4.898311 -0.478759
v 2.195039 3.517716 -2.031714
v 2.294949 8.225980 0.215810
v 1.380037 2.519660 -30.970011
v -0.001061 7.317558 -1.830273
v 2.007332 13.943990 5.757559
v 1.798332 14.123780 5.981464
v 2.018775 14.217980 5.729963
v 1.324489 13.342400 6.724069
v 1.324619 14.205340 6.048328
v 0.850350 14.123660 5.981200
v 0.641548 13.943720 5.757442
v 0.630523 14.217800 5.729432
v 2.558399 14.075930 5.157259
v 2.374930 14.480670 5.448499
v 3.091646 15.352400 4.811336
v 2.184794 14.069140 5.540205
v 2.096162 13.819180 5.504527
v 1.567446 13.485560 5.538077
v 2.140669 14.252600 5.217048
v 1.289849 13.364270 5.398819
v 1.523464 13.400030 5.413099
v 1.324299 14.766990 5.153253
v 2.748506 13.735390 4.722813
v 1.965750 13.425060 5.566916
v 2.062588 13.605860 5.405418
v 2.031201 13.419490 5.318328
v 2.532667 13.391050 4.908450
v 1.951421 13.210740 5.377695
v 2.000779 13.222580 5.220192
v 1.176416 13.192060 5.858157
v 1.289195 13.170970 5.939536
v 1.403650 13.192390 5.857662
v 1.290333 13.162570 5.736346
v 1.054352 13.399160 5.413662
v 0.273719 14.480620 5.448272
v 0.090706 14.075920 5.156680
v -0.442783 15.352310 4.810839
v 0.464242 14.069080 5.540079
v 0.505908 15.793660 5.354662
v 0.456744 14.365900 5.496979
v 0.508084 14.252660 5.216585
v 0.552999 13.819130 5.504193
v 1.010411 13.486860 5.536312
v 0.752948 12.580550 4.931935
v 0.683516 13.425020 5.566999
v -0.099368 13.735160 4.722573
v 0.586379 13.605800 5.404799
v 0.618019 13.419560 5.317976
v 0.697544 13.210750 5.377275
v 0.116286 13.391000 4.907796
v 0.648196 13.222310 5.219795
v -1.560928 10.548270 -0.765993
v -2.526198 10.207560 0.338515
v -1.522666 7.074005 -1.420575
v -2.295277 8.225920 0.215823
v -2.097720 4.898376 -0.478822
v -1.347734 4.694068 -3.064259
v 0.000893 7.317575 -1.830280
v -2.195057 3.517553 -2.031956
v -1.383453 2.519637 -30.970409
v -1.583784 13.486560 5.540481
v -1.417477 13.192260 5.860729
v -1.305245 13.170320 5.940719
v -1.800147 14.124090 5.981264
v -2.009300 13.944070 5.757834
v -2.020183 14.218190 5.729761
v -1.326666 13.342490 6.724110
v -1.326382 14.205350 6.048148
v -0.852172 14.123800 5.981311
v -1.539515 13.399200 5.413909
v -1.306686 13.161110 5.737542
v -1.192685 13.193430 5.860867
v -1.305688 13.364900 5.399323
v -1.070371 13.399550 5.415189
v -2.186514 14.069640 5.539976
v -2.097749 13.819590 5.504359
v -2.560321 14.076450 5.157400
v -2.376601 14.481000 5.448592
v -3.093368 15.352730 4.811273
v -2.142705 14.252700 5.216876
v -1.325966 14.767370 5.153152
v -0.509665 14.252540 5.216294
v -1.898083 12.580780 4.931662
v -1.967539 13.425000 5.566961
v -2.749900 13.735610 4.722730
v -2.064404 13.606080 5.404991
v -2.032895 13.419680 5.318297
v -1.953090 13.210790 5.377743
v -2.534395 13.391600 4.907996
v -2.002321 13.222550 5.219893
v -0.092178 14.076010 5.157041
v -0.275920 14.481090 5.448140
v 0.441002 15.352380 4.810860
v -0.465997 14.069270 5.539766
v -0.554605 13.819190 5.504330
v -0.643542 13.943880 5.757561
v -1.026774 13.486210 5.539031
v -0.632436 14.218010 5.729471
v -0.507710 15.793630 5.354739
v -0.458582 14.365870 5.497017
v 0.097929 13.735390 4.722567
v -0.684842 13.425180 5.566845
v -0.588203 13.606330 5.404860
v -0.619742 13.419470 5.317883
v -0.118040 13.391210 4.907913
v -0.699227 13.210590 5.377615
v -0.649753 13.222710 5.219604
v 0.000269 4.647529 0.703358
v 2.005920 13.943850 5.755760
v 2.142408 15.793910 5.354815
v 2.191952 14.365750 5.497292
v 0.643060 13.944280 5.755546
v -0.860112 6.294472 1.136163
v -0.872567 10.342050 1.183591
v -2.007414 13.944170 5.755594
v -2.193766 14.366180 5.497016
v -2.144178 15.794060 5.355003
v -0.645072 13.944010 5.755426
v 1.896401 12.580760 4.931854
v 1.798794 14.442010 5.249698
v 1.618789 14.564790 5.210703
v 1.899817 15.012610 5.134260
v 0.850323 14.441890 5.249420
v 0.680290 15.012610 5.095203
v 1.029954 14.564950 5.210819
v 3.362805 10.900100 2.012984
v 2.673061 10.672700 1.429492
v 2.489070 10.960030 1.525964
v 2.900774 11.033710 1.304314
v 4.377567 11.927590 0.923863
v 2.733705 11.670380 0.854250
v 2.985066 11.311480 0.462880
v 2.949259 11.233550 1.106925
v 3.342619 11.141950 -0.632237
v 3.017385 11.075930 0.226821
v 2.719501 11.112690 -0.207971
v 2.842202 10.646380 -0.151496
v 2.411376 9.929332 -0.233766
v 3.239312 7.802393 0.988223
v 3.056167 6.762729 1.053167
v 2.668776 6.866446 1.415929
v 2.581001 7.008520 0.990653
v 3.879409 8.932403 -0.799024
v 3.143692 7.582846 0.565227
v 2.735516 7.390730 0.015909
v 3.515604 7.145647 0.135426
v 3.289991 7.747251 -1.610432
v 3.235634 6.610545 -1.181343
v 3.200124 7.099717 -0.705818
v 2.742846 6.906513 -1.157690
v 4.601370 2.702376 2.647149
v 4.457090 2.869612 2.100673
v 4.306460 2.548878 2.101248
v 4.194530 2.832785 2.229211
v 4.974621 3.183312 3.413449
v 4.326176 2.807074 2.206250
v 4.321649 3.182770 2.487843
v 4.603796 3.194736 2.407233
v 4.865413 3.590735 3.283103
v 4.731680 3.645393 2.709726
v 4.488616 3.193316 2.579237
v 4.427446 3.614588 2.820143
v 1.702927 4.956078 1.643845
v 2.397798 5.330478 -1.662833
v -1.800575 14.442280 5.249396
v -1.970294 15.012720 5.095669
v -1.620470 14.565290 5.210645
v -0.754651 12.580560 4.931633
v -1.031658 14.564800 5.210524
v -0.682227 15.012850 5.095386
v -0.852112 14.441990 5.249428
v -2.674028 10.673040 1.429463
v -3.363785 10.900640 2.012901
v -2.489827 10.960510 1.525944
v -2.901428 11.034100 1.304424
v -2.734488 11.670880 0.853917
v -4.377987 11.928330 0.923627
v -2.986096 11.312370 0.462797
v -2.950120 11.234180 1.106709
v -3.018234 11.076610 0.226798
v -3.342953 11.142620 -0.632358
v -2.719880 11.112720 -0.207914
v -2.842803 10.646670 -0.151561
v -2.412236 9.929823 -0.233997
v -3.029907 6.762413 1.052980
v -3.212700 7.802192 0.987186
v -2.642162 6.865884 1.415564
v -2.554410 7.008430 0.990044
v -3.143835 7.582960 0.564999
v -3.879333 8.932372 -0.799250
v -2.735134 7.390563 0.015464
v -3.515572 7.145766 0.134952
v -3.235548 6.610229 -1.181841
v -3.290393 7.747148 -1.610262
v -3.200085 7.099378 -0.705722
v -2.743065 6.905888 -1.157480
v -4.456994 2.870023 2.100143
v -4.600595 2.702431 2.646458
v -4.305766 2.548878 2.100465
v -4.193904 2.833332 2.228145
v -4.325624 2.807263 2.205640
v -4.973093 3.183546 3.412070
v -4.320964 3.183381 2.486944
v -4.603432 3.194904 2.406217
v -4.730776 3.645561 2.708803
v -4.864500 3.590993 3.282170
v -4.488116 3.193506 2.578165
v -4.426509 3.614652 2.819495
v -1.702747 4.955732 1.643443
v -2.398011 5.330352 -1.662521
# 841 vertices

vt 1.00000 -0.02344
vt 0.00000 -0.49805
vt 0.00000 -0.02344
vt 1.00000 -0.49805
vt 0.00000 -0.77734
vt 1.00000 -0.98633
vt 0.00000 -0.98633
vt 1.00000 -0.77734
vt 0.00000 -0.50195
vt 1.00000 -0.50195
vt 0.71094 -0.99414
vt 0.99316 -0.50488
vt 0.99316 -0.99414
vt 0.70215 -0.50488
vt 0.01758 -0.95703
vt 0.74023 -0.52148
vt 0.74023 -0.95703
vt 0.01758 -0.52148
vt 1.00000 -0.52539
vt 0.99805 -0.96875
vt 1.00000 -0.96094
vt 0.99805 -0.51758
vt 0.01758 -0.52930
vt 0.01758 -0.96484
vt 0.99023 -0.00391
vt 0.99023 -0.48828
vt 0.00781 -0.48828
vt 0.00781 -0.00391
vt 0.11426 -0.10840
vt 0.07617 -0.43848
vt 0.00977 -0.24902
vt 0.23828 -0.29004
vt 0.25391 -0.01172
vt 0.37988 -0.16602
vt 0.65820 -0.51953
vt 0.46777 -0.32910
vt 0.69727 -0.32910
vt 0.52344 -0.52441
vt 0.64648 -0.55469
vt 0.52246 -0.55566
vt 0.00977 -0.92188
vt 0.10742 -0.50684
vt 0.12598 -0.92285
vt 0.00684 -0.50977
vt 0.27734 -0.53809
vt 0.39355 -0.40820
vt 0.12012 -0.46289
vt 0.07422 -0.18750
vt 0.06348 -0.39551
vt 0.00879 -0.23047
vt 0.13574 -0.37305
vt 0.13281 -0.15625
vt 0.25781 -0.30469
vt 0.07031 -0.20996
vt 0.13867 -0.37207
vt 0.20410 -0.48926
vt 0.29785 -0.48438
vt 0.23145 -0.49512
vt 0.58594 -0.87305
vt 0.97852 -0.74219
vt 0.58594 -0.74219
vt 0.97852 -0.87305
vt 0.58594 -0.99219
vt 0.97852 -0.99219
vt 0.97754 -0.18066
vt 0.75488 -0.12598
vt 0.97754 -0.12598
vt 0.75488 -0.18066
vt 0.97754 -0.27246
vt 0.75488 -0.27246
vt 0.93066 -0.27246
vt 0.99219 -0.12305
vt 0.99219 -0.27246
vt 0.93164 -0.12305
vt 0.99316 -0.27148
vt 0.99121 -0.12305
vt 0.97559 -0.37402
vt 0.75488 -0.29004
vt 0.97559 -0.28906
vt 0.75488 -0.37402
vt 0.97461 -0.54004
vt 0.75488 -0.53906
vt 0.04199 -0.20020
vt 0.02734 -0.21875
vt 0.02832 -0.19922
vt 0.04785 -0.20508
vt 0.04297 -0.17969
vt 0.05176 -0.16016
vt 0.40332 -0.62305
vt 0.44238 -0.51074
vt 0.42188 -0.49707
vt 0.27832 -0.53809
vt 0.67285 -0.51074
vt 0.59277 -0.54004
vt 0.08594 -0.22852
vt 0.11426 -0.27637
vt 0.03223 -0.24316
vt 0.12109 -0.20410
vt 0.04883 -0.17676
vt 0.53125 -0.75391
vt 0.54199 -0.98633
vt 0.54102 -0.98633
vt 0.43945 -0.99121
vt 0.51074 -0.51465
vt 0.45898 -0.29688
vt 0.58301 -0.05566
vt 0.45898 -0.02246
vt 0.69629 -0.29688
vt 0.30762 -0.59766
vt 0.32129 -0.61426
vt 0.31152 -0.63574
vt 0.34766 -0.61328
vt 0.53027 -0.75391
vt 0.44043 -0.99121
vt 0.53027 -0.75488
vt 0.15234 -0.49219
vt 0.23926 -0.87207
vt 0.52148 -0.75586
vt 0.53027 -0.97754
vt 0.44336 -0.98926
vt 0.05176 -0.14453
vt 0.12793 -0.48438
vt 0.27832 -0.51562
vt 0.07031 -0.25488
vt 0.03711 -0.23926
vt 0.05859 -0.24414
vt 0.04883 -0.19629
vt 0.03027 -0.17773
vt 0.03223 -0.19434
vt 0.06348 -0.15918
vt 0.52246 -0.76270
vt 0.44336 -0.97852
vt 0.52734 -0.97852
vt 0.52441 -0.97461
vt 0.08008 -0.20898
vt 0.10547 -0.19434
vt 0.51660 -0.75781
vt 0.44629 -0.98926
vt 0.54297 -0.97559
vt 0.51562 -0.75879
vt 0.44629 -0.98828
vt 0.69629 -0.02051
vt 0.42676 -0.00977
vt 0.42676 -0.30859
vt 0.72949 -0.00977
vt 0.72949 -0.30859
vt 0.45898 -0.33008
vt 0.69629 -0.33008
vt 0.10840 -0.22363
vt 0.12793 -0.23828
vt 0.12402 -0.19727
vt 0.12012 -0.25879
vt 0.06641 -0.21484
vt 0.06543 -0.18457
vt 0.07617 -0.16016
vt 0.07520 -0.19727
vt 0.97754 -0.33789
vt 0.75488 -0.33789
vt 0.55078 -0.58203
vt 0.99609 -0.58301
vt 0.99414 -0.72559
vt 0.55762 -0.72559
vt 0.24805 -0.89551
vt 0.20996 -0.83496
vt 0.49316 -0.52246
vt -0.00586 -0.97363
vt 0.03711 -0.88965
vt 0.06250 -0.83984
vt 0.02734 -0.51855
vt 0.24805 -0.44824
vt 0.06250 -0.39258
vt -0.00586 -0.52637
vt 0.21191 -0.83496
vt 0.25000 -0.89551
vt 0.49609 -0.52246
vt -0.00391 -0.97363
vt 0.03906 -0.88965
vt 0.25000 -0.44824
vt 0.02930 -0.51855
vt 0.06543 -0.39258
vt -0.00391 -0.52637
vt 0.06543 -0.83984
vt 0.68750 -0.98730
vt 0.50684 -0.98730
vt 0.50684 -0.00488
vt 0.68750 -0.00488
vt 0.71387 -0.47070
vt 0.83105 -0.02344
vt 0.98047 -0.02344
vt 0.86230 -0.47070
vt 0.09277 -0.72461
vt 0.49316 -0.07520
vt 0.09277 -0.27734
vt 0.09570 -0.72461
vt 0.09570 -0.27734
vt 0.49609 -0.07520
vt 0.71094 -0.99414
vt 0.70215 -0.50488
vt 0.99316 -0.50488
vt 0.99316 -0.99414
vt 0.81982 -0.88770
vt 0.68115 -0.65918
vt 0.68115 -0.88770
vt 0.81982 -0.65918
vt 0.30859 -0.56250
vt 0.42139 -0.33350
vt 0.30859 -0.33350
vt 0.42139 -0.56250
vt 0.31445 -0.99756
vt 0.40674 -0.99951
vt 0.00391 -0.99756
vt 0.03711 -0.97217
vt 0.06885 -0.99268
vt 0.00391 -0.97461
vt 0.04590 -0.49805
vt 0.01270 -0.43896
vt 0.01270 -0.40527
vt 0.04785 -0.51514
vt 0.05176 -0.66162
vt 0.04736 -0.79639
vt 0.38721 -0.98535
vt 0.34668 -0.66406
vt 0.33398 -0.98096
vt 0.38721 -0.66748
vt 0.07080 -0.47363
vt 0.18018 -0.69385
vt 0.08398 -0.67871
vt 0.11230 -0.44531
vt 0.00391 -0.36572
vt 0.04639 -0.36377
vt 0.48779 -0.72363
vt 0.67627 -0.99805
vt 0.48779 -0.99805
vt 0.67627 -0.72363
vt 0.42529 -0.32666
vt 0.67627 -0.46436
vt 0.47119 -0.16699
vt 0.67627 -0.16699
vt 0.68213 -0.88477
vt 0.82129 -1.03760
vt 0.68213 -1.03760
vt 0.82129 -0.88477
vt 0.68213 -0.65137
vt 0.82129 -0.65137
vt 0.68213 -0.43799
vt 0.82129 -0.43799
vt 0.81982 -0.44189
vt 0.68115 -0.44189
vt 0.30859 -0.78125
vt 0.42139 -0.99170
vt 0.42139 -0.78125
vt 0.30859 -0.99170
vt 0.40576 -0.99902
vt 0.31348 -0.99756
vt 0.42139 -0.56152
vt 0.30859 -0.56152
vt 0.86475 -0.77539
vt 0.92627 -0.88770
vt 0.92627 -0.77539
vt 0.86475 -0.88770
vt 0.99023 -0.77539
vt 0.99023 -0.88770
vt 0.37012 -0.04150
vt 0.42529 -0.06104
vt 0.37256 -0.06396
vt 0.42676 -0.04785
vt 0.37451 -0.00293
vt 0.40918 -0.01514
vt 0.31543 -0.04834
vt 0.32031 -0.06152
vt 0.33838 -0.01514
vt 0.24023 -0.49170
vt 0.27930 -0.45312
vt 0.27930 -0.50391
vt 0.24023 -0.45312
vt 0.19629 -0.50391
vt 0.19629 -0.45312
vt 0.01318 -0.60107
vt 0.04590 -0.59082
vt 0.01318 -0.59082
vt 0.04590 -0.60107
vt 0.01318 -0.64355
vt 0.04590 -0.64355
vt 0.01318 -0.68457
vt 0.04590 -0.68457
vt 0.24023 -0.55615
vt 0.27930 -0.55615
vt 0.24023 -0.51514
vt 0.19629 -0.55615
vt 0.27930 -0.51514
vt 0.24023 -0.47021
vt 0.27930 -0.47021
vt 0.27930 -0.53271
vt 0.24023 -0.53271
vt 0.19629 -0.47021
vt 0.19727 -0.51465
vt 0.19629 -0.53271
vt 0.01318 -0.64941
vt 0.04590 -0.61475
vt 0.01318 -0.61475
vt 0.04590 -0.64941
vt 0.01318 -0.66992
vt 0.04590 -0.66992
vt 0.00391 -0.31738
vt 0.11475 -0.31982
vt 0.82080 -0.04395
vt 0.99805 -0.25000
vt 0.82129 -0.23535
vt 0.99805 -0.00391
vt 0.68457 -0.25049
vt 0.81787 -0.54688
vt 0.68213 -0.09863
vt 0.99805 -0.77441
vt 0.81885 -0.88574
vt 0.81885 -0.77441
vt 0.99805 -0.88574
vt 0.68457 -0.66504
vt 0.68457 -0.77441
vt 0.68457 -0.45605
vt 0.18018 -0.42725
vt 0.29834 -0.49854
vt 0.26855 -0.83594
vt 0.21240 -0.76709
vt 0.20410 -0.80859
vt 0.28320 -0.75342
vt 0.29541 -0.89795
vt 0.31543 -0.87402
vt 0.38037 -0.18213
vt 0.41699 -0.24707
vt 0.37988 -0.24707
vt 0.34570 -0.24707
vt 0.30469 -0.97070
vt 0.32275 -0.96289
vt 0.31836 -0.87549
vt 1.00635 -0.54053
vt 0.19043 -0.10254
vt 0.15332 -0.07568
vt 0.19287 -0.08105
vt 0.02393 -0.18604
vt 0.14697 -0.18848
vt 0.04590 -0.24512
vt 0.00244 -0.24902
vt 0.12305 -0.06641
vt 0.29541 -0.11084
vt 0.24414 -0.03906
vt 0.30908 -0.00586
vt 0.22607 -0.08643
vt 0.24365 -0.13916
vt 0.23975 -0.21094
vt 0.19189 -0.22461
vt 1.78418 -0.09326
vt 1.74756 -0.05176
vt 1.78418 -0.05957
vt 1.70752 -0.12695
vt 0.52393 -0.83691
vt 0.52393 -0.99756
vt 0.57715 -0.99756
vt 0.47070 -0.99756
vt 0.52393 -0.90527
vt 0.36377 -0.07080
vt 0.31787 -0.16797
vt 0.31396 -0.09033
vt 0.36377 -0.16992
vt 0.40967 -0.16797
vt 0.13330 -0.29932
vt 0.26660 -0.25049
vt 0.26221 -0.24023
vt 0.09180 -0.29395
vt 0.21729 0.00391
vt 0.23193 -0.05908
vt 0.01514 -0.08105
vt 0.04541 -0.02148
vt 0.05811 -0.02734
vt 0.31250 -0.29492
vt 0.06494 -0.30078
vt 0.30176 -0.67871
vt 0.41309 -0.09033
vt 0.02344 -0.91016
vt 0.68457 -0.88574
vt 0.02930 -0.92627
vt 0.06445 -0.07568
vt 0.08545 -0.04639
vt 1.58887 -0.32275
vt 1.55225 -0.33398
vt 1.49121 -0.33398
vt 1.55518 -0.31445
vt 0.01270 -0.42236
vt 0.01270 -0.92871
vt 0.52393 -0.91211
vt 0.38135 -0.18652
vt 0.35156 -0.24512
vt 0.38135 -0.24512
vt 0.32031 -0.24219
vt 0.34326 -0.24219
vt 0.33154 -0.18457
vt 0.40820 -0.24512
vt 0.37988 -0.18652
vt 0.37988 -0.24463
vt 0.35254 -0.24463
vt 0.33154 -0.24268
vt 0.32178 -0.18750
vt 0.34326 -0.18750
vt 0.40674 -0.24463
vt 0.21436 -0.41504
vt 0.26562 -0.41504
vt 0.19629 -0.42871
vt 0.27930 -0.42871
vt 0.19629 -0.58398
vt 0.27930 -0.58398
vt 0.02930 -0.70410
vt 0.02930 -0.59082
# 411 texture vertices

usemtl mat5.png
f 1/3 2/2 3/1
f 2/2 4/4 3/1
f 5/3 6/2 1/1
f 6/2 2/4 1/1
f 7/3 8/2 5/1
f 8/2 6/4 5/1
f 9/3 10/2 7/1
f 10/2 8/4 7/1
f 13/7 12/6 11/5
f 12/6 14/8 11/5
f 11/5 14/8 15/9
f 14/8 16/10 15/9
f 15/9 16/10 17/5
f 16/10 18/8 17/5
f 17/5 18/8 19/7
f 18/8 20/6 19/7
f 22/7 13/6 21/5
f 13/6 11/8 21/5
f 21/5 11/8 23/9
f 11/8 15/10 23/9
f 23/9 15/10 24/5
f 15/10 17/8 24/5
f 24/5 17/8 25/7
f 17/8 19/6 25/7
f 27/7 22/6 26/5
f 22/6 21/8 26/5
f 26/5 21/8 28/9
f 21/8 23/10 28/9
f 28/9 23/10 29/5
f 23/10 24/8 29/5
f 29/5 24/8 30/7
f 24/8 25/6 30/7
f 32/7 27/6 31/5
f 27/6 26/8 31/5
f 31/5 26/8 33/9
f 26/8 28/10 33/9
f 33/9 28/10 34/5
f 28/10 29/8 34/5
f 34/5 29/8 35/7
f 29/8 30/6 35/7
usemtl mat3.png
f 38/13 37/12 36/11
f 37/12 39/14 36/11
f 42/13 41/12 40/11
f 41/12 43/14 40/11
f 46/13 45/12 44/11
f 45/12 47/14 44/11
f 50/13 49/12 48/11
f 49/12 51/14 48/11
f 54/13 53/12 52/11
f 53/12 55/14 52/11
usemtl mat4.png
f 58/17 57/16 56/15
f 57/16 59/18 56/15
f 56/15 59/18 60/17
f 59/18 61/16 60/17
f 64/16 63/17 62/18
f 63/17 65/15 62/18
f 62/18 65/15 66/16
f 65/15 67/17 66/16
f 57/18 58/15 69/20 68/19
f 71/19 70/20 60/15 61/18
f 75/24 74/23 73/22 72/21
f 79/21 78/22 77/23 76/24
f 83/28 82/27 81/26 80/25
f 85/20 63/15 64/18 84/19
f 67/15 87/20 86/19 66/18
f 91/22 90/23 89/24 88/21
f 95/23 94/22 93/21 92/24
f 99/26 98/27 97/28 96/25
usemtl mat2.png
f 102/31 101/30 100/29
f 101/30 103/32 100/29
f 100/29 103/32 104/33
f 103/32 105/34 104/33
f 104/33 105/34 106/29
f 105/34 107/32 106/29
f 106/29 107/32 102/31
f 107/32 101/30 102/31
f 110/37 109/36 108/35
f 109/36 111/38 108/35
f 108/35 111/38 112/39
f 111/38 113/40 112/39
f 116/43 115/42 114/41
f 115/42 117/44 114/41
f 114/41 117/44 118/43
f 117/44 119/42 118/43
f 103/32 120/45 105/34
f 120/45 121/46 105/34
f 105/34 121/46 107/32
f 121/46 122/45 107/32
f 107/32 122/45 101/30
f 122/45 123/47 101/30
f 101/30 123/47 103/32
f 123/47 120/45 103/32
f 126/50 125/49 124/48
f 125/49 127/51 124/48
f 124/48 127/51 128/52
f 127/51 129/53 128/52
f 128/52 129/53 130/54
f 129/53 131/55 130/54
f 130/54 131/55 126/50
f 131/55 125/49 126/50
f 127/51 132/56 129/53
f 132/56 133/57 129/53
f 129/53 133/57 131/55
f 133/57 134/58 131/55
f 136/61 135/60 132/59
f 135/60 137/62 132/59
f 132/59 137/62 138/63
f 137/62 139/64 138/63
f 138/63 139/64 134/59
f 139/64 140/62 134/59
f 134/59 140/62 136/61
f 140/62 135/60 136/61
f 143/67 142/66 141/65
f 142/66 144/68 141/65
f 141/65 144/68 145/69
f 144/68 146/70 145/69
f 149/73 148/72 147/71
f 148/72 150/74 147/71
f 147/71 150/74 151/75
f 150/74 152/76 151/75
f 155/79 154/78 153/77
f 154/78 156/80 153/77
f 153/77 156/80 157/81
f 156/80 158/82 157/81
f 151/85 152/84 159/83
f 152/84 158/86 159/83
f 159/83 158/86 149/87
f 158/86 148/88 149/87
f 162/30 161/31 160/32
f 161/31 163/29 160/32
f 160/32 163/29 164/34
f 163/29 165/33 164/34
f 164/34 165/33 166/32
f 165/33 167/29 166/32
f 166/32 167/29 162/30
f 167/29 161/31 162/30
f 170/36 169/37 168/38
f 169/37 171/35 168/38
f 168/38 171/35 172/40
f 171/35 173/39 172/40
f 176/42 175/43 174/44
f 175/43 177/41 174/44
f 174/44 177/41 178/42
f 177/41 179/43 178/42
f 181/45 160/32 180/46
f 160/32 164/34 180/46
f 180/46 164/34 182/45
f 164/34 166/32 182/45
f 182/45 166/32 183/47
f 166/32 162/30 183/47
f 183/47 162/30 181/45
f 162/30 160/32 181/45
f 186/49 185/50 184/51
f 185/50 187/48 184/51
f 184/51 187/48 188/53
f 187/48 189/52 188/53
f 188/53 189/52 190/55
f 189/52 191/54 190/55
f 190/55 191/54 186/49
f 191/54 185/50 186/49
f 193/56 184/51 192/57
f 184/51 188/53 192/57
f 192/57 188/53 194/58
f 188/53 190/55 194/58
f 197/60 196/61 195/62
f 196/61 193/59 195/62
f 195/62 193/59 198/64
f 193/59 199/63 198/64
f 198/64 199/63 200/62
f 199/63 194/59 200/62
f 200/62 194/59 197/60
f 194/59 196/61 197/60
f 203/66 202/67 201/68
f 202/67 204/65 201/68
f 201/68 204/65 205/70
f 204/65 206/69 205/70
f 209/72 208/73 207/74
f 208/73 210/71 207/74
f 207/74 210/71 211/76
f 210/71 212/75 211/76
f 215/78 214/79 213/80
f 214/79 216/77 213/80
f 213/80 216/77 217/82
f 216/77 218/81 217/82
f 211/84 212/85 217/86
f 212/85 219/83 217/86
f 217/86 219/83 209/88
f 219/83 208/87 209/88
f 122/45 221/90 220/89
f 221/90 120/45 220/89
f 220/89 120/45 116/43
f 120/45 115/42 116/43
f 120/92 222/46 121/91
f 222/46 122/92 121/91
f 108/35 112/39 118/93
f 112/39 114/94 118/93
f 106/97 102/96 223/95
f 102/96 100/98 223/95
f 223/95 100/98 104/99
f 226/102 225/101 224/100
f 225/101 227/103 224/100
f 224/100 227/103 226/102
f 111/38 116/104 113/40
f 116/104 114/94 113/40
f 113/40 114/94 112/39
f 118/107 229/106 228/105
f 229/106 230/108 228/105
f 122/111 222/110 221/109
f 222/110 120/112 221/109
f 233/103 232/102 231/113
f 232/102 234/102 231/113
f 231/113 234/102 233/103
f 237/114 236/102 235/113
f 236/102 238/102 235/113
f 235/113 238/102 237/114
f 241/114 240/102 239/113
f 240/102 242/102 239/113
f 239/113 242/102 241/114
f 245/114 244/102 243/113
f 244/102 246/102 243/113
f 243/113 246/102 245/114
f 249/103 248/102 247/115
f 248/102 250/102 247/115
f 247/115 250/102 249/103
f 117/44 122/45 119/42
f 122/45 118/43 119/42
f 115/42 120/45 117/44
f 120/45 251/116 117/44
f 117/44 251/116 122/45
f 251/116 123/47 122/45
f 122/45 220/89 118/43
f 220/89 229/117 118/43
f 254/119 253/119 252/118
f 253/119 255/120 252/118
f 252/118 255/120 254/119
f 128/52 130/54 256/121
f 130/54 126/50 256/121
f 256/121 126/50 124/48
f 136/122 125/49 134/58
f 125/49 131/55 134/58
f 127/51 125/49 132/56
f 125/49 136/122 132/56
f 132/56 138/123 133/57
f 138/123 134/58 133/57
f 158/86 152/84 157/124
f 152/84 140/125 157/124
f 157/124 140/125 139/126
f 135/129 150/128 137/127
f 150/128 148/88 137/127
f 137/127 148/88 142/130
f 259/120 258/119 257/118
f 258/119 260/119 257/118
f 257/118 260/119 259/120
f 263/120 262/119 261/118
f 262/119 264/119 261/118
f 261/118 264/119 263/120
f 267/120 266/119 265/118
f 266/119 268/119 265/118
f 265/118 268/119 267/120
f 271/133 270/132 269/131
f 270/132 272/134 269/131
f 269/131 272/134 271/133
f 157/124 139/126 273/135
f 139/126 137/127 273/135
f 273/135 137/127 143/136
f 137/127 142/130 143/136
f 276/139 275/138 274/137
f 275/138 277/139 274/137
f 274/137 277/139 276/139
f 280/139 279/141 278/140
f 279/141 276/139 278/140
f 278/140 276/139 280/139
f 283/141 282/139 281/140
f 282/139 277/139 281/140
f 281/140 277/139 283/141
f 285/90 182/45 284/89
f 182/45 179/43 284/89
f 284/89 179/43 286/117
f 285/90 284/89 181/45
f 284/89 175/43 181/45
f 181/45 175/43 176/42
f 179/43 182/45 178/42
f 182/45 174/44 178/42
f 181/92 180/91 287/46
f 180/91 182/92 287/46
f 171/35 179/93 173/39
f 179/93 177/94 173/39
f 173/39 177/94 172/40
f 177/94 175/104 172/40
f 172/40 175/104 168/38
f 161/96 167/97 288/95
f 167/97 165/99 288/95
f 288/95 165/99 163/98
f 291/101 290/102 289/100
f 290/102 292/103 289/100
f 289/100 292/103 291/101
f 179/107 293/105 286/106
f 293/105 294/108 286/106
f 286/106 294/108 175/142
f 182/111 285/109 287/110
f 285/109 181/112 287/110
f 297/102 296/103 295/113
f 296/103 298/102 295/113
f 295/113 298/102 297/102
f 301/102 300/114 299/113
f 300/114 302/102 299/113
f 299/113 302/102 301/102
f 305/102 304/114 303/113
f 304/114 306/102 303/113
f 303/113 306/102 305/102
f 309/102 308/114 307/113
f 308/114 310/102 307/113
f 307/113 310/102 309/102
f 313/102 312/103 311/115
f 312/103 314/102 311/115
f 311/115 314/102 313/102
f 176/42 174/44 181/45
f 174/44 315/116 181/45
f 181/45 315/116 183/47
f 315/116 182/45 183/47
f 318/119 317/119 316/118
f 317/119 319/120 316/118
f 316/118 319/120 318/119
f 191/54 189/52 320/121
f 189/52 187/48 320/121
f 320/121 187/48 185/50
f 184/51 193/56 186/49
f 193/56 196/122 186/49
f 186/49 196/122 194/58
f 193/56 192/57 199/123
f 192/57 194/58 199/123
f 217/86 218/124 211/84
f 218/124 200/125 211/84
f 203/130 209/88 195/127
f 209/88 207/128 195/127
f 195/127 207/128 197/129
f 200/125 218/124 198/126
f 218/124 321/135 198/126
f 198/126 321/135 195/127
f 321/135 202/136 195/127
f 195/127 202/136 203/130
f 324/119 323/120 322/118
f 323/120 325/119 322/118
f 322/118 325/119 324/119
f 328/119 327/120 326/118
f 327/120 329/119 326/118
f 326/118 329/119 328/119
f 332/119 331/120 330/118
f 331/120 333/119 330/118
f 330/118 333/119 332/119
f 336/132 335/133 334/131
f 335/133 337/134 334/131
f 334/131 337/134 336/132
f 340/138 339/139 338/137
f 339/139 341/139 338/137
f 338/137 341/139 340/138
f 344/141 343/139 342/140
f 343/139 339/139 342/140
f 342/140 339/139 344/141
f 347/139 346/141 345/140
f 346/141 341/139 345/140
f 345/140 341/139 347/139
f 118/107 228/105 110/144 108/143
f 109/146 230/108 116/142 111/145
f 109/148 110/147 228/105 230/108
f 273/135 143/136 153/149 157/124
f 155/152 153/149 141/151 145/150
f 146/156 144/155 156/154 154/153
f 158/86 156/154 142/130 148/88
f 135/129 140/125 152/84 150/128
f 147/128 151/85 159/83 149/87
f 154/158 155/157 145/69 146/70
f 351/162 350/161 349/160 348/159
f 169/144 293/105 179/107 171/143
f 175/142 294/108 170/146 168/145
f 293/105 169/147 170/148 294/108
f 216/149 202/136 321/135 218/124
f 204/151 216/149 214/152 206/150
f 213/154 201/155 205/156 215/153
f 203/130 213/154 217/86 209/88
f 211/84 200/125 197/129 207/128
f 219/83 212/85 210/128 208/87
f 206/69 214/157 215/158 205/70
f 355/160 354/161 353/162 352/159
f 106/97 223/95 104/99
f 229/106 116/142 230/108
f 123/47 251/116 120/45
f 116/43 229/117 220/89
f 256/121 124/48 128/52
f 142/130 156/154 144/155
f 143/136 141/151 153/149
f 182/45 315/116 174/44
f 288/95 163/98 161/96
f 175/43 284/89 286/117
f 320/121 185/50 191/54
f 190/55 186/49 194/58
f 203/130 201/155 213/154
f 202/136 216/149 204/151
usemtl mat3.png
f 358/165 357/164 356/163
f 357/164 359/166 356/163
f 359/166 357/164 360/167
f 357/164 361/168 360/167
f 361/171 356/170 362/169
f 356/170 359/172 362/169
f 365/175 364/174 363/173
f 364/174 366/176 363/173
f 363/173 366/176 367/177
f 369/180 368/179 364/178
f 368/179 366/181 364/178
f 372/165 371/163 370/164
f 371/163 373/166 370/164
f 370/164 373/166 374/167
f 376/171 375/169 371/170
f 375/169 373/172 371/170
f 379/175 378/173 377/174
f 378/173 380/176 377/174
f 380/176 378/173 381/177
f 378/173 382/182 381/177
f 382/180 377/178 383/179
f 377/178 380/181 383/179
f 387/186 386/185 385/184 384/183
f 391/186 390/185 389/184 388/183
f 395/190 394/189 393/188 392/187
f 399/188 398/189 397/190 396/187
f 403/190 402/189 401/188 400/187
f 407/188 406/189 405/190 404/187
f 411/190 410/189 409/188 408/187
f 415/188 414/189 413/190 412/187
f 361/168 357/164 358/165 416/191
f 361/171 416/193 358/192 356/170
f 365/175 363/173 369/182 417/194
f 365/196 417/195 369/180 364/178
f 421/200 420/199 419/198 418/197
f 425/184 424/185 423/186 422/183
f 429/184 428/185 427/186 426/183
f 433/188 432/189 431/190 430/187
f 437/190 436/189 435/188 434/187
f 441/188 440/189 439/190 438/187
f 445/190 444/189 443/188 442/187
f 449/188 448/189 447/190 446/187
f 453/190 452/189 451/188 450/187
f 372/165 370/164 376/168 454/191
f 372/192 454/193 376/171 371/170
f 382/182 378/173 379/175 455/194
f 382/180 455/195 379/196 377/178
f 459/198 458/199 457/200 456/197
f 363/173 367/177 369/182
f 370/164 374/167 376/168
usemtl mat1.png
f 462/203 461/202 460/201
f 461/202 463/204 460/201
f 460/201 463/204 464/203
f 463/204 465/202 464/203
f 467/207 461/206 466/205
f 461/206 462/208 466/205
f 466/205 462/208 468/209
f 462/208 469/210 468/209
f 472/213 471/212 470/211
f 471/212 473/214 470/211
f 470/211 473/214 474/213
f 473/214 475/212 474/213
f 478/217 477/216 476/215
f 477/216 479/218 476/215
f 476/215 479/218 480/219
f 479/218 481/220 480/219
f 483/223 472/222 482/221
f 472/222 470/224 482/221
f 482/221 470/224 484/223
f 470/224 474/222 484/223
f 480/227 485/226 476/225
f 485/226 486/228 476/225
f 476/225 486/228 478/229
f 486/228 487/230 478/229
f 486/233 489/232 488/231
f 489/232 490/234 488/231
f 488/231 490/234 491/235
f 490/234 492/236 491/235
f 491/235 492/236 493/237
f 492/236 494/238 493/237
f 489/241 495/240 490/239
f 495/240 496/242 490/239
f 490/239 496/242 492/243
f 496/242 497/244 492/243
f 492/243 497/244 494/245
f 497/244 498/246 494/245
f 487/232 486/233 499/234
f 486/233 488/231 499/234
f 499/234 488/231 500/236
f 488/231 491/235 500/236
f 500/236 491/235 501/238
f 491/235 493/237 501/238
f 495/240 487/241 496/242
f 487/241 499/239 496/242
f 496/242 499/239 497/244
f 499/239 500/243 497/244
f 497/244 500/243 498/246
f 500/243 501/245 498/246
f 504/201 503/203 502/204
f 503/203 505/202 502/204
f 502/204 505/202 506/247
f 505/202 469/248 506/247
f 505/251 503/250 507/249
f 503/250 508/252 507/249
f 507/249 508/252 509/251
f 508/252 510/250 509/251
f 468/254 511/253 466/205
f 511/253 464/208 466/205
f 466/205 464/208 467/207
f 464/208 465/206 467/207
f 469/203 462/248 506/201
f 462/248 460/247 506/201
f 506/201 460/247 511/203
f 460/247 464/248 511/203
f 509/251 511/255 507/249
f 511/255 468/256 507/249
f 507/249 468/256 505/251
f 468/256 469/255 505/251
f 506/247 511/248 502/204
f 511/248 509/202 502/204
f 502/204 509/202 504/201
f 509/202 510/203 504/201
f 510/259 512/258 504/257
f 512/258 513/260 504/257
f 504/257 513/260 503/259
f 513/260 514/258 503/259
f 503/259 514/258 508/261
f 514/258 515/262 508/261
f 508/261 515/262 510/259
f 515/262 512/258 510/259
f 518/265 517/264 516/263
f 517/264 519/266 516/263
f 516/263 519/266 520/267
f 519/266 521/268 520/267
f 523/270 518/265 522/269
f 518/265 516/263 522/269
f 522/269 516/263 524/271
f 516/263 520/267 524/271
f 527/274 526/273 525/272
f 526/273 528/275 525/272
f 525/272 528/275 529/276
f 528/275 530/277 529/276
f 532/280 531/279 530/278
f 531/279 526/281 530/278
f 530/278 526/281 529/282
f 526/281 527/283 529/282
f 529/282 527/283 533/284
f 527/283 534/285 533/284
f 534/287 527/274 535/286
f 527/274 536/288 535/286
f 535/286 536/288 533/289
f 536/288 529/276 533/289
f 539/292 538/291 537/290
f 538/291 540/288 537/290
f 537/290 540/288 541/293
f 540/288 542/294 541/293
f 541/293 542/294 543/287
f 542/294 544/286 543/287
f 538/291 545/295 540/288
f 545/295 546/296 540/288
f 540/288 546/296 542/294
f 546/296 547/297 542/294
f 542/294 547/297 544/286
f 547/297 548/289 544/286
f 545/300 539/299 546/298
f 539/299 537/301 546/298
f 546/298 537/301 547/302
f 537/301 541/303 547/302
f 547/302 541/303 548/284
f 541/303 543/285 548/284
f 461/202 550/203 549/204
f 550/203 551/201 549/204
f 549/204 551/201 552/202
f 551/201 553/203 552/202
f 461/206 554/207 550/208
f 554/207 555/205 550/208
f 550/208 555/205 556/210
f 555/205 557/209 556/210
f 560/226 559/227 558/228
f 559/227 561/225 558/228
f 558/228 561/225 562/230
f 561/225 478/229 562/230
f 564/232 558/233 563/234
f 558/233 565/231 563/234
f 563/234 565/231 566/236
f 565/231 567/235 566/236
f 566/236 567/235 568/238
f 567/235 569/237 568/238
f 571/240 564/241 570/242
f 564/241 563/239 570/242
f 570/242 563/239 572/244
f 563/239 566/243 572/244
f 572/244 566/243 573/246
f 566/243 568/245 573/246
f 558/233 562/232 565/231
f 562/232 574/234 565/231
f 565/231 574/234 567/235
f 574/234 575/236 567/235
f 567/235 575/236 569/237
f 575/236 576/238 569/237
f 562/241 571/240 574/239
f 571/240 570/242 574/239
f 574/239 570/242 575/243
f 570/242 572/244 575/243
f 575/243 572/244 576/245
f 572/244 573/246 576/245
f 579/203 578/201 577/202
f 578/201 580/204 577/202
f 577/202 580/204 556/248
f 580/204 581/247 556/248
f 579/250 577/251 582/252
f 577/251 583/249 582/252
f 582/252 583/249 584/250
f 583/249 585/251 584/250
f 586/253 557/254 553/208
f 557/254 555/205 553/208
f 553/208 555/205 552/206
f 555/205 554/207 552/206
f 550/248 556/203 551/247
f 556/203 581/201 551/247
f 551/247 581/201 553/248
f 581/201 586/203 553/248
f 586/255 585/251 557/256
f 585/251 583/249 557/256
f 557/256 583/249 556/255
f 583/249 577/251 556/255
f 586/248 581/247 585/202
f 581/247 580/204 585/202
f 585/202 580/204 584/203
f 580/204 578/201 584/203
f 588/258 584/259 587/260
f 584/259 578/257 587/260
f 587/260 578/257 589/258
f 578/257 579/259 589/258
f 589/258 579/259 590/262
f 579/259 582/261 590/262
f 590/262 582/261 588/258
f 582/261 584/259 588/258
f 593/264 592/265 591/266
f 592/265 594/263 591/266
f 591/266 594/263 595/268
f 594/263 596/267 595/268
f 592/265 597/270 594/263
f 597/270 598/269 594/263
f 594/263 598/269 596/267
f 598/269 599/271 596/267
f 602/273 601/274 600/275
f 601/274 603/272 600/275
f 600/275 603/272 604/277
f 603/272 605/276 604/277
f 607/279 606/280 602/281
f 606/280 604/278 602/281
f 602/281 604/278 601/283
f 604/278 605/282 601/283
f 601/283 605/282 608/285
f 605/282 609/284 608/285
f 601/274 608/287 610/288
f 608/287 611/286 610/288
f 610/288 611/286 605/276
f 611/286 609/289 605/276
f 614/291 613/292 612/288
f 613/292 615/290 612/288
f 612/288 615/290 616/294
f 615/290 617/293 616/294
f 616/294 617/293 618/286
f 617/293 619/287 618/286
f 621/295 614/291 620/296
f 614/291 612/288 620/296
f 620/296 612/288 622/297
f 612/288 616/294 622/297
f 622/297 616/294 623/289
f 616/294 618/286 623/289
f 613/299 621/300 615/301
f 621/300 620/298 615/301
f 615/301 620/298 617/303
f 620/298 622/302 617/303
f 617/303 622/302 619/285
f 622/302 623/284 619/285
f 495/305 624/304 487/230
f 624/304 478/229 487/230
f 626/308 625/307 495/306
f 625/307 624/309 495/306
f 471/212 472/213 480/227
f 472/213 485/226 480/227
f 628/311 626/308 627/310
f 626/308 495/306 627/310
f 627/310 495/306 489/312
f 630/315 463/314 629/313
f 463/314 461/316 629/313
f 629/313 461/316 549/314
f 632/318 630/315 631/317
f 630/315 628/311 631/317
f 631/317 628/311 633/319
f 628/311 627/310 633/319
f 486/228 485/226 489/320
f 485/226 627/321 489/320
f 633/324 485/323 631/322
f 485/323 472/325 631/322
f 631/322 472/325 632/326
f 472/325 483/327 632/326
f 513/330 512/329 634/328
f 512/329 515/330 634/328
f 634/328 515/330 514/331
f 467/333 483/327 461/332
f 483/327 482/334 461/332
f 461/332 482/334 484/327
f 628/311 630/315 635/335
f 630/315 629/313 635/335
f 638/338 637/337 636/336
f 637/337 639/339 636/336
f 636/336 639/339 519/340
f 639/339 521/341 519/340
f 521/341 639/339 520/342
f 639/339 524/341 520/342
f 637/337 640/343 639/339
f 640/343 641/337 639/339
f 639/339 641/337 642/336
f 641/337 643/338 642/336
f 646/346 645/345 644/344
f 645/345 647/347 644/344
f 644/344 647/347 648/348
f 647/347 636/336 648/348
f 648/348 636/336 649/349
f 636/336 519/340 649/349
f 649/349 519/340 517/350
f 652/353 651/352 650/351
f 651/352 653/354 650/351
f 656/357 655/356 654/355
f 655/356 657/358 654/355
f 657/357 659/356 658/359
f 659/356 660/358 658/359
f 523/362 661/361 518/360
f 661/361 662/363 518/360
f 518/360 662/363 663/364
f 665/367 651/366 664/365
f 651/366 652/367 664/365
f 664/365 652/367 663/368
f 668/346 667/344 666/345
f 667/344 669/347 666/345
f 671/370 643/338 670/369
f 643/338 641/337 670/369
f 641/373 640/372 653/371
f 640/372 637/373 653/371
f 653/354 651/352 672/351
f 651/352 665/353 672/351
f 675/374 674/349 673/348
f 674/349 642/336 673/348
f 673/348 642/336 669/347
f 678/357 677/355 676/356
f 677/355 679/358 676/356
f 679/357 681/359 680/356
f 681/359 682/358 680/356
f 522/340 674/349 523/350
f 674/349 661/368 523/350
f 517/350 663/368 649/349
f 663/368 652/367 649/349
f 674/349 665/367 661/368
f 665/367 664/365 661/368
f 661/368 664/365 662/375
f 664/365 663/368 662/375
f 524/341 639/339 522/340
f 639/339 642/336 522/340
f 522/340 642/336 674/349
f 527/274 525/272 536/288
f 525/272 529/276 536/288
f 571/305 562/230 624/304
f 562/230 478/229 624/304
f 624/309 625/307 571/306
f 625/307 683/308 571/306
f 571/306 683/308 684/310
f 683/308 685/311 684/310
f 684/310 685/311 686/319
f 685/311 687/317 686/319
f 475/212 559/227 474/213
f 559/227 560/226 474/213
f 549/314 688/315 629/313
f 688/315 689/335 629/313
f 690/318 687/317 688/315
f 687/317 685/311 688/315
f 688/315 685/311 689/335
f 558/228 564/320 560/226
f 564/320 684/321 560/226
f 560/226 684/321 686/376
f 686/324 687/322 560/323
f 687/322 474/325 560/323
f 588/329 587/330 691/328
f 587/330 589/331 691/328
f 691/328 589/331 590/330
f 687/322 690/326 474/325
f 690/326 484/327 474/325
f 591/340 692/349 593/350
f 692/349 693/368 593/350
f 694/363 592/360 693/364
f 592/360 593/377 693/364
f 697/338 696/336 695/337
f 696/336 698/339 695/337
f 695/337 698/339 699/343
f 698/339 700/337 699/343
f 692/349 701/367 693/368
f 701/367 702/365 693/368
f 693/368 702/365 694/375
f 702/365 703/368 694/375
f 701/367 704/366 702/365
f 704/366 705/367 702/365
f 702/365 705/367 703/368
f 708/344 707/348 706/347
f 707/348 696/336 706/347
f 710/346 708/344 709/345
f 708/344 706/347 709/345
f 701/353 711/351 704/352
f 711/351 712/354 704/352
f 704/352 712/354 713/351
f 714/374 692/349 707/348
f 692/349 696/336 707/348
f 717/357 716/355 715/356
f 716/355 718/358 715/356
f 718/357 720/359 719/356
f 720/359 721/358 719/356
f 597/362 592/360 703/361
f 592/360 694/363 703/361
f 599/341 698/339 596/342
f 698/339 595/341 596/342
f 724/346 723/345 722/344
f 723/345 725/347 722/344
f 722/344 725/347 726/348
f 725/347 727/336 726/348
f 726/348 727/336 728/349
f 727/336 598/340 728/349
f 728/349 598/340 597/350
f 731/370 730/369 729/338
f 730/369 700/337 729/338
f 729/338 700/337 727/336
f 700/337 698/339 727/336
f 727/336 698/339 598/340
f 698/339 599/341 598/340
f 700/373 712/371 699/372
f 712/371 695/373 699/372
f 734/357 733/356 732/355
f 733/356 735/358 732/355
f 735/357 737/356 736/359
f 737/356 738/358 736/359
f 597/350 703/368 728/349
f 703/368 705/367 728/349
f 595/341 698/339 591/340
f 698/339 696/336 591/340
f 591/340 696/336 692/349
f 601/274 610/288 603/272
f 610/288 605/276 603/272
f 739/378 481/220 479/218 477/216
f 630/315 632/318 465/379 463/314
f 739/378 471/380 480/219 481/220
f 632/326 483/327 467/333 465/332
f 625/307 626/308 628/311 635/335
f 740/382 650/381 653/371 637/373
f 742/370 741/369 637/337 638/338
f 740/386 649/385 652/384 650/383
f 653/371 672/381 743/382 641/373
f 665/384 674/385 743/386 672/383
f 745/218 744/220 739/378 478/387
f 552/379 690/318 688/315 549/314
f 559/219 475/380 739/378 744/220
f 745/218 561/215 559/219 744/220
f 554/333 484/327 690/326 552/332
f 685/311 683/308 625/307 689/335
f 712/371 711/381 746/382 695/373
f 695/337 748/369 747/370 697/338
f 701/384 692/385 746/386 711/383
f 749/382 713/381 712/371 700/373
f 749/386 728/385 705/384 713/383
f 739/378 473/388 471/380
f 634/328 514/331 513/330
f 485/226 633/376 627/321
f 750/374 648/348 649/349
f 753/359 752/357 751/358
f 756/358 755/389 754/357
f 669/347 667/344 673/348
f 663/364 517/377 518/360
f 759/392 758/391 757/390
f 757/395 758/394 760/393
f 760/396 759/392 757/390
f 763/399 762/398 761/397
f 764/402 763/401 761/400
f 762/398 764/403 761/397
f 767/392 766/396 765/390
f 765/395 766/393 768/394
f 768/391 767/392 765/390
f 531/405 532/404 528/275
f 532/406 530/277 528/275
f 531/407 528/275 526/273
f 535/286 533/289 769/408
f 535/286 769/409 534/287
f 534/285 769/410 533/284
f 772/392 771/396 770/390
f 770/395 771/394 773/393
f 773/391 772/392 770/390
f 776/399 775/398 774/397
f 777/401 776/402 774/400
f 775/398 777/403 774/397
f 780/392 779/396 778/390
f 778/395 779/394 781/393
f 781/391 780/392 778/390
f 784/392 783/391 782/390
f 782/395 783/393 785/394
f 785/396 784/392 782/390
f 788/403 787/398 786/397
f 789/402 788/401 786/400
f 787/398 789/399 786/397
f 792/392 791/391 790/390
f 790/395 791/393 793/394
f 793/396 792/392 790/390
f 794/406 545/295 538/291
f 794/411 539/299 545/300
f 794/407 538/291 539/292
f 544/286 548/289 795/408
f 544/286 795/409 543/287
f 543/285 795/410 548/284
f 561/215 745/218 478/387
f 739/378 475/380 473/388
f 691/328 590/330 588/329
f 571/306 684/310 564/312
f 461/332 484/327 554/333
f 798/358 797/389 796/357
f 705/353 704/352 713/351
f 799/374 726/348 728/349
f 802/357 801/389 800/358
f 805/392 804/390 803/391
f 804/395 806/393 803/394
f 806/396 804/390 805/392
f 809/399 808/397 807/398
f 810/402 808/400 809/401
f 807/398 808/397 810/403
f 813/392 812/390 811/396
f 812/395 814/394 811/393
f 814/391 812/390 813/392
f 607/405 600/275 606/404
f 606/406 600/275 604/277
f 607/407 602/273 600/275
f 611/286 815/408 609/289
f 611/286 608/287 815/409
f 608/285 609/284 815/410
f 818/392 817/390 816/396
f 817/395 819/393 816/394
f 819/391 817/390 818/392
f 822/399 821/397 820/398
f 823/401 821/400 822/402
f 820/398 821/397 823/403
f 826/392 825/390 824/396
f 825/395 827/393 824/394
f 827/391 825/390 826/392
f 830/392 829/390 828/391
f 829/395 831/394 828/393
f 831/396 829/390 830/392
f 834/403 833/397 832/398
f 835/402 833/400 834/401
f 832/398 833/397 835/399
f 838/392 837/390 836/391
f 837/395 839/394 836/393
f 839/396 837/390 838/392
f 840/406 614/291 621/295
f 840/411 621/300 613/299
f 840/407 613/292 614/291
f 618/286 841/408 623/289
f 618/286 619/287 841/409
f 619/285 623/284 841/410
# 962 elements

