# Created by Metasequoia

mtllib Model.mtl

v 2.818115 0.048970 4.911791
v 2.752930 0.050110 -3.568309
v 5.718994 0.049436 2.575997
v 5.391357 0.050122 -2.333881
v 0.233643 0.050122 -2.274308
v 0.130127 0.049192 2.597971
v -0.233643 0.050122 -2.274308
v -0.130127 0.049192 2.597971
v -2.752930 0.050110 -3.568553
v -2.818115 0.048970 4.911791
v -5.718994 0.049436 2.575997
v -5.391357 0.050122 -2.333881
v 0.000000 26.630550 -2.005668
v 3.695557 26.291960 -1.823423
v 1.097168 26.632790 -0.315460
v 0.000000 26.385130 -3.619394
v -1.097168 26.632790 -0.315460
v -3.695557 26.291960 -1.823423
v 0.000000 25.615250 3.196165
v 3.895020 26.197460 1.048803
v 0.000000 26.018869 1.209360
v -3.895020 26.197460 1.048803
v 8.253173 26.653669 -0.345012
v 7.362249 24.938330 -2.484064
v 8.253142 24.937691 -2.477493
v 7.363961 26.708570 -0.368899
v 8.252873 24.943560 1.725577
v 7.361809 24.942261 1.753191
v 8.252939 22.948200 -0.408114
v 7.362939 22.948879 -0.390741
v -7.363961 26.708580 -0.368655
v -8.253142 24.937700 -2.477249
v -7.362249 24.938339 -2.483820
v -8.253173 26.653681 -0.344768
v -7.361809 24.942270 1.753435
v -8.252876 24.943569 1.725577
v -7.362939 22.948891 -0.390497
v -8.252939 22.948210 -0.407870
v 3.895752 23.265829 -2.058138
v 1.820313 21.632549 2.270012
v 4.037598 23.118959 1.127017
v 2.763672 21.588310 -1.373370
v 0.000000 23.213820 -3.974341
v 0.000000 21.707199 -2.763014
v -3.895752 23.265829 -2.058138
v -2.763672 21.588310 -1.373370
v -4.037598 23.118959 1.127017
v -1.820313 21.632549 2.270012
v 3.895020 26.197460 1.048803
v 0.000000 22.928530 3.487045
v 0.000000 25.615250 3.196165
v 3.695557 26.291960 -1.823423
v 0.000000 26.385130 -3.619394
v -3.695557 26.291960 -1.823423
v -3.895020 26.197460 1.048803
v 0.000000 18.674770 2.214077
v 0.000000 21.735319 3.090728
v 1.864014 18.686939 1.688568
v 2.470947 18.787621 -1.305174
v 0.000000 18.828190 -2.785547
v -2.470947 18.787621 -1.305174
v -1.864014 18.686939 1.688568
v 10.820880 24.876070 -1.594523
v 8.252939 22.948200 -0.408114
v 10.817430 23.642941 -0.426539
v 8.253142 24.937691 -2.477493
v 10.817410 26.071630 -0.431275
v 8.253173 26.653669 -0.345012
v 10.818000 24.877720 0.826870
v 8.252873 24.943560 1.725577
v 2.652588 13.556940 2.411714
v 1.708984 5.480614 1.705344
v 1.209717 11.104660 1.833495
v 2.781006 4.846988 1.704470
v 4.092041 11.104640 1.575474
v 3.850342 5.480614 1.705344
v 4.572021 13.761250 1.246468
v 4.046631 11.132610 -1.913276
v 3.996094 11.132830 0.715647
v 4.559082 13.760460 -2.071177
v 3.622803 15.582660 0.628751
v 3.624023 15.585870 -1.433268
v 1.104492 11.131850 -1.897183
v 0.652832 13.669570 -2.071821
v 1.381348 15.540560 -1.431262
v 1.295410 11.132010 0.712187
v 0.669190 13.669920 1.239937
v 1.375000 15.532940 0.625905
v -8.253142 24.937700 -2.477249
v -10.817430 23.642950 -0.426295
v -8.252939 22.948210 -0.407870
v -10.820880 24.876080 -1.594279
v -8.253173 26.653681 -0.344768
v -10.817410 26.071640 -0.431276
v -8.252876 24.943569 1.725577
v -10.818000 24.877729 0.827114
v -2.781006 4.846988 1.704470
v -1.209717 11.104670 1.833251
v -1.708984 5.480614 1.705344
v -2.652588 13.556940 2.411714
v -3.850342 5.480614 1.705344
v -4.092041 11.104640 1.575474
v -4.559082 13.760460 -2.071177
v -3.996094 11.132830 0.715647
v -4.046631 11.132610 -1.913276
v -4.572021 13.761250 1.246468
v -3.624023 15.585870 -1.433268
v -3.622803 15.582660 0.628751
v -0.652832 13.669570 -2.071821
v -1.104492 11.131850 -1.897183
v -1.381348 15.540560 -1.431262
v -0.669190 13.669920 1.239937
v -1.295410 11.132010 0.712187
v -1.375000 15.532940 0.625905
v -0.700440 15.530270 2.709229
v 0.700440 14.930420 2.598145
v -0.700440 14.930420 2.598145
v 0.700440 15.530270 2.709229
v -0.666260 15.549320 2.385498
v 0.666260 15.549320 2.385498
v -0.705322 18.241730 2.938404
v 0.705322 18.241730 2.938404
v 4.222168 23.697620 2.610460
v 4.871338 26.673460 2.464092
v 6.089355 25.299801 2.106020
v 3.253174 23.345501 3.201314
v -5.229081 25.035179 -0.407275
v -3.924266 25.179831 0.345178
v -3.686191 23.621370 -0.366553
v -3.917870 25.180731 -1.078424
v -3.253174 23.345501 3.201314
v -4.871338 26.673460 2.464092
v -3.194092 25.253679 2.885768
v -4.222168 23.697620 2.610460
v 0.740967 15.025630 -3.129150
v -0.740967 15.025630 -3.129150
v 2.198730 21.513411 3.189707
v 2.057129 23.056170 3.278109
v 2.760010 21.511551 3.038328
v 3.800537 22.079990 2.731193
v 4.475830 22.302441 2.538156
v 0.635254 23.412769 3.747441
v 0.761475 25.720551 3.710983
v 3.194092 25.253679 2.885768
v -2.198730 21.513411 3.189707
v -2.760010 21.511551 3.038328
v -2.057129 23.056170 3.278109
v -3.800537 22.079990 2.731193
v -4.475830 22.302441 2.538156
v -0.761475 25.720551 3.710983
v -0.635254 23.412769 3.747441
v 0.710449 18.435360 -3.025178
v -0.710449 18.435360 -3.025178
v 5.229081 25.035170 -0.407519
v 3.917870 25.180719 -1.078668
v 3.686191 23.621361 -0.366797
v 3.924266 25.179819 0.344934
v -6.089355 25.299801 2.106020
v 0.000000 23.130630 3.622238
v 0.000000 25.882160 3.686311
v 2.026611 24.809111 3.260106
v -2.026611 24.809111 3.260106
v -2.443604 17.956200 -1.682290
v 2.443604 17.956200 -1.682290
v 0.000000 18.007780 -3.663053
v 2.831543 17.902010 -0.117159
v 1.789795 17.810921 2.081772
v 0.000000 17.797489 2.775062
v -1.789795 17.810921 2.081772
v -2.831543 17.902010 -0.117159
v 2.831787 18.750900 -0.056734
v 0.000000 18.828051 -3.574852
v 2.532227 18.787640 -1.698968
v 1.793457 18.686890 2.136593
v 0.000000 18.674820 2.845812
v -1.793457 18.686890 2.136593
v -2.831787 18.750900 -0.056734
v -2.532227 18.787640 -1.698968
v -0.000244 27.141220 1.205332
v -0.147217 26.349911 1.860094
v -0.175049 26.847731 1.096530
v -0.000244 26.597931 1.779213
v 0.146973 26.349911 1.860094
v 15.367710 26.929489 -0.291258
v 15.367630 24.875059 -2.345913
v 15.367640 22.820610 -0.290961
v 15.367720 24.875040 1.763695
v 0.477051 4.660825 1.389608
v 0.450684 4.677735 -2.562595
v 5.145020 4.679493 -2.608469
v 5.171387 4.662598 1.343490
v 0.472900 3.509549 1.391111
v 5.167480 3.511322 1.344993
v 5.141113 3.528232 -2.607210
v 0.446777 3.526459 -2.561092
v 0.067139 11.280180 -2.711129
v 5.169922 11.265340 -2.761662
v 5.183594 11.266980 1.490267
v 0.111572 11.281320 1.541015
v 0.111084 10.305310 1.535855
v 5.183105 10.291220 1.485122
v 5.169434 10.289580 -2.767051
v 0.066895 10.304160 -2.716289
v 10.344490 24.874599 1.764066
v 10.344180 22.820169 -0.290837
v 10.344160 24.874620 -2.345546
v 10.344480 26.929050 -0.290886
v -15.367710 26.929489 -0.291014
v -15.367720 24.875050 1.763939
v -15.367640 22.820620 -0.290717
v -15.367630 24.875059 -2.345669
v -5.145020 4.679508 -2.608713
v -0.450684 4.677735 -2.562595
v -0.477051 4.660825 1.389608
v -5.171387 4.662598 1.343490
v -5.141113 3.528232 -2.607210
v -5.167480 3.511322 1.344993
v -0.472900 3.509549 1.391111
v -0.446777 3.526459 -2.561092
v -0.067139 11.280180 -2.711129
v -0.111572 11.281320 1.541015
v -5.183594 11.266980 1.490267
v -5.169922 11.265340 -2.761662
v -0.111084 10.305320 1.527540
v -0.066895 10.304240 -2.184592
v -5.169434 10.289410 -2.235369
v -5.183105 10.291220 1.476807
v -10.344490 24.874611 1.764310
v -10.344480 26.929060 -0.290642
v -10.344160 24.874630 -2.345546
v -10.344180 22.820181 -0.290593
v 0.174805 26.847731 1.096530
v 15.367640 22.820610 -0.290961
v 14.540690 24.872749 1.637289
v 15.367720 24.875040 1.763695
v 14.539600 22.962429 -0.284295
v 15.367630 24.875059 -2.345913
v 14.542210 24.873150 -2.249342
v 15.367710 26.929489 -0.291258
v 14.543130 26.846491 -0.283806
v 5.171387 4.662598 1.343490
v 0.472900 3.509549 1.391111
v 0.477051 4.660825 1.389608
v 5.167480 3.511322 1.344993
v 5.145020 4.679493 -2.608469
v 5.141113 3.528232 -2.607210
v 0.450684 4.677735 -2.562595
v 0.446777 3.526459 -2.561092
v 5.183105 10.291220 1.485122
v 5.169922 11.265340 -2.761662
v 5.169434 10.289580 -2.767051
v 5.183594 11.266980 1.490267
v 0.111084 10.305310 1.535855
v 0.111572 11.281320 1.541015
v 0.066895 10.304160 -2.716289
v 0.067139 11.280180 -2.711129
v 11.149910 22.820351 -0.290750
v 10.344490 24.874599 1.764066
v 11.149980 24.874781 1.764150
v 10.344180 22.820169 -0.290837
v 11.149900 24.874559 -2.345702
v 10.344160 24.874620 -2.345546
v 11.149970 26.929230 -0.290803
v 10.344480 26.929050 -0.290886
v 2.443604 17.956200 -1.682290
v 0.000000 18.828051 -3.574852
v 0.000000 18.007780 -3.663053
v 2.532227 18.787640 -1.698968
v 2.831543 17.902010 -0.117159
v 2.831787 18.750900 -0.056734
v 1.789795 17.810921 2.081772
v 1.793457 18.686890 2.136593
v 0.000000 17.797489 2.775062
v 0.000000 18.674820 2.845812
v -1.789795 17.810921 2.081772
v -1.793457 18.686890 2.136593
v -2.831543 17.902010 -0.117159
v -2.831787 18.750900 -0.056734
v -2.443604 17.956200 -1.682290
v -2.532227 18.787640 -1.698968
v -14.539600 22.962440 -0.284051
v -15.367720 24.875050 1.763939
v -14.540690 24.872761 1.637533
v -15.367640 22.820620 -0.290717
v -14.542210 24.873159 -2.249099
v -15.367630 24.875059 -2.345669
v -14.543130 26.846500 -0.283806
v -15.367710 26.929489 -0.291014
v -5.167480 3.511322 1.344993
v -0.477051 4.660825 1.389608
v -0.472900 3.509549 1.391111
v -5.171387 4.662598 1.343490
v -5.141113 3.528232 -2.607210
v -5.145020 4.679508 -2.608713
v -0.446777 3.526459 -2.561092
v -0.450684 4.677735 -2.562595
v -5.183594 11.266980 1.490267
v -5.169434 10.289410 -2.235369
v -5.169922 11.265340 -2.761662
v -5.183105 10.291220 1.476807
v -0.111572 11.281320 1.541015
v -0.111084 10.305320 1.527540
v -0.067139 11.280180 -2.711129
v -0.066895 10.304240 -2.184592
v -10.344180 22.820181 -0.290593
v -11.149990 24.874790 1.764150
v -10.344490 24.874611 1.764310
v -11.149910 22.820360 -0.290506
v -10.344160 24.874630 -2.345546
v -11.149900 24.874571 -2.345458
v -10.344480 26.929060 -0.290642
v -11.149970 26.929239 -0.290803
v 0.000000 28.115650 1.455783
v 0.468018 29.008751 1.597128
v 0.840576 28.252460 0.939390
v 0.000000 29.054480 1.872747
v -0.840576 28.252460 0.939390
v -0.468018 29.008751 1.597128
v 0.000000 27.877560 -1.309754
v 1.153076 28.869061 -1.103008
v 0.000000 28.684099 -1.619064
v 1.295654 27.940500 -0.620079
v 0.000000 26.734011 -2.161715
v 1.811523 26.823191 -1.076055
v 2.585449 27.931870 -0.058802
v 2.716064 29.814659 -0.077651
v 3.209961 29.596380 -0.141309
v 2.010742 28.630619 0.013996
v 0.924560 27.488091 0.154703
v 0.827393 28.433640 0.167127
v 11.149980 24.874781 1.764150
v 12.766770 22.662590 -0.346660
v 11.149910 22.820351 -0.290750
v 12.764760 24.873840 1.924079
v 11.149970 26.929230 -0.290803
v 12.761900 27.074650 -0.343370
v 11.149900 24.874559 -2.345702
v 12.758890 24.873030 -2.622484
v 14.542210 24.873150 -2.249342
v 14.539600 22.962429 -0.284295
v 14.543130 26.846491 -0.283806
v 14.540690 24.872749 1.637289
v 4.038086 16.724020 1.106894
v 3.624023 15.585870 -1.433268
v 3.622803 15.582660 0.628751
v 4.050049 16.727940 -1.933877
v 3.775879 17.747999 0.798153
v 3.793945 17.748220 -1.551412
v 0.951904 16.684441 -1.933984
v 1.381348 15.540560 -1.431262
v 0.937988 16.671370 1.109285
v 1.375000 15.532940 0.625905
v 1.284424 17.700760 0.784182
v 1.277100 17.700689 -1.528249
v -1.295654 27.940500 -0.620079
v -1.153076 28.869061 -1.103008
v -1.811523 26.823191 -1.076055
v -2.010742 28.630619 0.013996
v -3.209961 29.596380 -0.141309
v -2.716064 29.814659 -0.077651
v -2.585449 27.931870 -0.058802
v -0.827393 28.433640 0.167127
v -0.924560 27.488091 0.154703
v -12.764760 24.873850 1.924323
v -11.149910 22.820360 -0.290506
v -12.766770 22.662600 -0.346415
v -11.149990 24.874790 1.764150
v -12.761900 27.074659 -0.343370
v -11.149970 26.929239 -0.290803
v -12.758890 24.873039 -2.622240
v -11.149900 24.874571 -2.345458
v -14.539600 22.962440 -0.284051
v -14.542210 24.873159 -2.249099
v -14.543130 26.846500 -0.283806
v -14.540690 24.872761 1.637533
v -4.050049 16.727940 -1.933877
v -3.622803 15.582660 0.628751
v -3.624023 15.585870 -1.433268
v -4.038086 16.724020 1.106894
v -3.793945 17.748220 -1.551412
v -3.775879 17.747999 0.798153
v -1.381348 15.540560 -1.431262
v -0.951904 16.684441 -1.933984
v -1.375000 15.532940 0.625905
v -0.937988 16.671370 1.109285
v -1.284424 17.700760 0.784182
v -1.277100 17.700689 -1.528249
v 0.000000 27.861710 1.341599
v 0.840576 28.253201 0.939390
v -0.840576 28.253201 0.939390
v -0.840576 27.910919 0.939488
v 0.000000 26.760139 1.272335
v 0.516846 26.922430 1.051343
v -0.516846 26.922430 1.051343
v 0.840576 27.910919 0.939488
v 1.070801 27.599791 0.606816
v 0.000000 26.018869 1.209360
v 0.000000 27.087879 0.795926
v 1.097168 26.632790 -0.315460
v 1.645264 26.727970 0.609507
v 0.767822 27.047670 1.037635
v 0.924316 26.668501 0.978418
v 0.197266 30.074869 2.325577
v 0.000000 30.115160 2.357059
v -0.197266 30.074869 2.325577
v 0.000000 27.614531 -0.753042
v 0.000000 26.630550 -2.005668
v -1.097168 26.632790 -0.315460
v -1.070801 27.599791 0.606816
v -0.767822 27.047670 1.037635
v -1.645264 26.727970 0.609507
v -0.924316 26.668501 0.978418
v 1.531494 29.531019 0.958555
v 1.156006 28.821310 0.937518
v 0.625244 27.708820 1.130463
v 0.610596 27.218109 1.135486
v -1.531494 29.531019 0.958555
v -1.156006 28.821310 0.937518
v -0.625244 27.708820 1.130463
v -0.610596 27.218109 1.135486
v 4.392334 30.180559 -0.293087
v -4.392334 30.180559 -0.293087
v 0.000000 29.290791 -0.760602
v 1.249023 27.940510 -0.578576
v 0.773926 29.291290 0.130749
v 0.000000 27.877560 -1.309754
v -0.773926 29.291290 0.130749
v -1.249023 27.940510 -0.578576
v 0.000000 28.431330 1.465214
v 0.776123 27.910870 0.782263
v 0.000000 29.321609 1.136348
v -0.775879 27.910870 0.782263
v 17.642330 25.082050 2.710053
v 15.561150 23.874229 2.067789
v 15.604580 25.097731 2.017779
v 17.582621 23.803190 2.767118
v 20.314289 24.993719 2.923498
v 20.254330 23.714849 2.980542
v 17.725401 23.811029 1.731909
v 15.441160 25.107679 1.134084
v 15.385950 23.860430 1.149472
v 17.792650 25.018450 1.644279
v 20.103430 23.738701 2.147372
v 20.163290 24.926729 2.058109
v 21.932261 25.683041 1.643546
v 21.940180 24.590031 -2.454698
v 21.934231 24.583870 1.607448
v 21.932079 25.682961 -2.342255
v 20.095301 25.715420 1.642328
v 20.095131 25.715340 -2.343473
v 18.625900 25.741211 1.641464
v 18.625719 25.740780 -2.344338
v 5.196777 6.040704 -2.812423
v 4.650879 10.358220 1.108081
v 4.737549 10.359960 -2.561083
v 4.903320 6.033909 1.232586
v 4.719482 4.328256 -2.398797
v 4.396729 4.325469 0.984649
v 0.366455 6.041233 -2.878670
v 0.450928 10.361600 -2.523077
v 0.861084 4.325954 -2.474995
v 0.730225 6.034705 1.206954
v 0.667236 10.360310 1.114075
v 1.375977 4.324575 0.991443
v 2.818115 0.048970 4.911791
v 5.257324 2.570784 2.460490
v 5.718994 0.049436 2.575997
v 2.821533 2.567624 3.952009
v 0.130127 0.049192 2.597971
v 0.484131 2.568587 2.511029
v 0.233643 0.050122 -2.274308
v 0.583008 2.575620 -2.462085
v 1.407959 3.656267 1.198707
v 1.251465 3.650376 -2.168137
v 2.783203 2.569752 -3.331018
v 2.664795 3.652327 -2.414241
v 4.985352 2.578793 -2.568535
v 4.065430 3.657700 -2.181077
v 4.190674 3.655779 1.166479
v 20.097031 24.616249 1.606226
v 18.633610 24.647690 -2.456852
v 18.627720 24.641830 1.605291
v 20.103220 24.622169 -2.455916
v 7.435999 27.208250 -0.386492
v 7.435675 22.899630 0.889346
v 7.435678 24.994209 1.998150
v 7.435726 22.438770 -0.387527
v 7.436126 24.957279 -2.923337
v 7.435925 22.855370 -1.664433
v 4.861408 26.707109 -0.427796
v 7.308908 24.628630 1.570555
v 4.914773 24.777781 1.211799
v 7.339829 27.096180 -0.416374
v 4.783538 24.700081 -1.982835
v 7.309737 24.715080 -2.643988
v -17.582621 23.803200 2.767362
v -15.604580 25.097740 2.018023
v -15.561150 23.874241 2.068033
v -17.642330 25.082060 2.710297
v -20.254330 23.714861 2.980786
v -20.314289 24.993731 2.923743
v -17.792669 25.018471 1.644280
v -15.385950 23.860439 1.149716
v -15.441160 25.107691 1.134327
v -17.725401 23.811041 1.732153
v -20.163290 24.926741 2.058353
v -20.103451 23.738710 2.147372
v -21.932091 25.682970 -2.342255
v -21.934231 24.583879 1.607448
v -21.940180 24.590040 -2.454453
v -21.932261 25.683050 1.643790
v -20.095131 25.715349 -2.343230
v -20.095301 25.715429 1.642572
v -18.625719 25.741039 -2.344338
v -18.625900 25.741220 1.641708
v -4.903320 6.033909 1.232586
v -4.737549 10.359960 -2.561083
v -4.650879 10.358220 1.108081
v -5.196777 6.040704 -2.812423
v -4.396729 4.325469 0.984649
v -4.719482 4.328256 -2.398797
v -0.450928 10.361600 -2.523077
v -0.366455 6.041233 -2.878670
v -0.861084 4.325954 -2.474995
v -0.667236 10.360310 1.114075
v -0.730225 6.034705 1.206954
v -1.375977 4.324575 0.991443
v -2.821533 2.567624 3.952009
v -5.718994 0.049436 2.575997
v -5.257324 2.570784 2.460490
v -2.818115 0.048970 4.911791
v -0.484131 2.568587 2.511029
v -0.130127 0.049192 2.597971
v -0.583008 2.575620 -2.462085
v -0.233643 0.050122 -2.274308
v -1.251465 3.650376 -2.168137
v -1.407959 3.656267 1.198707
v -2.664795 3.652327 -2.414241
v -2.783203 2.569752 -3.331018
v -4.065430 3.657700 -2.181077
v -4.985352 2.578793 -2.568535
v -4.190674 3.655779 1.166479
v -20.103220 24.622181 -2.455672
v -18.627720 24.641840 1.605535
v -18.633610 24.647699 -2.456608
v -20.097031 24.616261 1.606470
v -7.435726 22.438780 -0.387283
v -7.435678 24.994221 1.998394
v -7.435675 22.899639 0.889591
v -7.435999 27.208260 -0.386248
v -7.435925 22.855379 -1.664190
v -7.435882 24.957279 -2.923096
v -7.339829 27.096189 -0.416130
v -4.914773 24.777790 1.212043
v -7.308908 24.628639 1.570799
v -4.861408 26.707121 -0.427552
v -7.309737 24.715090 -2.643744
v -4.783538 24.700090 -1.982591
v 2.752930 0.050110 -3.568309
v 0.000000 29.591579 0.118456
v 5.391357 0.050122 -2.333881
v 5.980885 27.266630 -0.416412
v 3.440199 26.043770 -1.134130
v 5.981501 26.565140 -1.931358
v 3.468479 26.054939 0.382460
v 5.984712 23.039930 -2.142890
v 5.983130 24.622129 -2.748821
v 5.982670 23.074680 1.150043
v 5.982448 24.628309 1.626645
v 5.980350 26.548901 0.827292
v 5.982031 25.075159 1.530165
v 5.980545 26.183180 1.098853
v -2.752930 0.050110 -3.568553
v -5.391357 0.050122 -2.333881
v -3.440199 26.043779 -1.133886
v -5.980885 27.266640 -0.416168
v -5.981501 26.565149 -1.931113
v -3.468479 26.054951 0.382704
v -5.980545 26.183189 1.099097
v -5.982031 25.075171 1.530409
v -5.984715 23.039940 -2.142890
v -5.983130 24.622141 -2.748577
v -5.980350 26.548910 0.827536
v -5.982677 23.074450 1.150287
v -5.982451 24.628309 1.626645
v 15.321190 25.664551 1.296829
v 15.621180 23.666389 1.176951
v 15.620520 23.699650 -2.056460
v 15.319310 25.748880 -2.131921
v 4.352469 23.287861 1.468629
v 4.421597 24.432060 1.765981
v 4.190800 23.443821 -2.200656
v 4.270713 24.562250 -2.354427
v 5.031306 25.798710 -2.137483
v 5.027092 25.256109 -2.349968
v 4.745431 23.038771 -0.441935
v 5.046061 26.056919 1.247732
v 5.027242 25.543430 1.526853
v -15.321190 25.664560 1.297073
v -15.319310 25.748890 -2.131677
v -15.620520 23.699659 -2.056216
v -15.621180 23.666401 1.177195
v -4.421597 24.432070 1.766225
v -4.352469 23.287870 1.468873
v -4.190800 23.443830 -2.200412
v -4.270713 24.562260 -2.354182
v -5.027092 25.256121 -2.349724
v -5.031306 25.798719 -2.137239
v -4.745431 23.038780 -0.441691
v -5.046061 26.056931 1.247976
v -5.027242 25.543440 1.527097
v -19.639179 24.796869 11.264020
v -19.639450 24.793230 -10.613670
v -17.972130 24.792959 -10.613640
v -17.971861 24.796591 11.264050
v -18.804340 23.739731 10.812290
v -18.804590 23.736191 -10.547710
v -26.235550 23.397810 -12.288970
v -28.498440 25.146400 -9.226786
v -28.498480 23.398689 -9.226762
v -26.235510 25.145519 -12.288990
v -21.990379 23.396740 -14.628310
v -21.990339 25.144440 -14.628330
v -18.804661 23.396151 -15.062930
v -18.804609 25.143850 -15.062950
v -15.609160 23.395700 -14.628200
v -15.609110 25.143410 -14.628220
v -11.366370 23.395399 -12.288710
v -11.366330 25.143110 -12.288730
v -9.100928 23.395540 -9.226427
v -9.100881 25.143250 -9.226451
v -23.621010 23.737150 -9.436692
v -25.874180 23.738001 -6.528334
v -21.309240 23.736580 -10.623460
v -18.804590 23.736191 -10.547710
v -16.290190 23.735769 -10.623370
v -13.978380 23.735590 -9.436526
v -11.725150 23.735701 -6.528090
v -25.874149 24.809570 -6.528348
v -23.620991 24.808720 -9.436707
v -21.309210 24.808149 -10.623470
v -18.804569 24.807751 -10.547730
v -16.290159 24.807329 -10.623380
v -13.978350 24.807159 -9.436542
v -11.725120 24.807270 -6.528105
v -26.235210 25.149639 12.555710
v -28.498260 23.401791 9.493454
v -28.498211 25.149500 9.493430
v -26.235250 23.401939 12.555740
v -21.989981 25.149340 14.892760
v -21.990030 23.401630 14.892780
v -18.804239 25.148899 15.327490
v -18.804291 23.401190 15.327510
v -15.608760 25.148310 14.892870
v -15.608800 23.400600 14.892890
v -11.366030 25.147230 12.555970
v -11.366070 23.399521 12.555990
v -9.100655 25.146360 9.493765
v -9.100702 23.398649 9.493789
v -25.874020 23.740210 6.792665
v -23.620781 23.740330 9.701102
v -21.308981 23.740150 10.887940
v -18.804340 23.739731 10.812290
v -16.289930 23.739340 10.888030
v -13.978150 23.738760 9.701268
v -11.724990 23.737921 6.792909
v -23.620750 24.811899 9.701087
v -25.873989 24.811781 6.792651
v -21.308950 24.811720 10.887930
v -18.804310 24.811300 10.812270
v -16.289900 24.810909 10.888020
v -13.978120 24.810329 9.701253
v -11.724960 24.809481 6.792894
v 6.418365 32.010471 -1.551347
v 3.537848 32.642990 -2.064003
v 5.637839 33.553699 -1.258623
v 4.699376 31.398479 -2.322884
v 7.105950 30.110161 -1.903678
v 5.052562 29.657471 -2.635076
v 6.967594 26.629210 -2.491140
v 4.756094 27.411921 -3.004309
v 5.386734 23.945869 -2.853401
v 3.715101 25.389271 -3.305958
v 1.896861 21.618320 -3.138462
v 0.748009 23.744320 -3.467058
v 6.381968 32.260159 -2.954372
v 5.601439 33.801708 -2.656456
v 7.071999 30.365860 -3.332299
v 6.931200 26.885269 -3.917347
v 5.365003 24.234320 -4.245000
v 1.860467 21.874380 -4.564669
v -4.707365 31.398239 -2.322307
v -5.646344 33.551971 -1.257712
v -3.547115 32.641621 -2.063388
v -6.425875 32.011909 -1.550826
v -5.062186 29.657579 -2.634510
v -7.115245 30.109859 -1.902815
v -4.765392 27.411739 -3.003734
v -6.975281 26.628771 -2.490272
v -3.723867 25.388069 -3.305349
v -5.396959 23.946310 -2.852847
v -0.755899 23.742640 -3.466718
v -1.906851 21.617760 -3.138159
v -5.611941 33.802361 -2.655908
v -6.389031 32.261570 -2.953850
v -7.080837 30.365530 -3.331435
v -6.940874 26.884800 -3.916478
v -5.374746 24.234730 -4.244445
v -1.870003 21.873791 -4.564365
v -0.832519 0.294190 10.937500
v -0.832519 0.294190 -10.937500
v 0.832519 0.294190 -10.937500
v 0.832519 0.294190 10.937500
v 0.002441 -0.762940 10.485840
v 0.002441 -0.762940 -10.869140
v -7.429199 -1.099854 -12.612300
v -9.694824 0.648193 -9.550781
v -9.694824 -1.099854 -9.550781
v -7.429199 0.648193 -12.612300
v -3.186035 -1.099854 -14.948730
v -3.186035 0.648193 -14.948730
v 0.000000 -1.099854 -15.383300
v 0.000000 0.648193 -15.383300
v 3.195801 -1.099854 -14.948730
v 3.195801 0.648193 -14.948730
v 7.441406 -1.099854 -12.612300
v 7.441406 0.648193 -12.612300
v 9.707031 -1.099854 -9.550781
v 9.707031 0.648193 -9.550781
v -4.816895 -0.762940 -9.758301
v -7.067871 -0.762940 -6.850586
v -2.502441 -0.762940 -10.944820
v 0.002441 -0.762940 -10.869140
v 2.514648 -0.762940 -10.944820
v 4.829102 -0.762940 -9.758301
v 7.080078 -0.762940 -6.850586
v -7.067871 0.308838 -6.850586
v -4.816895 0.308838 -9.758301
v -2.502441 0.308838 -10.944820
v 0.002441 0.308838 -10.869140
v 2.514648 0.308838 -10.944820
v 4.829102 0.308838 -9.758301
v 7.080078 0.308838 -6.850586
v -7.429199 0.648193 12.226560
v -9.694824 -1.099854 9.165039
v -9.694824 0.648193 9.165039
v -7.429199 -1.099854 12.226560
v -3.186035 0.648193 14.565430
v -3.186035 -1.099854 14.565430
v 0.000000 0.648193 14.997560
v 0.000000 -1.099854 14.997560
v 3.195801 0.648193 14.565430
v 3.195801 -1.099854 14.565430
v 7.441406 0.648193 12.226560
v 7.441406 -1.099854 12.226560
v 9.707031 0.648193 9.165039
v 9.707031 -1.099854 9.165039
v -7.067871 -0.762940 6.467285
v -4.816895 -0.762940 9.372559
v -2.502441 -0.762940 10.561520
v 0.002441 -0.762940 10.485840
v 2.514648 -0.762940 10.561520
v 4.829102 -0.762940 9.372559
v 7.080078 -0.762940 6.467285
v -4.816895 0.308838 9.372559
v -7.067871 0.308838 6.467285
v -2.502441 0.308838 10.561520
v 0.002441 0.308838 10.485840
v 2.514648 0.308838 10.561520
v 4.829102 0.308838 9.372559
v 7.080078 0.308838 6.467285
# 771 vertices

vt 0.96484 -0.26562
vt 0.02344 -0.99219
vt 0.02344 -0.02344
vt 0.91406 -0.83984
vt 0.07617 -0.23633
vt 0.86133 -0.19141
vt 0.34766 -0.48438
vt 0.07812 -0.00586
vt 0.04102 -0.89453
vt 0.86133 -0.73828
vt 0.03516 -0.63086
vt 1.00000 5.46094
vt 0.00000 7.91406
vt 1.00000 7.91016
vt 0.00000 5.46484
vt 1.00000 2.96875
vt 0.00000 2.96875
vt 1.00000 0.48438
vt 0.00000 0.48047
vt 1.00000 -1.99609
vt 0.00000 -1.99219
vt 0.55566 -0.24805
vt 0.15820 -0.35840
vt 0.34180 -0.24805
vt 0.59180 -0.35840
vt 0.86523 -0.24707
vt 0.80566 -0.36523
vt 0.33594 -0.00293
vt 0.00293 -0.24805
vt 0.00293 -0.05176
vt 0.55664 -0.00293
vt 0.84766 -0.00293
vt 0.00293 -0.57715
vt 0.00293 -0.34082
vt 0.17383 -0.57715
vt 0.59082 -0.57715
vt 0.80664 -0.57715
vt 0.01562 -0.60352
vt 0.01855 -0.87402
vt 0.01855 -0.60352
vt 0.01562 -0.87402
vt 0.02148 -0.60352
vt 0.02148 -0.87402
vt 0.99512 -0.18555
vt 0.85547 -0.93652
vt 0.84473 -0.41504
vt 0.98242 -0.99609
vt 0.01367 -0.75977
vt 0.02148 -0.96582
vt 0.01465 -0.96387
vt 0.02246 -0.75781
vt 0.01465 -0.60742
vt 0.02051 -0.60938
vt 0.18164 -0.68750
vt 0.09375 -0.62012
vt 0.18164 -0.62012
vt 0.09375 -0.68750
vt 0.17871 -0.69629
vt 0.09668 -0.69629
vt 0.18164 -0.86816
vt 0.09375 -0.86816
vt 0.58789 -0.95801
vt 0.69434 -0.68750
vt 0.78711 -0.83789
vt 0.41309 -0.99316
vt 0.12500 -0.95020
vt 0.06348 -0.94531
vt 0.06348 -0.98828
vt 0.06348 -0.91699
vt 0.41797 -0.83301
vt 0.08789 -0.78027
vt 0.08789 -0.78223
vt 0.08594 -0.78223
vt 0.57520 -0.98926
vt 0.56055 -0.87500
vt 0.64355 -0.82129
vt 0.62891 -0.98926
vt 0.72949 -0.94629
vt 0.74219 -0.77832
vt 0.79395 -0.92969
vt 0.32910 -0.85938
vt 0.07715 -0.85742
vt 0.07617 -0.61035
vt 0.46094 -0.59961
vt 0.08594 -0.77344
vt 0.08789 -0.77344
vt 0.15918 -0.79980
vt 0.12109 -0.79980
vt 0.12207 -0.74316
vt 0.15820 -0.74316
vt 0.08594 -0.76953
vt 0.08887 -0.76953
vt 0.08887 -0.74316
vt 0.08594 -0.74316
vt 0.25781 -1.00000
vt 0.25781 -0.97266
vt 0.23730 -0.97266
vt 0.23828 -1.00000
vt 0.12500 -0.95996
vt 0.06348 -0.97461
vt 0.12500 -0.96680
vt 0.12500 -0.91699
vt 0.50000 -0.77734
vt 0.39648 -0.99219
vt 0.38281 0.00391
vt 0.98828 -0.50000
vt 0.29297 -0.17969
vt 0.16406 -0.20508
vt 0.24219 -0.22852
vt 0.14258 -0.17773
vt 0.15430 -0.13086
vt 0.19727 -0.10742
vt 0.25781 -0.20117
vt 0.15430 -0.14258
vt 0.24609 -0.17383
vt 0.22461 -0.23828
vt 0.16016 -0.25195
vt 0.19922 -0.50000
vt 0.00000 -1.00000
vt 0.00000 -0.50000
vt 0.18359 -0.86328
vt 0.36914 -1.00000
vt 0.33008 -0.04297
vt 0.33008 -0.33789
vt 0.04688 -0.33789
vt 0.04492 -0.04492
vt 0.98633 -0.73047
vt 0.04883 -0.33594
vt 0.04492 -0.05078
vt 0.33008 -0.04102
vt 0.12305 -0.46484
vt 0.08984 -0.46484
vt 0.36914 -0.50000
vt 0.01562 1.26562
vt 0.99609 -0.99609
vt 0.01562 -1.00000
vt 0.99609 1.26562
vt 0.01562 3.74609
vt 0.99609 3.73828
vt 0.01562 6.61719
vt 0.99609 6.62109
vt 0.01562 8.96484
vt 0.99609 8.96484
vt 0.00781 1.88281
vt 0.94922 -3.06250
vt 0.00781 -3.05469
vt 0.94922 1.87891
vt 0.00781 4.08594
vt 0.94922 4.08594
vt 0.00781 7.92578
vt 0.94922 7.93750
vt 0.00781 10.13281
vt 0.94922 10.14063
vt -0.98438 6.45312
vt -0.01172 8.88672
vt -0.98438 8.89453
vt -0.01172 6.44531
vt -0.98438 3.53906
vt -0.01172 3.53125
vt -0.98438 1.09766
vt -0.98438 3.53125
vt -0.01172 1.09766
vt -0.98438 -1.82422
vt -0.01172 -1.82422
vt 0.01172 1.39453
vt 0.99219 -1.00000
vt 0.01172 -1.00000
vt 0.99219 1.39453
vt 0.01172 3.78906
vt 0.99219 3.78906
vt 0.01172 6.68750
vt 0.99219 6.68750
vt 0.01172 8.98438
vt 0.99219 8.98438
vt 0.00000 3.22656
vt 0.94922 5.72266
vt 0.00000 5.70703
vt 0.94922 3.26172
vt 0.00000 1.50391
vt 0.94922 1.50391
vt 0.00000 -1.00781
vt 0.94922 -0.99219
vt 0.00000 -3.03516
vt 0.94922 -3.00781
vt 0.42773 -0.98926
vt 0.62793 -0.57910
vt 0.99512 -0.98926
vt 0.42773 -0.56836
vt 1.13477 -0.91016
vt 1.12305 -0.88086
vt 1.13477 -0.88086
vt 1.12305 -0.91016
vt 1.13477 -0.93652
vt 1.12207 -0.93652
vt 0.45605 -0.77246
vt 0.45996 -0.71289
vt 0.47266 -0.71973
vt 0.44141 -0.75098
vt 0.41211 -0.78711
vt 0.40918 -0.75684
vt 0.89160 -0.57422
vt 0.96875 -0.44629
vt 0.96094 -0.57324
vt 0.89160 -0.44824
vt 0.79785 -0.57324
vt 0.79102 -0.44629
vt 0.89062 -0.57422
vt 0.79004 -0.44727
vt 0.79688 -0.57324
vt 0.89062 -0.44824
vt 0.95996 -0.57324
vt 0.96777 -0.44629
vt 0.89062 -0.30273
vt 0.95410 -0.30371
vt 0.80078 -0.30371
vt 0.95508 -0.30371
vt 0.89160 -0.30273
vt 0.80176 -0.30371
vt 0.40820 -0.44727
vt 0.69434 -0.56348
vt 0.46191 -0.56348
vt 0.75195 -0.44727
vt 0.44336 -0.34570
vt 0.70801 -0.34570
vt 0.68652 -0.44922
vt 0.70215 -0.56348
vt 0.70508 -0.44922
vt 0.68945 -0.56348
vt 0.68848 -0.33496
vt 0.70312 -0.33496
vt 0.00879 -0.19434
vt 0.00586 -0.00488
vt 0.50098 -0.00391
vt 0.43750 -0.16211
vt 0.00684 -0.66309
vt 0.29297 -0.61133
vt 0.97363 -0.00781
vt 0.42969 -0.33594
vt 0.48438 -0.10742
vt 0.99121 -0.20801
vt 0.18750 -0.97266
vt 0.06152 -0.95117
vt 0.06348 -0.80371
vt 0.07715 -0.97266
vt 0.08105 -0.91406
vt 0.31641 -0.97559
vt 0.05859 -0.97559
vt 0.31641 -0.91406
vt 0.98828 -0.56348
vt 0.91797 -0.59277
vt 0.89062 -0.56348
vt 0.98633 -0.59277
vt 0.13672 -0.66992
vt 0.33203 -0.75586
vt 0.29102 -0.85156
vt 0.10352 -0.74902
vt 0.04590 -0.87012
vt 0.04590 -0.92383
vt 0.77637 -0.56055
vt 0.86328 -0.56152
vt 0.86133 -0.57715
vt 0.77637 -0.57617
vt 0.39160 -0.97070
vt 0.50391 -0.70117
vt 0.99609 -0.66309
vt 0.34082 0.51953
vt 0.56543 0.57227
vt 0.42676 0.47168
vt 0.34082 0.57715
vt 0.34082 0.35742
vt 0.56445 0.36133
vt 0.34082 0.41211
vt 0.05078 -0.54297
vt 0.09277 -0.64746
vt 0.05078 -0.64746
vt 0.09277 -0.54297
vt 0.05078 -0.43457
vt 0.09375 -0.43457
vt 0.14844 -0.56641
vt 0.08887 -0.48633
vt 0.14551 -0.48535
vt 0.09375 -0.56738
vt 0.15137 -0.64746
vt 0.09766 -0.64941
vt 0.03516 -0.64746
vt 0.24902 -0.67773
vt 0.03516 -0.67773
vt 0.24902 -0.64746
vt 0.03516 -0.54297
vt 0.24902 -0.54297
vt 0.03516 -0.43457
vt 0.24902 -0.43457
vt 0.41309 -0.29688
vt 0.21094 0.00000
vt 0.41309 0.00000
vt 0.21777 -0.29688
vt 0.38086 -0.40430
vt 0.20312 -0.40430
vt 0.80273 -0.29688
vt 0.47070 0.00000
vt 0.77832 0.00000
vt 0.44336 -0.29688
vt 0.77832 -0.40430
vt 0.47070 -0.40430
vt 0.00684 0.00000
vt 0.00586 -0.29688
vt 0.00586 -0.40430
vt 0.00000 -1.00000
vt 0.18652 -0.81445
vt 0.18652 -1.00000
vt 0.03320 -0.81445
vt 0.45020 -1.00000
vt 0.45020 -0.81445
vt 0.23926 -0.69043
vt 0.47949 -0.69043
vt 0.59961 -0.81445
vt 0.59961 -0.69043
vt 0.27637 -0.54297
vt 0.27637 -0.43457
vt 0.27637 -0.64746
vt 0.00879 -0.43457
vt 0.00879 -0.54297
vt 0.00879 -0.64746
vt 0.19629 -0.58203
vt 0.19336 -0.59082
vt 0.19141 -0.58594
vt 0.19629 -0.59180
vt 0.20117 -0.58594
vt 0.19824 -0.59082
vt 0.33594 -0.53320
vt 0.56543 -0.63672
vt 0.33496 -0.63672
vt 0.56738 -0.53223
vt 0.33496 -0.43750
vt 0.56543 -0.43750
vt 0.09277 -0.56250
vt 0.06934 -0.45117
vt 0.10059 -0.44434
vt 0.04688 -0.56055
vt 0.59961 -1.00000
vt 0.03027 -0.69043
vt 0.34082 0.46289
vt 0.89355 -0.70703
vt 0.63379 -0.63867
vt 0.89355 -0.58984
vt 0.63379 -0.80176
vt 0.99414 -0.49805
vt 0.89355 -0.41504
vt 0.99414 -0.41504
vt 0.89355 -0.50391
vt 0.89355 -1.00000
vt 0.99414 -0.91602
vt 0.99414 -1.00000
vt 0.90723 -0.92871
vt 0.99414 -0.70703
vt 0.89453 -0.82129
vt 0.90625 -0.90039
vt 0.89453 -0.85059
vt 0.04980 -0.64551
vt 0.09180 -0.64551
vt 0.09180 -0.60059
vt 0.04980 -0.60059
vt 0.14160 -0.54395
vt 0.14258 -0.57812
vt 0.12891 -0.57812
vt 0.12891 -0.54297
vt 0.13086 -0.52734
vt 0.12891 -0.58398
vt 0.08105 -0.58301
vt 0.08008 -0.52539
vt -0.80469 -0.73438
vt -0.78320 -0.73438
vt -0.78320 -0.78125
vt -0.80469 -0.78125
vt -0.15820 -0.19043
vt -0.15723 0.00000
vt -0.00098 0.00000
vt -0.00098 -0.19043
vt 0.19238 -0.48047
vt 0.15820 -0.49512
vt 0.15527 -0.46387
vt 0.19238 -0.46289
vt 0.08398 -0.65332
vt 0.04688 -0.66211
vt 0.68848 -1.00000
vt 0.68848 -0.92480
vt 0.69043 -0.41504
vt 0.69043 -0.50391
vt 0.79883 -0.55664
vt 0.79883 -0.52930
vt 0.39355 -0.44434
vt 0.46289 -0.49707
vt 0.45215 -0.57715
vt 0.38281 -0.61426
vt 0.55957 -0.59668
vt 0.56152 -0.48633
vt 0.33301 -0.43652
vt 0.33789 -0.62012
vt 0.56934 -0.47949
vt 0.54688 -0.61816
vt 0.41797 -0.58105
vt 0.46094 -0.46973
vt 0.80078 -0.86719
vt 0.80078 -0.89844
vt 0.09180 -0.57617
vt 0.09180 -0.53320
vt 0.15234 -0.53320
vt 0.15234 -0.57617
vt 0.77539 -2.09961
vt 0.96289 -3.00195
vt 0.77148 -2.98828
vt 0.96484 -2.11328
vt 0.77539 -0.69141
vt 0.96094 -0.68164
vt 0.78711 0.66602
vt 0.97852 0.65820
vt -0.70898 -1.84961
vt -0.24023 -3.00586
vt -0.70898 -3.00000
vt -0.24023 -1.84375
vt -0.70898 -0.28516
vt -0.24023 -0.28906
vt -0.70898 1.73438
vt -0.24023 1.73242
vt -0.70898 -2.99805
vt -0.22656 -2.99805
vt -0.22852 -3.00000
vt -0.71094 -3.00000
vt -0.23633 -3.00000
vt -0.23828 -3.00000
vt 0.75391 4.43164
vt 0.28711 5.96875
vt 0.75391 5.97266
vt 0.28711 4.42969
vt 0.75391 3.00195
vt 0.28711 3.00195
vt 0.75391 1.29688
vt 0.28711 1.29883
vt 0.75391 -0.28125
vt 0.28711 -0.27734
vt 0.75391 -2.98438
vt 0.28711 -2.97852
vt 0.99609 5.05469
vt 0.80859 5.97656
vt 1.00000 5.96289
vt 0.80469 5.06836
vt 0.98828 3.88086
vt 0.79883 3.89258
vt 0.97852 1.45312
vt 0.78711 1.46680
vt 0.96094 -0.67383
vt 0.77539 -0.69141
vt 0.96289 -3.00195
vt 0.77148 -2.98828
vt -0.70898 4.44531
vt -0.24023 5.99805
vt -0.70898 5.99414
vt -0.24023 4.44922
vt -0.70898 3.01172
vt -0.24023 3.00977
vt -0.70898 1.29883
vt -0.24023 1.29688
vt -0.70898 -0.28516
vt -0.24023 -0.28906
vt -0.70898 -3.00000
vt -0.24023 -3.00586
vt 0.73438 -0.06836
vt 0.73438 -0.02148
vt 0.31055 -0.04492
vt 0.09180 -0.57617
vt 0.09180 -0.53320
vt 0.15234 -0.53320
vt 0.15234 -0.57617
vt 0.77539 -2.09961
vt 0.96289 -3.00195
vt 0.77148 -2.98828
vt 0.96484 -2.11328
vt 0.77539 -0.69141
vt 0.96094 -0.68164
vt 0.78711 0.66602
vt 0.97852 0.65820
vt -0.70898 -1.84961
vt -0.24023 -3.00586
vt -0.70898 -3.00000
vt -0.24023 -1.84375
vt -0.70898 -0.28516
vt -0.24023 -0.28906
vt -0.70898 1.73438
vt -0.24023 1.73242
vt -0.70898 -2.99805
vt -0.22656 -2.99805
vt -0.22852 -3.00000
vt -0.71094 -3.00000
vt -0.23633 -3.00000
vt -0.23828 -3.00000
# 495 texture vertices

usemtl mat4.png
f 1/3 2/2 3/1
f 2/2 4/4 3/1
f 5/4 2/2 6/1
f 2/2 1/3 6/1
f 7/4 8/1 9/2
f 8/1 10/3 9/2
f 9/2 10/3 11/1
f 9/2 11/1 12/4
usemtl mat6.png
f 15/7 14/6 13/5
f 14/6 16/8 13/5
f 13/5 16/8 17/7
f 16/8 18/6 17/7
f 20/10 15/7 19/9
f 15/7 21/11 19/9
f 19/9 21/11 22/10
f 21/11 17/7 22/10
f 14/6 15/7 20/10
f 18/6 22/10 17/7
usemtl mat8.png
f 25/14 24/13 23/12
f 24/13 26/15 23/12
f 23/12 26/15 27/16
f 26/15 28/17 27/16
f 27/16 28/17 29/18
f 28/17 30/19 29/18
f 29/18 30/19 25/20
f 30/19 24/21 25/20
f 33/13 32/14 31/15
f 32/14 34/12 31/15
f 31/15 34/12 35/17
f 34/12 36/16 35/17
f 35/17 36/16 37/19
f 36/16 38/18 37/19
f 37/19 38/18 33/21
f 38/18 32/20 33/21
usemtl mat4.png
f 41/24 40/23 39/22
f 40/23 42/25 39/22
f 39/22 42/25 43/26
f 42/25 44/27 43/26
f 43/26 44/27 45/22
f 44/27 46/25 45/22
f 45/22 46/25 47/24
f 46/25 48/23 47/24
f 51/30 50/29 49/28
f 50/29 41/24 49/28
f 49/28 41/24 52/31
f 41/24 39/22 52/31
f 52/31 39/22 53/32
f 39/22 43/26 53/32
f 53/32 43/26 54/31
f 43/26 45/22 54/31
f 54/31 45/22 55/28
f 45/22 47/24 55/28
f 55/28 47/24 51/30
f 47/24 50/29 51/30
f 57/34 56/33 40/23
f 56/33 58/35 40/23
f 40/23 58/35 42/25
f 58/35 59/36 42/25
f 42/25 59/36 44/27
f 59/36 60/37 44/27
f 44/27 60/37 46/25
f 60/37 61/36 46/25
f 46/25 61/36 48/23
f 61/36 62/35 48/23
f 48/23 62/35 57/34
f 62/35 56/33 57/34
f 65/40 64/39 63/38
f 64/39 66/41 63/38
f 63/38 66/41 67/40
f 66/41 68/39 67/40
f 67/40 68/39 69/42
f 68/39 70/43 69/42
f 69/42 70/43 65/40
f 70/43 64/39 65/40
f 73/46 72/45 71/44
f 72/45 74/47 71/44
f 71/44 74/47 75/46
f 74/47 76/45 75/46
f 79/50 78/49 77/48
f 78/49 80/51 77/48
f 77/48 80/51 81/52
f 80/51 82/53 81/52
f 78/50 83/49 80/48
f 83/49 84/51 80/48
f 80/48 84/51 82/52
f 84/51 85/53 82/52
f 83/50 86/49 84/48
f 86/49 87/51 84/48
f 84/48 87/51 85/52
f 87/51 88/53 85/52
f 86/50 79/49 87/48
f 79/49 77/51 87/48
f 87/48 77/51 88/52
f 77/51 81/53 88/52
f 91/39 90/40 89/41
f 90/40 92/38 89/41
f 89/41 92/38 93/39
f 92/38 94/40 93/39
f 93/39 94/40 95/43
f 94/40 96/42 95/43
f 95/43 96/42 91/39
f 96/42 90/40 91/39
f 99/45 98/46 97/47
f 98/46 100/44 97/47
f 97/47 100/44 101/45
f 100/44 102/46 101/45
f 105/49 104/50 103/51
f 104/50 106/48 103/51
f 103/51 106/48 107/53
f 106/48 108/52 107/53
f 110/49 105/50 109/51
f 105/50 103/48 109/51
f 109/51 103/48 111/53
f 103/48 107/52 111/53
f 113/49 110/50 112/51
f 110/50 109/48 112/51
f 112/51 109/48 114/53
f 109/48 111/52 114/53
f 104/49 113/50 106/51
f 113/50 112/48 106/51
f 106/51 112/48 108/53
f 112/48 114/52 108/53
f 117/56 116/55 115/54
f 116/55 118/57 115/54
f 115/54 118/57 119/58
f 118/57 120/59 119/58
f 119/58 120/59 121/60
f 120/59 122/61 121/60
f 125/64 124/63 123/62
f 124/63 126/65 123/62
f 41/24 50/29 40/23
f 50/29 57/34 40/23
f 129/68 128/67 127/66
f 128/67 130/69 127/66
f 133/70 132/63 131/65
f 132/63 134/62 131/65
f 57/34 50/29 48/23
f 50/29 47/24 48/23
f 118/71 116/72 120/71
f 116/72 135/73 120/71
f 115/71 119/71 117/72
f 119/71 136/73 117/72
f 139/77 126/76 138/75 137/74
f 141/80 123/79 126/76 140/78
f 144/84 143/83 142/82 138/81
f 147/75 131/76 146/77 145/74
f 131/76 134/79 149/80 148/78
f 151/82 150/83 133/84 147/81
f 122/86 120/71 135/73 152/85
f 153/90 152/89 135/88 136/87
f 136/94 135/93 116/92 117/91
f 153/85 136/73 119/71 121/86
f 122/98 152/97 153/96 121/95
f 156/100 155/67 154/99
f 156/68 154/101 157/67
f 154/102 155/69 157/67
f 124/63 144/70 126/65
f 138/81 126/103 144/84
f 129/100 127/99 130/67
f 134/62 132/63 158/64
f 147/81 133/84 131/103
usemtl mat3.png
f 161/106 160/105 159/104
f 160/105 162/106 159/104
f 165/109 164/108 163/107
f 164/108 166/110 163/107
f 163/107 166/110 167/111
f 167/111 168/112 163/107
f 168/112 169/111 163/107
f 163/107 169/111 170/110
f 173/115 172/114 171/113
f 172/114 174/116 171/113
f 174/116 172/114 175/117
f 172/114 176/116 175/117
f 178/115 177/113 172/114
f 177/113 176/116 172/114
f 181/120 180/119 179/118
f 180/119 182/121 179/118
f 179/118 182/121 183/122
f 182/121 180/119 183/122
f 187/126 186/125 185/124 184/123
f 191/127 190/127 189/127 188/127
f 195/127 194/127 193/127 192/127
f 199/129 198/128 197/124 196/123
f 203/123 202/124 201/128 200/129
f 207/130 206/126 205/125 204/124
f 211/124 210/125 209/126 208/123
f 215/127 214/127 213/127 212/127
f 219/127 218/127 217/127 216/127
f 223/124 222/128 221/129 220/123
f 227/128 226/124 225/123 224/129
f 231/125 230/126 229/130 228/124
f 183/132 180/132 181/131 232/131
f 183/122 232/133 179/118
usemtl mat2.png
f 235/136 234/135 233/134
f 234/135 236/137 233/134
f 233/134 236/137 237/138
f 236/137 238/139 237/138
f 237/138 238/139 239/140
f 238/139 240/141 239/140
f 239/140 240/141 235/142
f 240/141 234/143 235/142
f 243/146 242/145 241/144
f 242/145 244/147 241/144
f 241/144 244/147 245/148
f 244/147 246/149 245/148
f 245/148 246/149 247/150
f 246/149 248/151 247/150
f 247/150 248/151 243/152
f 248/151 242/153 243/152
f 251/156 250/155 249/154
f 250/155 252/157 249/154
f 249/154 252/157 253/158
f 252/157 254/159 253/158
f 253/161 254/159 255/160
f 254/159 256/162 255/160
f 255/160 256/162 251/163
f 256/162 250/164 251/163
f 259/167 258/166 257/165
f 258/166 260/168 257/165
f 257/165 260/168 261/169
f 260/168 262/170 261/169
f 261/169 262/170 263/171
f 262/170 264/172 263/171
f 263/171 264/172 259/173
f 264/172 258/174 259/173
f 267/177 266/176 265/175
f 266/176 268/178 265/175
f 265/175 268/178 269/179
f 268/178 270/180 269/179
f 269/179 270/180 271/181
f 270/180 272/182 271/181
f 271/181 272/182 273/183
f 272/182 274/184 273/183
f 273/183 274/184 275/181
f 274/184 276/182 275/181
f 275/181 276/182 277/179
f 276/182 278/180 277/179
f 277/179 278/180 279/175
f 278/180 280/178 279/175
f 279/175 280/178 267/177
f 280/178 266/176 267/177
f 283/135 282/136 281/137
f 282/136 284/134 281/137
f 281/137 284/134 285/139
f 284/134 286/138 285/139
f 285/139 286/138 287/141
f 286/138 288/140 287/141
f 287/141 288/140 283/143
f 288/140 282/142 283/143
f 291/145 290/146 289/147
f 290/146 292/144 289/147
f 289/147 292/144 293/149
f 292/144 294/148 293/149
f 293/149 294/148 295/151
f 294/148 296/150 295/151
f 295/151 296/150 291/153
f 296/150 290/152 291/153
f 299/155 298/156 297/157
f 298/156 300/154 297/157
f 297/157 300/154 301/159
f 300/154 302/158 301/159
f 301/159 302/161 303/162
f 302/161 304/160 303/162
f 303/162 304/160 299/164
f 304/160 298/163 299/164
f 307/166 306/167 305/168
f 306/167 308/165 305/168
f 305/168 308/165 309/170
f 308/165 310/169 309/170
f 309/170 310/169 311/172
f 310/169 312/171 311/172
f 311/172 312/171 307/174
f 312/171 306/173 307/174
usemtl mat1.png
f 315/187 314/186 313/185
f 314/186 316/188 313/185
f 313/185 316/188 317/187
f 316/188 318/186 317/187
f 321/191 320/190 319/189
f 320/190 322/192 319/189
f 319/189 322/192 323/193
f 322/192 324/194 323/193
f 327/197 326/196 325/195
f 326/196 328/198 325/195
f 325/195 328/198 329/199
f 328/198 330/200 329/199
f 333/203 332/202 331/201
f 332/202 334/204 331/201
f 331/201 334/204 335/205
f 334/204 336/206 335/205
f 335/209 336/208 337/207
f 336/208 338/210 337/207
f 337/207 338/210 333/211
f 338/210 332/212 333/211
f 340/214 332/212 339/213
f 332/212 338/210 339/213
f 339/213 338/210 341/215
f 338/210 336/208 341/215
f 332/202 340/216 334/204
f 340/216 342/217 334/204
f 334/204 342/217 336/206
f 342/217 341/218 336/206
f 345/221 344/220 343/219
f 344/220 346/222 343/219
f 343/219 346/222 347/223
f 346/222 348/224 347/223
f 346/227 344/226 349/225
f 344/226 350/228 349/225
f 349/225 350/228 351/227
f 350/228 352/226 351/227
f 352/228 345/226 351/225
f 345/226 343/227 351/225
f 351/225 343/227 353/229
f 343/227 347/230 353/229
f 348/230 346/227 354/229
f 346/227 349/225 354/229
f 354/229 349/225 353/230
f 349/225 351/227 353/230
f 356/190 321/191 355/192
f 321/191 319/189 355/192
f 355/192 319/189 357/194
f 319/189 323/193 357/194
f 360/196 359/197 358/198
f 359/197 361/195 358/198
f 358/198 361/195 362/200
f 361/195 363/199 362/200
f 366/202 365/203 364/204
f 365/203 367/201 364/204
f 364/204 367/201 368/206
f 367/201 369/205 368/206
f 368/208 369/209 370/210
f 369/209 371/207 370/210
f 370/210 371/207 366/212
f 371/207 365/211 366/212
f 366/212 372/214 370/210
f 372/214 373/213 370/210
f 370/210 373/213 368/208
f 373/213 374/215 368/208
f 372/216 366/202 375/217
f 366/202 364/204 375/217
f 375/217 364/204 374/218
f 364/204 368/206 374/218
f 378/220 377/221 376/222
f 377/221 379/219 376/222
f 376/222 379/219 380/224
f 379/219 381/223 380/224
f 378/226 376/227 382/228
f 376/227 383/225 382/228
f 382/228 383/225 384/226
f 383/225 385/227 384/226
f 377/226 384/228 379/227
f 384/228 385/225 379/227
f 379/227 385/225 381/230
f 385/225 386/229 381/230
f 376/227 380/230 383/225
f 380/230 387/229 383/225
f 383/225 387/229 385/227
f 387/229 386/230 385/227
f 389/233 313/232 388/231
f 313/232 390/233 388/231
f 388/231 390/233 391/234
f 393/236 388/231 392/235
f 388/231 394/236 392/235
f 389/233 388/231 395/234
f 388/231 393/236 395/234
f 398/239 397/238 396/237
f 397/238 399/240 396/237
f 315/243 401/242 400/241
f 401/242 402/244 400/241
f 314/247 403/246 316/245
f 403/246 404/248 316/245
f 316/245 404/248 405/246
f 396/251 399/250 406/249
f 399/250 407/252 406/249
f 406/249 407/252 408/250
f 408/240 397/238 409/237
f 397/238 398/239 409/237
f 317/243 411/241 410/242
f 411/241 412/244 410/242
f 414/256 322/255 320/254 413/253
f 416/258 401/242 315/243 415/257
f 354/262 353/261 347/260 348/259
f 324/263 322/255 315/243 400/241
f 356/254 355/255 418/256 417/253
f 317/243 410/242 420/258 419/257
f 381/260 386/261 387/262 380/259
f 317/243 355/255 357/263 411/241
f 414/256 315/243 322/255
f 421/264 326/196 327/197
f 315/187 414/265 314/186
f 394/236 388/231 391/234
f 418/256 355/255 317/243
f 318/247 316/245 405/246
f 422/264 359/197 360/196
f 408/250 409/251 406/249
f 317/187 318/186 418/265
usemtl mat5.png
f 425/268 424/267 423/266
f 424/267 426/269 423/266
f 423/266 426/269 427/268
f 426/269 428/267 427/268
f 430/271 425/268 429/270
f 425/268 431/272 429/270
f 429/270 431/272 432/271
f 431/272 427/268 432/271
f 435/275 434/274 433/273
f 434/274 436/276 433/273
f 433/273 436/276 437/277
f 436/276 438/278 437/277
f 441/281 440/280 439/279
f 440/280 442/282 439/279
f 439/279 442/282 443/283
f 442/282 444/284 443/283
f 447/287 446/286 445/285
f 446/286 448/288 445/285
f 445/285 448/288 449/289
f 448/288 450/290 449/289
f 449/289 450/290 451/291
f 450/290 452/292 451/291
f 455/295 454/294 453/293
f 454/294 456/296 453/293
f 453/293 456/296 457/297
f 456/296 458/298 457/297
f 460/301 455/300 459/299
f 455/300 453/302 459/299
f 459/299 453/302 461/303
f 453/302 457/304 461/303
f 463/294 460/295 462/296
f 460/295 459/293 462/296
f 462/296 459/293 464/298
f 459/293 461/297 464/298
f 454/294 463/305 456/296
f 463/305 462/306 456/296
f 456/296 462/306 458/298
f 462/306 464/307 458/298
f 467/310 466/309 465/308
f 466/309 468/311 465/308
f 465/308 468/311 469/310
f 468/311 470/309 469/310
f 469/310 470/309 471/312
f 470/309 472/313 471/312
f 470/309 473/314 472/313
f 473/314 474/315 472/313
f 472/313 474/315 475/316
f 474/315 476/317 475/316
f 475/316 476/317 477/313
f 476/317 478/315 477/313
f 477/313 478/315 466/309
f 478/315 479/314 466/309
f 482/292 481/291 480/290
f 481/291 483/289 480/290
f 480/290 483/289 447/288
f 483/289 446/285 447/288
f 481/319 452/292 483/318
f 452/292 450/290 483/318
f 483/318 450/290 446/320
f 450/290 448/288 446/320
f 451/291 482/321 449/289
f 482/321 480/322 449/289
f 449/289 480/322 445/285
f 480/322 447/323 445/285
f 486/326 485/325 484/324
f 485/325 487/327 484/324
f 484/324 487/327 488/328
f 487/327 489/329 488/328
f 492/332 491/331 490/330
f 491/331 493/333 490/330
f 490/330 493/333 494/334
f 493/333 495/335 494/334
f 498/274 497/275 496/276
f 497/275 499/273 496/276
f 496/276 499/273 500/278
f 499/273 501/277 500/278
f 504/280 503/281 502/282
f 503/281 505/279 502/282
f 502/282 505/279 506/284
f 505/279 507/283 506/284
f 510/286 509/287 508/288
f 509/287 511/285 508/288
f 508/288 511/285 512/290
f 511/285 513/289 512/290
f 512/290 513/289 514/292
f 513/289 515/291 514/292
f 518/294 517/295 516/296
f 517/295 519/293 516/296
f 516/296 519/293 520/298
f 519/293 521/297 520/298
f 517/300 522/301 519/302
f 522/301 523/299 519/302
f 519/302 523/299 521/304
f 523/299 524/303 521/304
f 522/295 525/294 523/293
f 525/294 526/296 523/293
f 523/293 526/296 524/297
f 526/296 527/298 524/297
f 525/305 518/294 526/306
f 518/294 516/296 526/306
f 526/306 516/296 527/307
f 516/296 520/298 527/307
f 530/309 529/310 528/311
f 529/310 531/308 528/311
f 528/311 531/308 532/309
f 531/308 533/310 532/309
f 532/309 533/310 534/313
f 533/310 535/312 534/313
f 537/314 532/309 536/315
f 532/309 534/313 536/315
f 536/315 534/313 538/317
f 534/313 539/316 538/317
f 538/317 539/316 540/315
f 539/316 541/313 540/315
f 540/315 541/313 542/314
f 541/313 530/309 542/314
f 545/291 544/292 543/289
f 544/292 546/290 543/289
f 543/289 546/290 510/285
f 546/290 509/288 510/285
f 514/292 545/319 512/290
f 545/319 543/318 512/290
f 512/290 543/318 508/288
f 543/318 510/320 508/288
f 544/321 515/291 546/322
f 515/291 513/289 546/322
f 546/322 513/289 509/323
f 513/289 511/285 509/323
f 549/325 548/326 547/327
f 548/326 550/324 547/327
f 547/327 550/324 551/329
f 550/324 552/328 551/329
f 555/331 554/332 553/333
f 554/332 556/330 553/333
f 553/333 556/330 557/335
f 556/330 558/334 557/335
f 440/338 435/337 442/336
f 435/337 433/339 442/336
f 441/338 439/336 434/337
f 439/336 436/339 434/337
f 475/316 559/340 472/313
f 559/340 471/312 472/313
f 473/341 468/311 479/314
f 468/311 466/309 479/314
f 425/268 423/266 560/342
f 423/266 427/268 560/342
f 560/342 427/268 431/272
f 561/312 559/340 477/313
f 559/340 475/316 477/313
f 564/345 563/344 562/343
f 563/344 565/346 562/343
f 489/349 566/348 488/347
f 566/348 567/350 488/347
f 488/347 567/350 564/345
f 485/353 486/352 568/351
f 486/352 569/354 568/351
f 488/347 564/345 484/355
f 564/345 562/343 484/355
f 484/355 562/343 570/356
f 562/343 565/346 570/356
f 569/354 486/352 571/357
f 486/352 572/358 571/357
f 570/356 572/358 484/355
f 572/358 486/352 484/355
f 504/338 502/336 497/337
f 502/336 499/339 497/337
f 503/338 498/337 505/336
f 498/337 496/339 505/336
f 537/341 542/314 528/311
f 542/314 530/309 528/311
f 574/312 541/313 573/340
f 541/313 539/316 573/340
f 573/340 539/316 534/313
f 577/345 576/343 575/344
f 576/343 578/346 575/344
f 580/357 579/358 548/352
f 579/358 550/355 548/352
f 551/349 552/347 581/348
f 552/347 582/350 581/348
f 582/350 552/347 577/345
f 552/347 550/355 577/345
f 577/345 550/355 576/343
f 550/355 583/356 576/343
f 576/343 583/356 578/346
f 549/353 584/351 548/352
f 584/351 585/354 548/352
f 548/352 585/354 580/357
f 438/362 443/361 444/360 437/359
f 440/366 441/365 434/364 435/363
f 589/370 588/369 587/368 586/367
f 482/374 587/373 588/372 481/371
f 451/378 452/377 589/376 586/375
f 451/382 586/381 587/380 482/379
f 452/382 481/379 588/380 589/381
f 467/310 561/312 477/313 466/309
f 433/339 437/384 444/383 442/336
f 439/336 443/383 438/384 436/339
f 591/386 590/385 568/351 569/354
f 593/388 567/350 566/348 592/387
f 595/390 594/389 564/345 567/350
f 494/394 596/393 492/392 490/391
f 596/398 494/397 495/396 487/395
f 492/402 596/401 487/400 491/399
f 598/404 571/357 572/358 597/403
f 506/360 507/361 500/362 501/359
f 498/364 503/365 504/366 497/363
f 602/368 601/369 600/370 599/367
f 601/372 602/373 544/374 545/371
f 600/376 514/377 515/378 599/375
f 602/380 599/381 515/382 544/379
f 601/380 545/379 514/382 600/381
f 541/313 574/312 529/310 530/309
f 506/383 501/384 499/339 502/336
f 500/384 507/383 505/336 496/339
f 584/351 604/385 603/386 585/354
f 581/348 582/350 606/388 605/387
f 577/345 608/389 607/390 582/350
f 554/392 609/393 558/394 556/391
f 557/396 558/397 609/398 547/395
f 547/400 609/401 554/402 555/399
f 579/358 580/357 611/404 610/403
f 424/267 425/268 430/271
f 473/314 470/309 468/311
f 425/268 560/342 431/272
f 428/267 432/271 427/268
f 537/314 528/311 532/309
f 573/340 534/313 535/312
f 550/355 579/358 583/356
usemtl mat4.png
f 615/408 614/407 613/406 612/405
f 613/406 617/406 616/405 612/405
f 615/408 616/408 617/407 614/407
usemtl mat9.png
f 620/411 619/410 618/409
f 619/410 621/412 618/409
f 618/409 621/412 622/413
f 621/412 623/414 622/413
f 622/413 623/414 624/415
f 623/414 625/416 624/415
f 624/415 625/416 626/413
f 625/416 627/414 626/413
f 626/413 627/414 628/409
f 627/414 629/412 628/409
f 628/409 629/412 630/411
f 629/412 631/410 630/411
f 633/419 620/418 632/417
f 620/418 618/420 632/417
f 632/417 618/420 634/421
f 618/420 622/422 634/421
f 634/421 622/422 635/423
f 622/422 624/424 635/423
f 635/423 624/424 636/421
f 624/424 626/422 636/421
f 636/421 626/422 637/417
f 626/422 628/420 637/417
f 637/417 628/420 638/419
f 628/420 630/418 638/419
f 619/418 639/419 621/420
f 639/419 640/417 621/420
f 621/420 640/417 623/422
f 640/417 641/421 623/422
f 623/422 641/421 625/424
f 641/421 642/423 625/424
f 625/424 642/423 627/422
f 642/423 643/421 627/422
f 627/422 643/421 629/420
f 643/421 644/417 629/420
f 629/420 644/417 631/418
f 644/417 645/419 631/418
f 648/410 647/411 646/412
f 647/411 649/409 646/412
f 646/412 649/409 650/414
f 649/409 651/413 650/414
f 650/414 651/413 652/416
f 651/413 653/415 652/416
f 652/416 653/415 654/414
f 653/415 655/413 654/414
f 654/414 655/413 656/412
f 655/413 657/409 656/412
f 656/412 657/409 658/410
f 657/409 659/411 658/410
f 647/418 660/419 649/420
f 660/419 661/417 649/420
f 649/420 661/417 651/422
f 661/417 662/421 651/422
f 651/422 662/421 653/424
f 662/421 663/423 653/424
f 653/424 663/423 655/422
f 663/423 664/421 655/422
f 655/422 664/421 657/420
f 664/421 665/417 657/420
f 657/420 665/417 659/418
f 665/417 666/419 659/418
f 668/419 648/418 667/417
f 648/418 646/420 667/417
f 667/417 646/420 669/421
f 646/420 650/422 669/421
f 669/421 650/422 670/423
f 650/422 652/424 670/423
f 670/423 652/424 671/421
f 652/424 654/422 671/421
f 671/421 654/422 672/417
f 654/422 656/420 672/417
f 672/417 656/420 673/419
f 656/420 658/418 673/419
f 637/417 644/417 643/421 636/421
f 638/419 645/419 644/417 637/417
f 630/427 631/426 645/425 638/419
f 636/421 643/421 642/423 635/423
f 635/423 642/423 641/421 634/421
f 634/421 641/421 640/417 632/417
f 632/417 640/417 639/419 633/419
f 633/419 639/419 619/418 620/418
f 671/421 672/417 665/417 664/421
f 672/417 673/419 666/419 665/417
f 673/425 658/430 659/429 666/428
f 670/423 671/421 664/421 663/423
f 669/421 670/423 663/423 662/421
f 667/417 669/421 662/421 661/417
f 668/419 667/417 661/417 660/419
f 648/418 668/419 660/419 647/418
f 676/433 675/432 674/431
f 675/432 677/434 674/431
f 674/431 677/434 678/435
f 677/434 679/436 678/435
f 678/435 679/436 680/437
f 679/436 681/438 680/437
f 680/437 681/438 682/439
f 681/438 683/440 682/439
f 682/439 683/440 684/441
f 683/440 685/442 684/441
f 687/445 676/444 686/443
f 676/444 674/446 686/443
f 686/443 674/446 688/447
f 674/446 678/448 688/447
f 688/447 678/448 689/449
f 678/448 680/450 689/449
f 689/449 680/450 690/451
f 680/450 682/452 690/451
f 690/451 682/452 691/453
f 682/452 684/454 691/453
f 675/457 687/456 677/455
f 687/456 686/458 677/455
f 677/455 686/458 679/459
f 686/458 688/460 679/459
f 679/459 688/460 681/461
f 688/460 689/462 681/461
f 681/461 689/462 683/463
f 689/462 690/464 683/463
f 683/463 690/464 685/465
f 690/464 691/466 685/465
f 694/432 693/433 692/434
f 693/433 695/431 692/434
f 692/434 695/431 696/436
f 695/431 697/435 696/436
f 696/436 697/435 698/438
f 697/435 699/437 698/438
f 698/438 699/437 700/440
f 699/437 701/439 700/440
f 700/440 701/439 702/442
f 701/439 703/441 702/442
f 693/444 704/445 695/446
f 704/445 705/443 695/446
f 695/446 705/443 697/448
f 705/443 706/447 697/448
f 697/448 706/447 699/450
f 706/447 707/449 699/450
f 699/450 707/449 701/452
f 707/449 708/451 701/452
f 701/452 708/451 703/454
f 708/451 709/453 703/454
f 704/456 694/457 705/458
f 694/457 692/455 705/458
f 705/458 692/455 706/460
f 692/455 696/459 706/460
f 706/460 696/459 707/462
f 696/459 698/461 707/462
f 707/462 698/461 708/464
f 698/461 700/463 708/464
f 708/464 700/463 709/466
f 700/463 702/465 709/466
f 675/469 676/468 687/467
f 691/467 684/468 685/469
f 694/469 704/467 693/468
f 709/467 702/469 703/468
usemtl mat4.png
f 713/473 712/472 711/471 710/470
f 711/471 715/471 714/470 710/470
f 713/473 714/473 715/472 712/472
usemtl mat9.png
f 718/476 717/475 716/474
f 717/475 719/477 716/474
f 716/474 719/477 720/478
f 719/477 721/479 720/478
f 720/478 721/479 722/480
f 721/479 723/481 722/480
f 722/480 723/481 724/478
f 723/481 725/479 724/478
f 724/478 725/479 726/474
f 725/479 727/477 726/474
f 726/474 727/477 728/476
f 727/477 729/475 728/476
f 731/484 718/483 730/482
f 718/483 716/485 730/482
f 730/482 716/485 732/486
f 716/485 720/487 732/486
f 732/486 720/487 733/488
f 720/487 722/489 733/488
f 733/488 722/489 734/486
f 722/489 724/487 734/486
f 734/486 724/487 735/482
f 724/487 726/485 735/482
f 735/482 726/485 736/484
f 726/485 728/483 736/484
f 717/483 737/484 719/485
f 737/484 738/482 719/485
f 719/485 738/482 721/487
f 738/482 739/486 721/487
f 721/487 739/486 723/489
f 739/486 740/488 723/489
f 723/489 740/488 725/487
f 740/488 741/486 725/487
f 725/487 741/486 727/485
f 741/486 742/482 727/485
f 727/485 742/482 729/483
f 742/482 743/484 729/483
f 746/475 745/476 744/477
f 745/476 747/474 744/477
f 744/477 747/474 748/479
f 747/474 749/478 748/479
f 748/479 749/478 750/481
f 749/478 751/480 750/481
f 750/481 751/480 752/479
f 751/480 753/478 752/479
f 752/479 753/478 754/477
f 753/478 755/474 754/477
f 754/477 755/474 756/475
f 755/474 757/476 756/475
f 745/483 758/484 747/485
f 758/484 759/482 747/485
f 747/485 759/482 749/487
f 759/482 760/486 749/487
f 749/487 760/486 751/489
f 760/486 761/488 751/489
f 751/489 761/488 753/487
f 761/488 762/486 753/487
f 753/487 762/486 755/485
f 762/486 763/482 755/485
f 755/485 763/482 757/483
f 763/482 764/484 757/483
f 766/484 746/483 765/482
f 746/483 744/485 765/482
f 765/482 744/485 767/486
f 744/485 748/487 767/486
f 767/486 748/487 768/488
f 748/487 750/489 768/488
f 768/488 750/489 769/486
f 750/489 752/487 769/486
f 769/486 752/487 770/482
f 752/487 754/485 770/482
f 770/482 754/485 771/484
f 754/485 756/483 771/484
f 735/482 742/482 741/486 734/486
f 736/484 743/484 742/482 735/482
f 728/492 729/491 743/490 736/484
f 734/486 741/486 740/488 733/488
f 733/488 740/488 739/486 732/486
f 732/486 739/486 738/482 730/482
f 730/482 738/482 737/484 731/484
f 731/484 737/484 717/483 718/483
f 769/486 770/482 763/482 762/486
f 770/482 771/484 764/484 763/482
f 771/490 756/495 757/494 764/493
f 768/488 769/486 762/486 761/488
f 767/486 768/488 761/488 760/486
f 765/482 767/486 760/486 759/482
f 766/484 765/482 759/482 758/484
f 746/483 766/484 758/484 745/483
# 869 elements

